<?xml version="1.0" encoding="utf-8"?>
<!-- Generator: Adobe Illustrator 23.0.0, SVG Export Plug-In . SVG Version: 6.00 Build 0)  -->
<svg version="1.1" id="图层_1" xmlns="http://www.w3.org/2000/svg" xmlns:xlink="http://www.w3.org/1999/xlink" x="0px" y="0px"
	 viewBox="0 0 369 78" style="enable-background:new 0 0 369 78;" xml:space="preserve">
<style type="text/css">
	.st0{fill:none;stroke:url(#SVGID_1_);stroke-width:3;stroke-miterlimit:100;}
	.st1{fill:#2474CD;}
	.st2{fill:none;stroke:#37D8FF;stroke-width:3;stroke-linecap:round;stroke-miterlimit:100;}
	.st3{enable-background:new    ;}
	.st4{fill:#F4A027;}
</style>
<g id="_x3C_直线_x3E_">
	<g>
		
			<linearGradient id="SVGID_1_" gradientUnits="userSpaceOnUse" x1="116.17" y1="682" x2="292.53" y2="682" gradientTransform="matrix(1 0 0 1 0 -640)">
			<stop  offset="0" style="stop-color:#FFFFFF;stop-opacity:0"/>
			<stop  offset="1" style="stop-color:#2474CD"/>
		</linearGradient>
		<line class="st0" x1="116.2" y1="42" x2="292.5" y2="42"/>
	</g>
</g>
<g id="椭圆_691_2_">
	<g id="椭圆_691">
		<g>
			<path class="st1" d="M330,3.5c19.9,0,36,16.1,36,36s-16.1,36-36,36s-36-16.1-36-36S310.1,3.5,330,3.5 M330,0.5
				c-21.5,0-39,17.5-39,39s17.5,39,39,39s39-17.5,39-39S351.5,0.5,330,0.5L330,0.5z"/>
		</g>
	</g>
</g>
<g id="图层_9">
	<path class="st2" d="M292.5,39c0-20.7,16.8-37.5,37.5-37.5s37.5,16.8,37.5,37.5S350.7,76.5,330,76.5"/>
</g>
<g id="矩形_1_1_" class="st3">
	<g id="矩形_1">
		<g>
			<path class="st4" d="M334.1,25.9l9.2,8c0,8.1,0,19.4,0,19.4h-25.9V25.9C317.4,25.9,326.6,25.9,334.1,25.9 M334.6,24.4h-0.6h-16.7
				h-1.6v1.6v27.4v1.6h1.6h25.9h1.6v-1.6V33.9v-0.7l-0.5-0.5l-9.2-8L334.6,24.4L334.6,24.4z"/>
		</g>
	</g>
</g>
<g id="矩形_2_1_" class="st3">
	<g id="矩形_2">
		<g>
			<path class="st4" d="M333.8,25.9V33h-10.2v-7.1H333.8 M334.6,25.1h-11.8v8.6h11.8V25.1L334.6,25.1z"/>
		</g>
	</g>
</g>
<g id="矩形_3_1_" class="st3">
	<g id="矩形_3">
		<g>
			<path class="st4" d="M337,44.7v8.6h-12.5v-8.6H337 M337.8,43.9h-14.1v10.2h14.1V43.9L337.8,43.9z"/>
		</g>
	</g>
</g>
<g id="形状_691_5_" class="st3">
	<g id="形状_691">
		<g>
			
				<rect x="338.9" y="22.4" transform="matrix(0.7071 -0.7071 0.7071 0.7071 78.8373 248.4551)" class="st4" width="0.8" height="13.3"/>
		</g>
		<g>
			<polygon class="st4" points="334.9,24.1 334.4,24.6 343.8,34 344.3,33.5 			"/>
		</g>
	</g>
</g>
<g id="形状_691_4_" class="st3">
	<g id="形状_691_1_">
		<g>
			
				<rect x="338.2" y="22.4" transform="matrix(0.7071 -0.7071 0.7071 0.7071 78.6077 247.9008)" class="st4" width="0.8" height="13.3"/>
		</g>
		<g>
			<polygon class="st4" points="334.1,24.1 333.6,24.6 343,34 343.5,33.5 			"/>
		</g>
	</g>
</g>
<g id="形状_691_3_" class="st3">
	<g id="形状_691_2_">
		<g>
			
				<rect x="338.9" y="22.4" transform="matrix(0.7071 -0.7071 0.7071 0.7071 78.8373 248.4551)" class="st4" width="0.8" height="13.3"/>
		</g>
		<g>
			<polygon class="st4" points="334.9,24.1 334.4,24.6 343.8,34 344.3,33.5 			"/>
		</g>
	</g>
</g>
<g id="形状_692_1_" class="st3">
	<g id="形状_692">
		<g>
			<rect x="324.4" y="28.3" class="st4" width="1.6" height="2.4"/>
		</g>
	</g>
</g>
</svg>
