<?xml version="1.0" encoding="utf-8"?>
<!-- Generator: Adobe Illustrator 23.0.0, SVG Export Plug-In . SVG Version: 6.00 Build 0)  -->
<svg version="1.1" id="图层_1" xmlns="http://www.w3.org/2000/svg" xmlns:xlink="http://www.w3.org/1999/xlink" x="0px" y="0px"
	 viewBox="0 0 369 78" style="enable-background:new 0 0 369 78;" xml:space="preserve">
<style type="text/css">
	.st0{fill:none;stroke:url(#SVGID_1_);stroke-width:3;stroke-miterlimit:100;}
	.st1{fill:#2474CD;}
	.st2{fill:none;stroke:#37D8FF;stroke-width:3;stroke-linecap:round;stroke-miterlimit:100;}
	.st3{fill:#F4A027;}
</style>
<g id="_x3C_直线_x3E_">
	<g>
		
			<linearGradient id="SVGID_1_" gradientUnits="userSpaceOnUse" x1="116.17" y1="682" x2="292.53" y2="682" gradientTransform="matrix(1 0 0 1 0 -640)">
			<stop  offset="0" style="stop-color:#FFFFFF;stop-opacity:0"/>
			<stop  offset="1" style="stop-color:#2474CD"/>
		</linearGradient>
		<line class="st0" x1="116.2" y1="42" x2="292.5" y2="42"/>
	</g>
</g>
<g id="椭圆_691_2_">
	<g id="椭圆_691">
		<g>
			<path class="st1" d="M330,3.5c19.9,0,36,16.1,36,36s-16.1,36-36,36s-36-16.1-36-36S310.1,3.5,330,3.5 M330,0.5
				c-21.5,0-39,17.5-39,39s17.5,39,39,39s39-17.5,39-39S351.5,0.5,330,0.5L330,0.5z"/>
		</g>
	</g>
</g>
<g id="图层_9">
	<path class="st2" d="M292.5,39c0-20.7,16.8-37.5,37.5-37.5s37.5,16.8,37.5,37.5S350.7,76.5,330,76.5"/>
</g>
<g id="圆角矩形_2">
	<g>
		<path class="st3" d="M333.2,29.5c0.1,0,0.2,0,0.3,0c0,0.1,0,0.4,0,0.5l-0.5,2.4h2.5l0.3,0l0.5,0c1.7,0,2.6,0.1,3.2,0.2v0.7
			c-0.1,0-0.2,0.1-0.4,0.1h-18.2c-0.2,0-0.4-0.1-0.4-0.1v-3.8c0.1,0,0.2-0.1,0.4-0.1c0.4,0,3.3,0.1,6.6,0.1
			C329.6,29.6,331.5,29.6,333.2,29.5L333.2,29.5 M333.2,27.5c-0.1,0-0.1,0-0.2,0c-1.8,0.1-3.7,0.1-5.5,0.1c-3.6,0-6.6-0.1-6.6-0.1
			c-1.3,0-2.4,0.9-2.4,2v4c0,1.1,1.1,2,2.4,2h18.2c1.3,0,2.4-0.9,2.4-2v-2c0-0.9-3.3-1-5.2-1c-0.4,0-0.6,0-0.9,0
			C335.4,30.5,336.1,27.5,333.2,27.5L333.2,27.5z"/>
	</g>
</g>
<g id="圆角矩形_1">
	<g>
		<path class="st3" d="M339.5,35.5v13c0,1.1-0.9,2-2,2h-15c-1.1,0-2-0.9-2-2v-13H339.5 M341.5,33.5h-2h-19h-2v2v13c0,2.2,1.8,4,4,4
			h15c2.2,0,4-1.8,4-4v-13V33.5L341.5,33.5z"/>
	</g>
</g>
</svg>
