<?xml version="1.0" encoding="utf-8"?>
<!-- Generator: Adobe Illustrator 23.0.0, SVG Export Plug-In . SVG Version: 6.00 Build 0)  -->
<svg version="1.1" xmlns="http://www.w3.org/2000/svg" xmlns:xlink="http://www.w3.org/1999/xlink" x="0px" y="0px"
	 viewBox="0 0 1012 1064" style="enable-background:new 0 0 1012 1064;" xml:space="preserve">
<style type="text/css">
	.st0{opacity:0.502;enable-background:new    ;}
	.st1{fill:#415464;}
	.st2{fill:#2F3F48;}
	.st3{fill:#A0A0A0;}
	.st4{enable-background:new    ;}
	.st5{fill:#1ACAAD;}
	.st6{fill:#33434C;}
	.st7{opacity:0.302;enable-background:new    ;}
</style>
<g id="椭圆_1_1_" class="st0">
	<g id="椭圆_1">
		<g>
			<path class="st1" d="M487,289c-0.02,0-0.04,0-0.06,0c-0.87,0-1.57,0.71-1.57,1.58c0,0.87,0.71,1.57,1.58,1.57c0,0,0,0,0,0H487
				c0.33,0,0.64-0.1,0.89-0.28c0.25,0.18,0.56,0.28,0.89,0.29l0.05,0c0,0,0.01,0,0.01,0c0.86,0,1.57-0.7,1.57-1.56
				c0.01-0.87-0.69-1.58-1.56-1.59c-0.01,0-0.01,0-0.02,0c-0.01,0-0.03,0-0.04,0c0,0-0.01,0-0.01,0c-0.33,0-0.64,0.1-0.89,0.28
				C487.65,289.11,487.34,289,487,289C487,289,487,289,487,289L487,289z M471.33,289.58c-0.04,0-0.08,0-0.12,0
				c-0.01,0-0.02,0-0.03,0c-0.01,0-0.03,0-0.04,0c-0.86,0.07-1.5,0.82-1.44,1.69c0.06,0.83,0.75,1.46,1.57,1.46
				c0.04,0,0.08,0,0.12,0l0.05,0c0.87-0.06,1.52-0.82,1.45-1.69C472.83,290.21,472.14,289.58,471.33,289.58L471.33,289.58z
				 M455.74,291.34c-0.08,0-0.16,0.01-0.24,0.02c0,0-0.01,0-0.01,0c-0.02,0-0.04,0.01-0.06,0.01c-0.85,0.14-1.44,0.94-1.31,1.79
				c0.12,0.78,0.79,1.34,1.56,1.34c0.08,0,0.16-0.01,0.24-0.02l0.05-0.01c0.86-0.13,1.45-0.93,1.32-1.79
				C457.18,291.9,456.51,291.34,455.74,291.34L455.74,291.34z M440.34,294.26c-0.12,0-0.23,0.01-0.35,0.04l0,0
				c-0.01,0-0.02,0.01-0.03,0.01c-0.01,0-0.02,0-0.03,0.01c-0.84,0.2-1.36,1.04-1.17,1.88c0.17,0.73,0.82,1.22,1.53,1.22
				c0.12,0,0.24-0.01,0.35-0.04l0.05-0.01c0.85-0.19,1.38-1.04,1.18-1.89C441.7,294.76,441.05,294.26,440.34,294.26L440.34,294.26z
				 M425.2,298.35c-0.15,0-0.31,0.02-0.46,0.07c-0.03,0.01-0.04,0.01-0.06,0.02c-0.83,0.26-1.29,1.14-1.03,1.97
				c0.21,0.67,0.83,1.11,1.5,1.11c0.16,0,0.31-0.02,0.47-0.07l0.05-0.02c0.83-0.26,1.29-1.14,1.04-1.97
				C426.49,298.79,425.87,298.35,425.2,298.35L425.2,298.35z M410.41,303.58c-0.19,0-0.38,0.03-0.57,0.11
				c-0.02,0.01-0.03,0.01-0.05,0.02c-0.01,0-0.01,0-0.02,0.01c-0.81,0.32-1.2,1.24-0.88,2.05c0.25,0.62,0.84,0.99,1.46,0.99
				c0.19,0,0.39-0.04,0.58-0.11l0.05-0.02c0.81-0.32,1.2-1.24,0.88-2.05C411.63,303.96,411.04,303.58,410.41,303.58L410.41,303.58z
				 M396.07,309.92c-0.23,0-0.46,0.05-0.68,0.15c-0.03,0.01-0.04,0.02-0.07,0.04c-0.77,0.38-1.09,1.32-0.71,2.1
				c0.27,0.56,0.83,0.88,1.42,0.88c0.23,0,0.47-0.05,0.69-0.16l0.05-0.02c0.78-0.38,1.11-1.32,0.72-2.11
				C397.21,310.24,396.65,309.92,396.07,309.92L396.07,309.92z M382.24,317.32c-0.27,0-0.54,0.07-0.78,0.21
				c-0.02,0.01-0.04,0.02-0.06,0.04c-0.75,0.44-1,1.4-0.56,2.15c0.29,0.5,0.82,0.78,1.36,0.78c0.27,0,0.54-0.07,0.79-0.22l0.05-0.03
				c0.75-0.44,1-1.4,0.56-2.16C383.31,317.6,382.78,317.32,382.24,317.32L382.24,317.32z M369.02,325.76
				c-0.31,0-0.62,0.09-0.89,0.28c0,0,0,0-0.01,0c-0.01,0.01-0.01,0.01-0.02,0.02c-0.01,0-0.01,0.01-0.02,0.01
				c-0.72,0.49-0.89,1.48-0.4,2.19c0.31,0.44,0.8,0.68,1.3,0.68c0.31,0,0.62-0.09,0.89-0.28l0.04-0.03c0.72-0.5,0.89-1.48,0.4-2.19
				C370.01,325.99,369.52,325.76,369.02,325.76L369.02,325.76z M356.47,335.16c-0.35,0-0.7,0.11-0.99,0.35c0,0,0,0-0.01,0.01
				c-0.01,0.01-0.01,0.01-0.02,0.02c0,0-0.01,0.01-0.01,0.01c-0.68,0.55-0.78,1.54-0.23,2.21c0.31,0.38,0.77,0.58,1.23,0.58
				c0.35,0,0.7-0.11,0.99-0.35l0.04-0.03c0.68-0.55,0.78-1.54,0.23-2.22C357.38,335.36,356.93,335.16,356.47,335.16L356.47,335.16z
				 M344.66,345.48c-0.39,0-0.78,0.14-1.08,0.43l0,0c-0.01,0.01-0.02,0.02-0.03,0.03c-0.01,0.01-0.01,0.01-0.02,0.02
				c-0.62,0.6-0.65,1.59-0.05,2.22c0.31,0.33,0.73,0.49,1.15,0.49c0.39,0,0.78-0.14,1.08-0.43l0.04-0.04
				c0.63-0.6,0.66-1.59,0.07-2.23C345.49,345.64,345.08,345.48,344.66,345.48L344.66,345.48z M333.66,356.65
				c-0.43,0-0.85,0.17-1.16,0.51c-0.01,0.01-0.03,0.03-0.03,0.04c0,0,0,0,0,0.01c-0.59,0.64-0.54,1.64,0.1,2.22
				c0.3,0.28,0.68,0.41,1.06,0.41c0.43,0,0.85-0.17,1.16-0.51l0.04-0.04c0.59-0.64,0.54-1.64-0.1-2.23
				C334.42,356.79,334.04,356.65,333.66,356.65L333.66,356.65z M323.53,368.63c-0.47,0-0.93,0.21-1.24,0.6c0,0,0,0,0,0
				c-0.01,0.01-0.01,0.01-0.02,0.02c0,0,0,0-0.01,0.01c0,0.01,0,0.01-0.01,0.01c-0.53,0.68-0.41,1.67,0.27,2.21
				c0.29,0.23,0.63,0.34,0.97,0.34c0.47,0,0.93-0.21,1.24-0.6l0.03-0.04c0.54-0.68,0.42-1.67-0.27-2.21
				C324.21,368.74,323.87,368.63,323.53,368.63L323.53,368.63z M314.32,381.32c-0.51,0-1.01,0.25-1.31,0.7l-0.01,0.01
				c-0.01,0.01-0.02,0.03-0.03,0.04c-0.48,0.72-0.29,1.7,0.43,2.18c0.27,0.18,0.57,0.27,0.87,0.27c0.51,0,1.01-0.25,1.31-0.7
				l0.03-0.05c0.48-0.72,0.29-1.7-0.43-2.18C314.93,381.41,314.63,381.32,314.32,381.32L314.32,381.32z M306.11,394.68
				c-0.54,0-1.07,0.28-1.36,0.79c-0.01,0.02-0.02,0.04-0.03,0.05c0,0,0,0.01,0,0.01c-0.43,0.76-0.16,1.72,0.6,2.15
				c0.24,0.14,0.51,0.2,0.77,0.2c0.55,0,1.08-0.29,1.37-0.8l0.03-0.05c0.43-0.76,0.16-1.72-0.6-2.15
				C306.63,394.75,306.37,394.68,306.11,394.68L306.11,394.68z M298.92,408.62c-0.59,0-1.15,0.33-1.42,0.9
				c-0.01,0.02-0.02,0.05-0.03,0.07c-0.36,0.79-0.02,1.72,0.76,2.08c0.22,0.1,0.44,0.15,0.67,0.15c0.59,0,1.16-0.34,1.43-0.91
				l0.02-0.05c0.37-0.79,0.03-1.73-0.76-2.09C299.37,408.67,299.15,408.62,298.92,408.62L298.92,408.62z M292.82,423.07
				c-0.63,0-1.23,0.38-1.47,1.01c-0.01,0.02-0.02,0.05-0.03,0.07c-0.3,0.81,0.11,1.71,0.92,2.02c0.18,0.07,0.37,0.1,0.56,0.1
				c0.64,0,1.24-0.39,1.47-1.02l0.02-0.05c0.31-0.81-0.1-1.72-0.92-2.03C293.19,423.1,293,423.07,292.82,423.07L292.82,423.07z
				 M287.83,437.93c-0.68,0-1.31,0.45-1.51,1.13c0,0.01,0,0.01-0.01,0.02c0,0.01,0,0.01-0.01,0.02c0,0.01,0,0.01,0,0.02
				c-0.24,0.83,0.23,1.71,1.07,1.95c0.15,0.04,0.3,0.06,0.44,0.06c0.68,0,1.31-0.45,1.51-1.13l0.02-0.05
				c0.24-0.83-0.23-1.71-1.07-1.95C288.13,437.95,287.98,437.93,287.83,437.93L287.83,437.93z M283.99,453.14
				c-0.72,0-1.38,0.5-1.54,1.24c0,0.02,0,0.02-0.01,0.04c0,0.01,0,0.01,0,0.02c-0.18,0.85,0.36,1.69,1.21,1.87
				c0.11,0.02,0.22,0.03,0.33,0.03c0.73,0,1.38-0.51,1.54-1.25l0.01-0.05c0.18-0.85-0.36-1.69-1.21-1.87
				C284.21,453.15,284.1,453.14,283.99,453.14L283.99,453.14z M281.32,468.59c-0.78,0-1.45,0.57-1.56,1.37c0,0,0,0.01,0,0.01
				c0,0.01,0,0.03-0.01,0.04c0,0,0,0,0,0c-0.12,0.86,0.49,1.65,1.35,1.77c0.07,0.01,0.14,0.01,0.21,0.01c0.78,0,1.45-0.57,1.56-1.37
				l0.01-0.05c0.12-0.86-0.49-1.65-1.35-1.77C281.46,468.59,281.39,468.59,281.32,468.59L281.32,468.59z M279.82,484.2
				c-0.83,0-1.52,0.65-1.57,1.48c0,0.02,0,0.04,0,0.05c-0.05,0.87,0.61,1.61,1.48,1.66c0.03,0,0.06,0,0.09,0
				c0.83,0,1.52-0.65,1.57-1.48l0-0.05c0.05-0.87-0.61-1.61-1.48-1.66C279.88,484.2,279.85,484.2,279.82,484.2L279.82,484.2z
				 M279.5,499.89c-0.01,0-0.02,0-0.03,0c-0.87,0.01-1.56,0.73-1.55,1.59c0,0.01,0,0.02,0,0.04c0,0.01,0,0.02,0,0.03
				c0.01,0.86,0.72,1.55,1.57,1.55c0.01,0,0.02,0,0.03,0c0.87-0.01,1.56-0.73,1.55-1.6l0-0.05
				C281.06,500.58,280.35,499.89,279.5,499.89L279.5,499.89z M280.34,515.55c-0.05,0-0.1,0-0.15,0.01c-0.86,0.08-1.5,0.84-1.43,1.7
				c0,0.02,0,0.04,0.01,0.06c0,0,0,0.01,0,0.01c0.07,0.82,0.76,1.43,1.57,1.43c0.05,0,0.1,0,0.15-0.01c0.87-0.08,1.5-0.85,1.42-1.71
				l0-0.05C281.83,516.16,281.14,515.55,280.34,515.55L280.34,515.55z M282.36,531.1c-0.09,0-0.18,0.01-0.26,0.02
				c-0.85,0.14-1.43,0.95-1.29,1.8c0,0.01,0,0.02,0.01,0.04c0,0.01,0,0.02,0,0.03c0.13,0.77,0.8,1.31,1.55,1.31
				c0.09,0,0.18-0.01,0.26-0.02c0.86-0.14,1.44-0.96,1.29-1.81l-0.01-0.05C283.78,531.64,283.11,531.1,282.36,531.1L282.36,531.1z
				 M285.54,546.45c-0.13,0-0.25,0.02-0.38,0.05c-0.84,0.21-1.36,1.06-1.15,1.9c0.01,0.03,0.01,0.05,0.02,0.08
				c0.18,0.71,0.82,1.18,1.52,1.18c0.13,0,0.25-0.02,0.38-0.05c0.84-0.21,1.36-1.06,1.15-1.91l-0.01-0.05
				C286.89,546.93,286.25,546.45,285.54,546.45L285.54,546.45z M289.89,561.52c-0.16,0-0.33,0.03-0.49,0.08
				c-0.82,0.27-1.27,1.16-1.01,1.98c0,0.01,0.01,0.02,0.01,0.03c0,0.01,0.01,0.02,0.01,0.03l0,0c0.22,0.66,0.83,1.08,1.49,1.08
				c0.16,0,0.33-0.03,0.49-0.08c0.83-0.27,1.27-1.16,1-1.99l-0.02-0.05C291.17,561.94,290.55,561.52,289.89,561.52L289.89,561.52z
				 M295.37,576.21c-0.2,0-0.41,0.04-0.61,0.12c-0.8,0.33-1.18,1.26-0.85,2.06c0.01,0.02,0.01,0.03,0.02,0.05
				c0.25,0.6,0.84,0.97,1.45,0.97c0.2,0,0.41-0.04,0.61-0.12c0.8-0.34,1.18-1.26,0.85-2.06l-0.02-0.05
				C296.58,576.58,295.99,576.21,295.37,576.21L295.37,576.21z M301.96,590.44c-0.24,0-0.48,0.06-0.71,0.17
				c-0.77,0.4-1.08,1.34-0.69,2.12c0.01,0.01,0.02,0.04,0.03,0.05c0.28,0.54,0.83,0.86,1.4,0.86c0.24,0,0.49-0.06,0.71-0.17
				c0.77-0.4,1.08-1.34,0.69-2.12l-0.02-0.05C303.09,590.76,302.53,590.44,301.96,590.44L301.96,590.44z M309.6,604.14
				c-0.28,0-0.56,0.07-0.82,0.23c-0.74,0.45-0.98,1.42-0.53,2.16c0,0.01,0,0.01,0.01,0.01c0.01,0.01,0.02,0.03,0.02,0.04
				c0.3,0.49,0.82,0.76,1.35,0.76c0.28,0,0.56-0.07,0.82-0.23c0.74-0.45,0.98-1.42,0.53-2.16l-0.03-0.05
				C310.65,604.4,310.14,604.14,309.6,604.14L309.6,604.14z M318.26,617.21c-0.32,0-0.64,0.1-0.92,0.3
				c-0.7,0.51-0.87,1.48-0.37,2.19c0.01,0.02,0.02,0.03,0.04,0.05c0,0,0,0,0,0c0.31,0.43,0.79,0.66,1.28,0.66
				c0.32,0,0.64-0.1,0.92-0.3c0.71-0.51,0.87-1.49,0.36-2.2l-0.03-0.04C319.24,617.44,318.75,617.21,318.26,617.21L318.26,617.21z
				 M327.88,629.6c-0.36,0-0.72,0.12-1.01,0.37c-0.67,0.56-0.75,1.55-0.19,2.22c0.01,0.01,0.02,0.03,0.04,0.04
				c0.31,0.37,0.76,0.56,1.21,0.56c0.36,0,0.72-0.12,1.01-0.37c0.67-0.56,0.75-1.55,0.19-2.22l-0.03-0.04
				C328.78,629.79,328.33,629.6,327.88,629.6L327.88,629.6z M338.41,641.23c-0.4,0-0.79,0.15-1.1,0.45
				c-0.62,0.61-0.63,1.6-0.03,2.23c0.01,0.01,0.03,0.03,0.04,0.04c0.31,0.32,0.72,0.47,1.13,0.47c0.4,0,0.79-0.15,1.1-0.45
				c0.62-0.61,0.63-1.6,0.03-2.23l-0.04-0.04C339.22,641.39,338.81,641.23,338.41,641.23L338.41,641.23z M349.77,652.03
				c-0.44,0-0.87,0.18-1.18,0.53c-0.58,0.65-0.51,1.65,0.14,2.22c0.01,0.01,0.01,0.01,0.02,0.02c0.01,0.01,0.02,0.02,0.03,0.03
				c0.3,0.26,0.67,0.39,1.03,0.39c0.44,0,0.87-0.18,1.18-0.53c0.58-0.65,0.51-1.65-0.14-2.22l-0.04-0.04
				C350.51,652.16,350.14,652.03,349.77,652.03L349.77,652.03z M361.92,661.96c-0.48,0-0.95,0.22-1.26,0.63
				c-0.52,0.69-0.39,1.67,0.3,2.2c0.02,0.02,0.04,0.03,0.06,0.05c0.28,0.21,0.61,0.31,0.94,0.31c0.48,0,0.95-0.22,1.26-0.63
				c0.52-0.69,0.39-1.68-0.31-2.21l-0.04-0.03C362.58,662.06,362.25,661.96,361.92,661.96L361.92,661.96z M374.78,670.94
				c-0.52,0-1.02,0.26-1.33,0.72c-0.47,0.73-0.26,1.7,0.47,2.17c0.02,0.01,0.03,0.02,0.04,0.03c0,0,0.01,0,0.01,0.01
				c0.26,0.17,0.56,0.25,0.85,0.25c0.52,0,1.02-0.26,1.33-0.72c0.47-0.73,0.26-1.71-0.47-2.18l-0.05-0.03
				C375.36,671.02,375.07,670.94,374.78,670.94L374.78,670.94z M388.27,678.92c-0.56,0-1.1,0.3-1.39,0.83
				c-0.41,0.76-0.13,1.71,0.62,2.13c0.01,0.01,0.02,0.01,0.03,0.02c0.01,0,0.02,0.01,0.03,0.01l0,0c0.24,0.13,0.49,0.19,0.75,0.19
				c0.56,0,1.1-0.3,1.39-0.83c0.41-0.76,0.13-1.72-0.64-2.13l-0.05-0.03C388.78,678.98,388.53,678.92,388.27,678.92L388.27,678.92z
				 M402.33,685.86c-0.6,0-1.18,0.35-1.44,0.93c-0.35,0.79,0,1.72,0.78,2.07c0.02,0.01,0.05,0.02,0.06,0.03
				c0.21,0.09,0.43,0.14,0.64,0.14c0.6,0,1.18-0.35,1.44-0.93c0.35-0.79,0-1.73-0.8-2.08l-0.05-0.02
				C402.77,685.9,402.55,685.86,402.33,685.86L402.33,685.86z M416.88,691.71c-0.65,0-1.25,0.4-1.48,1.04
				c-0.29,0.82,0.13,1.72,0.95,2.01c0.01,0,0.02,0.01,0.02,0.01c0.01,0,0.03,0.01,0.04,0.01c0.17,0.06,0.35,0.09,0.52,0.09
				c0.65,0,1.25-0.4,1.48-1.04c0.29-0.82-0.13-1.72-0.95-2.01l-0.05-0.02C417.24,691.74,417.06,691.71,416.88,691.71L416.88,691.71z
				 M431.83,696.44c-0.69,0-1.33,0.46-1.52,1.16c-0.23,0.84,0.26,1.71,1.1,1.94c0,0,0,0,0.01,0c0.01,0,0.02,0,0.02,0.01
				c0.01,0,0.01,0,0.02,0.01c0.14,0.04,0.28,0.06,0.42,0.06c0.69,0,1.33-0.46,1.52-1.16c0.23-0.84-0.26-1.71-1.1-1.94l-0.05-0.01
				C432.11,696.46,431.97,696.44,431.83,696.44L431.83,696.44z M447.1,700.02c-0.74,0-1.4,0.52-1.54,1.27
				c-0.17,0.85,0.39,1.68,1.25,1.85c0.01,0,0.02,0,0.03,0.01c0.01,0,0.02,0,0.04,0.01c0.1,0.02,0.2,0.03,0.29,0.03
				c0.74,0,1.4-0.52,1.54-1.27c0.17-0.85-0.39-1.68-1.25-1.85l-0.05-0.01C447.3,700.03,447.2,700.02,447.1,700.02L447.1,700.02z
				 M462.6,702.43c-0.79,0-1.47,0.59-1.56,1.39c-0.1,0.86,0.51,1.64,1.37,1.75c0.03,0,0.05,0.01,0.08,0.01
				c0.06,0.01,0.12,0.01,0.17,0.01c0.79,0,1.47-0.59,1.56-1.39c0.1-0.86-0.52-1.65-1.38-1.75l-0.05-0.01
				C462.72,702.43,462.66,702.43,462.6,702.43L462.6,702.43z M478.23,703.67c-0.84,0-1.54,0.66-1.57,1.51
				c-0.04,0.87,0.64,1.6,1.51,1.64c0.02,0,0.04,0,0.05,0c0.02,0,0.04,0,0.07,0c0.84,0,1.54-0.66,1.57-1.51
				c0.04-0.87-0.64-1.6-1.51-1.64l-0.05,0C478.27,703.67,478.25,703.67,478.23,703.67L478.23,703.67z M493.98,703.73
				c-0.02,0-0.04,0-0.05,0l-0.05,0c-0.87,0.03-1.55,0.76-1.52,1.63c0.03,0.85,0.73,1.52,1.57,1.52c0.02,0,0.03,0,0.05,0
				c0.01,0,0.01,0,0.02,0c0.01,0,0.03,0,0.04,0c0.87-0.03,1.55-0.76,1.52-1.63C495.52,704.41,494.82,703.73,493.98,703.73
				L493.98,703.73z M509.62,702.63c-0.06,0-0.11,0-0.17,0.01l-0.05,0.01c-0.86,0.09-1.49,0.87-1.4,1.74
				c0.09,0.81,0.77,1.41,1.56,1.41c0.05,0,0.11,0,0.16-0.01c0.02,0,0.03,0,0.05-0.01c0.01,0,0.01,0,0.02,0
				c0.86-0.09,1.49-0.87,1.4-1.74C511.1,703.23,510.42,702.63,509.62,702.63L509.62,702.63z M525.14,700.36
				c-0.1,0-0.19,0.01-0.29,0.03l-0.05,0.01c-0.86,0.16-1.42,0.98-1.26,1.84c0.14,0.76,0.8,1.29,1.55,1.29
				c0.09,0,0.18-0.01,0.27-0.02c0.01,0,0.02,0,0.03-0.01c0.01,0,0.03-0.01,0.04-0.01c0.86-0.16,1.42-0.98,1.26-1.84
				C526.54,700.89,525.88,700.36,525.14,700.36L525.14,700.36z M540.44,696.91c-0.13,0-0.27,0.02-0.41,0.05l-0.05,0.01
				c-0.84,0.22-1.34,1.09-1.12,1.93c0.19,0.71,0.82,1.17,1.52,1.17c0.13,0,0.26-0.02,0.39-0.05c0.01,0,0.02,0,0.03-0.01
				c0,0,0.01,0,0.01,0c0.01,0,0.02-0.01,0.03-0.01c0.83-0.23,1.33-1.09,1.11-1.92C541.77,697.38,541.13,696.91,540.44,696.91
				L540.44,696.91z M555.43,692.31c-0.17,0-0.35,0.03-0.52,0.09l-0.05,0.02c-0.82,0.29-1.25,1.18-0.97,2.01
				c0.23,0.65,0.84,1.06,1.49,1.06c0.17,0,0.35-0.03,0.52-0.09c0,0,0,0,0.01,0c0.01,0,0.03-0.01,0.04-0.01c0,0,0,0,0,0
				c0.82-0.29,1.25-1.18,0.97-2.01C556.69,692.72,556.08,692.31,555.43,692.31L555.43,692.31z M570.02,686.59
				c-0.21,0-0.42,0.04-0.63,0.13l-0.05,0.02c-0.8,0.35-1.16,1.28-0.81,2.07c0.26,0.59,0.84,0.95,1.44,0.95
				c0.21,0,0.42-0.04,0.63-0.13l0.01,0c0.02-0.01,0.03-0.01,0.05-0.02c0.8-0.35,1.16-1.28,0.81-2.07
				C571.21,686.94,570.63,686.59,570.02,686.59L570.02,686.59z M584.15,679.77c-0.25,0-0.5,0.06-0.74,0.18l-0.05,0.03
				c-0.77,0.41-1.06,1.36-0.65,2.13c0.28,0.53,0.83,0.84,1.39,0.84c0.25,0,0.5-0.06,0.74-0.18c0.01,0,0.01-0.01,0.02-0.01
				c0.01,0,0.02-0.01,0.03-0.01c0.77-0.41,1.06-1.36,0.65-2.13C585.26,680.07,584.71,679.77,584.15,679.77L584.15,679.77z
				 M597.71,671.9c-0.29,0-0.58,0.08-0.84,0.24l-0.05,0.03c-0.74,0.46-0.96,1.44-0.49,2.17c0.3,0.47,0.81,0.73,1.33,0.73
				c0.29,0,0.58-0.08,0.84-0.24c0.01,0,0.01-0.01,0.02-0.01c0.01-0.01,0.02-0.01,0.03-0.02c0.74-0.46,0.96-1.44,0.49-2.17
				C598.75,672.16,598.23,671.9,597.71,671.9L597.71,671.9z M610.65,663.03c-0.33,0-0.66,0.1-0.94,0.31l-0.04,0.03
				c-0.7,0.52-0.84,1.51-0.33,2.2c0.31,0.42,0.78,0.64,1.27,0.64c0.32,0,0.65-0.1,0.93-0.31c0.02-0.01,0.04-0.03,0.06-0.04
				c0.69-0.52,0.83-1.5,0.31-2.2C611.6,663.25,611.13,663.03,610.65,663.03L610.65,663.03z M622.88,653.21
				c-0.37,0-0.73,0.13-1.03,0.38l-0.04,0.04c-0.66,0.57-0.73,1.56-0.16,2.22c0.31,0.36,0.75,0.54,1.19,0.54
				c0.37,0,0.73-0.13,1.03-0.38c0,0,0,0,0,0c0.01-0.01,0.03-0.03,0.05-0.04c0.65-0.57,0.72-1.56,0.15-2.22
				C623.76,653.4,623.32,653.21,622.88,653.21L622.88,653.21z M634.34,642.51c-0.4,0-0.81,0.16-1.12,0.47l-0.04,0.04
				c-0.61,0.62-0.61,1.61,0.01,2.23c0.31,0.31,0.71,0.46,1.11,0.46c0.4,0,0.81-0.16,1.12-0.47c0,0,0.01-0.01,0.01-0.01
				c0,0,0.01-0.01,0.02-0.02c0,0,0.01-0.01,0.01-0.01c0.61-0.62,0.61-1.61-0.01-2.23C635.14,642.66,634.74,642.51,634.34,642.51
				L634.34,642.51z M644.96,630.97c-0.45,0-0.89,0.19-1.2,0.55l-0.04,0.04c-0.56,0.66-0.49,1.66,0.18,2.22
				c0.3,0.25,0.66,0.38,1.02,0.38c0.44,0,0.89-0.19,1.2-0.55c0,0,0.01-0.01,0.02-0.02c0,0,0,0,0,0c0.01-0.01,0.02-0.02,0.03-0.03
				c0.55-0.66,0.47-1.65-0.19-2.21C645.68,631.09,645.32,630.97,644.96,630.97L644.96,630.97z M654.69,618.66
				c-0.49,0-0.96,0.22-1.27,0.65l-0.03,0.04c-0.51,0.7-0.36,1.69,0.34,2.2c0.28,0.2,0.61,0.3,0.93,0.3c0.48,0,0.96-0.22,1.27-0.64
				c0-0.01,0.01-0.01,0.01-0.02c0.01-0.01,0.01-0.02,0.02-0.03c0.51-0.7,0.36-1.69-0.34-2.2
				C655.33,618.76,655.01,618.66,654.69,618.66L654.69,618.66z M663.46,605.66c-0.53,0-1.04,0.26-1.34,0.74l-0.03,0.05
				c-0.46,0.74-0.23,1.71,0.51,2.17c0.26,0.16,0.55,0.24,0.83,0.24c0.53,0,1.04-0.26,1.34-0.74c0,0,0,0,0,0
				c0.01-0.02,0.02-0.04,0.04-0.06c0.45-0.74,0.22-1.7-0.51-2.16C664.03,605.74,663.74,605.66,663.46,605.66L663.46,605.66z
				 M671.22,592.04c-0.57,0-1.12,0.31-1.4,0.85l-0.02,0.05c-0.4,0.77-0.1,1.72,0.67,2.12c0.23,0.12,0.48,0.18,0.73,0.18
				c0.57,0,1.11-0.31,1.39-0.84c0.01-0.01,0.02-0.03,0.02-0.04c0-0.01,0.01-0.01,0.01-0.02c0.4-0.77,0.1-1.72-0.67-2.12
				C671.71,592.09,671.46,592.04,671.22,592.04L671.22,592.04z M677.93,577.86c-0.61,0-1.19,0.36-1.45,0.96l-0.02,0.05
				c-0.34,0.8,0.03,1.73,0.83,2.07c0.2,0.09,0.41,0.13,0.62,0.13c0.61,0,1.19-0.36,1.45-0.96c0.01-0.02,0.01-0.03,0.02-0.05
				c0.34-0.8-0.03-1.73-0.83-2.07C678.34,577.9,678.13,577.86,677.93,577.86L677.93,577.86z M683.54,563.22
				c-0.66,0-1.27,0.41-1.49,1.07l-0.02,0.05c-0.28,0.82,0.16,1.72,0.98,2c0.17,0.06,0.34,0.08,0.51,0.08c0.65,0,1.26-0.41,1.49-1.06
				c0.01-0.02,0.01-0.03,0.02-0.05c0-0.01,0-0.01,0.01-0.02c0.28-0.82-0.16-1.72-0.98-2C683.88,563.25,683.71,563.22,683.54,563.22
				L683.54,563.22z M688.02,548.19c-0.7,0-1.34,0.47-1.52,1.18l-0.01,0.05c-0.22,0.84,0.29,1.7,1.13,1.92
				c0.13,0.03,0.26,0.05,0.39,0.05c0.7,0,1.33-0.47,1.52-1.17c0-0.01,0.01-0.03,0.01-0.04c0-0.01,0-0.02,0.01-0.02
				c0.22-0.84-0.29-1.7-1.13-1.92C688.28,548.21,688.15,548.19,688.02,548.19L688.02,548.19z M691.34,532.87
				c-0.75,0-1.41,0.54-1.55,1.3l-0.01,0.05c-0.15,0.86,0.42,1.67,1.28,1.83c0.09,0.02,0.19,0.02,0.28,0.02
				c0.75,0,1.41-0.54,1.55-1.3c0-0.02,0.01-0.04,0.01-0.05c0.15-0.86-0.42-1.67-1.28-1.83
				C691.52,532.87,691.43,532.87,691.34,532.87L691.34,532.87z M693.49,517.33c-0.8,0-1.48,0.61-1.57,1.42l-0.01,0.05
				c-0.09,0.87,0.54,1.64,1.41,1.72c0.05,0.01,0.11,0.01,0.16,0.01c0.8,0,1.48-0.61,1.57-1.42c0-0.01,0-0.01,0-0.02s0-0.01,0-0.01
				c0-0.01,0-0.01,0-0.02c0.09-0.87-0.54-1.64-1.41-1.72C693.6,517.33,693.54,517.33,693.49,517.33L693.49,517.33z M694.47,501.68
				c-0.85,0-1.55,0.68-1.57,1.54l0,0.05c-0.02,0.87,0.67,1.59,1.54,1.61c0.01,0,0.03,0,0.04,0c0.85,0,1.54-0.67,1.57-1.52
				c0-0.01,0-0.03,0-0.03c0-0.01,0-0.02,0-0.03l0-0.01c0.02-0.87-0.67-1.59-1.54-1.61C694.49,501.68,694.48,501.68,694.47,501.68
				L694.47,501.68z M694.28,485.99c-0.03,0-0.05,0-0.08,0c-0.87,0.04-1.54,0.78-1.5,1.65l0,0.05c0.04,0.84,0.74,1.5,1.57,1.5
				c0.03,0,0.05,0,0.08,0c0.86-0.04,1.53-0.77,1.5-1.64c0-0.01,0-0.04,0-0.05c0,0,0-0.01,0-0.01
				C695.81,486.65,695.11,485.99,694.28,485.99L694.28,485.99z M692.91,470.37c-0.07,0-0.13,0-0.2,0.01
				c-0.86,0.11-1.48,0.9-1.37,1.76l0.01,0.05c0.1,0.8,0.78,1.38,1.56,1.38c0.07,0,0.13,0,0.2-0.01c0.86-0.11,1.47-0.89,1.37-1.75
				c0-0.03-0.01-0.05-0.01-0.07C694.37,470.95,693.69,470.37,692.91,470.37L692.91,470.37z M690.37,454.89
				c-0.1,0-0.21,0.01-0.32,0.03c-0.85,0.17-1.4,1-1.23,1.86l0.01,0.05c0.15,0.75,0.81,1.26,1.54,1.26c0.1,0,0.21-0.01,0.32-0.03
				c0.85-0.17,1.4-1,1.23-1.85c-0.01-0.03-0.01-0.05-0.02-0.08C691.76,455.4,691.1,454.89,690.37,454.89L690.37,454.89z
				 M686.67,439.66c-0.14,0-0.29,0.02-0.43,0.06c-0.84,0.24-1.32,1.11-1.08,1.95l0.01,0.05c0.2,0.69,0.83,1.15,1.51,1.15
				c0.14,0,0.29-0.02,0.43-0.06c0.84-0.24,1.32-1.11,1.08-1.95c0-0.01,0-0.02-0.01-0.03c0-0.01-0.01-0.03-0.01-0.04
				C687.98,440.1,687.35,439.66,686.67,439.66L686.67,439.66z M681.81,424.75c-0.18,0-0.36,0.03-0.54,0.1
				c-0.82,0.3-1.23,1.21-0.93,2.02l0.02,0.05c0.23,0.64,0.84,1.03,1.48,1.03c0.18,0,0.36-0.03,0.54-0.1c0.82-0.3,1.23-1.2,0.94-2.02
				c0-0.01,0,0,0-0.01c-0.01-0.02-0.01-0.03-0.02-0.05C683.05,425.14,682.45,424.75,681.81,424.75L681.81,424.75z M675.83,410.25
				c-0.22,0-0.44,0.05-0.65,0.14c-0.79,0.36-1.14,1.3-0.78,2.09l0.02,0.05c0.26,0.58,0.84,0.92,1.43,0.92
				c0.22,0,0.44-0.05,0.65-0.14c0.79-0.36,1.14-1.3,0.78-2.09c-0.01-0.02-0.02-0.03-0.02-0.05
				C677,410.59,676.43,410.25,675.83,410.25L675.83,410.25z M668.77,396.25c-0.26,0-0.52,0.06-0.76,0.2
				c-0.76,0.42-1.04,1.38-0.62,2.14l0.03,0.05c0.29,0.52,0.83,0.81,1.38,0.81c0.26,0,0.52-0.06,0.76-0.2
				c0.76-0.42,1.03-1.37,0.62-2.13c-0.01-0.01-0.02-0.04-0.03-0.05c0,0,0-0.01-0.01-0.01C669.86,396.54,669.32,396.25,668.77,396.25
				L668.77,396.25z M660.67,382.82c-0.3,0-0.6,0.08-0.86,0.26c-0.73,0.48-0.93,1.45-0.45,2.18l0.03,0.05
				c0.3,0.46,0.81,0.71,1.32,0.71c0.3,0,0.6-0.08,0.86-0.26c0.72-0.47,0.93-1.44,0.46-2.17c-0.01-0.02-0.03-0.04-0.04-0.06
				C661.68,383.07,661.18,382.82,660.67,382.82L660.67,382.82z M651.57,370.04c-0.34,0-0.67,0.11-0.96,0.33
				c-0.69,0.53-0.82,1.52-0.29,2.21l0.03,0.04c0.31,0.4,0.78,0.61,1.25,0.61c0.34,0,0.67-0.11,0.96-0.33
				c0.69-0.53,0.82-1.52,0.29-2.21c0,0,0,0,0-0.01c-0.01-0.02-0.03-0.03-0.04-0.05C652.51,370.25,652.04,370.04,651.57,370.04
				L651.57,370.04z M641.55,357.98c-0.37,0-0.75,0.13-1.05,0.4c-0.65,0.58-0.7,1.58-0.12,2.22l0.04,0.04
				c0.31,0.35,0.74,0.52,1.17,0.52c0.37,0,0.75-0.13,1.05-0.4c0.65-0.58,0.7-1.57,0.13-2.22c-0.02-0.02-0.03-0.04-0.05-0.06
				C642.4,358.16,641.97,357.98,641.55,357.98L641.55,357.98z M630.64,346.71c-0.41,0-0.83,0.16-1.14,0.49
				c-0.6,0.63-0.58,1.62,0.05,2.23l0.04,0.04c0.31,0.29,0.7,0.44,1.09,0.44c0.41,0,0.83-0.16,1.14-0.48
				c0.6-0.62,0.58-1.62-0.04-2.22c-0.01-0.01-0.02-0.02-0.03-0.03c-0.01-0.01-0.01-0.01-0.02-0.02
				C631.43,346.86,631.03,346.71,630.64,346.71L630.64,346.71z M618.92,336.29c-0.45,0-0.9,0.2-1.22,0.57
				c-0.55,0.67-0.46,1.66,0.21,2.22l0.04,0.03c0.29,0.24,0.65,0.36,1,0.36c0.45,0,0.9-0.2,1.22-0.57c0.55-0.67,0.46-1.66-0.21-2.22
				c-0.01-0.01-0.03-0.02-0.04-0.03C619.63,336.41,619.27,336.29,618.92,336.29L618.92,336.29z M606.45,326.78
				c-0.49,0-0.98,0.23-1.29,0.67c-0.5,0.71-0.33,1.69,0.38,2.19l0.04,0.03c0.28,0.19,0.59,0.29,0.91,0.29
				c0.49,0,0.98-0.23,1.29-0.67c0.5-0.71,0.33-1.69-0.38-2.19c-0.01-0.01-0.02-0.01-0.03-0.02c-0.01,0-0.01-0.01-0.02-0.01
				C607.08,326.88,606.77,326.78,606.45,326.78L606.45,326.78z M593.3,318.24c-0.54,0-1.06,0.27-1.35,0.77
				c-0.45,0.75-0.2,1.71,0.54,2.16l0.05,0.03c0.25,0.15,0.53,0.22,0.81,0.22c0.54,0,1.06-0.27,1.35-0.77
				c0.45-0.75,0.2-1.71-0.54-2.16c0,0-0.01,0-0.01-0.01c-0.02-0.01-0.03-0.02-0.04-0.03C593.85,318.31,593.57,318.24,593.3,318.24
				L593.3,318.24z M579.54,310.71c-0.58,0-1.13,0.32-1.41,0.87c-0.39,0.78-0.07,1.72,0.71,2.11l0.05,0.02
				c0.23,0.11,0.47,0.17,0.7,0.17c0.58,0,1.14-0.32,1.41-0.87c0.39-0.77,0.08-1.71-0.69-2.11c-0.01-0.01-0.03-0.02-0.04-0.02
				c-0.01,0-0.01-0.01-0.02-0.01C580.02,310.77,579.78,310.71,579.54,310.71L579.54,310.71z M565.25,304.25
				c-0.62,0-1.21,0.37-1.46,0.98c-0.33,0.81,0.06,1.72,0.86,2.05l0.05,0.02c0.19,0.08,0.4,0.12,0.59,0.12
				c0.62,0,1.21-0.37,1.46-0.98c0.33-0.8-0.05-1.71-0.85-2.05c-0.01-0.01-0.02-0.01-0.04-0.01c-0.01,0-0.02-0.01-0.03-0.01
				c-0.01,0,0,0,0,0C565.65,304.29,565.45,304.25,565.25,304.25L565.25,304.25z M550.51,298.89c-0.67,0-1.28,0.43-1.5,1.09
				c-0.27,0.83,0.19,1.72,1.02,1.98l0.05,0.02c0.16,0.05,0.32,0.08,0.48,0.08c0.67,0,1.28-0.43,1.5-1.09
				c0.27-0.83-0.19-1.72-1.02-1.98c-0.02-0.01-0.03-0.01-0.05-0.02C550.84,298.92,550.67,298.89,550.51,298.89L550.51,298.89z
				 M535.41,294.67c-0.71,0-1.36,0.49-1.53,1.21c-0.2,0.85,0.32,1.7,1.17,1.9l0.05,0.01c0.12,0.03,0.25,0.04,0.37,0.04
				c0.71,0,1.36-0.49,1.53-1.21c0.2-0.84-0.32-1.69-1.16-1.9c-0.03-0.01-0.05-0.01-0.08-0.02
				C535.65,294.69,535.53,294.67,535.41,294.67L535.41,294.67z M520.03,291.61c-0.76,0-1.43,0.55-1.55,1.33
				c-0.14,0.86,0.45,1.67,1.31,1.8l0.05,0.01c0.08,0.01,0.17,0.02,0.25,0.02c0.76,0,1.43-0.55,1.55-1.33
				c0.14-0.86-0.44-1.66-1.3-1.8c-0.01,0-0.02,0-0.02,0c-0.01,0-0.02,0-0.03,0c-0.01,0-0.01,0-0.02,0
				C520.19,291.62,520.11,291.61,520.03,291.61L520.03,291.61z M504.46,289.72c-0.81,0-1.5,0.62-1.57,1.44
				c-0.07,0.87,0.57,1.63,1.44,1.7l0.05,0c0.04,0,0.09,0.01,0.13,0.01c0.81,0,1.5-0.62,1.57-1.44c0.07-0.86-0.57-1.62-1.43-1.7
				c-0.02,0-0.03,0-0.05,0c0,0-0.01,0-0.01,0C504.55,289.73,504.51,289.72,504.46,289.72L504.46,289.72z"/>
		</g>
	</g>
</g>
<g id="椭圆_2_1_" class="st0">
	<g id="椭圆_2">
		<g>
			
				<ellipse transform="matrix(0.7071 -0.7071 0.7071 0.7071 -210.2073 490.5147)" class="st2" cx="487" cy="499" rx="164" ry="164"/>
		</g>
	</g>
</g>
<g id="椭圆_3_1_" class="st0">
	<g id="椭圆_3">
		<g>
			<path class="st3" d="M487.5,394.97c-0.02,0-0.04,0-0.06,0c-0.69,0-1.24,0.56-1.24,1.25c0,0.69,0.56,1.25,1.25,1.25c0,0,0,0,0,0
				h0.05c0.69,0,1.25-0.56,1.25-1.25S488.19,394.97,487.5,394.97C487.5,394.97,487.5,394.97,487.5,394.97L487.5,394.97z
				 M477.57,395.42c-0.04,0-0.07,0-0.11,0c-0.01,0-0.01,0-0.02,0c-0.01,0-0.03,0-0.04,0c-0.69,0.06-1.19,0.67-1.13,1.36
				c0.06,0.65,0.6,1.14,1.24,1.14c0.04,0,0.08,0,0.12-0.01l0.05,0c0.69-0.06,1.19-0.67,1.13-1.36
				C478.76,395.91,478.21,395.42,477.57,395.42L477.57,395.42z M467.73,396.79c-0.07,0-0.15,0.01-0.23,0.02
				c-0.02,0-0.04,0.01-0.06,0.01c-0.68,0.13-1.12,0.78-0.99,1.46c0.11,0.6,0.64,1.02,1.23,1.02c0.08,0,0.15-0.01,0.23-0.02
				l0.05-0.01c0.68-0.13,1.13-0.78,1-1.46C468.85,397.2,468.32,396.79,467.73,396.79L467.73,396.79z M458.06,399.06
				c-0.11,0-0.22,0.01-0.34,0.05c-0.02,0.01-0.04,0.01-0.07,0.02c-0.66,0.19-1.04,0.88-0.85,1.54c0.16,0.55,0.66,0.91,1.2,0.91
				c0.11,0,0.23-0.02,0.34-0.05l0.05-0.01c0.66-0.19,1.05-0.88,0.86-1.55C459.1,399.42,458.6,399.06,458.06,399.06L458.06,399.06z
				 M448.64,402.22c-0.15,0-0.3,0.03-0.45,0.09c-0.01,0-0.02,0.01-0.03,0.01c-0.01,0-0.02,0.01-0.03,0.01
				c-0.64,0.25-0.95,0.97-0.7,1.62c0.19,0.49,0.66,0.8,1.17,0.8c0.15,0,0.3-0.03,0.45-0.09l0.05-0.02c0.64-0.25,0.96-0.97,0.71-1.62
				C449.61,402.53,449.14,402.22,448.64,402.22L448.64,402.22z M439.56,406.25c-0.18,0-0.37,0.04-0.55,0.13
				c-0.01,0-0.01,0.01-0.02,0.01c-0.01,0-0.01,0.01-0.02,0.01c-0.01,0-0.02,0.01-0.03,0.01c-0.61,0.31-0.86,1.06-0.55,1.67
				c0.22,0.44,0.66,0.69,1.12,0.69c0.19,0,0.38-0.04,0.56-0.13l0.05-0.02c0.62-0.31,0.87-1.06,0.56-1.68
				C440.46,406.51,440.02,406.25,439.56,406.25L439.56,406.25z M430.89,411.11c-0.23,0-0.45,0.06-0.66,0.19c0,0-0.01,0-0.01,0.01
				c-0.01,0.01-0.03,0.02-0.04,0.02c-0.58,0.37-0.76,1.14-0.4,1.72c0.24,0.38,0.64,0.59,1.06,0.59c0.23,0,0.45-0.06,0.66-0.19
				l0.05-0.03c0.59-0.37,0.77-1.14,0.4-1.72C431.72,411.32,431.31,411.11,430.89,411.11L430.89,411.11z M422.71,416.74
				c-0.26,0-0.53,0.08-0.76,0.25c-0.01,0.01-0.03,0.02-0.04,0.03c0,0,0,0-0.01,0c-0.55,0.42-0.65,1.2-0.24,1.75
				c0.25,0.32,0.62,0.49,1,0.49c0.26,0,0.53-0.08,0.76-0.25l0.04-0.03c0.55-0.42,0.66-1.2,0.24-1.75
				C423.46,416.91,423.09,416.74,422.71,416.74L422.71,416.74z M415.08,423.11c-0.3,0-0.6,0.11-0.84,0.32
				c-0.02,0.02-0.04,0.03-0.05,0.05c-0.5,0.47-0.53,1.25-0.07,1.76c0.25,0.27,0.58,0.41,0.92,0.41c0.3,0,0.6-0.11,0.84-0.33
				l0.04-0.04c0.51-0.47,0.54-1.26,0.08-1.77C415.76,423.25,415.42,423.11,415.08,423.11L415.08,423.11z M408.07,430.15
				c-0.34,0-0.68,0.14-0.93,0.41c0,0-0.01,0.01-0.01,0.01c-0.01,0.01-0.02,0.02-0.03,0.03c-0.46,0.51-0.42,1.3,0.09,1.76
				c0.24,0.22,0.54,0.32,0.84,0.32c0.34,0,0.68-0.14,0.93-0.41l0.04-0.04c0.46-0.51,0.43-1.3-0.09-1.77
				C408.67,430.26,408.37,430.15,408.07,430.15L408.07,430.15z M401.74,437.81c-0.38,0-0.75,0.17-1,0.5
				c-0.01,0.01-0.02,0.03-0.03,0.04c-0.41,0.55-0.3,1.34,0.25,1.75c0.23,0.17,0.49,0.25,0.75,0.25c0.38,0,0.75-0.17,1-0.5l0.03-0.04
				c0.41-0.55,0.3-1.34-0.25-1.75C402.27,437.89,402,437.81,401.74,437.81L401.74,437.81z M396.14,446.02
				c-0.42,0-0.83,0.21-1.07,0.59c0,0,0,0,0,0c-0.01,0.01-0.01,0.02-0.02,0.04c0,0,0,0.01-0.01,0.01c-0.36,0.59-0.18,1.36,0.41,1.72
				c0.2,0.13,0.43,0.19,0.65,0.19c0.42,0,0.83-0.21,1.07-0.59l0.03-0.05c0.36-0.59,0.18-1.36-0.41-1.72
				C396.59,446.08,396.36,446.02,396.14,446.02L396.14,446.02z M391.32,454.71c-0.46,0-0.9,0.26-1.12,0.7
				c-0.01,0.02-0.02,0.03-0.02,0.05c-0.31,0.62-0.05,1.37,0.57,1.67c0.18,0.09,0.37,0.13,0.55,0.13c0.46,0,0.9-0.26,1.12-0.7
				l0.02-0.05c0.31-0.62,0.05-1.37-0.57-1.67C391.7,454.75,391.51,454.71,391.32,454.71L391.32,454.71z M387.34,463.81
				c-0.5,0-0.98,0.31-1.17,0.8c0,0.01,0,0.01-0.01,0.02c0,0.01-0.01,0.03-0.02,0.04c-0.24,0.64,0.08,1.36,0.72,1.61
				c0.15,0.06,0.3,0.08,0.45,0.08c0.5,0,0.98-0.31,1.17-0.8l0.02-0.05c0.25-0.64-0.08-1.37-0.72-1.62
				C387.64,463.84,387.48,463.81,387.34,463.81L387.34,463.81z M384.21,473.24c-0.55,0-1.05,0.36-1.2,0.91c0,0,0,0.01,0,0.01
				c0,0.01,0,0.02-0.01,0.03c0,0.01,0,0.01,0,0.02c-0.19,0.66,0.2,1.35,0.87,1.54c0.11,0.03,0.23,0.05,0.34,0.05
				c0.55,0,1.05-0.36,1.2-0.91l0.01-0.05c0.19-0.66-0.2-1.35-0.87-1.54C384.44,473.25,384.32,473.24,384.21,473.24L384.21,473.24z
				 M381.98,482.92c-0.59,0-1.12,0.42-1.23,1.03c0,0,0,0.01,0,0.01c0,0.02-0.01,0.04-0.01,0.05c-0.12,0.68,0.33,1.32,1.01,1.44
				c0.08,0.01,0.15,0.02,0.22,0.02c0.59,0,1.12-0.42,1.23-1.03l0.01-0.05c0.12-0.68-0.33-1.33-1.01-1.45
				C382.13,482.93,382.06,482.92,381.98,482.92L381.98,482.92z M380.66,492.77c-0.64,0-1.18,0.49-1.24,1.13c0,0.01,0,0.01,0,0.02
				c0,0.01,0,0.03,0,0.04c-0.06,0.69,0.45,1.29,1.14,1.35c0.04,0,0.07,0,0.11,0c0.64,0,1.19-0.49,1.24-1.14l0-0.05
				c0.06-0.69-0.45-1.29-1.14-1.35C380.73,492.77,380.7,492.77,380.66,492.77L380.66,492.77z M380.25,502.7
				C380.25,502.7,380.25,502.7,380.25,502.7c-0.69,0-1.25,0.56-1.25,1.25c0,0.01,0,0.02,0,0.03c0,0.01,0,0.02,0,0.03
				c0,0.69,0.56,1.24,1.25,1.24c0,0,0,0,0.01,0c0.69,0,1.25-0.57,1.24-1.26l0-0.05C381.5,503.26,380.94,502.7,380.25,502.7
				L380.25,502.7z M380.75,512.62c-0.04,0-0.08,0-0.12,0.01c-0.68,0.07-1.19,0.67-1.13,1.35c0,0.02,0,0.05,0.01,0.07
				c0.07,0.64,0.61,1.12,1.24,1.12c0.04,0,0.08,0,0.12-0.01c0.69-0.07,1.19-0.68,1.12-1.36l-0.01-0.05
				C381.93,513.11,381.38,512.62,380.75,512.62L380.75,512.62z M382.15,522.46c-0.08,0-0.16,0.01-0.24,0.02
				c-0.68,0.13-1.12,0.78-0.99,1.46c0,0.01,0,0.01,0,0.02c0,0.01,0,0.03,0.01,0.04c0.11,0.6,0.64,1.02,1.23,1.02
				c0.08,0,0.16-0.01,0.24-0.02c0.68-0.13,1.12-0.78,0.99-1.46l-0.01-0.05C383.27,522.88,382.74,522.46,382.15,522.46L382.15,522.46
				z M384.47,532.12c-0.12,0-0.23,0.02-0.35,0.05c-0.66,0.19-1.04,0.89-0.85,1.55c0.01,0.02,0.01,0.04,0.02,0.05
				c0.16,0.55,0.66,0.9,1.2,0.9c0.12,0,0.23-0.02,0.35-0.05c0.66-0.19,1.04-0.89,0.85-1.55l-0.01-0.05
				C385.51,532.48,385.01,532.12,384.47,532.12L384.47,532.12z M387.67,541.53c-0.15,0-0.31,0.03-0.46,0.09
				c-0.64,0.25-0.96,0.98-0.71,1.62c0,0.01,0.01,0.02,0.01,0.03c0,0.01,0.01,0.01,0.01,0.02c0.19,0.49,0.66,0.79,1.16,0.79
				c0.15,0,0.31-0.03,0.46-0.09c0.64-0.25,0.96-0.98,0.7-1.62l-0.02-0.05C388.64,541.83,388.17,541.53,387.67,541.53L387.67,541.53z
				 M391.74,550.59c-0.19,0-0.38,0.04-0.56,0.13c-0.61,0.31-0.86,1.06-0.55,1.67c0.01,0.02,0.02,0.05,0.03,0.07
				c0.22,0.43,0.66,0.68,1.11,0.68c0.19,0,0.38-0.04,0.56-0.14c0.62-0.31,0.86-1.06,0.55-1.68l-0.02-0.05
				C392.64,550.84,392.2,550.59,391.74,550.59L391.74,550.59z M396.63,559.24c-0.23,0-0.46,0.06-0.66,0.19
				c-0.58,0.37-0.76,1.14-0.39,1.72c0,0,0,0,0,0c0.01,0.01,0.01,0.02,0.02,0.03c0,0,0,0.01,0.01,0.01c0.24,0.38,0.64,0.58,1.06,0.58
				c0.23,0,0.46-0.06,0.66-0.19c0.58-0.37,0.76-1.14,0.39-1.72l-0.03-0.05C397.45,559.45,397.05,559.24,396.63,559.24L396.63,559.24
				z M402.3,567.4c-0.27,0-0.53,0.08-0.76,0.26c-0.55,0.42-0.65,1.2-0.23,1.75c0.01,0.01,0.02,0.03,0.03,0.04
				c0.25,0.32,0.62,0.49,0.99,0.49c0.27,0,0.53-0.08,0.76-0.26c0.55-0.42,0.65-1.2,0.23-1.75l-0.03-0.04
				C403.05,567.57,402.68,567.4,402.3,567.4L402.3,567.4z M408.7,575c-0.3,0-0.61,0.11-0.85,0.33c-0.51,0.47-0.54,1.26-0.07,1.76
				c0.02,0.02,0.03,0.03,0.05,0.05c0.25,0.26,0.58,0.39,0.91,0.39c0.3,0,0.61-0.11,0.85-0.33c0.51-0.47,0.54-1.26,0.07-1.77
				l-0.04-0.04C409.37,575.13,409.04,575,408.7,575L408.7,575z M415.77,581.98c-0.34,0-0.68,0.14-0.93,0.41
				c-0.46,0.51-0.42,1.3,0.09,1.77c0.01,0.01,0.03,0.02,0.04,0.04c0.24,0.21,0.54,0.32,0.84,0.32c0.34,0,0.68-0.14,0.93-0.41
				c0.46-0.51,0.42-1.3-0.09-1.77l-0.04-0.04C416.37,582.09,416.07,581.98,415.77,581.98L415.77,581.98z M423.45,588.28
				c-0.38,0-0.76,0.17-1,0.5c-0.41,0.55-0.3,1.33,0.25,1.75c0,0,0,0,0.01,0c0.01,0.01,0.03,0.02,0.04,0.03
				c0.22,0.17,0.49,0.25,0.75,0.25c0.38,0,0.76-0.17,1-0.5c0.41-0.55,0.3-1.34-0.26-1.75l-0.04-0.03
				C423.98,588.36,423.71,588.28,423.45,588.28L423.45,588.28z M431.69,593.85c-0.42,0-0.83,0.21-1.07,0.6
				c-0.36,0.59-0.18,1.35,0.41,1.71c0.02,0.01,0.04,0.03,0.06,0.04c0.2,0.12,0.42,0.18,0.64,0.18c0.42,0,0.83-0.21,1.07-0.6
				c0.36-0.59,0.17-1.36-0.42-1.72l-0.05-0.03C432.13,593.91,431.91,593.85,431.69,593.85L431.69,593.85z M440.4,598.63
				c-0.46,0-0.91,0.26-1.12,0.7c-0.3,0.62-0.05,1.37,0.57,1.67c0.01,0.01,0.03,0.01,0.04,0.02c0,0,0.01,0,0.01,0.01
				c0.18,0.09,0.36,0.13,0.55,0.13c0.46,0,0.91-0.26,1.12-0.7c0.3-0.62,0.05-1.37-0.57-1.67l-0.05-0.02
				C440.77,598.67,440.58,598.63,440.4,598.63L440.4,598.63z M449.51,602.58c-0.5,0-0.98,0.31-1.17,0.81
				c-0.24,0.64,0.08,1.36,0.72,1.61c0,0,0.01,0.01,0.02,0.01c0.01,0,0.02,0.01,0.03,0.01c0.01,0,0.01,0,0.02,0.01
				c0.14,0.05,0.29,0.08,0.44,0.08c0.5,0,0.98-0.31,1.17-0.81c0.24-0.65-0.08-1.37-0.73-1.61l-0.05-0.02
				C449.81,602.6,449.66,602.58,449.51,602.58L449.51,602.58z M458.96,605.66c-0.55,0-1.05,0.36-1.2,0.92
				c-0.18,0.66,0.2,1.35,0.86,1.53c0.02,0,0.03,0.01,0.05,0.01c0,0,0.01,0,0.01,0c0.11,0.03,0.22,0.05,0.33,0.05
				c0.55,0,1.05-0.36,1.2-0.92c0.18-0.67-0.21-1.35-0.87-1.54l-0.05-0.01C459.18,605.67,459.07,605.66,458.96,605.66L458.96,605.66z
				 M468.65,607.85c-0.59,0-1.12,0.43-1.23,1.03c-0.12,0.68,0.33,1.33,1.01,1.45c0.01,0,0.02,0,0.02,0c0.01,0,0.03,0,0.04,0.01
				c0.07,0.01,0.14,0.02,0.21,0.02c0.59,0,1.12-0.43,1.23-1.03c0.12-0.68-0.33-1.33-1.01-1.45l-0.05-0.01
				C468.79,607.85,468.72,607.85,468.65,607.85L468.65,607.85z M478.5,609.13c-0.64,0-1.19,0.49-1.24,1.15
				c-0.06,0.69,0.45,1.29,1.13,1.35c0.02,0,0.05,0,0.07,0.01c0.03,0,0.06,0,0.1,0c0.64,0,1.19-0.49,1.24-1.15
				c0.06-0.69-0.45-1.29-1.14-1.35l-0.05,0C478.57,609.13,478.53,609.13,478.5,609.13L478.5,609.13z M488.49,609.5
				c0,0-0.01,0-0.01,0l-0.05,0c-0.69,0.01-1.25,0.57-1.24,1.26c0.01,0.69,0.56,1.24,1.25,1.24c0,0,0,0,0,0c0.01,0,0.01,0,0.03,0
				c0,0,0.01,0,0.01,0c0.01,0,0.02,0,0.04,0c0.69-0.01,1.23-0.57,1.23-1.26C489.73,610.05,489.17,609.5,488.49,609.5L488.49,609.5z
				 M498.41,608.95c-0.04,0-0.08,0-0.13,0.01l-0.05,0.01c-0.69,0.07-1.19,0.68-1.12,1.37c0.06,0.64,0.61,1.12,1.24,1.12
				c0.04,0,0.08,0,0.13-0.01c0.01,0,0.02,0,0.03,0c0.01,0,0.03,0,0.04,0c0.68-0.07,1.18-0.68,1.11-1.37
				C499.59,609.43,499.04,608.95,498.41,608.95L498.41,608.95z M508.24,607.5c-0.08,0-0.16,0.01-0.24,0.02l-0.05,0.01
				c-0.68,0.13-1.12,0.79-0.99,1.47c0.12,0.6,0.64,1.01,1.22,1.01c0.08,0,0.16-0.01,0.24-0.02c0.02,0,0.04-0.01,0.05-0.01
				c0.68-0.13,1.12-0.79,0.99-1.47C509.35,607.91,508.82,607.5,508.24,607.5L508.24,607.5z M517.89,605.13
				c-0.12,0-0.24,0.02-0.35,0.05l-0.05,0.02c-0.66,0.2-1.04,0.89-0.85,1.55c0.16,0.54,0.66,0.9,1.2,0.9c0.12,0,0.23-0.02,0.35-0.05
				c0.01,0,0.01,0,0.02-0.01c0.01,0,0.03-0.01,0.04-0.01c0.66-0.2,1.04-0.89,0.85-1.55C518.93,605.49,518.43,605.13,517.89,605.13
				L517.89,605.13z M527.27,601.88c-0.15,0-0.31,0.03-0.46,0.09l-0.05,0.02c-0.64,0.26-0.95,0.98-0.7,1.62
				c0.2,0.49,0.66,0.79,1.16,0.79c0.15,0,0.31-0.03,0.46-0.09c0,0,0,0,0.01,0c0.02-0.01,0.03-0.01,0.05-0.02
				c0.64-0.26,0.95-0.98,0.69-1.62C528.24,602.18,527.77,601.88,527.27,601.88L527.27,601.88z M536.32,597.77
				c-0.19,0-0.39,0.04-0.57,0.14l-0.05,0.02c-0.61,0.31-0.86,1.07-0.54,1.68c0.22,0.43,0.66,0.68,1.11,0.68
				c0.19,0,0.39-0.04,0.57-0.14c0.02-0.01,0.03-0.02,0.05-0.03c0.61-0.31,0.86-1.07,0.54-1.68
				C537.21,598.02,536.77,597.77,536.32,597.77L536.32,597.77z M544.94,592.83c-0.23,0-0.46,0.06-0.67,0.2l-0.05,0.03
				c-0.58,0.37-0.76,1.14-0.39,1.73c0.24,0.38,0.64,0.58,1.06,0.58c0.23,0,0.46-0.06,0.66-0.19c0.02-0.01,0.04-0.03,0.06-0.04
				c0.58-0.37,0.75-1.14,0.38-1.72C545.76,593.04,545.35,592.83,544.94,592.83L544.94,592.83z M553.07,587.12
				c-0.27,0-0.54,0.09-0.76,0.26l-0.04,0.03c-0.55,0.42-0.65,1.21-0.22,1.75c0.25,0.32,0.62,0.49,0.99,0.49
				c0.26,0,0.53-0.08,0.76-0.26c0.02-0.01,0.03-0.02,0.05-0.04c0,0,0,0,0,0c0.55-0.42,0.65-1.21,0.22-1.75
				C553.81,587.29,553.44,587.12,553.07,587.12L553.07,587.12z M560.64,580.69c-0.31,0-0.61,0.11-0.85,0.34l-0.04,0.04
				c-0.5,0.47-0.53,1.26-0.06,1.77c0.25,0.26,0.58,0.4,0.91,0.4c0.31,0,0.61-0.11,0.85-0.34c0.01-0.01,0.02-0.02,0.03-0.03
				c0.01-0.01,0.01-0.01,0.02-0.02c0.5-0.47,0.52-1.26,0.05-1.76C561.31,580.82,560.98,580.69,560.64,580.69L560.64,580.69z
				 M567.59,573.58c-0.34,0-0.69,0.14-0.93,0.42l-0.04,0.04c-0.46,0.52-0.41,1.31,0.1,1.77c0.24,0.21,0.54,0.32,0.83,0.32
				c0.34,0,0.68-0.14,0.93-0.41c0.01-0.02,0.02-0.02,0.04-0.04c0,0,0.01-0.01,0.01-0.01c0.46-0.52,0.41-1.31-0.1-1.76
				C568.18,573.69,567.88,573.58,567.59,573.58L567.59,573.58z M573.85,565.87c-0.38,0-0.76,0.18-1.01,0.51l-0.03,0.04
				c-0.41,0.56-0.29,1.34,0.26,1.75c0.22,0.17,0.48,0.24,0.74,0.24c0.38,0,0.76-0.18,1.01-0.51c0.01-0.01,0.01-0.02,0.02-0.03
				c0-0.01,0.01-0.02,0.02-0.02c0.4-0.55,0.28-1.33-0.27-1.74C574.37,565.95,574.11,565.87,573.85,565.87L573.85,565.87z
				 M579.37,557.61c-0.42,0-0.84,0.22-1.07,0.6l-0.03,0.05c-0.36,0.59-0.17,1.36,0.42,1.72c0.2,0.12,0.43,0.18,0.65,0.18
				c0.42,0,0.84-0.22,1.07-0.6c0,0,0-0.01,0.01-0.01c0.01-0.01,0.01-0.02,0.02-0.03c0,0,0-0.01,0-0.01c0,0,0,0,0,0
				c0.36-0.59,0.17-1.36-0.42-1.72C579.82,557.67,579.59,557.61,579.37,557.61L579.37,557.61z M584.11,548.87
				c-0.46,0-0.91,0.26-1.13,0.71l-0.02,0.05c-0.3,0.62-0.04,1.37,0.58,1.67c0.18,0.08,0.36,0.13,0.54,0.13
				c0.46,0,0.91-0.26,1.12-0.7c0.01-0.01,0.01-0.03,0.02-0.04c0,0,0-0.01,0-0.01c0.3-0.62,0.04-1.37-0.58-1.67
				C584.48,548.91,584.29,548.87,584.11,548.87L584.11,548.87z M588.01,539.74c-0.51,0-0.98,0.31-1.17,0.81l-0.02,0.05
				c-0.24,0.65,0.09,1.37,0.73,1.61c0.14,0.05,0.29,0.08,0.44,0.08c0.51,0,0.98-0.31,1.17-0.81c0,0,0,0,0-0.01
				c0.01-0.02,0.01-0.04,0.02-0.05c0.23-0.64-0.09-1.36-0.74-1.6C588.31,539.76,588.16,539.74,588.01,539.74L588.01,539.74z
				 M591.05,530.28c-0.55,0-1.06,0.37-1.21,0.92l-0.01,0.05c-0.18,0.67,0.21,1.35,0.88,1.53c0.11,0.03,0.22,0.04,0.33,0.04
				c0.55,0,1.05-0.36,1.2-0.92c0,0,0-0.01,0-0.02c0-0.01,0-0.02,0.01-0.02c0-0.01,0.01-0.02,0.01-0.03
				c0.17-0.66-0.22-1.34-0.88-1.52C591.26,530.29,591.16,530.28,591.05,530.28L591.05,530.28z M593.19,520.57
				c-0.6,0-1.13,0.43-1.23,1.04l-0.01,0.05c-0.12,0.68,0.34,1.33,1.02,1.44c0.07,0.01,0.14,0.02,0.21,0.02
				c0.6,0,1.13-0.43,1.23-1.04c0,0,0-0.01,0-0.01c0-0.01,0-0.03,0.01-0.04c0.12-0.68-0.34-1.33-1.02-1.44
				C593.33,520.58,593.26,520.57,593.19,520.57L593.19,520.57z M594.42,510.72c-0.65,0-1.19,0.5-1.25,1.15l0,0.05
				c-0.05,0.69,0.46,1.29,1.15,1.34c0.03,0,0.07,0,0.1,0c0.64,0,1.19-0.49,1.24-1.14c0-0.01,0-0.02,0-0.02c0-0.01,0-0.03,0-0.04
				c0,0,0,0,0-0.01c0.05-0.69-0.46-1.29-1.15-1.34C594.48,510.72,594.45,510.72,594.42,510.72L594.42,510.72z M594.74,500.78
				c-0.01,0-0.01,0-0.02,0c-0.69,0.01-1.24,0.58-1.23,1.27l0,0.05c0.01,0.68,0.57,1.23,1.25,1.23c0.01,0,0.01,0,0.02,0
				c0.69-0.01,1.24-0.57,1.23-1.26c0-0.03,0-0.04,0-0.07C595.98,501.33,595.42,500.78,594.74,500.78L594.74,500.78z M594.16,490.86
				c-0.04,0-0.09,0-0.13,0.01c-0.69,0.07-1.18,0.69-1.11,1.37l0.01,0.05c0.07,0.64,0.61,1.12,1.24,1.12c0.04,0,0.09,0,0.13-0.01
				c0.68-0.07,1.18-0.68,1.11-1.36c0-0.01,0-0.02,0-0.03c0-0.01,0-0.03,0-0.04C595.33,491.34,594.79,490.86,594.16,490.86
				L594.16,490.86z M592.66,481.04c-0.08,0-0.16,0.01-0.25,0.02c-0.68,0.14-1.12,0.79-0.98,1.47l0.01,0.05
				c0.12,0.59,0.64,1.01,1.22,1.01c0.08,0,0.16-0.01,0.25-0.02c0.68-0.14,1.12-0.79,0.98-1.47c0,0,0,0,0-0.01
				c0-0.01,0-0.02-0.01-0.03c0,0,0-0.01,0-0.01C593.76,481.45,593.24,481.04,592.66,481.04L592.66,481.04z M590.25,471.4
				c-0.12,0-0.24,0.02-0.36,0.05c-0.66,0.2-1.04,0.89-0.84,1.56l0.02,0.05c0.16,0.54,0.66,0.89,1.2,0.89c0.12,0,0.24-0.02,0.36-0.05
				c0.66-0.2,1.04-0.89,0.84-1.56c0-0.01-0.01-0.03-0.01-0.04c0-0.01,0-0.01-0.01-0.02C591.28,471.75,590.79,471.4,590.25,471.4
				L590.25,471.4z M586.96,462.03c-0.16,0-0.31,0.03-0.47,0.09c-0.64,0.26-0.95,0.99-0.69,1.63l0.02,0.05
				c0.2,0.49,0.67,0.78,1.16,0.78c0.16,0,0.31-0.03,0.47-0.09c0.64-0.26,0.95-0.99,0.69-1.63c-0.01-0.01-0.01-0.03-0.02-0.05
				c0,0,0,0,0-0.01C587.92,462.32,587.46,462.03,586.96,462.03L586.96,462.03z M582.81,453c-0.19,0-0.39,0.05-0.57,0.14
				c-0.61,0.32-0.85,1.07-0.54,1.68l0.02,0.05c0.22,0.43,0.66,0.68,1.11,0.68c0.19,0,0.39-0.04,0.57-0.14
				c0.61-0.32,0.85-1.07,0.54-1.68c0,0,0,0,0-0.01c0-0.01-0.01-0.02-0.01-0.03c0-0.01-0.01-0.01-0.01-0.02
				C583.7,453.25,583.26,453,582.81,453L582.81,453z M577.84,444.4c-0.23,0-0.46,0.06-0.67,0.2c-0.58,0.37-0.75,1.15-0.38,1.73
				l0.03,0.05c0.24,0.37,0.64,0.58,1.05,0.58c0.23,0,0.46-0.06,0.67-0.2c0.58-0.37,0.75-1.14,0.38-1.72c0-0.01-0.01-0.01-0.01-0.02
				c0-0.01-0.01-0.01-0.01-0.02c-0.01-0.01-0.01-0.01-0.01-0.02C578.65,444.6,578.25,444.4,577.84,444.4L577.84,444.4z
				 M572.09,436.29c-0.27,0-0.54,0.09-0.77,0.26c-0.54,0.42-0.64,1.21-0.22,1.75l0.03,0.04c0.25,0.32,0.61,0.48,0.99,0.48
				c0.27,0,0.54-0.09,0.77-0.26c0.54-0.42,0.64-1.21,0.22-1.75c-0.01-0.02-0.03-0.03-0.04-0.05
				C572.83,436.45,572.47,436.29,572.09,436.29L572.09,436.29z M565.63,428.75c-0.31,0-0.61,0.11-0.86,0.34
				c-0.5,0.47-0.53,1.26-0.05,1.77l0.04,0.04c0.25,0.26,0.58,0.39,0.91,0.39c0.31,0,0.61-0.11,0.86-0.34
				c0.5-0.47,0.53-1.26,0.05-1.77c-0.01-0.01-0.01-0.01-0.02-0.02c-0.01-0.01-0.02-0.02-0.02-0.03
				C566.29,428.88,565.96,428.75,565.63,428.75L565.63,428.75z M558.49,421.83c-0.35,0-0.69,0.14-0.94,0.42
				c-0.46,0.52-0.41,1.31,0.11,1.76l0.04,0.04c0.24,0.21,0.53,0.31,0.83,0.31c0.35,0,0.69-0.14,0.94-0.42
				c0.46-0.52,0.41-1.31-0.11-1.76c0,0-0.01,0-0.01-0.01c-0.01-0.01-0.03-0.02-0.04-0.03C559.08,421.93,558.79,421.83,558.49,421.83
				L558.49,421.83z M550.75,415.6c-0.39,0-0.76,0.18-1.01,0.51c-0.41,0.56-0.29,1.34,0.27,1.75l0.04,0.03
				c0.22,0.16,0.48,0.24,0.74,0.24c0.39,0,0.76-0.18,1.01-0.51c0.41-0.55,0.29-1.33-0.26-1.74c-0.02-0.01-0.03-0.03-0.05-0.04
				C551.27,415.68,551.01,415.6,550.75,415.6L550.75,415.6z M542.47,410.11c-0.43,0-0.84,0.22-1.07,0.61
				c-0.35,0.59-0.16,1.36,0.43,1.71l0.05,0.03c0.2,0.12,0.42,0.18,0.64,0.18c0.43,0,0.84-0.22,1.07-0.61
				c0.35-0.59,0.16-1.36-0.43-1.71c0,0,0,0,0,0c-0.02-0.01-0.03-0.02-0.05-0.03C542.91,410.17,542.69,410.11,542.47,410.11
				L542.47,410.11z M533.72,405.41c-0.47,0-0.91,0.26-1.13,0.71c-0.3,0.62-0.03,1.37,0.59,1.67l0.05,0.02
				c0.17,0.08,0.36,0.12,0.54,0.12c0.47,0,0.91-0.26,1.13-0.71c0.3-0.62,0.04-1.37-0.59-1.67c-0.02-0.01-0.03-0.02-0.05-0.02
				C534.08,405.45,533.9,405.41,533.72,405.41L533.72,405.41z M524.57,401.54c-0.51,0-0.99,0.31-1.17,0.82
				c-0.24,0.65,0.09,1.37,0.74,1.61l0.05,0.02c0.14,0.05,0.29,0.08,0.43,0.08c0.51,0,0.99-0.31,1.17-0.82
				c0.24-0.64-0.09-1.36-0.73-1.6c-0.01,0-0.02-0.01-0.03-0.01c0,0,0,0-0.01,0c-0.01,0-0.02-0.01-0.03-0.01
				C524.85,401.57,524.71,401.54,524.57,401.54L524.57,401.54z M515.09,398.55c-0.55,0-1.06,0.37-1.21,0.93
				c-0.18,0.67,0.22,1.35,0.89,1.53l0.05,0.01c0.11,0.03,0.22,0.04,0.32,0.04c0.55,0,1.06-0.37,1.21-0.93
				c0.18-0.67-0.22-1.35-0.88-1.53c-0.01,0-0.03-0.01-0.04-0.01c-0.01,0-0.01,0-0.02,0C515.31,398.56,515.2,398.55,515.09,398.55
				L515.09,398.55z M505.38,396.45c-0.6,0-1.13,0.43-1.23,1.04c-0.11,0.68,0.34,1.33,1.03,1.44l0.05,0.01
				c0.07,0.01,0.14,0.02,0.21,0.02c0.6,0,1.13-0.43,1.23-1.04c0.11-0.68-0.34-1.33-1.03-1.44c0,0,0,0-0.01,0
				c-0.01,0-0.02,0-0.03-0.01c-0.01,0-0.01,0-0.02,0C505.52,396.46,505.45,396.45,505.38,396.45L505.38,396.45z M495.52,395.26
				c-0.65,0-1.2,0.5-1.24,1.16c-0.05,0.69,0.47,1.29,1.15,1.34l0.05,0c0.03,0,0.06,0,0.09,0c0.65,0,1.2-0.5,1.25-1.16
				c0.05-0.69-0.47-1.29-1.15-1.34c0,0-0.01,0-0.01,0c-0.02,0-0.03,0-0.05,0C495.57,395.26,495.55,395.26,495.52,395.26
				L495.52,395.26z"/>
		</g>
	</g>
</g>
<g id="椭圆_4_1_" class="st0">
	<g id="椭圆_4">
		<g>
			<path class="st3" d="M487.5,406c53.76,0,97.5,43.74,97.5,97.5S541.26,601,487.5,601S390,557.26,390,503.5S433.74,406,487.5,406
				 M487.5,404c-54.95,0-99.5,44.55-99.5,99.5c0,54.95,44.55,99.5,99.5,99.5c54.95,0,99.5-44.55,99.5-99.5
				C587,448.55,542.45,404,487.5,404L487.5,404z"/>
		</g>
	</g>
</g>
<g id="椭圆_5_1_" class="st4">
	<g id="椭圆_5">
		<g>
			<path class="st5" d="M487.5,452c28.4,0,51.5,23.1,51.5,51.5S515.9,555,487.5,555c-28.4,0-51.5-23.1-51.5-51.5
				S459.1,452,487.5,452 M487.5,450c-29.55,0-53.5,23.95-53.5,53.5c0,29.55,23.95,53.5,53.5,53.5s53.5-23.95,53.5-53.5
				C541,473.95,517.05,450,487.5,450L487.5,450z"/>
		</g>
	</g>
</g>
<g id="椭圆_6_1_" class="st0">
	<g id="椭圆_6">
		<g>
			<circle class="st2" cx="487" cy="504" r="39"/>
		</g>
	</g>
</g>
<g id="椭圆_7_1_" class="st4">
	<g id="椭圆_7">
		<g>
			
				<ellipse transform="matrix(0.1222 -0.9925 0.9925 0.1222 -72.7838 926.7068)" class="st5" cx="487.5" cy="504.5" rx="4.5" ry="4.5"/>
		</g>
	</g>
</g>
<g id="形状_1_3_" class="st0">
	<g id="形状_1">
		<g>
			<rect x="481" y="302" class="st6" width="1" height="20"/>
		</g>
	</g>
</g>
<g id="形状_1_2_" class="st0">
	<g id="形状_1_1_">
		<g>
			<rect x="492" y="673" class="st6" width="1" height="20"/>
		</g>
	</g>
</g>
<g id="形状_2_3_" class="st4">
	<g id="形状_2">
		<g>
			<polygon class="st1" points="297.5,493.89 296.79,494.6 306.69,504.5 296.79,514.4 297.5,515.11 307.39,505.21 308.1,504.5 
				307.39,503.79 307.39,503.79 297.5,493.89 			"/>
		</g>
	</g>
</g>
<g id="形状_2_2_" class="st4">
	<g id="形状_2_1_">
		<g>
			<polygon class="st1" points="676.08,493.99 665.78,504.5 676.08,515.01 676.77,514.31 667.15,504.5 676.77,494.69 676.08,493.99 
							"/>
		</g>
	</g>
</g>
<g id="形状_3_1_" class="st4">
	<g id="形状_3">
		<g>
			<path class="st1" d="M495,432L495,432l-16,0v0H495 M496,431h-18v2h18V431L496,431z"/>
		</g>
	</g>
</g>
<g id="椭圆_9_1_" class="st0">
	<g id="椭圆_9">
		<g>
			<path class="st1" d="M552.99,517c-0.06,6.03-0.71,11.74-1.91,17.09c1.07-5.11,1.73-10.78,1.89-17.09H552.99 M436.92,561.12
				c11.78,13.38,27.98,17.88,38.79,19.36c-15.73-1.78-28.24-7.68-37.27-17.61C437.92,562.3,437.41,561.72,436.92,561.12
				 M512.73,577.08c-6.88,2.31-14.48,3.64-22.65,3.92c0,0,0,0,0,0C495.53,580.53,503.88,579.82,512.73,577.08 M422.36,514.63
				c-0.59,0-1.36,0.26-1.36,0.37c1.25,40.03,21.5,67.06,65.32,67.06c1.21,0,2.43-0.02,3.68-0.06c38-1.26,64-24.81,64-66h-2
				c-0.99,56.18-40.87,62.2-62,64c-1.36,0.12-2.9,0.18-4.6,0.18c-20.34,0-62.4-9.83-62.4-65.18
				C423,514.72,422.71,514.63,422.36,514.63L422.36,514.63z"/>
		</g>
	</g>
</g>
<g id="形状_4_3_" class="st0">
	<g id="形状_4">
		<g>
			<polygon class="st1" points="422,515 400,515 400,516 422,516 422,515 			"/>
		</g>
	</g>
</g>
<g id="形状_4_2_" class="st0">
	<g id="形状_4_1_">
		<g>
			<polygon class="st1" points="575,516 553,516 553,517 575,517 575,516 			"/>
		</g>
	</g>
</g>
<g id="椭圆_8_拷贝_5_" class="st7">
	<g id="椭圆_8_拷贝">
		<g>
			<path class="st5" d="M392.09,419.53c-2.95,0-1.48,0-5,0c-46.69,50.85-43.32,129.93,7.54,176.62c3.98,0,0.73,0,5,0
				C348.77,549.46,345.4,470.39,392.09,419.53L392.09,419.53z"/>
		</g>
	</g>
</g>
<g id="椭圆_8_拷贝_4_" class="st7">
	<g id="椭圆_8_拷贝_1_">
		<g>
			<path class="st5" d="M608.66,543.42c-13.74,43.48-50.68,75.98-95.51,84.52c-3.72,0.71-3.49,3.33-2.03,3.33c0.02,0,0.03,0,0.05,0
				c1.2-0.96,4-2.51,4.23-2.51c0.14,0-0.67,0.58-3.4,2.24c-0.31,0.19-0.59,0.26-0.84,0.27c-0.53,0.42-0.76,0.73-0.29,0.73
				c0.04,0,0.08,0,0.13-0.01c0.42-0.04,0.72-0.05,0.95-0.05c1.15,0,0.04,0.43,0.65,0.43c0.2,0,0.57-0.04,1.24-0.16
				c46.74-8.06,85.16-42.26,98.56-87.78L608.66,543.42L608.66,543.42z"/>
		</g>
	</g>
</g>
<g id="椭圆_8_拷贝_3_" class="st7">
	<g id="椭圆_8_拷贝_2_">
		<g>
			<path class="st5" d="M491.62,368c-2.12,0-4.25,0.05-6.39,0.16c-2.79,2.84-0.51,0.52-3.51,3.56c2.14-0.11,4.27-0.16,6.39-0.16
				c66.15,0,121.37,51.91,124.74,118.72c2.07-2.1,1.04-1.06,3.51-3.56C613,419.91,557.77,368,491.62,368L491.62,368z"/>
		</g>
	</g>
</g>
</svg>
