<?xml version="1.0" encoding="utf-8"?>
<!-- Generator: Adobe Illustrator 23.0.0, SVG Export Plug-In . SVG Version: 6.00 Build 0)  -->
<svg version="1.1" id="图层_1" xmlns="http://www.w3.org/2000/svg" xmlns:xlink="http://www.w3.org/1999/xlink" x="0px" y="0px"
	 viewBox="0 0 293 79" style="enable-background:new 0 0 293 79;" xml:space="preserve">
<style type="text/css">
	.st0{enable-background:new    ;}
	.st1{fill:#F4A027;}
	.st2{fill:#2474CD;}
	.st3{fill:none;stroke:url(#SVGID_1_);stroke-width:3;stroke-miterlimit:100;}
	.st4{fill:none;stroke:#37D8FF;stroke-width:3;stroke-linecap:round;stroke-miterlimit:100;}
</style>
<g id="椭圆_692_1_" class="st0">
	<g id="椭圆_692">
		<g>
			<path class="st1" d="M253.5,21c-0.01,0-0.02,0-0.03,0h-0.01c-0.01,0-0.01,0-0.02,0h-0.01c-0.01,0-0.01,0-0.02,0h-0.01
				c-0.01,0-0.01,0-0.02,0h-0.01c-0.01,0-0.02,0-0.03,0l0,0c-0.01,0-0.02,0-0.03,0h-0.01c-0.01,0-0.01,0-0.02,0h-0.01
				c-0.01,0-0.01,0-0.02,0h-0.01c-0.01,0-0.01,0-0.02,0h-0.01c-0.01,0-0.02,0-0.03,0l0,0c-0.01,0-0.02,0-0.02,0h-0.01
				c-0.01,0-0.01,0-0.02,0h-0.01c-0.01,0-0.01,0-0.02,0h-0.01c-0.01,0-0.01,0-0.02,0c0,0,0,0-0.01,0s-0.02,0-0.03,0l0,0
				c-0.01,0-0.02,0-0.02,0H253c-0.01,0-0.01,0-0.02,0h-0.01c-0.01,0-0.01,0-0.02,0h-0.01c-0.01,0-0.01,0-0.02,0h-0.01
				c-0.01,0-0.02,0-0.03,0c0,0,0,0-0.01,0s-0.01,0-0.02,0h-0.01c-0.01,0-0.01,0-0.02,0h-0.01c-0.01,0-0.01,0-0.02,0h-0.01
				c-0.01,0-0.01,0-0.02,0h-0.01c-0.01,0-0.02,0-0.03,0c0,0,0,0-0.01,0s-0.01,0-0.02,0h-0.01c-0.01,0-0.01,0-0.02,0h-0.01
				c-0.01,0-0.01,0-0.02,0h-0.01c-0.01,0-0.01,0-0.02,0c0,0,0,0-0.01,0s-0.02,0-0.03,0h-0.01c-0.01,0-0.01,0-0.02,0h-0.01
				c-0.01,0-0.01,0-0.02,0h-0.01c-0.01,0-0.01,0-0.02,0h-0.01c-0.01,0-0.02,0-0.02,0s0,0-0.01,0s-0.02,0-0.03,0h-0.01
				c-0.01,0-0.01,0-0.02,0h-0.01c-0.01,0-0.01,0-0.02,0h-0.01c-0.01,0-0.01,0-0.02,0h-0.01c-0.01,0-0.02,0-0.03,0l0,0
				c-0.01,0-0.02,0-0.03,0h-0.01c-0.01,0-0.01,0-0.02,0h-0.01c-0.01,0-0.01,0-0.02,0h-0.01c-0.01,0-0.01,0-0.02,0h-0.01
				c-0.01,0-0.02,0-0.02,0l0,0c-0.01,0-0.02,0-0.03,0h-0.01c-0.01,0-0.01,0-0.02,0h-0.01c-0.01,0-0.01,0-0.02,0h-0.01
				c-0.01,0-0.01,0-0.02,0h-0.01c-0.01,0-0.02,0-0.03,0l0,0c-0.01,0-0.02,0-0.02,0h-0.01c-0.01,0-0.01,0-0.02,0h-0.01
				c-0.01,0-0.01,0-0.02,0h-0.01c-0.01,0-0.01,0-0.02,0h-0.01c-0.01,0-0.02,0-0.03,0l0,0c-0.01,0-0.02,0-0.02,0h-0.01
				c-0.01,0-0.01,0-0.02,0h-0.01c-0.01,0-0.01,0-0.02,0h-0.01c-0.01,0-0.01,0-0.02,0h-0.01c-0.01,0-0.02,0-0.03,0c0,0,0,0-0.01,0
				s-0.01,0-0.02,0h-0.01c-0.01,0-0.01,0-0.02,0h-0.01c-0.01,0-0.01,0-0.02,0h-0.01c-0.01,0-0.01,0-0.02,0h-0.01
				c-0.01,0-0.02,0-0.03,0h-0.01c-0.01,0-0.01,0-0.02,0h-0.01c-0.01,0-0.01,0-0.02,0h-0.01c-0.01,0-0.01,0-0.02,0h-0.01
				c-0.01,0-0.01,0-0.02,0h-0.01c-0.01,0-0.02,0-0.03,0c0,0,0,0-0.01,0s-0.01,0-0.02,0h-0.01c-0.01,0-0.01,0-0.02,0h-0.01
				c-0.01,0-0.01,0-0.02,0h-0.01c-0.01,0-0.01,0-0.02,0c0,0,0,0-0.01,0s-0.02,0-0.03,0c0,0,0,0-0.01,0s-0.01,0-0.02,0h-0.01
				c-0.01,0-0.01,0-0.02,0h-0.01c-0.01,0-0.01,0-0.02,0h-0.01c-0.01,0-0.01,0-0.02,0c0,0,0,0-0.01,0s-0.02,0-0.03,0h-0.01
				c-0.01,0-0.01,0-0.02,0h-0.01c-0.01,0-0.01,0-0.02,0h-0.01c-0.01,0-0.01,0-0.02,0h-0.01c-0.01,0-0.02,0-0.02,0l0,0
				c-0.01,0-0.02,0-0.03,0h-0.01c-0.01,0-0.01,0-0.02,0h-0.01c-0.01,0-0.01,0-0.02,0h-0.01c-0.01,0-0.01,0-0.02,0h-0.01
				c-0.01,0-0.01,0-0.02,0l0,0c-0.01,0-0.02,0-0.03,0h-0.01c-0.01,0-0.01,0-0.02,0h-0.01c-0.01,0-0.01,0-0.02,0h-0.01
				c-0.01,0-0.01,0-0.02,0h-0.01c-0.02,0-0.03,0.01-0.05,0.01h-0.01c-0.01,0-0.01,0-0.02,0h-0.01c0,0-0.01,0-0.02,0h-0.01
				c-0.01,0-0.01,0-0.02,0h-0.01c-0.01,0-0.02,0-0.03,0l0,0c-0.01,0-0.01,0-0.02,0h-0.01c-0.01,0-0.01,0-0.02,0h-0.01
				c-0.01,0-0.01,0-0.02,0h-0.01c-0.01,0-0.01,0-0.02,0h-0.01c-0.01,0-0.02,0-0.03,0l0,0c-0.01,0-0.02,0-0.02,0h-0.01
				c-0.01,0-0.01,0-0.02,0h-0.01c-0.01,0-0.01,0-0.02,0h-0.01c-0.01,0-0.01,0-0.02,0c0,0,0,0-0.01,0s-0.02,0-0.03,0l0,0
				c-0.01,0-0.01,0-0.02,0h-0.01c-0.01,0-0.01,0-0.02,0h-0.01c-0.01,0-0.01,0-0.02,0h-0.01c-0.01,0-0.01,0-0.02,0h-0.01
				c-0.01,0-0.02,0-0.03,0l0,0c-0.01,0-0.01,0-0.02,0h-0.01c-0.01,0-0.01,0-0.02,0h-0.01c-0.01,0-0.01,0-0.02,0h-0.01
				c-0.01,0-0.01,0-0.02,0c0,0,0,0-0.01,0s-0.02,0-0.03,0c0,0,0,0-0.01,0s-0.01,0-0.02,0h-0.01c-0.01,0-0.01,0-0.02,0h-0.01
				c-0.01,0-0.01,0-0.02,0h-0.01c-0.01,0-0.01,0-0.02,0c0,0,0,0-0.01,0s-0.02,0-0.03,0.01h-0.01c-0.01,0-0.01,0-0.02,0h-0.01
				c-0.01,0-0.01,0-0.02,0h-0.01c-0.01,0-0.01,0-0.02,0h-0.01c-0.01,0-0.01,0-0.02,0c0,0,0,0-0.01,0s-0.02,0-0.02,0.01h-0.01h-0.01
				h-0.01h-0.01h-0.01c-0.01,0-0.01,0-0.01,0h-0.01c-0.01,0-0.01,0-0.02,0h-0.01c-0.01,0-0.02,0-0.02,0.01h-0.01
				c-0.01,0-0.01,0-0.02,0h-0.01c-0.01,0-0.01,0-0.02,0h-0.01c-0.01,0-0.01,0-0.02,0h-0.01c-0.01,0-0.01,0-0.02,0h-0.01
				c-0.01,0-0.01,0-0.02,0h-0.01c-0.01,0-0.01,0-0.02,0h-0.01c-0.01,0-0.01,0-0.02,0h-0.01c-0.01,0-0.01,0-0.02,0h-0.01
				c-0.01,0-0.01,0-0.02,0h-0.01c-0.01,0-0.01,0-0.02,0h-0.01c-0.01,0-0.01,0-0.02,0h-0.01h-0.01h-0.01c-0.01,0-0.01,0-0.02,0h-0.01
				c-0.01,0-0.02,0-0.03,0.01c0,0,0,0-0.01,0s-0.01,0-0.02,0h-0.01h-0.01h-0.01c-0.01,0-0.01,0-0.02,0h-0.01c-0.01,0-0.01,0-0.02,0
				h-0.01c-0.01,0-0.01,0-0.02,0.01h-0.01c-0.01,0-0.01,0-0.02,0h-0.01c-0.01,0-0.01,0-0.02,0h-0.01c-0.01,0-0.01,0-0.01,0h-0.01
				c-0.01,0-0.01,0-0.02,0h-0.01c-0.01,0-0.02,0-0.02,0.01h-0.01c-0.01,0-0.01,0-0.02,0h-0.01c-0.01,0-0.01,0-0.01,0h-0.01
				c-0.01,0-0.01,0-0.02,0h-0.01c-0.01,0-0.01,0-0.02,0h-0.01c-0.01,0-0.02,0-0.02,0.01h-0.01c-0.01,0-0.01,0-0.02,0h-0.01
				c-0.01,0-0.01,0-0.01,0h-0.01c-0.01,0-0.01,0-0.01,0h-0.01c-0.01,0-0.01,0-0.02,0c0,0,0,0-0.01,0s-0.02,0-0.02,0.01h-0.01
				c-0.01,0-0.01,0-0.02,0h-0.01c-0.01,0-0.01,0-0.01,0h-0.01c-0.01,0-0.01,0-0.02,0h-0.01c-0.01,0-0.01,0-0.02,0.01c0,0,0,0-0.01,0
				s-0.02,0-0.02,0.01h-0.01c-0.01,0-0.01,0-0.02,0h-0.01c-0.01,0-0.01,0-0.02,0h-0.01c-0.01,0-0.01,0-0.02,0h-0.01
				c-0.01,0-0.01,0-0.02,0h-0.01c-0.01,0-0.02,0-0.02,0.01h-0.01c-0.01,0-0.01,0-0.02,0h-0.01c-0.01,0-0.01,0-0.01,0h-0.01
				c-0.01,0-0.01,0-0.02,0h-0.01c-0.01,0-0.01,0-0.02,0.01l0,0c-0.01,0-0.02,0-0.02,0.01h-0.01c-0.01,0-0.01,0-0.02,0h-0.01h-0.01
				h-0.01c-0.01,0-0.01,0-0.02,0h-0.01c-0.01,0-0.01,0-0.02,0.01l0,0c-0.01,0-0.02,0-0.02,0.01h-0.01c-0.01,0-0.01,0-0.02,0h-0.01
				h-0.01h-0.01c0,0-0.01,0-0.02,0h-0.01c-0.01,0-0.01,0-0.02,0.01h-0.01c-0.01,0-0.01,0-0.02,0.01h-0.01h-0.01h-0.01h-0.01h-0.01
				h-0.01h-0.01c-0.01,0-0.01,0-0.02,0.01h-0.01c-0.01,0-0.01,0-0.02,0h-0.01h-0.01h-0.01h-0.01h-0.01c-0.01,0-0.01,0-0.01,0h-0.01
				c-0.01,0-0.02,0.01-0.02,0.01h-0.01c-0.01,0-0.01,0-0.02,0h-0.01c-0.01,0-0.01,0-0.01,0h-0.01h-0.01h-0.01
				c-0.01,0-0.01,0-0.02,0.01h-0.01c-0.01,0-0.02,0.01-0.02,0.01s0,0-0.01,0s-0.01,0-0.02,0.01h-0.01c-0.01,0-0.01,0-0.01,0h-0.01
				h-0.01h-0.01c-0.01,0-0.01,0-0.02,0.01h-0.01c-0.01,0-0.02,0.01-0.02,0.01h-0.01c-0.01,0-0.01,0-0.02,0.01h-0.01
				c-0.01,0-0.01,0-0.02,0.01h-0.01c-0.01,0-0.01,0-0.01,0.01h-0.01c-0.01,0-0.01,0-0.02,0.01h-0.01c-0.01,0-0.02,0.01-0.02,0.01
				h-0.01c-0.01,0-0.01,0-0.01,0.01h-0.01h-0.01h-0.01c-0.01,0-0.01,0-0.01,0h-0.01c-0.01,0-0.01,0-0.02,0.01h-0.01
				c-0.01,0-0.02,0.01-0.02,0.01h-0.01c0,0-0.01,0-0.01,0.01h-0.01h-0.01h-0.01h-0.01h-0.01c-0.01,0-0.01,0-0.01,0.01h-0.01
				c-0.01,0-0.01,0.01-0.02,0.01h-0.01c0,0-0.01,0-0.01,0.01h-0.01h-0.01h-0.01h-0.01h-0.01c-0.01,0-0.01,0-0.02,0.01h-0.01
				c-0.01,0-0.01,0-0.02,0.01h-0.01c0,0-0.01,0-0.01,0.01h-0.01c0,0-0.01,0-0.01,0.01h-0.01c0,0-0.01,0-0.01,0.01h-0.01
				c-0.01,0-0.01,0-0.02,0.01c0,0-0.01,0-0.01,0.01c-0.01,0-0.01,0-0.02,0.01h-0.01h-0.01h-0.01h-0.01h-0.01c0,0-0.01,0-0.01,0.01
				h-0.01c0,0-0.01,0-0.01,0.01c-0.01,0-0.01,0.01-0.02,0.01h-0.01h-0.01h-0.01h-0.01h-0.01h-0.01h-0.01h-0.01c0,0-0.01,0-0.02,0.01
				c-0.01,0-0.01,0-0.02,0.01c0,0-0.01,0-0.01,0.01h-0.01h-0.01h-0.01h-0.01c0,0-0.01,0-0.01,0.01h-0.01h-0.01
				c-0.01,0-0.01,0.01-0.02,0.01c0,0-0.01,0-0.01,0.01c0,0-0.01,0-0.01,0.01h-0.01h-0.01c0,0-0.01,0-0.01,0.01h-0.01
				c0,0-0.01,0-0.01,0.01h-0.01c0,0-0.01,0-0.01,0.01h-0.01c-0.01,0-0.02,0.01-0.02,0.01h-0.01c0,0-0.01,0-0.01,0.01h-0.01
				c0,0-0.01,0-0.01,0.01h-0.01c0,0-0.01,0-0.01,0.01h-0.01c0,0-0.01,0-0.01,0.01c-0.01,0-0.01,0-0.02,0.01
				c-0.01,0-0.01,0.01-0.02,0.01h-0.01c0,0-0.01,0-0.01,0.01c0,0-0.01,0-0.01,0.01c0,0-0.01,0-0.01,0.01c0,0-0.01,0-0.01,0.01h-0.01
				c0,0-0.01,0-0.01,0.01c0,0-0.01,0-0.01,0.01c-0.01,0-0.01,0.01-0.02,0.01H246c0,0-0.01,0-0.01,0.01h-0.01c0,0-0.01,0-0.01,0.01
				h-0.01c0,0-0.01,0-0.01,0.01c0,0-0.01,0-0.01,0.01c0,0-0.01,0-0.01,0.01h-0.01c-0.01,0-0.02,0.01-0.02,0.01s-0.01,0-0.01,0.01
				c0,0-0.01,0-0.01,0.01c0,0-0.01,0-0.01,0.01h-0.01c0,0-0.01,0-0.01,0.01c0,0-0.01,0-0.01,0.01c0,0-0.01,0-0.01,0.01
				c0,0-0.01,0-0.01,0.01c-0.01,0-0.01,0.01-0.02,0.01c0,0-0.01,0-0.01,0.01c0,0-0.01,0-0.01,0.01c0,0-0.01,0-0.01,0.01
				c0,0-0.01,0-0.01,0.01c0,0-0.01,0-0.01,0.01c0,0-0.01,0-0.01,0.01c0,0-0.01,0-0.01,0.01c0,0-0.01,0-0.01,0.01
				c0,0-0.01,0-0.01,0.01c-0.01,0-0.01,0.01-0.02,0.01c0,0-0.01,0-0.01,0.01c0,0-0.01,0-0.01,0.01c0,0-0.01,0-0.01,0.01
				c0,0-0.01,0-0.01,0.01c0,0-0.01,0-0.01,0.01c0,0-0.01,0-0.01,0.01c0,0-0.01,0-0.01,0.01c0,0-0.01,0-0.01,0.01h-0.01
				c-0.01,0-0.02,0.01-0.02,0.01h-0.01c0,0-0.01,0-0.01,0.01c0,0-0.01,0-0.01,0.01c0,0-0.01,0-0.01,0.01h-0.01c0,0-0.01,0-0.01,0.01
				h-0.01c0,0-0.01,0-0.01,0.01c0,0,0,0-0.01,0s-0.02,0.01-0.03,0.01h-0.01c0,0-0.01,0-0.01,0.01c0,0-0.01,0-0.01,0.01
				c0,0-0.01,0-0.01,0.01c0,0-0.01,0-0.01,0.01c0,0-0.01,0-0.01,0.01c0,0-0.01,0-0.01,0.01c0,0-0.01,0-0.01,0.01
				c0,0-0.01,0.01-0.02,0.01c-0.01,0-0.01,0.01-0.02,0.01c0,0-0.01,0-0.01,0.01c0,0-0.01,0-0.01,0.01c0,0-0.01,0-0.01,0.01
				c0,0-0.01,0-0.01,0.01h-0.01c0,0-0.01,0-0.01,0.01c0,0-0.01,0-0.01,0.01c0,0-0.01,0-0.01,0.01c-0.01,0-0.01,0.01-0.02,0.01
				c0,0-0.01,0-0.01,0.01c0,0-0.01,0-0.01,0.01c0,0-0.01,0-0.01,0.01c0,0-0.01,0-0.01,0.01c0,0-0.01,0-0.01,0.01
				c0,0-0.01,0-0.01,0.01c0,0-0.01,0-0.01,0.01c0,0-0.01,0-0.01,0.01c0,0-0.01,0-0.01,0.01c0,0,0,0-0.01,0s-0.02,0.01-0.03,0.01
				c0,0-0.01,0-0.01,0.01c0,0-0.01,0-0.01,0.01c0,0-0.01,0-0.01,0.01c0,0-0.01,0-0.01,0.01c0,0-0.01,0-0.01,0.01
				c0,0-0.01,0-0.01,0.01c0,0-0.01,0-0.01,0.01c-0.01,0-0.01,0.01-0.02,0.01c-0.01,0-0.01,0.01-0.02,0.01c0,0-0.01,0-0.01,0.01
				c0,0-0.01,0-0.01,0.01c0,0-0.01,0-0.01,0.01c0,0-0.01,0-0.01,0.01c0,0-0.01,0-0.01,0.01c0,0-0.01,0-0.01,0.01
				c0,0-0.01,0-0.01,0.01c0,0-0.01,0-0.01,0.01c0,0-0.01,0-0.01,0.01c-0.01,0-0.01,0.01-0.02,0.01c0,0-0.01,0-0.01,0.01
				c0,0-0.01,0-0.01,0.01c0,0-0.01,0-0.01,0.01c0,0-0.01,0-0.01,0.01c0,0-0.01,0-0.01,0.01c0,0-0.01,0-0.01,0.01
				c0,0-0.01,0-0.01,0.01c0,0-0.01,0-0.01,0.01c-0.01,0-0.01,0.01-0.02,0.01c-0.01,0-0.01,0.01-0.02,0.01c0,0-0.01,0-0.01,0.01
				c0,0-0.01,0-0.01,0.01c0,0-0.01,0-0.01,0.01c0,0-0.01,0-0.01,0.01c0,0-0.01,0-0.01,0.01c0,0-0.01,0-0.01,0.01
				c0,0-0.01,0-0.01,0.01c0,0-0.01,0-0.01,0.01c-0.01,0-0.01,0.01-0.02,0.01l-0.01,0.01c0,0-0.01,0-0.01,0.01c0,0-0.01,0-0.01,0.01
				c0,0-0.01,0-0.01,0.01c0,0-0.01,0-0.01,0.01c0,0-0.01,0-0.01,0.01c0,0-0.01,0-0.01,0.01c0,0-0.01,0-0.01,0.01
				c0,0-0.01,0-0.01,0.01c-0.01,0-0.01,0.01-0.02,0.01c0,0-0.01,0-0.01,0.01c0,0-0.01,0-0.01,0.01c0,0-0.01,0-0.01,0.01
				c0,0-0.01,0-0.01,0.01c0,0-0.01,0-0.01,0.01c0,0-0.01,0-0.01,0.01c0,0-0.01,0-0.01,0.01c0,0-0.01,0-0.01,0.01
				c0,0-0.01,0-0.01,0.01c-0.01,0-0.01,0.01-0.02,0.01c0,0-0.01,0-0.01,0.01c0,0-0.01,0-0.01,0.01c0,0-0.01,0-0.01,0.01
				c0,0-0.01,0-0.01,0.01c0,0-0.01,0-0.01,0.01c0,0-0.01,0-0.01,0.01c0,0-0.01,0-0.01,0.01c0,0-0.01,0-0.01,0.01
				c0,0-0.01,0-0.01,0.01c-0.01,0-0.01,0.01-0.02,0.01c0,0-0.01,0-0.01,0.01c0,0-0.01,0-0.01,0.01c0,0-0.01,0-0.01,0.01
				c0,0-0.01,0-0.01,0.01c0,0-0.01,0-0.01,0.01c0,0-0.01,0-0.01,0.01c0,0-0.01,0-0.01,0.01c0,0-0.01,0-0.01,0.01
				c0,0-0.01,0-0.01,0.01c-0.01,0-0.01,0.01-0.02,0.01c0,0-0.01,0-0.01,0.01c0,0-0.01,0-0.01,0.01c0,0-0.01,0-0.01,0.01
				c0,0-0.01,0-0.01,0.01c0,0-0.01,0-0.01,0.01c0,0-0.01,0-0.01,0.01c0,0-0.01,0-0.01,0.01c0,0-0.01,0-0.01,0.01
				c0,0-0.01,0-0.01,0.01c-0.01,0-0.01,0.01-0.02,0.01c0,0-0.01,0-0.01,0.01c0,0-0.01,0-0.01,0.01c0,0-0.01,0-0.01,0.01
				c0,0-0.01,0-0.01,0.01c0,0-0.01,0-0.01,0.01l-0.01,0.01c0,0-0.01,0-0.01,0.01c-0.02,0.01-0.03,0.02-0.05,0.03
				c0,0-0.01,0-0.01,0.01l-0.01,0.01c0,0-0.01,0-0.01,0.01c0,0-0.01,0-0.01,0.01c0,0-0.01,0-0.01,0.01c0,0-0.01,0-0.01,0.01
				c0,0-0.01,0-0.01,0.01l-0.01,0.01c-0.01,0-0.01,0.01-0.02,0.01c0,0-0.01,0-0.01,0.01c0,0-0.01,0-0.01,0.01c0,0-0.01,0-0.01,0.01
				c0,0-0.01,0-0.01,0.01c0,0-0.01,0-0.01,0.01c0,0-0.01,0-0.01,0.01c0,0-0.01,0-0.01,0.01c0,0-0.01,0-0.01,0.01
				c-0.01,0-0.01,0.01-0.02,0.01c0,0-0.01,0-0.01,0.01l-0.01,0.01c0,0-0.01,0-0.01,0.01l-0.01,0.01c0,0-0.01,0-0.01,0.01
				c0,0-0.01,0-0.01,0.01c0,0-0.01,0-0.01,0.01c0,0-0.01,0-0.01,0.01c0,0-0.01,0-0.01,0.01c-0.01,0.01-0.02,0.01-0.03,0.02
				c0,0,0,0-0.01,0l-0.01,0.01c0,0-0.01,0-0.01,0.01l-0.01,0.01c0,0-0.01,0-0.01,0.01l-0.01,0.01c0,0-0.01,0-0.01,0.01l-0.01,0.01
				l-0.01,0.01c-0.01,0-0.01,0.01-0.02,0.01l-0.01,0.01c0,0-0.01,0-0.01,0.01c0,0-0.01,0-0.01,0.01l-0.01,0.01c0,0-0.01,0-0.01,0.01
				l-0.01,0.01c0,0-0.01,0-0.01,0.01l-0.01,0.01c0,0,0,0-0.01,0.01s-0.02,0.01-0.02,0.02c0,0-0.01,0-0.01,0.01l-0.01,0.01
				c0,0-0.01,0-0.01,0.01l-0.01,0.01c0,0-0.01,0-0.01,0.01l-0.01,0.01c0,0-0.01,0-0.01,0.01l-0.01,0.01c0,0,0,0-0.01,0
				c-0.01,0.01-0.02,0.01-0.03,0.02c0,0,0,0-0.01,0.01l-0.01,0.01c0,0-0.01,0-0.01,0.01l-0.01,0.01c0,0-0.01,0-0.01,0.01l-0.01,0.01
				c0,0-0.01,0-0.01,0.01l-0.01,0.01l0,0c-0.01,0.01-0.02,0.01-0.03,0.02c0,0,0,0-0.01,0l-0.01,0.01c0,0-0.01,0-0.01,0.01
				l-0.01,0.01c0,0-0.01,0-0.01,0.01l-0.01,0.01c0,0-0.01,0-0.01,0.01l-0.01,0.01l0,0c-0.01,0.01-0.02,0.01-0.03,0.02
				c0,0-0.01,0-0.01,0.01l-0.01,0.01c0,0-0.01,0-0.01,0.01l-0.01,0.01c0,0-0.01,0-0.01,0.01l-0.01,0.01c0,0-0.01,0-0.01,0.01
				c-0.01,0.01-0.03,0.02-0.04,0.03c0,0-0.01,0-0.01,0.01l-0.01,0.01c0,0-0.01,0-0.01,0.01l-0.01,0.01c0,0-0.01,0-0.01,0.01
				l-0.01,0.01c0,0-0.01,0-0.01,0.01c-0.01,0.01-0.02,0.01-0.03,0.02l0,0l-0.01,0.01c0,0-0.01,0-0.01,0.01l-0.01,0.01
				c0,0-0.01,0-0.01,0.01l-0.01,0.01c0,0-0.01,0-0.01,0.01l-0.01,0.01c0,0-0.01,0-0.01,0.01c-0.01,0-0.01,0.01-0.02,0.01l-0.01,0.01
				l-0.01,0.01c0,0-0.01,0-0.01,0.01l-0.01,0.01c0,0-0.01,0-0.01,0.01l-0.01,0.01c0,0-0.01,0-0.01,0.01l-0.01,0.01
				c0,0-0.01,0-0.01,0.01c-0.01,0-0.01,0.01-0.02,0.01l-0.01,0.01l-0.01,0.01c0,0-0.01,0-0.01,0.01l-0.01,0.01c0,0-0.01,0-0.01,0.01
				l-0.01,0.01c0,0-0.01,0-0.01,0.01l-0.01,0.01c0,0-0.01,0-0.01,0.01c-0.01,0.01-0.02,0.01-0.02,0.02c0,0,0,0-0.01,0.01l-0.01,0.01
				c0,0-0.01,0-0.01,0.01l-0.01,0.01l-0.01,0.01l-0.01,0.01c0,0-0.01,0-0.01,0.01l-0.01,0.01l-0.01,0.01
				c-0.01,0-0.01,0.01-0.02,0.01l-0.01,0.01c0,0-0.01,0-0.01,0.01l-0.01,0.01l-0.01,0.01c0,0-0.01,0-0.01,0.01l-0.01,0.01
				l-0.01,0.01c0,0-0.01,0-0.01,0.01c-0.01,0-0.01,0.01-0.02,0.01l-0.01,0.01l-0.01,0.01c0,0-0.01,0-0.01,0.01l-0.01,0.01
				l-0.01,0.01l-0.01,0.01l-0.01,0.01c0,0-0.01,0-0.01,0.01l-0.01,0.01l-0.01,0.01c-0.01,0.01-0.01,0.01-0.02,0.01
				c0,0-0.01,0-0.01,0.01l-0.01,0.01c0,0-0.01,0-0.01,0.01l-0.01,0.01c0,0-0.01,0-0.01,0.01l-0.01,0.01c0,0-0.01,0-0.01,0.01
				l-0.01,0.01c0,0-0.01,0-0.01,0.01c-0.01,0.01-0.01,0.01-0.02,0.02c0,0-0.01,0-0.01,0.01l-0.01,0.01l-0.01,0.01l-0.01,0.01
				l-0.01,0.01l-0.01,0.01c0,0-0.01,0-0.01,0.01c-0.01,0.01-0.03,0.02-0.04,0.03c0,0-0.01,0-0.01,0.01l-0.01,0.01
				c0,0-0.01,0-0.01,0.01L242,25.18c0,0-0.01,0-0.01,0.01l-0.01,0.01c0,0-0.01,0-0.01,0.01l-0.01,0.01l-0.01,0.01
				c-0.01,0.01-0.01,0.01-0.02,0.02c0,0-0.01,0-0.01,0.01l-0.01,0.01c0,0-0.01,0-0.01,0.01l-0.01,0.01c0,0-0.01,0-0.01,0.01
				l-0.01,0.01c0,0-0.01,0-0.01,0.01c-0.01,0.01-0.02,0.01-0.02,0.02l0,0l-0.01,0.01l-0.01,0.01l-0.01,0.01c0,0-0.01,0-0.01,0.01
				l-0.01,0.01l-0.01,0.01l-0.01,0.01l-0.01,0.01c-0.01,0.01-0.03,0.02-0.04,0.03c0,0,0,0-0.01,0.01l-0.01,0.01
				c0,0-0.01,0-0.01,0.01l-0.01,0.01l-0.01,0.01l-0.01,0.01c0,0,0,0-0.01,0.01s-0.01,0.01-0.02,0.02c0,0-0.01,0-0.01,0.01
				l-0.01,0.01l-0.01,0.01l-0.01,0.01l-0.01,0.01l-0.01,0.01c0,0-0.01,0-0.01,0.01l-0.01,0.01l-0.01,0.01l-0.01,0.01l-0.01,0.01
				l-0.01,0.01l-0.01,0.01l-0.01,0.01l-0.01,0.01l-0.01,0.01l-0.01,0.01l-0.01,0.01l-0.01,0.01c-0.01,0.01-0.01,0.01-0.02,0.02
				l-0.01,0.01l-0.01,0.01l-0.01,0.01l-0.01,0.01c0,0-0.01,0-0.01,0.01l-0.01,0.01c0,0-0.01,0-0.01,0.01l-0.01,0.01
				c0,0-0.01,0-0.01,0.01c-0.01,0.01-0.01,0.01-0.02,0.02c0,0,0,0-0.01,0.01l-0.01,0.01l-0.01,0.01l-0.01,0.01c0,0-0.01,0-0.01,0.01
				l-0.01,0.01l-0.01,0.01l-0.01,0.01l0,0c-0.01,0.01-0.02,0.02-0.03,0.02c0,0,0,0-0.01,0l-0.01,0.01c0,0,0,0-0.01,0.01l-0.01,0.01
				c0,0-0.01,0-0.01,0.01l-0.01,0.01c0,0,0,0-0.01,0.01s-0.03,0.02-0.04,0.04c0,0-0.01,0-0.01,0.01l-0.01,0.01c0,0-0.01,0-0.01,0.01
				l-0.01,0.01c0,0,0,0-0.01,0.01l-0.01,0.01c0,0,0,0-0.01,0.01l-0.01,0.01l0,0c-0.01,0.01-0.02,0.02-0.03,0.02l-0.01,0.01
				l-0.01,0.01l-0.01,0.01l-0.01,0.01c0,0-0.01,0-0.01,0.01l-0.01,0.01c0,0,0,0-0.01,0.01s-0.03,0.03-0.04,0.04c0,0,0,0-0.01,0.01
				l-0.01,0.01c0,0,0,0-0.01,0.01l-0.01,0.01c0,0,0,0-0.01,0.01l-0.01,0.01c0,0-0.01,0-0.01,0.01c-0.01,0.01-0.03,0.02-0.04,0.04
				c0,0,0,0-0.01,0.01l-0.01,0.01c0,0,0,0-0.01,0.01l-0.01,0.01c0,0,0,0-0.01,0.01l-0.01,0.01c0,0,0,0-0.01,0.01
				s-0.01,0.01-0.02,0.02l-0.01,0.01l-0.01,0.01l-0.01,0.01l-0.01,0.01l-0.01,0.01l-0.01,0.01c0,0,0,0-0.01,0.01l-0.01,0.01
				c0,0,0,0-0.01,0.01s-0.02,0.02-0.02,0.02l0,0l-0.01,0.01c0,0,0,0-0.01,0.01l-0.01,0.01c0,0,0,0-0.01,0.01l-0.01,0.01
				c0,0,0,0-0.01,0.01l-0.01,0.01c0,0,0,0-0.01,0.01s-0.02,0.02-0.02,0.02s0,0-0.01,0.01l-0.01,0.01c0,0,0,0-0.01,0.01l-0.01,0.01
				l-0.01,0.01l-0.01,0.01l-0.01,0.01l-0.01,0.01l-0.01,0.01c-0.01,0.01-0.01,0.01-0.02,0.02c0,0,0,0-0.01,0.01l-0.01,0.01
				c0,0,0,0-0.01,0.01l-0.01,0.01l-0.01,0.01l-0.01,0.01c0,0,0,0-0.01,0.01l-0.01,0.01c0,0,0,0-0.01,0.01s-0.01,0.01-0.02,0.02
				c0,0,0,0-0.01,0.01l-0.01,0.01l-0.01,0.01l-0.01,0.01l-0.01,0.01l-0.01,0.01c0,0,0,0-0.01,0.01l-0.01,0.01c0,0,0,0-0.01,0.01
				s-0.01,0.01-0.02,0.02c0,0,0,0.01-0.01,0.01l-0.01,0.01l-0.01,0.01l-0.01,0.01l-0.01,0.01l-0.01,0.01l-0.01,0.01l-0.01,0.01
				c0,0.01-0.01,0.01-0.01,0.01l-0.01,0.01l-0.01,0.01l-0.01,0.01c0,0,0,0.01-0.01,0.01l-0.01,0.01c0,0,0,0-0.01,0.01l-0.01,0.01
				l-0.01,0.01l-0.01,0.01l0,0c-0.01,0.01-0.01,0.02-0.02,0.02c0,0,0,0-0.01,0.01l-0.01,0.01l-0.01,0.01l-0.01,0.01l-0.01,0.01
				l-0.01,0.01c0,0,0,0-0.01,0.01s-0.02,0.03-0.04,0.04c0,0,0,0.01-0.01,0.01l-0.01,0.01c0,0,0,0-0.01,0.01l-0.01,0.01
				c0,0,0,0.01-0.01,0.01l-0.01,0.01c0,0,0,0-0.01,0.01s-0.02,0.02-0.02,0.03l0,0l-0.01,0.01c0,0,0,0.01-0.01,0.01l-0.01,0.01
				c0,0,0,0.01-0.01,0.01l-0.01,0.01l-0.01,0.01l-0.01,0.01c0,0,0,0.01-0.01,0.01c-0.01,0.01-0.01,0.01-0.02,0.02
				c0,0,0,0.01-0.01,0.01l-0.01,0.01l-0.01,0.01l-0.01,0.01l-0.01,0.01l-0.01,0.01l-0.01,0.01l-0.01,0.01l-0.01,0.01l-0.01,0.01
				l-0.01,0.01l-0.01,0.01c0,0,0,0.01-0.01,0.01l-0.01,0.01c0,0,0,0.01-0.01,0.01l-0.01,0.01l-0.01,0.01l-0.01,0.01l-0.01,0.01
				c-0.01,0.01-0.01,0.01-0.02,0.02c0,0,0,0.01-0.01,0.01l-0.01,0.01l-0.01,0.01l-0.01,0.01l-0.01,0.01l-0.01,0.01
				c0,0,0,0.01-0.01,0.01l-0.01,0.01c0,0,0,0.01-0.01,0.01c-0.01,0.01-0.01,0.01-0.02,0.02c0,0,0,0.01-0.01,0.01l-0.01,0.01
				l-0.01,0.01l-0.01,0.01l-0.01,0.01l-0.01,0.01l-0.01,0.01l-0.01,0.01c0,0,0,0,0,0.01c-0.01,0.01-0.01,0.02-0.02,0.02
				c0,0,0,0-0.01,0.01l-0.01,0.01c0,0,0,0.01-0.01,0.01l-0.01,0.01c0,0,0,0.01-0.01,0.01l-0.01,0.01c0,0,0,0-0.01,0.01l-0.01,0.01
				c0,0,0,0,0,0.01c-0.01,0.01-0.01,0.02-0.02,0.02c0,0,0,0.01-0.01,0.01l-0.01,0.01c0,0,0,0.01-0.01,0.01l-0.01,0.01
				c0,0,0,0.01-0.01,0.01l-0.01,0.01l-0.01,0.01l-0.01,0.01c0,0.01-0.01,0.01-0.01,0.02l-0.01,0.01L239,28.18l-0.01,0.01l-0.01,0.01
				l-0.01,0.01l-0.01,0.01l-0.01,0.01c0,0,0,0.01-0.01,0.01l-0.01,0.01c-0.01,0.01-0.01,0.01-0.01,0.02l-0.01,0.01
				c0,0,0,0.01-0.01,0.01l-0.01,0.01c0,0,0,0.01-0.01,0.01l-0.01,0.01c0,0,0,0.01-0.01,0.01l-0.01,0.01c0,0,0,0.01-0.01,0.01
				c-0.01,0.01-0.01,0.02-0.02,0.03l0,0l-0.01,0.01c0,0,0,0.01-0.01,0.01l-0.01,0.01c0,0,0,0.01-0.01,0.01l-0.01,0.01
				c0,0,0,0.01-0.01,0.01l-0.01,0.01c0,0,0,0.01-0.01,0.01c0,0-0.01,0.01-0.01,0.02s-0.01,0.01-0.01,0.01l-0.01,0.01l-0.01,0.01
				l-0.01,0.01c0,0,0,0.01-0.01,0.01l-0.01,0.01c0,0,0,0.01-0.01,0.01l-0.01,0.01l-0.01,0.01c-0.01,0.01-0.01,0.01-0.01,0.02
				c0,0,0,0.01-0.01,0.01l-0.01,0.01c0,0,0,0.01-0.01,0.01l-0.01,0.01l-0.01,0.01l-0.01,0.01c0,0,0,0.01-0.01,0.01l-0.01,0.01
				c0,0,0,0.01-0.01,0.01c-0.01,0.01-0.01,0.01-0.02,0.02c0,0,0,0.01-0.01,0.01l-0.01,0.01c0,0,0,0.01-0.01,0.01l-0.01,0.01
				l-0.01,0.01l-0.01,0.01c0,0,0,0.01-0.01,0.01c0,0,0,0.01-0.01,0.01l-0.01,0.01c0,0.01-0.01,0.01-0.01,0.02l-0.01,0.01
				c0,0,0,0.01-0.01,0.01l-0.01,0.01c0,0,0,0.01-0.01,0.01l-0.01,0.01c0,0,0,0.01-0.01,0.01c0,0,0,0.01-0.01,0.01l-0.01,0.01
				l-0.01,0.01c0,0.01-0.01,0.01-0.01,0.02l-0.01,0.01l-0.01,0.01c0,0,0,0.01-0.01,0.01l-0.01,0.01c0,0,0,0.01-0.01,0.01l-0.01,0.01
				c0,0,0,0.01-0.01,0.01L238.24,29c0,0,0,0.01-0.01,0.01c-0.01,0.01-0.01,0.01-0.02,0.02c0,0,0,0.01-0.01,0.01l-0.01,0.01
				c0,0,0,0.01-0.01,0.01l-0.01,0.01c0,0,0,0.01-0.01,0.01l-0.01,0.01c0,0,0,0.01-0.01,0.01l-0.01,0.01c0,0,0,0.01-0.01,0.01
				c0,0.01-0.01,0.01-0.01,0.02c0,0,0,0.01-0.01,0.01l-0.01,0.01c0,0,0,0.01-0.01,0.01l-0.01,0.01c0,0,0,0.01-0.01,0.01l-0.01,0.01
				c0,0,0,0.01-0.01,0.01c0,0,0,0.01-0.01,0.01c0,0,0,0.01-0.01,0.01c0,0.01-0.01,0.01-0.02,0.02c0,0,0,0.01-0.01,0.01l-0.01,0.01
				c0,0,0,0.01-0.01,0.01l-0.01,0.01c0,0,0,0.01-0.01,0.01l-0.01,0.01c0,0,0,0.01-0.01,0.01c-0.01,0.01-0.01,0.02-0.02,0.02
				c0,0,0,0-0.01,0.01c0,0,0,0.01-0.01,0.01l-0.01,0.01l-0.01,0.01c0,0,0,0.01-0.01,0.01l-0.01,0.01c0,0,0,0.01-0.01,0.01
				l-0.01,0.01c0,0,0,0.01-0.01,0.01c-0.01,0.01-0.01,0.02-0.02,0.03l0,0l-0.01,0.01c0,0,0,0.01-0.01,0.01l-0.01,0.01
				c0,0,0,0.01-0.01,0.01l-0.01,0.01c0,0,0,0.01-0.01,0.01l-0.01,0.01c0,0,0,0.01-0.01,0.01c-0.01,0.01-0.01,0.02-0.02,0.02
				c0,0,0,0.01-0.01,0.01l-0.01,0.01c0,0,0,0.01-0.01,0.01l-0.01,0.01c0,0,0,0.01-0.01,0.01l-0.01,0.01c0,0,0,0.01-0.01,0.01
				l-0.01,0.01c0,0,0,0.01-0.01,0.01c0,0.01-0.01,0.01-0.01,0.02l-0.01,0.01l-0.01,0.01c0,0,0,0.01-0.01,0.01l-0.01,0.01
				c0,0,0,0.01-0.01,0.01l-0.01,0.01c0,0,0,0.01-0.01,0.01l-0.01,0.01c0,0,0,0,0,0.01c-0.01,0.01-0.01,0.02-0.02,0.03v0.01
				l-0.01,0.01c0,0,0,0.01-0.01,0.01l-0.01,0.01c0,0,0,0.01-0.01,0.01l-0.01,0.01c0,0,0,0.01-0.01,0.01l-0.01,0.01
				c0,0,0,0.01-0.01,0.01c0,0.01-0.01,0.01-0.01,0.02c0,0,0,0.01-0.01,0.01l-0.01,0.01c0,0,0,0.01-0.01,0.01c0,0,0,0.01-0.01,0.01
				c0,0,0,0.01-0.01,0.01c0,0,0,0.01-0.01,0.01c0,0,0,0.01-0.01,0.01c0,0,0,0.01-0.01,0.01c0,0,0,0.01-0.01,0.01
				c0,0.01-0.01,0.01-0.01,0.02c0,0,0,0.01-0.01,0.01c0,0,0,0.01-0.01,0.01c0,0,0,0.01-0.01,0.01l-0.01,0.01c0,0,0,0.01-0.01,0.01
				c0,0,0,0.01-0.01,0.01c0,0,0,0.01-0.01,0.01c0,0,0,0.01-0.01,0.01c0,0,0,0.01-0.01,0.01c0,0.01-0.01,0.02-0.01,0.02
				s0,0.01-0.01,0.01l-0.01,0.01c0,0,0,0.01-0.01,0.01c0,0,0,0.01-0.01,0.01c0,0,0,0.01-0.01,0.01c0,0,0,0.01-0.01,0.01
				c0,0,0,0.01-0.01,0.01c0,0,0,0.01-0.01,0.01c0,0,0,0,0,0.01c-0.01,0.01-0.01,0.02-0.02,0.03c0,0,0,0.01-0.01,0.01
				c0,0,0,0.01-0.01,0.01c0,0,0,0.01-0.01,0.01c0,0,0,0.01-0.01,0.01c0,0,0,0.01-0.01,0.01l-0.01,0.01c0,0,0,0.01-0.01,0.01
				c-0.01,0.02-0.02,0.03-0.03,0.05c0,0,0,0.01-0.01,0.01c0,0,0,0.01-0.01,0.01c0,0,0,0.01-0.01,0.01c0,0,0,0.01-0.01,0.01
				c0,0,0,0.01-0.01,0.01c0,0,0,0.01-0.01,0.01c0,0,0,0.01-0.01,0.01c-0.01,0.01-0.01,0.02-0.02,0.03l0,0l-0.01,0.01
				c0,0,0,0.01-0.01,0.01c0,0,0,0.01-0.01,0.01c0,0,0,0.01-0.01,0.01c0,0,0,0.01-0.01,0.01c0,0,0,0.01-0.01,0.01
				c0,0,0,0.01-0.01,0.01c0,0,0,0.01-0.01,0.01c0,0.01-0.01,0.01-0.01,0.02c0,0,0,0.01-0.01,0.01c0,0,0,0.01-0.01,0.01
				c0,0,0,0.01-0.01,0.01c0,0,0,0.01-0.01,0.01c0,0,0,0.01-0.01,0.01c0,0,0,0.01-0.01,0.01c0,0,0,0.01-0.01,0.01
				c0,0,0,0.01-0.01,0.01c0,0,0,0.01-0.01,0.01c-0.01,0.01-0.01,0.02-0.02,0.03l0,0l-0.01,0.01v0.01c0,0,0,0.01-0.01,0.01
				c0,0,0,0.01-0.01,0.01c0,0,0,0.01-0.01,0.01v0.01l-0.01,0.01c0,0,0,0,0,0.01c-0.01,0.01-0.01,0.02-0.02,0.03l0,0
				c0,0.01-0.01,0.01-0.01,0.01s0,0,0,0.01l-0.01,0.01v0.01l-0.01,0.01c0,0,0,0,0,0.01s-0.01,0.01-0.01,0.02l0,0
				c-0.01,0.01-0.01,0.02-0.02,0.03l0,0c0,0.01-0.01,0.01-0.01,0.02c0,0,0,0,0,0.01l-0.01,0.01v0.01c0,0.01-0.01,0.01-0.01,0.01
				s0,0,0,0.01s-0.01,0.01-0.01,0.02l0,0c-0.01,0.01-0.01,0.02-0.02,0.03c0,0,0,0,0,0.01l-0.01,0.01c0,0,0,0,0,0.01
				c0,0-0.01,0.01-0.01,0.02c0,0,0,0,0,0.01s-0.01,0.01-0.01,0.02c0,0,0,0,0,0.01s-0.01,0.01-0.01,0.02l0,0
				c-0.01,0.01-0.01,0.02-0.02,0.04c0,0,0,0,0,0.01l-0.01,0.01v0.01c0,0,0,0.01-0.01,0.01v0.01c0,0,0,0.01-0.01,0.01c0,0,0,0,0,0.01
				c-0.01,0.02-0.02,0.03-0.03,0.05c0,0,0,0,0,0.01l-0.01,0.01v0.01l-0.01,0.01v0.01c0,0.01,0,0.01-0.01,0.01c0,0,0,0,0,0.01
				c-0.01,0.02-0.02,0.03-0.03,0.05c0,0,0,0,0,0.01s-0.01,0.01-0.01,0.02v0.01c0,0.01,0,0.01-0.01,0.01v0.01
				c0,0.01-0.01,0.01-0.01,0.02c0,0,0,0,0,0.01c-0.01,0.02-0.02,0.03-0.03,0.05v0.01c0,0.01,0,0.01-0.01,0.01v0.01
				c0,0.01,0,0.01-0.01,0.01v0.01c0,0-0.01,0.01-0.01,0.02c0,0,0,0,0,0.01c-0.01,0.02-0.02,0.04-0.03,0.05c0,0,0,0,0,0.01
				s-0.01,0.01-0.01,0.02c0,0,0,0,0,0.01c0,0,0,0.01-0.01,0.01v0.01c0,0,0,0.01-0.01,0.01c0,0,0,0,0,0.01
				c-0.01,0.02-0.02,0.03-0.02,0.05v0.01c0,0,0,0.01-0.01,0.01v0.01c0,0,0,0.01-0.01,0.01v0.01c0,0,0,0.01-0.01,0.01c0,0,0,0,0,0.01
				s-0.01,0.02-0.02,0.03c0,0,0,0,0,0.01c0,0,0,0.01-0.01,0.01v0.01c0,0,0,0.01-0.01,0.01v0.01c0,0,0,0.01-0.01,0.01v0.01
				c0,0.01,0,0.01-0.01,0.02l0,0c-0.01,0.01-0.01,0.03-0.02,0.04l0,0c0,0.01,0,0.01-0.01,0.02c0,0,0,0,0,0.01s0,0.01-0.01,0.02
				c0,0,0,0,0,0.01s-0.01,0.01-0.01,0.02c0,0,0,0,0,0.01c-0.01,0.02-0.02,0.04-0.03,0.06l0,0c0,0.01-0.01,0.01-0.01,0.02
				c0,0,0,0,0,0.01s0,0.01-0.01,0.02c0,0,0,0,0,0.01c0,0,0,0.01-0.01,0.02v0.01c-0.01,0.03-0.02,0.05-0.03,0.08c0,0,0,0,0,0.01
				s0,0.01-0.01,0.02c0,0,0,0,0,0.01s-0.01,0.01-0.01,0.02l0,0c-0.01,0.02-0.02,0.04-0.03,0.06l0,0c0,0.01-0.01,0.01-0.01,0.02l0,0
				c0,0.01-0.01,0.01-0.01,0.02l0,0c0,0.01-0.01,0.01-0.01,0.02l0,0c-0.01,0.02-0.02,0.04-0.03,0.06l0,0c0,0.01,0,0.01-0.01,0.02
				c0,0,0,0,0,0.01s0,0.01-0.01,0.02l0,0c0,0.01-0.01,0.01-0.01,0.02l0,0c-0.01,0.02-0.02,0.04-0.03,0.06l0,0
				c0,0.01,0,0.01-0.01,0.02c0,0,0,0,0,0.01s0,0.01-0.01,0.02l0,0c0,0.01,0,0.01-0.01,0.02l0,0c-0.01,0.02-0.02,0.04-0.02,0.06l0,0
				c0,0.01,0,0.01-0.01,0.02l0,0c0,0.01,0,0.01-0.01,0.02l0,0c-0.01,0.03-0.02,0.06-0.03,0.08l0,0c0,0.01-0.01,0.01-0.01,0.02l0,0
				c0,0.01,0,0.01-0.01,0.02l0,0c-0.01,0.03-0.02,0.05-0.03,0.08l0,0c0,0.01,0,0.01-0.01,0.02c0,0,0,0,0,0.01s0,0.01-0.01,0.02l0,0
				c-0.01,0.03-0.02,0.06-0.03,0.08l0,0c0,0.01,0,0.01-0.01,0.02l0,0c0,0.01,0,0.01-0.01,0.02l0,0c-0.01,0.03-0.02,0.06-0.03,0.08
				l0,0c0,0.01,0,0.01-0.01,0.02l0,0c0,0.01,0,0.01-0.01,0.02l0,0c-0.01,0.03-0.02,0.06-0.03,0.08l0,0c0,0.01,0,0.01-0.01,0.02l0,0
				c0,0.01,0,0.01-0.01,0.02l0,0c-0.01,0.03-0.02,0.06-0.03,0.09l0,0c0,0.01,0,0.01-0.01,0.02l0,0c0,0.01,0,0.01-0.01,0.02l0,0
				c-0.01,0.03-0.02,0.06-0.03,0.09l0,0c0,0.01,0,0.01-0.01,0.02l0,0c-0.01,0.04-0.02,0.07-0.04,0.11l0,0c0,0.01,0,0.01-0.01,0.02
				l0,0c-0.01,0.04-0.02,0.07-0.04,0.11l0,0c0,0.01,0,0.01-0.01,0.02l0,0c-0.01,0.04-0.02,0.07-0.04,0.11l0,0
				c0,0.01,0,0.01-0.01,0.02l0,0c-0.01,0.04-0.02,0.07-0.03,0.11l0,0c0,0.01,0,0.01-0.01,0.02l0,0c-0.01,0.04-0.02,0.07-0.03,0.11
				l0,0c-0.01,0.04-0.02,0.07-0.03,0.11l0,0c0,0.01,0,0.01-0.01,0.02l0,0c-0.01,0.05-0.03,0.09-0.04,0.14l0,0
				c0,0.01,0,0.01-0.01,0.02l1.93,0.54c2.6-7.26,9.13-12.21,16.5-12.21V21L253.5,21L253.5,21z M238.88,47.16l-1.77,0.93
				c1.01,1.92,2.35,3.65,3.95,5.1l0,0c0.01,0.01,0.03,0.02,0.04,0.04l0,0c0.01,0.01,0.03,0.02,0.04,0.04l0,0
				c0.01,0.01,0.03,0.02,0.04,0.04l0,0c0.07,0.06,0.14,0.12,0.21,0.18l0,0c0.03,0.02,0.06,0.05,0.08,0.07l0,0
				c0.05,0.04,0.1,0.08,0.15,0.13l0,0c0.04,0.03,0.07,0.06,0.11,0.09l0,0c0.03,0.02,0.06,0.05,0.09,0.07l0,0
				c0.01,0.01,0.03,0.02,0.04,0.03l0,0c0.02,0.02,0.04,0.03,0.06,0.05l0,0c0.01,0.01,0.03,0.02,0.04,0.03l0,0
				c0.01,0.01,0.03,0.02,0.04,0.03l0,0c0.02,0.02,0.04,0.03,0.06,0.05l0,0c0.01,0.01,0.03,0.02,0.04,0.03l0,0
				c0.01,0.01,0.03,0.02,0.04,0.03l0,0c0.04,0.03,0.07,0.06,0.11,0.08l0,0c0.01,0.01,0.03,0.02,0.04,0.03l0,0
				c0.01,0.01,0.03,0.02,0.04,0.03l0,0c0.02,0.02,0.04,0.03,0.07,0.05l0,0c0.01,0.01,0.03,0.02,0.04,0.03l0,0
				c0.01,0.01,0.03,0.02,0.04,0.03l0,0c0.01,0.01,0.03,0.02,0.04,0.03l0,0c0.01,0.01,0.01,0.01,0.02,0.02l0,0
				c0.01,0.01,0.03,0.02,0.04,0.03l0,0c0.01,0.01,0.03,0.02,0.04,0.03l0,0c0.01,0.01,0.03,0.02,0.04,0.03l0,0
				c0.01,0.01,0.01,0.01,0.02,0.02l0,0c0.01,0.01,0.03,0.02,0.04,0.03l0,0c0.01,0.01,0.03,0.02,0.04,0.03l0,0
				c0.01,0.01,0.03,0.02,0.04,0.03l0,0c0.01,0,0.01,0.01,0.02,0.01l0,0c0.01,0.01,0.01,0.01,0.02,0.02l0,0
				c0.01,0,0.01,0.01,0.02,0.01l0,0c0.01,0.01,0.03,0.02,0.04,0.03l0,0c0.01,0.01,0.03,0.02,0.04,0.03l0,0
				c0.01,0,0.01,0.01,0.02,0.01l0,0c0.01,0.01,0.01,0.01,0.02,0.01l0,0c0.01,0,0.01,0.01,0.02,0.01l0,0c0.01,0,0.01,0.01,0.02,0.01
				l0,0c0.01,0,0.01,0.01,0.02,0.01l0,0c0.01,0.01,0.03,0.02,0.04,0.03l0,0c0.01,0,0.01,0.01,0.02,0.01l0,0
				c0.01,0,0.01,0.01,0.02,0.01l0,0c0.01,0,0.01,0.01,0.02,0.01l0,0c0.01,0.01,0.01,0.01,0.02,0.02l0,0c0.01,0,0.01,0.01,0.02,0.01
				l0,0c0.01,0.01,0.03,0.02,0.04,0.03l0,0c0.01,0.01,0.03,0.02,0.04,0.03l0,0c0.01,0,0.01,0.01,0.02,0.01l0,0
				c0.01,0.01,0.01,0.01,0.02,0.01l0,0c0.01,0,0.01,0.01,0.02,0.01l0,0c0.01,0.01,0.03,0.02,0.04,0.03l0,0
				c0.01,0.01,0.03,0.02,0.04,0.03l0,0c0.01,0.01,0.03,0.02,0.04,0.03l0,0c0.01,0,0.01,0.01,0.02,0.01l0,0
				c0.02,0.01,0.03,0.02,0.05,0.03l0,0c0.01,0.01,0.03,0.02,0.05,0.03l0,0c0.02,0.01,0.03,0.02,0.05,0.03l0,0
				c0.01,0,0.02,0.01,0.02,0.01l0,0c0.01,0,0.02,0.01,0.02,0.01l0,0c0.01,0,0.01,0.01,0.02,0.01l0,0c0.01,0.01,0.03,0.02,0.04,0.03
				l0,0c0.01,0.01,0.03,0.02,0.04,0.03l0,0c0.01,0,0.01,0.01,0.02,0.01l0,0c0.01,0,0.02,0.01,0.02,0.01l0,0
				c0.01,0,0.01,0.01,0.02,0.01l0,0c0.01,0,0.02,0.01,0.02,0.01l0,0c0.01,0,0.01,0.01,0.02,0.01l0,0c0.02,0.01,0.03,0.02,0.04,0.03
				l0,0c0.01,0,0.01,0.01,0.02,0.01l0,0c0.01,0,0.02,0.01,0.02,0.01l0,0c0.01,0,0.01,0.01,0.02,0.01l0,0c0.01,0,0.02,0.01,0.02,0.01
				l0,0c0.01,0,0.01,0.01,0.02,0.01l0,0c0.02,0.01,0.03,0.02,0.04,0.03l0,0c0.02,0.01,0.03,0.02,0.05,0.03l0,0
				c0.01,0,0.01,0.01,0.02,0.01l0,0c0.01,0,0.02,0.01,0.02,0.01l0,0c0.01,0,0.01,0.01,0.02,0.01l0,0c0.01,0,0.02,0.01,0.02,0.01l0,0
				c0.01,0,0.01,0.01,0.02,0.01l0,0c0.02,0.01,0.03,0.02,0.05,0.03l0,0c0.01,0,0.01,0.01,0.02,0.01l0,0c0.01,0,0.01,0.01,0.02,0.01
				l0,0c0.01,0,0.01,0.01,0.02,0.01l0,0c0.01,0,0.02,0.01,0.02,0.01l0,0c0.01,0,0.01,0.01,0.02,0.01l0,0c0.01,0,0.01,0.01,0.02,0.01
				l0,0c0.01,0,0.01,0.01,0.02,0.01c0,0,0,0,0.01,0s0.01,0.01,0.02,0.01l0,0c0.01,0,0.02,0.01,0.02,0.01l0,0
				c0.01,0,0.01,0.01,0.02,0.01l0,0c0.01,0,0.02,0.01,0.02,0.01l0,0c0.01,0,0.01,0.01,0.02,0.01l0,0c0.01,0,0.02,0.01,0.02,0.01l0,0
				c0.01,0,0.01,0.01,0.02,0.01l0,0c0.02,0.01,0.03,0.02,0.05,0.02l0,0c0.01,0,0.01,0.01,0.02,0.01l0,0c0.01,0,0.02,0.01,0.02,0.01
				l0,0c0.01,0,0.01,0.01,0.02,0.01l0,0c0.01,0,0.02,0.01,0.02,0.01l0,0c0.01,0,0.01,0.01,0.02,0.01l0,0
				c0.02,0.01,0.03,0.02,0.05,0.02c0,0,0,0,0.01,0s0.01,0.01,0.02,0.01l0,0c0.01,0,0.02,0.01,0.02,0.01l0,0
				c0.01,0,0.01,0.01,0.02,0.01l0,0c0.01,0,0.02,0.01,0.02,0.01l0,0c0.01,0,0.01,0.01,0.02,0.01l0,0c0.01,0,0.02,0.01,0.02,0.01l0,0
				c0.01,0,0.01,0.01,0.02,0.01c0,0,0,0,0.01,0s0.01,0.01,0.02,0.01l0,0c0.01,0,0.02,0.01,0.02,0.01l0,0c0.01,0,0.01,0.01,0.02,0.01
				l0,0c0.01,0,0.02,0.01,0.02,0.01l0,0c0.01,0,0.01,0.01,0.02,0.01l0,0c0.01,0,0.01,0.01,0.02,0.01l0,0c0.01,0,0.01,0.01,0.02,0.01
				l0,0c0.02,0.01,0.03,0.01,0.05,0.02c0,0,0,0,0.01,0s0.01,0.01,0.02,0.01l0,0c0.01,0,0.02,0.01,0.02,0.01s0,0,0.01,0
				s0.01,0.01,0.02,0.01l0,0c0.01,0,0.02,0.01,0.02,0.01l0,0c0.01,0,0.01,0.01,0.02,0.01c0,0,0,0,0.01,0s0.01,0.01,0.02,0.01l0,0
				c0.01,0,0.01,0.01,0.02,0.01c0,0,0,0,0.01,0s0.01,0.01,0.02,0.01l0,0c0.01,0,0.02,0.01,0.02,0.01l0,0c0.01,0,0.01,0.01,0.02,0.01
				l0,0c0.01,0,0.02,0.01,0.02,0.01l0,0c0.01,0,0.01,0.01,0.02,0.01l0,0c0.01,0,0.02,0.01,0.02,0.01l0,0c0.01,0,0.01,0.01,0.02,0.01
				c0,0,0,0,0.01,0c0.01,0.01,0.03,0.01,0.05,0.02c0,0,0,0,0.01,0s0.01,0.01,0.02,0.01l0,0c0.01,0,0.02,0.01,0.02,0.01l0,0
				c0.01,0,0.01,0.01,0.02,0.01l0,0c0.01,0,0.02,0.01,0.02,0.01l0,0c0.01,0,0.01,0.01,0.02,0.01l0,0c0.02,0.01,0.03,0.01,0.05,0.02
				l0,0c0.01,0,0.01,0.01,0.02,0.01l0,0c0.01,0,0.02,0.01,0.02,0.01l0,0c0.01,0,0.01,0.01,0.02,0.01l0,0c0.01,0,0.02,0.01,0.02,0.01
				l0,0c0.01,0,0.01,0.01,0.02,0.01c0,0,0,0,0.01,0s0.02,0.01,0.02,0.01l0,0c0.01,0,0.01,0.01,0.02,0.01c0,0,0,0,0.01,0
				s0.01,0.01,0.02,0.01l0,0c0.01,0,0.02,0.01,0.02,0.01s0,0,0.01,0s0.01,0.01,0.02,0.01l0,0c0.01,0,0.02,0.01,0.02,0.01s0,0,0.01,0
				s0.01,0.01,0.02,0.01c0,0,0,0,0.01,0s0.02,0.01,0.02,0.01l0,0c0.01,0,0.01,0.01,0.02,0.01c0,0,0,0,0.01,0
				c0.02,0.01,0.03,0.01,0.05,0.02c0,0,0,0,0.01,0s0.01,0.01,0.02,0.01l0,0c0.01,0,0.02,0.01,0.02,0.01s0,0,0.01,0
				s0.01,0.01,0.02,0.01c0,0,0,0,0.01,0s0.02,0.01,0.02,0.01l0,0c0.01,0,0.01,0.01,0.02,0.01c0,0,0,0,0.01,0s0.02,0.01,0.02,0.01
				l0,0c0.01,0,0.01,0.01,0.02,0.01c0,0,0,0,0.01,0s0.01,0.01,0.02,0.01l0,0c0.01,0,0.02,0.01,0.02,0.01s0,0,0.01,0
				s0.01,0,0.02,0.01c0,0,0,0,0.01,0s0.02,0.01,0.02,0.01s0,0,0.01,0s0.01,0,0.02,0.01c0,0,0,0,0.01,0s0.02,0.01,0.02,0.01l0,0
				c0.01,0,0.01,0.01,0.02,0.01c0,0,0,0,0.01,0c0.02,0.01,0.03,0.01,0.05,0.02c0,0,0,0,0.01,0s0.01,0,0.02,0.01c0,0,0,0,0.01,0
				s0.02,0.01,0.02,0.01s0,0,0.01,0s0.01,0,0.02,0.01c0,0,0,0,0.01,0s0.02,0.01,0.02,0.01l0,0c0.01,0,0.01,0.01,0.02,0.01
				c0,0,0,0,0.01,0c0.02,0.01,0.03,0.01,0.05,0.02c0,0,0,0,0.01,0s0.02,0.01,0.02,0.01l0,0c0.01,0,0.02,0.01,0.02,0.01s0,0,0.01,0
				s0.01,0,0.02,0.01l0,0c0.01,0,0.02,0.01,0.02,0.01l0,0c0.01,0,0.01,0.01,0.02,0.01c0,0,0,0,0.01,0s0.02,0.01,0.02,0.01l0,0
				c0.01,0,0.02,0.01,0.02,0.01s0,0,0.01,0s0.02,0.01,0.02,0.01l0,0c0.01,0,0.02,0.01,0.02,0.01l0,0c0.01,0,0.01,0,0.02,0.01l0,0
				c0.01,0,0.02,0.01,0.02,0.01l0,0c0.01,0,0.01,0,0.02,0.01l0,0c0.01,0,0.02,0.01,0.02,0.01l0,0c0.01,0,0.02,0.01,0.02,0.01l0,0
				c0.02,0.01,0.03,0.01,0.05,0.02c0,0,0,0,0.01,0s0.01,0.01,0.02,0.01l0,0c0.01,0,0.02,0.01,0.02,0.01s0,0,0.01,0s0.01,0,0.02,0.01
				c0,0,0,0,0.01,0s0.02,0.01,0.02,0.01l0,0c0.01,0,0.01,0,0.02,0.01c0,0,0,0,0.01,0s0.02,0.01,0.02,0.01l0,0
				c0.01,0,0.02,0.01,0.02,0.01s0,0,0.01,0s0.01,0,0.02,0.01l0,0c0.01,0,0.02,0.01,0.02,0.01s0,0,0.01,0s0.01,0,0.02,0.01l0,0
				c0.01,0,0.02,0.01,0.02,0.01l0,0c0.01,0,0.01,0,0.02,0.01c0,0,0,0,0.01,0s0.02,0.01,0.02,0.01l0,0c0.01,0,0.01,0,0.02,0.01h0.01
				c0.02,0.01,0.03,0.01,0.05,0.02c0,0,0,0,0.01,0s0.01,0,0.02,0.01l0,0c0.01,0,0.02,0,0.02,0.01c0,0,0,0,0.01,0s0.01,0,0.02,0.01
				c0,0,0,0,0.01,0s0.02,0.01,0.02,0.01l0,0c0.01,0,0.01,0,0.02,0.01c0,0,0,0,0.01,0s0.02,0.01,0.03,0.01l0,0
				c0.01,0,0.02,0,0.02,0.01c0,0,0,0,0.01,0s0.02,0,0.02,0.01l0,0c0.01,0,0.02,0,0.02,0.01c0,0,0,0,0.01,0s0.01,0,0.02,0.01l0,0
				c0.01,0,0.02,0.01,0.02,0.01l0,0c0.01,0,0.01,0,0.02,0.01c0,0,0,0,0.01,0c0.02,0,0.03,0.01,0.05,0.01c0,0,0,0,0.01,0
				c0.02,0,0.03,0.01,0.05,0.01l0,0c0.01,0,0.02,0,0.02,0.01l0,0c0.01,0,0.02,0,0.02,0.01c0,0,0,0,0.01,0s0.01,0,0.02,0.01l0,0
				c0.01,0,0.02,0,0.02,0.01l0,0c0.01,0,0.02,0,0.02,0.01l0,0c0.02,0,0.03,0.01,0.05,0.01l0,0c0.01,0,0.02,0,0.02,0.01l0,0
				c0.01,0,0.02,0,0.03,0.01c0,0,0,0,0.01,0s0.01,0,0.02,0.01l0,0c0.01,0,0.02,0,0.03,0.01l0,0c0.01,0,0.02,0,0.02,0.01
				c0,0,0,0,0.01,0s0.02,0,0.03,0.01l0,0c0.01,0,0.02,0,0.02,0.01c0,0,0,0,0.01,0s0.02,0,0.02,0.01l0,0c0.01,0,0.02,0,0.02,0.01
				c0,0,0,0,0.01,0s0.01,0,0.02,0.01l0,0c0.01,0,0.02,0,0.02,0.01c0,0,0,0,0.01,0s0.01,0,0.02,0c0,0,0,0,0.01,0s0.02,0,0.02,0.01
				l0,0c0.01,0,0.01,0,0.02,0.01c0,0,0,0,0.01,0c0.02,0,0.03,0.01,0.05,0.01c0,0,0,0,0.01,0s0.01,0,0.02,0.01l0,0
				c0.01,0,0.02,0,0.02,0.01c0,0,0,0,0.01,0s0.01,0,0.02,0c0,0,0,0,0.01,0s0.02,0,0.02,0.01l0,0c0.01,0,0.01,0,0.02,0.01
				c0,0,0,0,0.01,0s0.02,0,0.03,0.01l0,0c0.01,0,0.02,0,0.02,0.01c0,0,0,0,0.01,0s0.01,0,0.02,0.01l0,0c0.01,0,0.02,0,0.03,0.01
				c0,0,0,0,0.01,0s0.01,0,0.02,0.01l0,0c0.01,0,0.02,0,0.02,0.01c0,0,0,0,0.01,0s0.01,0,0.02,0c0,0,0,0,0.01,0s0.02,0,0.03,0.01
				l0,0c0.01,0,0.02,0,0.02,0.01c0,0,0,0,0.01,0s0.02,0,0.02,0.01l0,0c0.01,0,0.02,0,0.03,0.01c0,0,0,0,0.01,0s0.01,0,0.02,0l0,0
				c0.01,0,0.02,0,0.02,0.01c0,0,0,0,0.01,0s0.01,0,0.02,0c0,0,0,0,0.01,0s0.02,0,0.03,0.01l0,0c0.01,0,0.02,0,0.02,0s0,0,0.01,0
				c0.02,0,0.03,0.01,0.05,0.01h0.01c0.01,0,0.01,0,0.02,0l0,0c0.01,0,0.02,0,0.02,0.01c0,0,0,0,0.01,0s0.01,0,0.02,0
				c0,0,0,0,0.01,0s0.02,0,0.02,0.01c0,0,0,0,0.01,0s0.01,0,0.02,0c0,0,0,0,0.01,0s0.02,0,0.02,0.01l0,0c0.01,0,0.02,0,0.02,0
				s0,0,0.01,0s0.02,0,0.02,0l0,0c0.01,0,0.02,0,0.03,0c0,0,0,0,0.01,0s0.01,0,0.02,0l0,0c0.01,0,0.02,0,0.03,0c0,0,0,0,0.01,0
				s0.01,0,0.02,0c0,0,0,0,0.01,0s0.02,0,0.03,0l0,0c0.01,0,0.01,0,0.02,0c0,0,0,0,0.01,0c0.02,0,0.03,0.01,0.05,0.01
				c0,0,0,0,0.01,0s0.01,0,0.02,0l0,0c0.01,0,0.02,0,0.03,0c0,0,0,0,0.01,0s0.01,0,0.02,0c0,0,0,0,0.01,0s0.02,0,0.03,0
				c0,0,0,0,0.01,0s0.01,0,0.02,0c0,0,0,0,0.01,0s0.02,0,0.03,0l0,0c0.01,0,0.02,0,0.02,0s0,0,0.01,0s0.01,0,0.02,0l0,0
				c0.01,0,0.02,0,0.03,0c0,0,0,0,0.01,0s0.01,0,0.02,0c0,0,0,0,0.01,0s0.02,0,0.03,0c0,0,0,0,0.01,0s0.01,0,0.02,0c0,0,0,0,0.01,0
				s0.02,0,0.03,0l0,0c0.01,0,0.02,0,0.02,0s0,0,0.01,0s0.02,0,0.02,0l0,0c0.01,0,0.02,0,0.03,0c0,0,0,0,0.01,0s0.01,0,0.02,0l0,0
				c0.01,0,0.02,0,0.03,0c0,0,0,0,0.01,0s0.01,0,0.02,0c0,0,0,0,0.01,0s0.02,0,0.03,0c0,0,0,0,0.01,0s0.01,0,0.02,0c0,0,0,0,0.01,0
				s0.02,0,0.03,0l0,0c0.01,0,0.02,0,0.03,0c0,0,0,0,0.01,0s0.01,0,0.02,0l0,0c0.01,0,0.02,0,0.03,0c0,0,0,0,0.01,0s0.01,0,0.02,0
				l0,0c0.01,0,0.02,0,0.03,0l0,0c0.01,0,0.02,0,0.02,0s0,0,0.01,0s0.02,0,0.03,0l0,0c0.01,0,0.02,0,0.03,0c0,0,0,0,0.01,0
				s0.02,0,0.02,0l0,0c0.01,0,0.02,0,0.03,0c0,0,0,0,0.01,0s0.01,0,0.02,0l0,0c0.01,0,0.02,0,0.03,0c0,0,0,0,0.01,0s0.01,0,0.02,0
				c0,0,0,0,0.01,0s0.02,0,0.03,0c0,0,0,0,0.01,0s0.01,0,0.02,0c0,0,0,0,0.01,0c0.02,0,0.04,0,0.05,0.01c0,0,0,0,0.01,0
				s0.02,0,0.02,0l0,0c0.01,0,0.02,0,0.03,0c0,0,0,0,0.01,0s0.01,0,0.02,0c0,0,0,0,0.01,0s0.02,0,0.03,0l0,0c0.01,0,0.01,0,0.02,0
				h0.01c0.01,0,0.02,0,0.03,0l0,0c0.01,0,0.02,0,0.02,0s0,0,0.01,0s0.02,0,0.02,0l0,0c0.01,0,0.02,0,0.03,0c0,0,0,0,0.01,0
				s0.01,0,0.02,0l0,0c0.01,0,0.02,0,0.03,0c0,0,0,0,0.01,0s0.01,0,0.02,0c0,0,0,0,0.01,0s0.02,0,0.03,0l0,0c0.01,0,0.01,0,0.02,0
				c0,0,0,0,0.01,0s0.02,0,0.02,0l0,0c0.01,0,0.02,0,0.03,0c0,0,0,0,0.01,0s0.01,0,0.02,0c0,0,0,0,0.01,0s0.02,0,0.03,0
				c0,0,0,0,0.01,0s0.01,0,0.02,0c0,0,0,0,0.01,0s0.02,0,0.03,0l0,0c0.01,0,0.01,0,0.02,0c0,0,0,0,0.01,0s0.02,0,0.03,0l0,0
				c0.01,0,0.02,0,0.03,0h0.01c0.01,0,0.02,0,0.02,0l0,0c0.01,0,0.02,0,0.03,0c0,0,0,0,0.01,0s0.01,0,0.02,0c0,0,0,0,0.01,0
				s0.02,0,0.03,0c0,0,0,0,0.01,0s0.01,0,0.02,0c0,0,0,0,0.01,0s0.02,0,0.03,0l0,0c0.01,0,0.02,0,0.02,0s0,0,0.01,0s0.02,0,0.02,0
				l0,0c0.01,0,0.02,0,0.03,0c0,0,0,0,0.01,0s0.02,0,0.02,0s0,0,0.01,0s0.02,0,0.03,0c0,0,0,0,0.01,0s0.01,0,0.02,0c0,0,0,0,0.01,0
				s0.02,0,0.03,0c0,0,0,0,0.01,0s0.01,0,0.02,0h0.01c0.02,0,0.03,0,0.05,0c0,0,0,0,0.01,0s0.02,0,0.02,0l0,0c0.01,0,0.02,0,0.03,0
				h0.01c0.01,0,0.01,0,0.02,0c0,0,0,0,0.01,0s0.02,0,0.03,0c0,0,0,0,0.01,0s0.01,0,0.02,0c0,0,0,0,0.01,0s0.02,0,0.03,0l0,0
				c0.01,0,0.02,0,0.02,0h0.01c0.01,0,0.02,0,0.02,0l0,0c0.01,0,0.02,0,0.03,0c0,0,0,0,0.01,0s0.01,0,0.02,0c0,0,0,0,0.01,0
				s0.02,0,0.03,0c0,0,0,0,0.01,0s0.01,0,0.02,0c0,0,0,0,0.01,0s0.02,0,0.03,0l0,0c0.01,0,0.02,0,0.02,0h0.01c0.01,0,0.02,0,0.02,0
				l0,0c0.01,0,0.02,0,0.03,0c0,0,0,0,0.01,0s0.01,0,0.02,0l0,0c0.01,0,0.02,0,0.03,0c0,0,0,0,0.01,0s0.01,0,0.02,0c0,0,0,0,0.01,0
				s0.02,0,0.03,0c0,0,0,0,0.01,0s0.01,0,0.02,0c0,0,0,0,0.01,0s0.02,0,0.03,0l0,0c0.01,0,0.02,0,0.03,0c0,0,0,0,0.01,0
				s0.02,0,0.02,0l0,0c0.01,0,0.02,0,0.03,0c0,0,0,0,0.01,0s0.02,0,0.02,0s0,0,0.01,0s0.02,0,0.03,0l0,0c0.01,0,0.02,0,0.02,0
				s0,0,0.01,0s0.02,0,0.03,0l0,0c0.01,0,0.02,0,0.02,0s0,0,0.01,0s0.02,0,0.02,0l0,0c0.01,0,0.02,0,0.03,0c0,0,0,0,0.01,0
				s0.01,0,0.02,0c0,0,0,0,0.01,0s0.02,0,0.03,0c0,0,0,0,0.01,0s0.01,0,0.02,0c0,0,0,0,0.01,0s0.02,0,0.03,0l0,0
				c0.01,0,0.02,0,0.02,0s0,0,0.01,0s0.02,0,0.03,0l0,0c0.01,0,0.02,0,0.03,0h0.01c0.01,0,0.01,0,0.02,0h0.01c0.01,0,0.01,0,0.02,0
				h0.01c0.01,0,0.01,0,0.02,0c0.01,0,0.01,0,0.01,0c0.01,0,0.01,0,0.02,0c0.01,0,0.01,0,0.01,0c0.01,0,0.01,0,0.02,0h0.01
				c0.01,0,0.01,0,0.02,0c0.01,0,0.01,0,0.01,0c0.01,0,0.01,0,0.02,0c0,0,0.01,0,0.02,0h0.01c0,0,0.01,0,0.02,0
				c0.01,0,0.01,0,0.02,0c0.01,0,0.01,0,0.02,0h0.01c0,0,0.01,0,0.02,0h0.01c0.01,0,0.01,0,0.02,0h0.01c0.01,0,0.01,0,0.02,0h0.01
				c0.01,0,0.01,0,0.02,0h0.01c0.01,0,0.01,0,0.02,0h0.01c0.01,0,0.01,0,0.02,0h0.01c0.01,0,0.01,0,0.02,0h0.01
				c0.01,0,0.01,0,0.02,0h0.01c0,0,0.01,0,0.02,0h0.01c0.01,0,0.01,0,0.02,0h0.01c0.01,0,0.01,0,0.02,0h0.01c0.01,0,0.01,0,0.02,0
				h0.01c0.01,0,0.01,0,0.02,0h0.01c0.01,0,0.01,0,0.02,0h0.01c0.01,0,0.01,0,0.02,0h0.01c0.01,0,0.01,0,0.02,0H254
				c0.01,0,0.01,0,0.02,0c0,0,0,0,0.01,0s0.02,0,0.02,0l0,0c0.05,0,0.1,0,0.14-0.01l0,0c0.01,0,0.02,0,0.02,0s0,0,0.01,0
				s0.01,0,0.02,0h0.01c0.01,0,0.02,0,0.02,0s0,0,0.01,0s0.01,0,0.02,0h0.01c0.01,0,0.01,0,0.02,0h0.01c0.01,0,0.01,0,0.02,0h0.01
				c0.01,0,0.01,0,0.02,0h0.01c0.01,0,0.01,0,0.02,0h0.01c0.01,0,0.01,0,0.02,0h0.01c0.01,0,0.01,0,0.02,0h0.01
				c0.01,0,0.01,0,0.02,0h0.01c0.01,0,0.01,0,0.02,0h0.01c0.01,0,0.01,0,0.02,0h0.01c0.01,0,0.01,0,0.02,0h0.01
				c0.01,0,0.01,0,0.02,0h0.01c0.01,0,0.01,0,0.02,0h0.01c0.01,0,0.01,0,0.02,0h0.01c0.01,0,0.01,0,0.02,0h0.01
				c0.01,0,0.01,0,0.02,0h0.01c0.01,0,0.01,0,0.02,0h0.01c0.01,0,0.01,0,0.02,0h0.01c0.01,0,0.01,0,0.02,0h0.01
				c0.01,0,0.01,0,0.02,0h0.01c0.01,0,0.01,0,0.02,0c0,0,0,0,0.01,0s0.01,0,0.02,0c0,0,0,0,0.01,0s0.01,0,0.02,0c0,0,0,0,0.01,0
				c0.06-0.01,0.11-0.01,0.17-0.02l0,0c0.01,0,0.02,0,0.02,0s0,0,0.01,0s0.01,0,0.02,0h0.01c0.01,0,0.01,0,0.02,0h0.01
				c0.01,0,0.01,0,0.02,0h0.01c0.01,0,0.01,0,0.02,0h0.01c0.01,0,0.01,0,0.02,0h0.01c0.01,0,0.01,0,0.02,0h0.01
				c0.01,0,0.01,0,0.02,0h0.01c0.01,0,0.01,0,0.02,0h0.01c0,0,0.01,0,0.02,0h0.01c0.01,0,0.01,0,0.02,0h0.01c0.01,0,0.01,0,0.01,0
				h0.01h0.01c0.01,0,0.01,0,0.02,0h0.01c0.01,0,0.01,0,0.02,0h0.01c0.01,0,0.01,0,0.02,0h0.01c0.01,0,0.01,0,0.02,0h0.01
				c0.01,0,0.01,0,0.02,0h0.01c0.01,0,0.01,0,0.02,0h0.01c0.01,0,0.01,0,0.02,0h0.01c0.01,0,0.01,0,0.02,0h0.01
				c0.01,0,0.01,0,0.02,0c0,0,0,0,0.01,0s0.02,0,0.02,0s0,0,0.01,0s0.02,0,0.03,0l0,0c0.01,0,0.02,0,0.03,0l0,0
				c0.4-0.06,0.79-0.13,1.18-0.21l-0.41-1.96c-1.12,0.24-2.28,0.36-3.43,0.36C247.35,56,241.75,52.61,238.88,47.16L238.88,47.16z
				 M267.74,27.69l-1.54,1.28c2.45,2.95,3.8,6.69,3.8,10.53c0,3.37-1.01,6.62-2.92,9.38l1.64,1.14c0.38-0.55,0.73-1.11,1.05-1.7l0,0
				c0.01-0.02,0.03-0.05,0.04-0.07l0,0c0.01-0.02,0.03-0.05,0.04-0.07l0,0c0.01-0.02,0.03-0.05,0.04-0.07l0,0
				c0-0.01,0.01-0.01,0.01-0.02l0,0c0.01-0.02,0.02-0.03,0.02-0.05l0,0c0-0.01,0.01-0.01,0.01-0.02l0,0
				c0.01-0.02,0.02-0.03,0.02-0.05l0,0c0-0.01,0.01-0.01,0.01-0.02c0,0,0,0,0-0.01s0.01-0.01,0.01-0.02l0,0
				c0-0.01,0.01-0.02,0.01-0.02l0,0c0-0.01,0.01-0.01,0.01-0.02c0,0,0,0,0-0.01s0.01-0.01,0.01-0.02l0,0c0-0.01,0.01-0.02,0.01-0.02
				l0,0c0-0.01,0.01-0.01,0.01-0.02c0,0,0,0,0-0.01s0.01-0.01,0.01-0.02c0,0,0,0,0-0.01s0.01-0.01,0.01-0.02l0,0
				c0-0.01,0.01-0.01,0.01-0.02c0,0,0,0,0-0.01s0.01-0.01,0.01-0.02c0,0,0,0,0-0.01s0.01-0.01,0.01-0.02l0,0
				c0-0.01,0.01-0.01,0.01-0.02v-0.01c0,0,0-0.01,0.01-0.01v-0.01c0-0.01,0.01-0.01,0.01-0.02c0,0,0,0,0-0.01s0.01-0.01,0.01-0.02
				v-0.01c0,0,0-0.01,0.01-0.01c0,0,0-0.01,0.01-0.01c0,0,0-0.01,0.01-0.01v-0.01c0-0.01,0.01-0.01,0.01-0.02v-0.01
				c0,0,0-0.01,0.01-0.01c0,0,0-0.01,0.01-0.01c0,0,0-0.01,0.01-0.01c0,0,0-0.01,0.01-0.01c0-0.01,0.01-0.01,0.01-0.02
				c0,0,0-0.01,0.01-0.01c0,0,0-0.01,0.01-0.01V47.4c0,0,0-0.01,0.01-0.01v-0.01c0,0,0-0.01,0.01-0.01c0-0.01,0.01-0.01,0.01-0.02
				c0,0,0-0.01,0.01-0.01c0,0,0-0.01,0.01-0.01c0,0,0-0.01,0.01-0.01c0,0,0-0.01,0.01-0.01c0,0,0-0.01,0.01-0.01
				c0,0,0-0.01,0.01-0.01c0-0.01,0.01-0.01,0.01-0.02c0,0,0-0.01,0.01-0.01v-0.01c0,0,0-0.01,0.01-0.01v-0.01c0,0,0-0.01,0.01-0.01
				c0,0,0,0,0-0.01s0.01-0.02,0.01-0.03v-0.01c0,0,0-0.01,0.01-0.01c0,0,0,0,0-0.01c0,0,0-0.01,0.01-0.01v-0.01
				c0-0.01,0.01-0.02,0.01-0.02V47.1c0,0,0-0.01,0.01-0.01v-0.01c0,0,0-0.01,0.01-0.01v-0.01c0-0.01,0.01-0.02,0.01-0.03
				c0,0,0,0,0-0.01c0,0,0-0.01,0.01-0.01V47c0,0,0-0.01,0.01-0.01c0,0,0,0,0-0.01c0.01-0.01,0.01-0.02,0.01-0.03l0,0
				c0,0,0-0.01,0.01-0.01v-0.01c0,0,0-0.01,0.01-0.01v-0.01c0.01-0.02,0.01-0.03,0.02-0.05l0,0c0-0.01,0-0.01,0.01-0.02
				c0,0,0,0,0-0.01s0-0.01,0.01-0.02l0,0c0.01-0.01,0.01-0.03,0.02-0.04l0,0c0-0.01,0-0.01,0.01-0.02c0,0,0,0,0-0.01
				s0-0.01,0.01-0.02l0,0c0.01-0.02,0.01-0.04,0.02-0.05c0,0,0,0,0-0.01s0-0.01,0.01-0.02c0,0,0,0,0-0.01
				c0.01-0.02,0.01-0.03,0.02-0.05c0,0,0,0,0-0.01s0-0.01,0.01-0.02c0,0,0,0,0-0.01c0.01-0.02,0.01-0.04,0.02-0.05l0,0
				c0-0.01,0-0.01,0.01-0.02c0,0,0,0,0-0.01s0-0.01,0.01-0.02l0,0c0-0.01,0.01-0.02,0.01-0.03l0,0c0-0.01,0-0.01,0.01-0.02
				c0,0,0,0,0-0.01s0-0.01,0.01-0.02l0,0c0.01-0.02,0.01-0.04,0.02-0.05l0,0c0-0.01,0-0.01,0.01-0.02l0,0
				c0.01-0.02,0.01-0.04,0.02-0.05l0,0c0-0.01,0-0.01,0.01-0.02c0,0,0,0,0-0.01c0.01-0.02,0.01-0.04,0.02-0.05l0,0
				c0-0.01,0-0.01,0.01-0.02c0,0,0,0,0-0.01c0.01-0.03,0.02-0.05,0.03-0.08l0,0c0-0.01,0-0.01,0.01-0.02l0,0
				c0.01-0.02,0.01-0.04,0.02-0.06c0,0,0,0,0-0.01s0-0.01,0.01-0.02l0,0c0.01-0.02,0.01-0.04,0.02-0.06l0,0c0-0.01,0-0.01,0.01-0.02
				l0,0c0.01-0.02,0.01-0.04,0.02-0.05l0,0c0-0.01,0-0.01,0.01-0.02c0,0,0,0,0-0.01s0-0.01,0.01-0.02l0,0
				c0-0.01,0.01-0.03,0.01-0.04l0,0c0-0.01,0-0.01,0.01-0.02l0,0c0-0.01,0-0.01,0.01-0.02l0,0c0.01-0.02,0.01-0.04,0.02-0.06
				c0,0,0,0,0-0.01s0-0.01,0.01-0.02c0,0,0,0,0-0.01c0.01-0.02,0.01-0.04,0.02-0.05l0,0c0-0.01,0-0.01,0.01-0.02c0,0,0,0,0-0.01
				c0.01-0.02,0.01-0.04,0.02-0.06l0,0c0-0.01,0-0.01,0.01-0.02c0,0,0,0,0-0.01s0-0.01,0.01-0.02l0,0c0.01-0.02,0.01-0.04,0.02-0.06
				c0,0,0,0,0-0.01s0-0.01,0.01-0.02l0,0c0.01-0.02,0.01-0.04,0.02-0.06l0,0c0-0.01,0-0.01,0.01-0.02l0,0
				c0.01-0.02,0.01-0.04,0.02-0.05c0,0,0,0,0-0.01s0-0.01,0.01-0.02c0,0,0,0,0-0.01s0-0.01,0.01-0.02l0,0
				c0-0.01,0.01-0.02,0.01-0.04c0,0,0,0,0-0.01s0-0.01,0.01-0.02c0,0,0,0,0-0.01s0-0.01,0.01-0.02l0,0c0-0.01,0.01-0.02,0.01-0.04
				l0,0c0-0.01,0-0.01,0.01-0.02c0,0,0,0,0-0.01s0-0.01,0.01-0.02c0,0,0,0,0-0.01c0.01-0.02,0.01-0.04,0.02-0.05c0,0,0,0,0-0.01
				s0-0.01,0-0.02c0,0,0,0,0-0.01c0.01-0.02,0.01-0.03,0.02-0.05c0,0,0,0,0-0.01s0-0.01,0-0.02v-0.01c0-0.01,0-0.01,0-0.02
				c0,0,0,0,0-0.01s0.01-0.02,0.01-0.03v-0.01v-0.01v-0.01c0-0.01,0-0.01,0-0.02c0,0,0,0,0-0.01s0.01-0.02,0.01-0.03c0,0,0,0,0-0.01
				s0-0.01,0-0.02v-0.01c0-0.01,0-0.01,0-0.02c0,0,0,0,0-0.01s0.01-0.02,0.01-0.04l0,0c0-0.01,0-0.01,0-0.02v-0.01
				c0-0.01,0-0.01,0-0.02v-0.01c0-0.02,0.01-0.03,0.01-0.05v-0.01v-0.01v-0.01v-0.01v-0.01c0-0.01,0.01-0.02,0.01-0.03v-0.01
				c0-0.01,0-0.01,0-0.02v-0.01c0-0.01,0-0.01,0-0.02c0,0,0,0,0-0.01s0.01-0.02,0.01-0.03v-0.01v-0.01v-0.01c0-0.01,0-0.01,0-0.01
				v-0.01c0-0.01,0.01-0.02,0.01-0.03c0,0,0,0,0-0.01c0,0,0-0.01,0-0.02v-0.01c0-0.01,0-0.01,0-0.02v-0.01
				c0-0.02,0.01-0.03,0.01-0.05v-0.01c0,0,0-0.01,0-0.02v-0.01v-0.01v-0.01c0-0.01,0-0.02,0.01-0.03v-0.01v-0.01v-0.01v-0.01v-0.01
				c0-0.01,0-0.02,0.01-0.02v-0.01V43.8v-0.01v-0.01v-0.01c0-0.01,0-0.01,0.01-0.02v-0.01v-0.01v-0.01v-0.01V43.7v-0.01
				c0-0.01,0-0.01,0-0.02c0-0.01,0-0.01,0-0.02v-0.01v-0.01v-0.01v-0.01V43.6c0-0.01,0-0.02,0.01-0.02v-0.01v-0.01v-0.01v-0.01
				v-0.01c0-0.01,0-0.01,0-0.02V43.5v-0.01v-0.01v-0.01v-0.01c0-0.01,0-0.01,0-0.02v-0.01v-0.01v-0.01V43.4v-0.01v-0.01
				c0-0.01,0-0.01,0-0.02v-0.01v-0.01v-0.01v-0.01v-0.01V43.3c0-0.01,0-0.02,0-0.02v-0.01v-0.01v-0.01v-0.01v-0.01
				c0-0.01,0-0.02,0-0.02V43.2v-0.01v-0.01v-0.01v-0.01v-0.01c0-0.01,0-0.02,0-0.02v-0.01v-0.01V43.1v-0.01v-0.01
				c0-0.01,0-0.02,0-0.02v-0.01v-0.01v-0.01v-0.01v-0.01c0-0.01,0-0.01,0-0.02v-0.01c0-0.01,0-0.01,0-0.02v-0.01v-0.01v-0.01
				c0-0.01,0-0.01,0-0.02V42.9c0-0.01,0-0.01,0-0.02v-0.01v-0.01v-0.01c0-0.01,0-0.01,0-0.02v-0.01c0-0.01,0-0.02,0-0.02v-0.01
				c0-0.01,0-0.01,0-0.02v-0.01c0-0.01,0-0.01,0-0.02v-0.01c0-0.01,0-0.02,0-0.02V42.7c0-0.01,0-0.01,0-0.02v-0.01
				c0-0.01,0-0.01,0-0.02v-0.01c0-0.01,0-0.02,0-0.02v-0.01c0-0.01,0-0.01,0-0.02v-0.01c0,0,0-0.01,0-0.02v-0.01
				c0-0.01,0-0.01,0-0.02c0,0,0,0,0-0.01s0-0.02,0-0.02v-0.01c0-0.01,0-0.01,0-0.02v-0.01c0-0.01,0-0.01,0-0.02c0,0,0,0,0-0.01
				s0-0.02,0-0.02V42.4c0-0.01,0-0.01,0-0.02v-0.01c0-0.01,0-0.01,0-0.02v-0.01c0-0.01,0-0.02,0-0.02v-0.01c0-0.01,0-0.01,0-0.02
				v-0.01c0-0.01,0-0.01,0-0.02v-0.01c0-0.01,0-0.02,0-0.03c0,0,0,0,0-0.01s0-0.01,0-0.02v-0.01c0-0.01,0-0.01,0-0.02v-0.01
				c0-0.01,0-0.01,0-0.02c0,0,0,0,0-0.01s0-0.02,0-0.02v-0.01c0-0.01,0-0.01,0-0.02v-0.01c0-0.01,0-0.01,0-0.02c0,0,0,0,0-0.01
				s0-0.02,0-0.03v-0.01c0-0.01,0-0.01,0-0.02v-0.01c0-0.01,0-0.01,0-0.02v-0.01c0-0.01,0-0.02,0-0.02V41.9c0-0.01,0-0.01,0-0.02
				v-0.01c0-0.01,0-0.01,0-0.02v-0.01c0-0.01,0-0.02,0-0.02v-0.01c0-0.01,0-0.01,0-0.02v-0.01c0-0.01,0-0.01,0-0.02v-0.01
				c0-0.01,0-0.01,0-0.02l0,0c0-0.01,0-0.02,0-0.03v-0.01c0-0.01,0-0.01,0-0.02v-0.01c0-0.01,0-0.01,0-0.02c0,0,0,0,0-0.01
				s0-0.02,0-0.03c0,0,0,0,0-0.01s0-0.01,0-0.02v-0.01c0-0.01,0-0.01,0-0.02v-0.01c0-0.01,0-0.02,0-0.03c0,0,0,0,0-0.01
				s0-0.01,0-0.02v-0.01c0-0.01,0-0.01,0-0.02v-0.01c0-0.01,0-0.02,0-0.02V41.4c0-0.01,0-0.01,0-0.02v-0.01c0-0.01,0-0.01,0-0.02
				v-0.01c0-0.01,0-0.01,0-0.02c0,0,0,0,0-0.01s0-0.02,0-0.03v-0.01c0-0.01,0-0.01,0-0.02v-0.01c0-0.01,0-0.01,0-0.02v-0.01
				c0-0.01,0-0.02,0-0.03c0,0,0,0,0-0.01s0-0.01,0-0.02v-0.01c0-0.01,0-0.01,0-0.02v-0.01c0-0.01,0-0.02,0-0.03c0,0,0,0,0-0.01
				s0-0.01,0-0.02v-0.01c0-0.01,0-0.01,0-0.02v-0.01c0-0.01,0-0.02,0-0.03l0,0c0-0.01,0-0.02,0-0.02v-0.01c0-0.01,0-0.01,0-0.02
				v-0.01c0-0.01,0-0.02,0-0.02l0,0c0-0.01,0-0.02,0-0.03v-0.01c0-0.01,0-0.01,0-0.02v-0.01c0-0.01,0-0.01,0-0.02c0,0,0,0,0-0.01
				s0-0.02,0-0.03c0,0,0,0,0-0.01s0-0.01,0-0.02v-0.01c0-0.01,0-0.01,0-0.02c0,0,0,0,0-0.01s0-0.02,0-0.03c0,0,0,0,0-0.01
				s0-0.01,0-0.02v-0.01c0-0.01,0-0.01,0-0.02V40.6c0-0.01,0-0.02,0-0.03l0,0c0-0.01,0-0.02,0-0.03v-0.01c0-0.01,0-0.01,0-0.02
				c0,0,0,0,0-0.01s0-0.02,0-0.02l0,0c0-0.01,0-0.02,0-0.03c0,0,0,0,0-0.01s0-0.01,0-0.02v-0.01c0-0.01,0-0.01,0-0.02
				c0,0,0,0,0-0.01s0-0.02,0-0.03v-0.01c0-0.01,0-0.01,0-0.02v-0.01c0-0.01,0-0.01,0-0.02v-0.01c0-0.01,0-0.02,0-0.03
				c0,0,0,0,0-0.01s0-0.01,0-0.02v-0.01c0-0.01,0-0.01,0-0.02v-0.01c0-0.01,0-0.02,0-0.03l0,0c0-0.01,0-0.02,0-0.03v-0.01
				c0-0.01,0-0.01,0-0.02v-0.01c0-0.01,0-0.01,0-0.02l0,0c0-0.01,0-0.02,0-0.03c0,0,0,0,0-0.01s0-0.01,0-0.02v-0.01
				c0-0.01,0-0.01,0-0.02c0,0,0,0,0-0.01s0-0.02,0-0.03c0,0,0,0,0-0.01s0-0.01,0-0.02v-0.01c0-0.01,0-0.01,0-0.02v-0.01
				c0-0.01,0-0.02,0-0.03c0,0,0,0,0-0.01s0-0.01,0-0.02v-0.01c0-0.01,0-0.01,0-0.02v-0.01c0-0.02,0-0.04,0-0.05c0,0,0,0,0-0.01
				s0-0.01,0-0.02c0,0,0,0,0-0.01s0-0.02,0-0.02l0,0c0-0.01,0-0.02,0-0.03c0,0,0,0,0-0.01s0-0.01,0-0.02v-0.01c0-0.01,0-0.01,0-0.02
				c0,0,0,0,0-0.01s0-0.02,0-0.03c0,0,0,0,0-0.01s0-0.01,0-0.02v-0.01c0-0.01,0-0.01,0-0.02v-0.01c0-0.01,0-0.02,0-0.03l0,0
				c0-0.01,0-0.02,0-0.02v-0.01c0-0.01,0-0.01,0-0.02v-0.01c0-0.01,0-0.02,0-0.03l0,0c0-0.01,0-0.02,0-0.03v-0.01
				c0-0.01,0-0.01,0-0.02v-0.01c0-0.01,0-0.01,0-0.02v-0.01c0-0.01,0-0.01,0-0.02V39.2c0-0.01,0-0.01,0-0.02v-0.01
				c0-0.01,0-0.01,0-0.02v-0.01c0-0.01,0-0.02,0-0.02l0,0c0-0.01,0-0.02,0-0.03v-0.01c0-0.01,0-0.01,0-0.02v-0.01
				c0-0.01,0-0.01,0-0.02v-0.01c0-0.01,0-0.01,0-0.02v-0.01c0-0.01,0-0.01,0-0.02v-0.01c0-0.01,0-0.01,0-0.02v-0.01
				c0-0.01,0-0.02,0-0.02l0,0c0-0.01,0-0.02,0-0.03l0,0c0-0.01,0-0.02,0-0.02v-0.01c0-0.01,0-0.01,0-0.02v-0.01
				c0-0.01,0-0.01,0-0.02v-0.01c0-0.01,0-0.01,0-0.02v-0.01c0-0.01,0-0.01,0-0.02v-0.01c0-0.01,0-0.01,0-0.02V38.7
				c0-0.01,0-0.02,0-0.03l0,0c0-0.01,0-0.02,0-0.02v-0.01c0-0.01,0-0.01,0-0.02v-0.01c0-0.01,0-0.01,0-0.02v-0.01
				c0-0.01,0-0.01,0-0.02v-0.01c0-0.01,0-0.01,0-0.02v-0.01c0-0.01,0-0.01,0-0.02c0,0,0,0,0-0.01c0-0.02,0-0.04,0-0.06
				c0,0,0,0,0-0.01s0-0.01,0-0.02v-0.01c0-0.01,0-0.01,0-0.02v-0.01c0-0.01,0-0.01,0-0.02v-0.01c0-0.01,0-0.01,0-0.02V38.3
				c0-0.01,0-0.01,0-0.02v-0.01c0-0.01,0-0.02,0-0.03l0,0c0-0.01,0-0.02,0-0.03l0,0c0-0.01,0-0.02,0-0.02v-0.01
				c0-0.01,0-0.01,0-0.02v-0.01c0-0.01,0-0.01,0-0.02v-0.01c0-0.01,0-0.01,0-0.02v-0.01c0-0.01,0-0.01,0-0.02c0,0,0,0,0-0.01
				s0-0.02,0-0.03l0,0c0-0.01,0-0.02,0-0.03l0,0c0-0.01,0-0.02,0-0.03c0,0,0,0,0-0.01s0-0.01,0-0.02v-0.01c0-0.01,0-0.01,0-0.02
				V37.9c0-0.01,0-0.01,0-0.02v-0.01c0-0.01,0-0.01,0-0.02c0,0,0,0,0-0.01s0-0.02,0-0.02l0,0c0-0.02,0-0.04,0-0.06c0,0,0,0,0-0.01
				s0-0.01,0-0.02v-0.01c0-0.01,0-0.01,0-0.02v-0.01c0-0.01,0-0.01,0-0.02c0,0,0,0,0-0.01s0-0.01,0-0.02c0,0,0,0,0-0.01
				s0-0.02,0-0.03l0,0c0-0.02,0-0.04-0.01-0.06l0,0c0-0.01,0-0.02,0-0.03c0,0,0,0,0-0.01s0-0.01,0-0.02c0,0,0,0,0-0.01
				s0-0.01,0-0.02c0,0,0,0,0-0.01s0-0.01,0-0.02c0,0,0,0,0-0.01s0-0.02,0-0.02s0,0,0-0.01c0-0.02,0-0.04-0.01-0.06l0,0
				c0-0.01,0-0.02,0-0.03l0,0c0-0.01,0-0.02,0-0.02s0,0,0-0.01s0-0.01,0-0.02c0,0,0,0,0-0.01s0-0.02,0-0.02s0,0,0-0.01
				s0-0.02,0-0.03l0,0c0-0.03-0.01-0.06-0.01-0.09l0,0c0-0.01,0-0.02,0-0.03l0,0c0-0.01,0-0.02,0-0.02s0,0,0-0.01s0-0.02,0-0.02l0,0
				c0-0.01,0-0.02,0-0.02l0,0c0-0.03-0.01-0.06-0.01-0.09l0,0c0-0.01,0-0.02,0-0.03l0,0c0-0.01,0-0.02,0-0.02l0,0
				c0-0.01,0-0.02,0-0.02l0,0c0-0.01,0-0.02,0-0.03l0,0c-0.01-0.04-0.01-0.08-0.02-0.11l0,0c0-0.01,0-0.02,0-0.03l0,0
				c0-0.01,0-0.02,0-0.03l0,0c0-0.01,0-0.02,0-0.03l0,0c-0.01-0.04-0.01-0.08-0.02-0.11l0,0c0-0.01,0-0.02,0-0.03l0,0
				c0-0.01,0-0.02,0-0.03l0,0c0-0.01,0-0.02,0-0.03l0,0c-0.01-0.05-0.02-0.09-0.02-0.14l0,0c0-0.01,0-0.02,0-0.03l0,0
				c0-0.01,0-0.02,0-0.03l0,0c-0.01-0.06-0.02-0.11-0.03-0.17l0,0c-0.36-1.99-1.03-3.87-1.97-5.59l0,0c0-0.01-0.01-0.02-0.01-0.02
				l0,0c0-0.01-0.01-0.02-0.01-0.02l0,0c-0.02-0.04-0.04-0.08-0.07-0.12l0,0c0-0.01-0.01-0.02-0.01-0.02l0,0
				c0-0.01-0.01-0.02-0.01-0.02l0,0c-0.02-0.04-0.05-0.08-0.07-0.12l0,0c0-0.01-0.01-0.01-0.01-0.02l0,0c0-0.01-0.01-0.01-0.01-0.02
				l0,0c0-0.01-0.01-0.01-0.01-0.02l0,0c-0.02-0.03-0.04-0.06-0.06-0.1l0,0c0-0.01-0.01-0.01-0.01-0.02l0,0
				c0-0.01-0.01-0.01-0.01-0.02l0,0c0-0.01-0.01-0.01-0.01-0.02l0,0c0-0.01-0.01-0.01-0.01-0.02l0,0c-0.01-0.02-0.02-0.03-0.03-0.05
				l0,0c0-0.01-0.01-0.01-0.01-0.02l0,0c0-0.01-0.01-0.01-0.01-0.02c0,0,0,0,0-0.01s-0.01-0.01-0.01-0.02c0,0,0,0,0-0.01
				s-0.01-0.01-0.01-0.02c0,0,0,0,0-0.01s-0.01-0.01-0.01-0.02c0,0,0,0,0-0.01c-0.01-0.02-0.02-0.03-0.03-0.05l0,0
				c0-0.01-0.01-0.01-0.01-0.02c0,0,0,0,0-0.01s-0.01-0.01-0.01-0.02v-0.01c0,0-0.01-0.01-0.01-0.02c0,0,0-0.01-0.01-0.01
				l-0.01-0.01c0,0,0-0.01-0.01-0.01l-0.01-0.01c0,0,0-0.01-0.01-0.01c0,0-0.01-0.01-0.01-0.02c0,0,0,0,0-0.01s-0.01-0.01-0.01-0.02
				c0,0,0,0,0-0.01s-0.01-0.01-0.01-0.02c0,0,0-0.01-0.01-0.01l-0.01-0.01c0,0,0-0.01-0.01-0.01l-0.01-0.01c0,0,0-0.01-0.01-0.01
				l-0.01-0.01c0,0,0-0.01-0.01-0.01c0,0,0-0.01-0.01-0.01c0,0,0-0.01-0.01-0.01c0,0,0-0.01-0.01-0.01c0,0,0-0.01-0.01-0.01
				l-0.01-0.01c0-0.01-0.01-0.01-0.01-0.02c0,0,0-0.01-0.01-0.01c0,0,0-0.01-0.01-0.01c0,0,0-0.01-0.01-0.01l-0.01-0.01
				c0,0,0-0.01-0.01-0.01l-0.01-0.01c0,0,0-0.01-0.01-0.01l-0.01-0.01c0,0,0-0.01-0.01-0.01l-0.01-0.01v-0.01l-0.01-0.01l0,0
				c-0.01-0.02-0.02-0.03-0.03-0.05c0,0,0,0,0-0.01l-0.01-0.01c0,0,0-0.01-0.01-0.01l-0.01-0.01c0,0,0,0,0-0.01l-0.01-0.01
				c0,0,0,0,0-0.01s-0.01-0.01-0.01-0.02c0,0,0,0,0-0.01s-0.01-0.01-0.01-0.02l0,0c-0.02-0.03-0.03-0.05-0.05-0.08l0,0
				c0-0.01-0.01-0.01-0.01-0.02l0,0c0-0.01-0.01-0.01-0.01-0.02l0,0c0-0.01-0.01-0.01-0.01-0.02l0,0c0-0.01-0.01-0.01-0.01-0.02l0,0
				c-0.02-0.03-0.04-0.05-0.05-0.08l0,0c0-0.01-0.01-0.01-0.01-0.02l0,0c0-0.01-0.01-0.01-0.01-0.02l0,0c0-0.01-0.01-0.01-0.01-0.02
				l0,0c-0.03-0.05-0.07-0.09-0.1-0.14l0,0C268.29,28.38,268.02,28.03,267.74,27.69L267.74,27.69z M253.5,21v2
				c0.67,0,1.35,0.04,2.01,0.12l0.24-1.99l0,0h-0.01h-0.01c-0.01,0-0.01,0-0.02,0h-0.01h-0.01c-0.01,0-0.01,0-0.02,0h-0.01
				c-0.01,0-0.02,0-0.02,0l0,0c-0.01,0-0.02,0-0.02,0l0,0c-0.01,0-0.02,0-0.03,0l0,0c-0.54-0.06-1.09-0.1-1.65-0.11l0,0
				c-0.03,0-0.06,0-0.09,0l0,0c-0.01,0-0.02,0-0.03,0l0,0c-0.02,0-0.04,0-0.06,0l0,0c-0.01,0-0.02,0-0.03,0l0,0
				c-0.01,0-0.02,0-0.03,0l0,0c-0.01,0-0.02,0-0.03,0l0,0c-0.01,0-0.02,0-0.03,0l0,0c-0.02,0-0.04,0-0.05,0l0,0
				c-0.01,0-0.02,0-0.03,0l0,0C253.52,21,253.51,21,253.5,21L253.5,21z"/>
		</g>
	</g>
</g>
<g id="形状_691_1_" class="st0">
	<g id="形状_691">
		<g>
			<path class="st1" d="M247.74,32.99c1.6,0,3.06,1.18,3.91,3.15l1.84,4.29l1.83-4.29c0.82-1.92,2.29-3.06,3.94-3.06
				c1.84,0,3.71,1.54,3.73,4.97c0.02,2.31-1.58,3.46-4.2,5.09c-0.56,0.35-1.15,0.71-1.69,1.09c-1.22,0.86-2.53,2.02-3.58,3.18
				c-1.02-1.14-2.33-2.28-3.71-3.18c-0.43-0.28-0.89-0.56-1.36-0.84c-2.79-1.68-4.48-2.87-4.46-5.3
				C244.02,34.59,245.96,32.99,247.74,32.99 M247.74,30.99c-2.93,0-5.71,2.5-5.75,7.09c-0.03,4.41,4.03,6.06,6.73,7.83
				c2.62,1.71,4.49,4.05,4.78,5.05c0.25-0.98,2.33-3.38,4.76-5.1c2.65-1.87,6.76-3.42,6.73-7.83c-0.03-4.57-2.81-6.95-5.73-6.95
				c-2.23,0-4.54,1.39-5.77,4.27C252.22,32.39,249.94,30.99,247.74,30.99L247.74,30.99z"/>
		</g>
	</g>
</g>
<g id="图层_6">
	<g id="椭圆_691">
		<g>
			<path class="st2" d="M253.5,3.5c19.88,0,36,16.12,36,36s-16.12,36-36,36s-36-16.12-36-36S233.62,3.5,253.5,3.5 M253.5,0.5
				c-21.5,0-39,17.5-39,39s17.5,39,39,39s39-17.5,39-39S275,0.5,253.5,0.5L253.5,0.5z"/>
		</g>
	</g>
	<g>
		
			<linearGradient id="SVGID_1_" gradientUnits="userSpaceOnUse" x1="39.1" y1="37.68" x2="215.46" y2="37.68" gradientTransform="matrix(1 0 0 -1 0 80)">
			<stop  offset="5.586592e-03" style="stop-color:#FFFFFF;stop-opacity:0"/>
			<stop  offset="1" style="stop-color:#2474CD"/>
		</linearGradient>
		<line class="st3" x1="39.1" y1="42.32" x2="215.46" y2="42.32"/>
	</g>
</g>
<g id="图层_7">
	<path class="st4" d="M216.5,39.5c0-20.43,16.57-37,37-37s37,16.57,37,37s-16.57,37-37,37"/>
</g>
<g id="椭圆_694_5_" class="st0">
	<g id="椭圆_694">
		<g>
			<path class="st1" d="M261,22c1.1,0,2,0.9,2,2s-0.9,2-2,2s-2-0.9-2-2S259.9,22,261,22 M261,20c-2.21,0-4,1.79-4,4s1.79,4,4,4
				s4-1.79,4-4S263.21,20,261,20L261,20z"/>
		</g>
	</g>
</g>
<g id="椭圆_694_4_" class="st0">
	<g id="椭圆_694_1_">
		<g>
			<path class="st1" d="M265,52c1.1,0,2,0.9,2,2s-0.9,2-2,2s-2-0.9-2-2S263.9,52,265,52 M265,50c-2.21,0-4,1.79-4,4s1.79,4,4,4
				s4-1.79,4-4S267.21,50,265,50L265,50z"/>
		</g>
	</g>
</g>
<g id="椭圆_694_3_" class="st0">
	<g id="椭圆_694_2_">
		<g>
			<path class="st1" d="M235,39c1.1,0,2,0.9,2,2s-0.9,2-2,2s-2-0.9-2-2S233.9,39,235,39 M235,37c-2.21,0-4,1.79-4,4s1.79,4,4,4
				s4-1.79,4-4S237.21,37,235,37L235,37z"/>
		</g>
	</g>
</g>
</svg>
