<?xml version="1.0" encoding="utf-8"?>
<!-- Generator: Adobe Illustrator 23.0.0, SVG Export Plug-In . SVG Version: 6.00 Build 0)  -->
<svg version="1.1" id="图层_1" xmlns="http://www.w3.org/2000/svg" xmlns:xlink="http://www.w3.org/1999/xlink" x="0px" y="0px"
	 viewBox="0 0 369 78" style="enable-background:new 0 0 369 78;" xml:space="preserve">
<style type="text/css">
	.st0{fill:none;stroke:url(#SVGID_1_);stroke-width:3;stroke-miterlimit:100;}
	.st1{fill:#2474CD;}
	.st2{fill:none;stroke:#37D8FF;stroke-width:3;stroke-linecap:round;stroke-miterlimit:100;}
	.st3{enable-background:new    ;}
	.st4{fill:#F4A027;}
	.st5{fill-rule:evenodd;clip-rule:evenodd;fill:#F4A027;}
</style>
<g id="_x3C_直线_x3E_">
	<g>
		
			<linearGradient id="SVGID_1_" gradientUnits="userSpaceOnUse" x1="116.17" y1="38" x2="292.53" y2="38" gradientTransform="matrix(1 0 0 -1 0 80)">
			<stop  offset="0" style="stop-color:#FFFFFF;stop-opacity:0"/>
			<stop  offset="1" style="stop-color:#2474CD"/>
		</linearGradient>
		<line class="st0" x1="116.17" y1="42" x2="292.53" y2="42"/>
	</g>
</g>
<g id="椭圆_691_2_">
	<g id="椭圆_691">
		<g>
			<path class="st1" d="M330,3.5c19.88,0,36,16.12,36,36s-16.12,36-36,36s-36-16.12-36-36S310.12,3.5,330,3.5 M330,0.5
				c-21.5,0-39,17.5-39,39s17.5,39,39,39s39-17.5,39-39S351.5,0.5,330,0.5L330,0.5z"/>
		</g>
	</g>
</g>
<g id="图层_9">
	<path class="st2" d="M292.5,39c0-20.71,16.79-37.5,37.5-37.5s37.5,16.79,37.5,37.5S350.71,76.5,330,76.5"/>
</g>
<g id="矩形_2_1_" class="st3">
	<g id="矩形_2">
		<g>
			<path class="st4" d="M340,30v20h-20V30H340 M342,28h-24v24h24V28L342,28z"/>
		</g>
	</g>
</g>
<g id="矩形_1_1_" class="st3">
	<g id="矩形_1">
		<g>
			<path class="st4" d="M333,36v7h-7v-7H333 M335,34h-11v11h11V34L335,34z"/>
		</g>
	</g>
</g>
<g id="形状_691_7_" class="st3">
	<g id="形状_691">
		<g>
			<path class="st5" d="M323,29h2v-7h-2V29z M327,29h2v-7h-2V29z M331,29h2v-7h-2V29z M335,22v7h2v-7H335z"/>
		</g>
	</g>
</g>
<g id="形状_691_6_" class="st3">
	<g id="形状_691_1_">
		<g>
			<path class="st5" d="M323,58h2v-7h-2V58z M327,58h2v-7h-2V58z M331,58h2v-7h-2V58z M335,51v7h2v-7H335z"/>
		</g>
	</g>
</g>
<g id="形状_691_5_" class="st3">
	<g id="形状_691_2_">
		<g>
			<path class="st5" d="M312,33v2h7v-2H312z M312,39h7v-2h-7V39z M312,43h7v-2h-7V43z M312,47h7v-2h-7V47z"/>
		</g>
	</g>
</g>
<g id="形状_691_4_" class="st3">
	<g id="形状_691_3_">
		<g>
			<path class="st5" d="M341,33v2h7v-2H341z M341,39h7v-2h-7V39z M341,43h7v-2h-7V43z M341,47h7v-2h-7V47z"/>
		</g>
	</g>
</g>
</svg>
