<svg id="图层_1" data-name="图层 1" xmlns="http://www.w3.org/2000/svg" viewBox="0 0 256 256"><defs><style>.cls-1{fill:#6f7985;}.cls-2{fill:#73da16;}</style></defs><title>未标题-1</title><path class="cls-1" d="M111,179a56,56,0,0,1,36-52.31V23H31V221h99A55.86,55.86,0,0,1,111,179ZM51,43h77V59H51Zm0,32.5h77v16H51ZM51,108h77v16H51Zm37,94a13,13,0,1,1,13-13A13,13,0,0,1,88,202Z"/><path class="cls-2" d="M171.5,125A54.5,54.5,0,1,0,226,179.5,54.5,54.5,0,0,0,171.5,125ZM167,209s-16-18-25-20l16-9,7,14s19-37,32-41l1,22S179,189,167,209Z"/></svg>