<svg id="图层_1" data-name="图层 1" xmlns="http://www.w3.org/2000/svg" viewBox="0 0 256 256"><defs><style>.cls-1{fill:#6f7985;}.cls-2{fill:red;}</style></defs><title>未标题-1</title><path class="cls-1" d="M111,179a56,56,0,0,1,36-52.31V23H31V221h99A55.86,55.86,0,0,1,111,179ZM51,43h77V59H51Zm0,32.5h77v16H51ZM51,108h77v16H51Zm37,94a13,13,0,1,1,13-13A13,13,0,0,1,88,202Z"/><path class="cls-2" d="M171.89,123.89a55.5,55.5,0,1,0,55.5,55.5A55.49,55.49,0,0,0,171.89,123.89Zm29.72,73.66-11.56,11.56L171.89,191l-18.17,18.16-11.56-11.56,18.17-18.16-18.17-18.17,11.56-11.56,18.17,18.17,18.16-18.17,11.56,11.56-18.16,18.17Z"/></svg>