<svg id="图层_1" data-name="图层 1" xmlns="http://www.w3.org/2000/svg" viewBox="0 0 256 256"><defs><style>.cls-1{fill:#6f7985;}</style></defs><title>未标题-1</title><polygon class="cls-1" points="71 25 29 70 29 225 107 225 108 225 108 209 45 209 45 87 83 87 83 41 167 41 167 129 183 129 183 25 71 25"/><path class="cls-1" d="M130,163s-18,12-17,32,18,30,27,31h73s28-7,29-35c0,0-1-37-31-39,0,0,8,23-6,36,0,0,7-32-10-44s-40-5-48,12c0,0,25,12,24,27C171,183,146,164,130,163Z"/><rect class="cls-1" x="96" y="67" width="63" height="18"/><rect class="cls-1" x="59" y="95.63" width="100" height="18"/><rect class="cls-1" x="59" y="181.5" width="46" height="18"/><path class="cls-1" d="M159,133.5v-9.25H59v18h87.64A55.13,55.13,0,0,1,159,133.5Z"/><path class="cls-1" d="M128,157.88v-5H59v18h54.45C115.76,167.11,120.79,160.3,128,157.88Z"/></svg>