<?xml version="1.0" encoding="utf-8"?>
<!-- Generator: Adobe Illustrator 21.0.2, SVG Export Plug-In . SVG Version: 6.00 Build 0)  -->
<svg version="1.1" id="图层_1" xmlns="http://www.w3.org/2000/svg" xmlns:xlink="http://www.w3.org/1999/xlink" x="0px" y="0px"
	 viewBox="0 0 32 32" style="enable-background:new 0 0 32 32;" xml:space="preserve">
<style type="text/css">
	.st0{fill:#36C6D3;}
</style>
<g>
	<path class="st0" d="M16,24.1c-4.9,0-8.8-1.3-8.8-3v3.8c0.1,1.6,4,3,8.8,3c4.8,0,8.7-1.3,8.8-3V21C24.8,22.8,20.9,24.1,16,24.1z"/>
	<g>
		<path class="st0" d="M16,24.1c-4.9,0-8.8-1.3-8.8-3v3.8c0.1,1.6,4,3,8.8,3c4.8,0,8.7-1.3,8.8-3V21C24.8,22.8,20.9,24.1,16,24.1
			L16,24.1z M16,24.1"/>
		<path class="st0" d="M16,19.6c-4.9,0-8.8-1.3-8.8-3v3.3c0.1,1.6,4,3,8.8,3c4.8,0,8.7-1.3,8.8-3v-3.3C24.8,18.2,20.9,19.6,16,19.6
			L16,19.6z M16,19.6"/>
		<path class="st0" d="M24.8,12.2c0-1.6-3.9-3-8.8-3c-4.9,0-8.8,1.3-8.8,3v3.3c0.1,1.6,4,3,8.8,3c4.8,0,8.7-1.3,8.8-3V12.2z
			 M16,14.3c-3.6,0-6.6-1-6.6-2.2c0-1.2,3-2.2,6.6-2.2c3.6,0,6.6,1,6.6,2.2C22.6,13.4,19.6,14.3,16,14.3L16,14.3z M16,14.3"/>
	</g>
	<path class="st0" d="M16,14.3"/>
	<path class="st0" d="M26,12.8v2.8c3.2-0.3,5.7-1.3,5.8-2.5v-2.8C31.8,11.6,29.4,12.6,26,12.8z"/>
	<path class="st0" d="M24.4,4.1c-4.2,0-7.5,1.1-7.5,2.5v1.3c5.2,0.2,9.1,1.6,9.1,3.4v0.6c3.2-0.3,5.7-1.3,5.8-2.5V6.7
		C31.8,5.3,28.5,4.1,24.4,4.1z M24.4,8.4c-3,0-5.6-0.9-5.6-1.9c0-1,2.5-1.9,5.6-1.9c3,0,5.6,0.9,5.6,1.9C29.9,7.7,27.4,8.4,24.4,8.4
		z"/>
	<path class="st0" d="M6,11.3c0-1.8,4-3.2,9.1-3.4V6.7c0-1.4-3.3-2.5-7.5-2.5c-4.2,0-7.5,1.1-7.5,2.5v2.8c0.1,1.2,2.5,2.2,5.8,2.5
		V11.3z M7.6,4.6c3,0,5.6,0.9,5.6,1.9c0,1.1-2.5,1.9-5.6,1.9c-3,0-5.6-0.9-5.6-1.9C2.1,5.5,4.6,4.6,7.6,4.6z"/>
	<path class="st0" d="M6,12.8c-3.4-0.3-5.8-1.3-5.8-2.5v2.8c0.1,1.2,2.5,2.2,5.8,2.5V12.8z"/>
	<path class="st0" d="M6,16.7c-3.4-0.3-5.8-1.3-5.8-2.5v3.2c0.1,1.2,2.5,2.2,5.8,2.5V16.7z"/>
	<path class="st0" d="M26,16.7v3.2c3.2-0.3,5.7-1.3,5.8-2.5v-3.3C31.8,15.4,29.4,16.4,26,16.7z"/>
</g>
</svg>
