<?xml version="1.0" encoding="utf-8"?>
<!-- Generator: Adobe Illustrator 21.0.2, SVG Export Plug-In . SVG Version: 6.00 Build 0)  -->
<svg version="1.1" id="图层_1" xmlns="http://www.w3.org/2000/svg" xmlns:xlink="http://www.w3.org/1999/xlink" x="0px" y="0px"
	 viewBox="0 0 32 32" style="enable-background:new 0 0 32 32;" xml:space="preserve">
<style type="text/css">
	.st0{fill:#36C6D3;}
</style>
<g>
	<path class="st0" d="M18.2,17.6c0-0.8-0.6-1.3-1.3-1.3c-0.8,0-1.3,0.5-1.3,1.3c0,0.8,0.6,1.3,1.3,1.3S18.2,18.4,18.2,17.6z"/>
	<polygon class="st0" points="11,28.3 14.9,28.3 14.9,27 11,27 11,25.2 15.2,25.2 15.2,23.9 9.4,23.9 9.4,31.7 15.3,31.7 15.3,30.4 
		11,30.4 	"/>
	<path class="st0" d="M21.6,29.5c0-0.5-0.1-0.9-0.3-1.3c-0.2-0.3-0.5-0.6-0.9-0.8s-0.9-0.4-1.7-0.6c-0.8-0.2-1.3-0.4-1.5-0.5
		C17.1,26.2,17,26,17,25.8c0-0.2,0.1-0.4,0.3-0.5c0.3-0.2,0.6-0.3,1.1-0.3c0.4,0,0.8,0.1,1,0.3c0.2,0.2,0.4,0.5,0.4,0.9l1.6-0.1
		c0-0.7-0.3-1.3-0.8-1.7s-1.2-0.6-2.2-0.6c-0.6,0-1.1,0.1-1.5,0.3c-0.4,0.2-0.8,0.4-1,0.8c-0.2,0.3-0.3,0.7-0.3,1.1
		c0,0.6,0.2,1.1,0.7,1.6c0.3,0.3,0.9,0.6,1.8,0.8c0.7,0.2,1.1,0.3,1.3,0.3c0.3,0.1,0.5,0.2,0.6,0.3c0.1,0.1,0.2,0.3,0.2,0.5
		c0,0.3-0.1,0.5-0.4,0.8c-0.3,0.2-0.6,0.3-1.2,0.3c-0.5,0-0.9-0.1-1.1-0.4c-0.3-0.2-0.5-0.6-0.6-1.1l-1.5,0.2c0.1,0.9,0.4,1.5,1,2
		s1.3,0.7,2.3,0.7c0.7,0,1.3-0.1,1.7-0.3c0.5-0.2,0.8-0.5,1.1-0.9S21.6,29.9,21.6,29.5z"/>
	<path class="st0" d="M28.1,23.9L28.1,23.9h-1.8l-1.5,2.5l-1.6-2.5h-1.9l2.4,3.8L21,31.7h1.9l1.7-2.7l1.7,2.7H28h0.3h1.3v-7.8H28.1z
		 M25.6,27.7L28,24v7.2L25.6,27.7z"/>
	<path class="st0" d="M16.1,23.5c0.1-0.1,0.2-0.2,0.4-0.2c0.5-0.2,1.2-0.3,1.9-0.3c0.5,0,0.9,0.1,1.4,0.2l0,0h1.5V2
		c0-0.7-0.6-1.3-1.3-1.3H3.7C3,0.7,2.4,1.3,2.4,2v27.3c0,0.7,0.6,1.3,1.3,1.3h4.8V23h7.6V23.5z M4.6,2.9H19v4.3H4.6V2.9z M4.6,13.7
		V9.4H19v4.3H4.6z M11.4,18.5c-0.6,0-1.1-0.5-1.1-1.1c0-0.6,0.5-1.1,1.1-1.1c0.6,0,1.1,0.5,1.1,1.1C12.5,18,12,18.5,11.4,18.5z
		 M14.7,17.6c0-1.2,1-2.2,2.2-2.2c1.2,0,2.2,1,2.2,2.2c0,1.2-1,2.2-2.2,2.2S14.7,18.8,14.7,17.6z"/>
</g>
</svg>
