<svg id="图层_1" data-name="图层 1" xmlns="http://www.w3.org/2000/svg" viewBox="0 0 256 256"><defs><style>.cls-1{fill:#6f7985;}</style></defs><title>未标题-1</title><polygon class="cls-1" points="154 152 164.87 152 170.1 179.81 174.13 152 185 152 175.74 192 163.66 192 154 152"/><path class="cls-1" d="M203.12,127.25l-28.57-16.5v12H156.82a29.49,29.49,0,0,0-24.93-24.69V80.54h12L127.39,52l-16.5,28.58h12v17.6a29.51,29.51,0,0,0-24.38,24.61H81.12v-12l-28.57,16.5,28.57,16.5v-12H98.51a29.51,29.51,0,0,0,24.38,24.61h0V174h-12l16.5,28.58L143.89,174h-12V156.44a29.49,29.49,0,0,0,24.93-24.69h17.73v12ZM98.28,124.73c0,.17,0,.33,0,.49C98.25,125.06,98.27,124.9,98.28,124.73Zm0,4.55c0,.16,0,.32,0,.49C98.27,129.6,98.25,129.44,98.24,129.28ZM130,97.85l-.36,0Zm-4.56,0-.31,0Zm-.31,58.79.31,0Zm4.51.05.36,0Zm-2-8.93a20.5,20.5,0,1,1,20.5-20.5A20.5,20.5,0,0,1,127.66,147.75Zm29.39-18c0-.17,0-.33,0-.49C157.08,129.44,157.06,129.6,157.05,129.77Zm0-5c0,.17,0,.33,0,.49C157.08,125.06,157.06,124.9,157.05,124.73Z"/><path class="cls-1" d="M127.84,20.25a107,107,0,1,0,107,107A107,107,0,0,0,127.84,20.25Zm0,199.8a92.8,92.8,0,1,1,92.8-92.8A92.8,92.8,0,0,1,127.84,220.05Z"/></svg>