<?xml version="1.0" encoding="utf-8"?>
<!-- Generator: Adobe Illustrator 21.0.2, SVG Export Plug-In . SVG Version: 6.00 Build 0)  -->
<svg version="1.1" id="图层_1" xmlns="http://www.w3.org/2000/svg" xmlns:xlink="http://www.w3.org/1999/xlink" x="0px" y="0px"
	 viewBox="0 0 32 32" style="enable-background:new 0 0 32 32;" xml:space="preserve">
<style type="text/css">
	.st0{fill:#36C6D3;}
</style>
<g>
	<path class="st0" d="M17,15.7c-0.8,0-1.3,0.5-1.3,1.3c0,0.8,0.6,1.3,1.3,1.3c0.8,0,1.3-0.5,1.3-1.3C18.4,16.2,17.8,15.7,17,15.7z"
		/>
	<polygon class="st0" points="15.3,29 12.9,22 10.8,22 14.2,31.5 16.2,31.5 19.6,22 17.6,22 	"/>
	<path class="st0" d="M26.6,28c-0.2,0.7-0.4,1.2-0.8,1.5S25,30,24.5,30c-0.7,0-1.2-0.3-1.7-0.8c-0.4-0.5-0.6-1.4-0.6-2.5
		c0-1.1,0.2-1.9,0.7-2.4c0.4-0.5,1-0.8,1.7-0.8c0.5,0,0.9,0.1,1.3,0.4c0.4,0.3,0.6,0.7,0.7,1.2l1.9-0.5c-0.2-0.8-0.5-1.3-1-1.7
		c-0.7-0.7-1.7-1-2.8-1c-1.3,0-2.4,0.4-3.2,1.3s-1.2,2.1-1.2,3.7c0,1.5,0.4,2.7,1.2,3.5s1.8,1.3,3.1,1.3c1,0,1.8-0.2,2.5-0.7
		c0.7-0.5,1.1-1.3,1.4-2.3L26.6,28z"/>
	<path class="st0" d="M13.5,21.2l1.8,5.2l1.7-5.2h0.2h3.7h0.5V1.7c0-0.7-0.6-1.3-1.3-1.3H4.2c-0.7,0-1.3,0.6-1.3,1.3v26.8
		c0,0.7,0.6,1.3,1.3,1.3h8.5l-3.1-8.6H13.5z M11.7,17.8c-0.6,0-1.1-0.5-1.1-1.1c0-0.6,0.5-1.1,1.1-1.1c0.6,0,1.1,0.5,1.1,1.1
		C12.8,17.4,12.3,17.8,11.7,17.8z M17,19.1c-1.1,0-2.1-0.9-2.1-2.1c0-1.2,0.9-2.1,2.1-2.1c1.1,0,2.1,0.9,2.1,2.1
		C19.2,18.2,18.2,19.1,17,19.1z M5,2.5h14.2v4.3H5V2.5z M5,8.9h14.2v4.3H5V8.9z"/>
</g>
</svg>
