<svg id="图层_1" data-name="图层 1" xmlns="http://www.w3.org/2000/svg" viewBox="0 0 256 256"><defs><style>.cls-1{fill:#73da16;}</style></defs><title>未标题-1</title><path class="cls-1" d="M91,153.5a69.44,69.44,0,0,1,35-60.32V28H14V210H120.05A69.4,69.4,0,0,1,91,153.5ZM70,191a11,11,0,1,1,11-11A11,11,0,0,1,70,191ZM56,132,32,50H59l13,57L82,50h27L86,132Z"/><path class="cls-1" d="M172,83a72,72,0,1,0,72,72A72,72,0,0,0,172,83Zm0,137a65,65,0,1,1,65-65A65,65,0,0,1,172,220Z"/><polygon class="cls-1" points="206.72 154.5 153.89 124 153.89 185 206.72 154.5"/></svg>