<?xml version="1.0" standalone="no"?><!DOCTYPE svg PUBLIC "-//W3C//DTD SVG 1.1//EN" "http://www.w3.org/Graphics/SVG/1.1/DTD/svg11.dtd" ><svg xmlns="http://www.w3.org/2000/svg"><metadata></metadata><defs><font id="FontMonger:Adventure Subtitles Normal" horiz-adv-x="1827"><font-face font-family="asn" font-weight="500" font-stretch="normal" units-per-em="2050" panose-1="4 11 6 0 0 0 0 0 0 0" ascent="1450" descent="-600" x-height="0" bbox="-4 -567 1705 1450" underline-thickness="50" underline-position="-100" unicode-range="U+0020-2010" /><missing-glyph horiz-adv-x="1025" d="M128 0 l0 1450 l769 0 l0 -1450 l-769 0 ZM256 128 l513 0 l0 1194 l-513 0 l0 -1194 Z" /><glyph glyph-name="space" unicode=" " d="" /><glyph glyph-name="exclam" unicode="!" d="M123 238 q51 0 85 -30.5 q34 -30.5 34 -80.5 q0 -54 -30 -89 q-32 -38 -85 -38 q-56 0 -91.5 35.5 q-35.5 35.5 -35.5 91.5 q0 111 123 111 ZM246 1421 l0 -1077 l-246 0 l0 1077 l246 0 Z" /><glyph glyph-name="quotedbl" unicode="&quot;" d="M242 1315 l0 -135 l-242 -127 l0 262 q0 110 123 110 q52 0 85.5 -29.5 q33.5 -29.5 33.5 -80.5 ZM651 1315 l0 -135 l-241 -127 l0 262 q0 110 122 110 q119 0 119 -110 Z" /><glyph glyph-name="numbersign" unicode="#" d="M483 1020 l0 119 l246 0 l0 -119 l94 0 l0 -246 l-94 0 l0 -90 l94 0 l0 -246 l-94 0 l0 -123 l-246 0 l0 123 l-114 0 l0 -123 l-246 0 l0 123 l-123 0 l0 246 l123 0 l0 90 l-123 0 l0 246 l123 0 l0 119 l246 0 l0 -119 l114 0 ZM369 774 l0 -90 l114 0 l0 90 l-114 0 Z" /><glyph glyph-name="dollar" unicode="$" d="M459 971 l-172 0 l0 -240 l172 0 l0 240 ZM459 266 l0 219 l-203 0 q-123 0 -180 56 q-76 75 -76 180 l0 240 q0 107 74.5 181.5 q74.5 74.5 181.5 74.5 l203 0 l0 204 l246 0 l0 -204 l528 0 l0 -246 l-528 0 l0 -240 l270 0 q130 0 182 -53 q73 -75 74 -182 l2 -240 q1 -104 -75.5 -180 q-76.5 -76 -180.5 -76 l-272 0 l0 -567 l-246 0 l0 567 l-459 0 l0 266 l459 0 ZM705 266 l239 0 l0 219 l-239 0 l0 -219 Z" /><glyph glyph-name="percent" unicode="%" d="M1529 1136 l-947 -1422 l-286 0 l943 1422 l290 0 ZM680 985 l0 -511 q0 -60 -41.5 -103 q-41.5 -43 -101.5 -43 l-301 0 q-60 0 -103 43.5 q-43 43.5 -43 102.5 l0 511 q0 61 42 103 q42 42 104 42 l303 0 q62 0 101.5 -42 q39.5 -42 39.5 -103 ZM544 469 l0 521 l-315 0 l0 -521 l315 0 ZM1705 370 l0 -510 q0 -62 -41.5 -104 q-41.5 -42 -103.5 -42 l-301 0 q-58 0 -101.5 43.5 q-43.5 43.5 -43.5 102.5 l0 510 q0 61 42 103 q42 42 103 42 l305 0 q61 0 101 -42 q40 -42 40 -103 ZM1567 -147 l0 523 l-313 0 l0 -523 l313 0 Z" /><glyph glyph-name="ampersand" unicode="&amp;" d="M246 834 l329 0 l0 342 l-329 0 l0 -342 ZM246 584 l0 -338 l512 0 l-512 338 ZM1028 313 l102 -67 l0 -246 l-153 102 q-87 -102 -205 -102 l-518 0 q-106 0 -181 75 q-75 75 -75 181 l0 342 q0 47 36 71 q22 15 34 27 q-44 44 -52 56 q-18 27 -18 71 l0 342 q0 108 74 182 q74 74 182 74 l313 0 q109 0 182.5 -73.5 q73.5 -73.5 73.5 -182.5 l0 -329 q0 -105 -75 -181 q-60 -60 -146 -63 l178 -117 l0 123 l248 0 l0 -285 Z" /><glyph glyph-name="quotesingle" unicode="&#39;" d="M242 1315 l0 -135 l-242 -127 l0 262 q0 110 123 110 q52 0 85.5 -29.5 q33.5 -29.5 33.5 -80.5 Z" /><glyph glyph-name="parenleft" unicode="(" d="M246 246 l372 0 l0 -246 l-362 0 q-105 0 -180.5 75.5 q-75.5 75.5 -75.5 180.5 l0 909 q0 108 74 182 q74 74 182 74 l362 0 l0 -245 l-372 0 l0 -930 Z" /><glyph glyph-name="parenright" unicode=")" d="M373 246 l0 930 l-373 0 l0 245 l362 0 q109 0 182.5 -73.5 q73.5 -73.5 73.5 -182.5 l0 -909 q0 -106 -75 -181 q-75 -75 -181 -75 l-362 0 l0 246 l373 0 Z" /><glyph glyph-name="asterisk" unicode="*" d="M219 840 l-215 299 l246 0 l180 -252 l193 256 l245 0 l-225 -303 l180 0 l0 -246 l-180 0 l205 -283 l-246 0 l-174 242 l-178 -238 l-246 0 l207 279 l-211 0 l0 246 l219 0 Z" /><glyph glyph-name="plus" unicode="+" d="M295 840 l0 299 l246 0 l0 -299 l282 0 l0 -246 l-282 0 l0 -279 l-246 0 l0 279 l-295 0 l0 246 l295 0 Z" /><glyph glyph-name="comma" unicode="," d="M242 127 l0 -135 l-242 -127 l0 262 q0 111 123 111 q51 0 85 -30.5 q34 -30.5 34 -80.5 Z" /><glyph glyph-name="hyphen" unicode="-&#x2010;" d="M0 594 l0 246 l823 0 l0 -246 l-823 0 Z" /><glyph glyph-name="period" unicode="." d="M123 238 q51 0 85 -30.5 q34 -30.5 34 -80.5 q0 -54 -30 -89 q-32 -38 -85 -38 q-56 0 -91.5 35.5 q-35.5 35.5 -35.5 91.5 q0 111 123 111 Z" /><glyph glyph-name="slash" unicode="/" d="M1233 1421 l-946 -1421 l-287 0 l944 1421 l289 0 Z" /><glyph glyph-name="zero" unicode="0" d="M1324 880 l0 -909 q0 -108 -74 -182 q-74 -74 -182 -74 l-719 0 q-105 0 -180.5 75 q-75.5 75 -75.5 181 l0 909 q0 108 74 182 q74 74 182 74 l721 0 q110 0 182 -73 q72 -73 72 -183 ZM1078 -40 l0 930 l-739 0 l0 -930 l739 0 Z" /><glyph glyph-name="one" unicode="1" d="M462 -285 l2 1024 l-368 -176 l0 287 l653 286 l0 -1421 l-287 0 Z" /><glyph glyph-name="two" unicode="2" d="M1304 -285 l-1233 0 l0 557 q0 110 93 186 q88 71 198 71 l694 -2 l0 362 l-883 0 l0 247 l875 0 q108 0 182 -74.5 q74 -74.5 74 -182.5 l0 -342 q0 -106 -75 -180.5 q-75 -74.5 -181 -74.5 l-729 0 l0 -322 l985 0 l0 -245 Z" /><glyph glyph-name="three" unicode="3" d="M92 -285 l0 245 l985 0 l0 343 l-739 0 l0 246 l739 0 l0 341 l-985 0 l0 246 l977 0 q108 0 182 -74 q74 -74 74 -182 l0 -342 q0 -44 -18 -71 q-8 -13 -52 -56 q28 -18 64 -54 q6 -11 6 -44 l0 -342 q0 -106 -75 -181 q-75 -75 -181 -75 l-977 0 Z" /><glyph glyph-name="four" unicode="4" d="M94 303 l417 826 l246 0 l-254 -581 l576 -1 l0 590 l248 0 l0 -1424 l-248 0 l0 587 l-985 3 Z" /><glyph glyph-name="five" unicode="5" d="M93 559 l0 577 l1231 0 l2 -391 l-248 0 l0 145 l-739 0 l0 -341 l731 0 q95 0 175.5 -71 q80.5 -71 80.5 -165 l0 -342 q0 -160 -176 -231 q-62 -25 -113 -25 l-944 0 l0 245 l985 0 l0 343 l-739 0 q-109 0 -177.5 73 q-68.5 73 -68.5 183 Z" /><glyph glyph-name="six" unicode="6" d="M336 -40 l739 0 l0 343 l-739 0 l0 -343 ZM1323 745 l-248 0 l0 145 l-739 0 l0 -341 l731 0 q95 0 175.5 -71 q80.5 -71 80.5 -165 l0 -342 q0 -160 -176 -231 q-62 -25 -113 -25 l-688 0 q-105 0 -180.5 75 q-75.5 75 -75.5 181 l0 909 q0 108 74 182 q74 74 182 74 l721 0 q109 0 180.5 -73.5 q71.5 -73.5 73.5 -182.5 l2 -135 Z" /><glyph glyph-name="seven" unicode="7" d="M1257 1137 l-989 -1423 l-248 0 l817 1178 l-811 0 l0 245 l1231 0 Z" /><glyph glyph-name="eight" unicode="8" d="M339 548 l739 0 l0 343 l-739 0 l0 -343 ZM339 -40 l739 0 l0 343 l-739 0 l0 -343 ZM347 1136 l725 0 q106 0 180 -74 q74 -74 74 -182 l0 -342 q0 -44 -16 -71 q-10 -13 -54 -56 q28 -19 64 -54 q6 -11 6 -44 l0 -343 q0 -106 -74 -180.5 q-74 -74.5 -180 -74.5 l-725 0 q-106 0 -181 74.5 q-75 74.5 -75 180.5 l0 343 q0 46 37 71 q21 15 33 27 q-42 43 -52 56 q-18 27 -18 71 l0 342 q0 108 74 182 q74 74 182 74 Z" /><glyph glyph-name="nine" unicode="9" d="M1080 890 l-739 0 l0 -341 l739 0 l0 341 ZM93 106 l248 0 l0 -146 l739 0 l0 343 l-731 0 q-95 0 -174 69 q-82 72 -82 166 l0 342 q0 109 92 185 q86 71 197 71 l688 0 q106 0 181 -75.5 q75 -75.5 75 -180.5 l0 -909 q0 -107 -74.5 -181.5 q-74.5 -74.5 -181.5 -74.5 l-721 0 q-108 0 -180 73 q-72 73 -74 183 l-2 135 Z" /><glyph glyph-name="colon" unicode=":" d="M123 750 q51 0 85 -30.5 q34 -30.5 34 -80.5 q0 -54 -30 -89 q-32 -38 -85 -38 q-56 0 -91.5 35.5 q-35.5 35.5 -35.5 91.5 q0 111 123 111 ZM123 238 q51 0 85 -30.5 q34 -30.5 34 -80.5 q0 -54 -30 -89 q-32 -38 -85 -38 q-56 0 -91.5 35.5 q-35.5 35.5 -35.5 91.5 q0 111 123 111 Z" /><glyph glyph-name="semicolon" unicode=";" d="M242 127 l0 -135 l-242 -127 l0 262 q0 111 123 111 q51 0 85 -30.5 q34 -30.5 34 -80.5 ZM123 750 q51 0 85 -30.5 q34 -30.5 34 -80.5 q0 -54 -30 -89 q-32 -38 -85 -38 q-56 0 -91.5 35.5 q-35.5 35.5 -35.5 91.5 q0 111 123 111 Z" /><glyph glyph-name="less" unicode="&lt;" d="M0 756 l823 186 l0 -246 l-329 -73 l329 -91 l0 -245 l-827 225 l0 246 l4 -2 Z" /><glyph glyph-name="equal" unicode="=" d="M0 696 l0 246 l823 0 l0 -246 l-823 0 ZM0 287 l0 245 l823 0 l0 -245 l-823 0 Z" /><glyph glyph-name="greater" unicode="&gt;" d="M823 741 l0 -249 l-8 2 l-815 -207 l0 245 l326 82 l-326 82 l0 246 l823 -201 Z" /><glyph glyph-name="question" unicode="?" d="M0 344 l0 213 q0 119 66 182 q77 74 180 74 l739 0 l0 363 l-985 0 l0 245 l977 0 q108 0 182 -74 q74 -74 74 -182 l0 -342 q0 -106 -75 -181 q-75 -75 -181 -75 l-731 0 l0 -223 l-246 0 ZM123 238 q51 0 85 -30.5 q34 -30.5 34 -80.5 q0 -54 -30 -89 q-32 -38 -85 -38 q-56 0 -91.5 35.5 q-35.5 35.5 -35.5 91.5 q0 111 123 111 Z" /><glyph glyph-name="at" unicode="@" d="M1436 1165 l0 -909 q0 -108 -74 -182 q-74 -74 -182 -74 l-924 0 q-105 0 -180.5 75.5 q-75.5 75.5 -75.5 180.5 l0 909 q0 108 74 182 q74 74 182 74 l930 0 q106 0 178 -75 q72 -75 72 -181 ZM1190 246 l0 930 l-944 0 l0 -930 l944 0 ZM1079 858 l0 -448 l-579 0 q-74 0 -133.5 55 q-59.5 55 -59.5 129 q0 54 55 104 q37 34 127 47 l373 56 l0 65 l-368 0 l0 -65 l-187 0 l0 57 q0 81 70 138 q65 55 147 55 l338 0 q83 0 148 -54 q69 -58 69 -139 ZM862 594 l0 53 l-368 -53 l368 0 Z" /><glyph glyph-name="A" unicode="a" d="M985 731 l0 445 l-739 0 l0 -445 l739 0 ZM977 1421 q108 0 182 -74 q74 -74 74 -182 l0 -1165 l-248 0 l0 485 l-739 0 l0 -485 l-246 0 l0 1165 q0 108 74 182 q74 74 182 74 l721 0 Z" /><glyph glyph-name="B" unicode="b" d="M985 1176 l-739 0 l0 -342 l739 0 l0 342 ZM985 588 l-739 0 l0 -342 l739 0 l0 342 ZM1163 696 q27 -18 64 -54 q6 -11 6 -44 l0 -342 q0 -106 -75 -181 q-75 -75 -181 -75 l-977 0 l0 1421 l977 0 q108 0 182 -74 q74 -74 74 -182 l0 -342 q0 -44 -18 -71 q-8 -12 -52 -56 Z" /><glyph glyph-name="C" unicode="c" d="M246 246 l987 0 l0 -246 l-977 0 q-105 0 -180.5 75.5 q-75.5 75.5 -75.5 180.5 l0 909 q0 108 74 182 q74 74 182 74 l977 0 l0 -245 l-987 0 l0 -930 Z" /><glyph glyph-name="D" unicode="d" d="M246 246 l739 0 l0 930 l-739 0 l0 -930 ZM0 0 l0 1421 l977 0 q110 0 182 -73 q72 -73 72 -183 l0 -909 q0 -108 -74 -182 q-74 -74 -182 -74 l-975 0 Z" /><glyph glyph-name="E" unicode="e" d="M1233 0 l-977 0 q-105 0 -180.5 75.5 q-75.5 75.5 -75.5 180.5 l0 909 q0 108 74 182 q74 74 182 74 l977 0 l0 -245 l-987 0 l0 -342 l987 0 l0 -246 l-987 0 l0 -342 l987 0 l0 -246 Z" /><glyph glyph-name="F" unicode="f" d="M0 0 l0 1165 q0 108 74 182 q74 74 182 74 l977 0 l0 -245 l-987 0 l0 -342 l987 0 l0 -246 l-987 0 l0 -588 l-246 0 Z" /><glyph glyph-name="G" unicode="g" d="M1233 0 l-977 0 q-105 0 -180.5 75.5 q-75.5 75.5 -75.5 180.5 l0 909 q0 108 74 182 q74 74 182 74 l977 0 l0 -245 l-987 0 l0 -930 l739 0 l0 342 l-453 0 l0 246 l701 0 l0 -834 Z" /><glyph glyph-name="H" unicode="h" d="M1233 0 l-248 0 l0 588 l-739 0 l0 -588 l-246 0 l0 1421 l246 0 l0 -587 l739 0 l0 587 l248 0 l0 -1421 Z" /><glyph glyph-name="I" unicode="i" d="M637 246 l391 0 l0 -246 l-1028 0 l0 246 l391 0 l0 930 l-391 0 l0 245 l1028 0 l0 -245 l-391 0 l0 -930 Z" /><glyph glyph-name="J" unicode="j" d="M1233 256 q0 -106 -75 -181 q-75 -75 -181 -75 l-721 0 q-105 0 -180.5 75.5 q-75.5 75.5 -75.5 180.5 l0 346 l287 0 l0 -315 l657 0 l0 1134 l289 0 l0 -1165 Z" /><glyph glyph-name="K" unicode="k" d="M1233 0 l-289 0 l-461 588 l-237 0 l0 -588 l-246 0 l0 1421 l246 0 l0 -587 l237 0 l461 587 l289 0 l-553 -710 l553 -711 Z" /><glyph glyph-name="L" unicode="l" d="M287 287 l741 0 l0 -287 l-772 0 q-105 0 -180.5 75.5 q-75.5 75.5 -75.5 180.5 l0 1165 l287 0 l0 -1134 Z" /><glyph glyph-name="M" unicode="m" d="M686 0 l0 1135 l-440 0 l0 -1135 l-246 0 l0 1165 q0 108 74 182 q74 74 182 74 l367 0 q107 0 180 -73 q76 73 180 73 l403 0 q110 0 182 -73 q72 -73 72 -183 l0 -1165 l-245 0 l0 1135 l-463 0 l0 -1135 l-246 0 Z" /><glyph glyph-name="N" unicode="n" d="M985 434 l0 987 l248 0 l0 -1421 l-248 0 l-739 991 l0 -991 l-246 0 l0 1421 l246 0 l739 -987 Z" /><glyph glyph-name="O" unicode="o" d="M1436 1165 l0 -909 q0 -108 -74 -182 q-74 -74 -182 -74 l-924 0 q-105 0 -180.5 75.5 q-75.5 75.5 -75.5 180.5 l0 909 q0 108 74 182 q74 74 182 74 l930 0 q106 0 178 -75 q72 -75 72 -181 ZM1190 246 l0 930 l-944 0 l0 -930 l944 0 Z" /><glyph glyph-name="P" unicode="p" d="M985 1176 l-739 0 l0 -363 l739 0 l0 363 ZM246 567 l0 -567 l-246 0 l0 1421 l977 0 q108 0 182 -74 q74 -74 74 -182 l0 -342 q0 -106 -75 -181 q-75 -75 -181 -75 l-731 0 Z" /><glyph glyph-name="Q" unicode="q" d="M981 0 l-725 0 q-105 0 -180.5 75.5 q-75.5 75.5 -75.5 180.5 l0 909 q0 108 74 182 q74 74 182 74 l930 0 q106 0 178 -75 q72 -75 72 -181 l0 -909 q0 -106 -74 -180 q-43 -43 -94 -62 l170 -219 l-289 0 l-168 205 ZM1065 246 l125 0 l0 930 l-944 0 l0 -930 l522 0 l-203 262 l320 -2 l180 -260 Z" /><glyph glyph-name="R" unicode="r" d="M1233 0 l-346 0 l-430 567 l-211 0 l0 -567 l-246 0 l0 1421 l977 0 q108 0 182 -74 q74 -74 74 -182 l0 -342 q0 -106 -75 -181 q-75 -75 -181 -75 l-164 0 l420 -567 ZM985 1176 l-739 0 l0 -363 l739 0 l0 363 Z" /><glyph glyph-name="S" unicode="s" d="M1233 256 q1 -105 -75 -180.5 q-76 -75.5 -181 -75.5 l-977 0 l0 266 l944 0 l0 322 l-688 0 q-124 0 -180 55 q-76 75 -76 180 l0 342 q0 108 74 182 q74 74 182 74 l977 0 l0 -245 l-946 0 l0 -342 l688 0 q129 0 182 -54 q73 -75 74 -182 l2 -342 Z" /><glyph glyph-name="T" unicode="t" d="M1233 1176 l-494 0 l0 -1176 l-245 0 l0 1176 l-494 0 l0 245 l1233 0 l0 -245 Z" /><glyph glyph-name="U" unicode="u" d="M1233 256 q0 -106 -75 -181 q-75 -75 -181 -75 l-721 0 q-105 0 -180.5 75.5 q-75.5 75.5 -75.5 180.5 l0 1165 l246 0 l0 -1175 l739 0 l0 1175 l248 0 l0 -1165 Z" /><glyph glyph-name="V" unicode="v" d="M760 0 l-287 0 l-473 1421 l246 0 l370 -1124 l369 1124 l248 0 l-473 -1421 Z" /><glyph glyph-name="W" unicode="w" d="M709 1421 l245 0 l0 -1175 l441 0 l0 1175 l245 0 l0 -1165 q0 -108 -74 -182 q-74 -74 -182 -74 l-366 0 q-102 0 -180 74 q-79 -74 -181 -74 l-403 0 q-108 0 -181 74 q-73 74 -73 182 l0 1165 l246 0 l0 -1175 l463 0 l0 1175 Z" /><glyph glyph-name="X" unicode="x" d="M760 711 l473 -711 l-289 0 l-328 496 l-329 -496 l-287 0 l473 711 l-473 710 l287 0 l329 -495 l328 495 l289 0 l-473 -710 Z" /><glyph glyph-name="Y" unicode="y" d="M739 711 l0 -711 l-245 0 l0 711 l-494 710 l246 0 l370 -495 l369 495 l248 0 l-494 -710 Z" /><glyph glyph-name="Z" unicode="z" d="M0 1421 l1233 0 l-756 -1175 l756 0 l0 -246 l-1233 0 l754 1176 l-754 0 l0 245 Z" /><glyph glyph-name="bracketleft" unicode="[" d="M0 1421 l618 0 l0 -245 l-372 0 l0 -930 l372 0 l0 -246 l-618 0 l0 1421 Z" /><glyph glyph-name="backslash" unicode="\" d="M287 1421 l946 -1421 l-289 0 l-944 1421 l287 0 Z" /><glyph glyph-name="bracketright" unicode="]" d="M618 0 l-618 0 l0 246 l373 0 l0 930 l-373 0 l0 245 l618 0 l0 -1421 Z" /><glyph glyph-name="asciicircum" unicode="^" d="M406 1176 l-406 -168 l0 245 l401 168 l422 -172 l0 -245 l-417 172 Z" /><glyph glyph-name="underscore" unicode="_" d="M0 0 l0 246 l1438 0 l0 -246 l-1438 0 Z" /><glyph glyph-name="grave" unicode="`" d="M242 1315 l0 -262 l-242 118 l0 144 q0 110 123 110 q52 0 85.5 -29.5 q33.5 -29.5 33.5 -80.5 Z" /><glyph glyph-name="a" unicode="a" d="M1028 598 l0 -598 l-772 0 q-100 0 -178 73.5 q-78 73.5 -78 172.5 q0 49 18 79 q58 96 224 121 l497 74 l0 88 l-491 0 l0 -88 l-248 0 l0 78 q0 109 92 185 q86 71 197 71 l450 0 q111 0 197 -71 q92 -76 92 -185 ZM739 246 l0 69 l-491 -69 l491 0 Z" /><glyph glyph-name="b" unicode="b" d="M780 608 l-534 0 l0 -362 l534 0 l0 362 ZM0 1421 l246 0 l0 -567 l493 0 q111 0 197 -71 q92 -76 92 -185 l0 -342 q0 -106 -75 -181 q-75 -75 -181 -75 l-772 0 l0 1421 Z" /><glyph glyph-name="c" unicode="c" d="M823 0 l-567 0 q-106 0 -181 75 q-75 75 -75 181 l0 342 q0 109 92 185 q86 71 197 71 l534 0 l0 -246 l-575 0 l0 -362 l575 0 l0 -246 Z" /><glyph glyph-name="d" unicode="d" d="M248 608 l0 -362 l534 0 l0 362 l-534 0 ZM1028 1421 l0 -1421 l-772 0 q-106 0 -181 75 q-75 75 -75 181 l0 342 q0 109 92 185 q86 71 197 71 l493 0 l0 567 l246 0 Z" /><glyph glyph-name="e" unicode="e" d="M739 520 l0 88 l-491 0 l0 -362 l780 0 l0 -246 l-772 0 q-106 0 -181 75 q-75 75 -75 181 l0 342 q0 109 92 185 q86 71 197 71 l450 0 q111 0 198 -71 q92 -76 91 -185 q0 -27 -4 -70 q-33 -101 -61 -135 q-64 -78 -209 -78 l-451 0 l0 205 l436 0 Z" /><glyph glyph-name="f" unicode="f" d="M0 608 l0 246 l266 0 l0 322 q0 116 92 184 q83 61 203 61 l262 0 l0 -245 l-311 0 l0 -322 l311 0 l0 -246 l-311 0 l0 -608 l-246 0 l0 608 l-266 0 Z" /><glyph glyph-name="g" unicode="g" d="M248 246 l534 0 l0 362 l-534 0 l0 -362 ZM0 -154 l248 0 l0 -163 l532 0 l2 317 l-493 0 q-111 0 -197 71 q-92 76 -92 185 l0 342 q0 106 75 181 q75 75 181 75 l772 0 l0 -1161 q0 -106 -75 -181 q-75 -75 -181 -75 l-516 0 q-106 0 -181 75 q-75 75 -75 181 l0 153 Z" /><glyph glyph-name="h" unicode="h" d="M1028 598 l0 -598 l-248 0 l0 608 l-534 0 l0 -608 l-246 0 l0 1421 l246 0 l0 -567 l493 0 q111 0 197 -71 q92 -76 92 -185 Z" /><glyph glyph-name="i" unicode="i" d="M246 0 l-246 0 l0 854 l246 0 l0 -854 ZM123 1290 q119 0 119 -110 q0 -54 -30 -89 q-32 -38 -85 -38 q-56 0 -91.5 35.5 q-35.5 35.5 -35.5 91.5 q0 110 123 110 Z" /><glyph glyph-name="j" unicode="j" d="M700 1290 q119 0 119 -110 q0 -53 -31 -90 q-31 -37 -83 -37 q-57 0 -92 35 q-35 35 -35 92 q0 110 122 110 ZM823 -311 q0 -109 -72.5 -182.5 q-72.5 -73.5 -181.5 -73.5 l-313 0 q-106 0 -181 75 q-75 75 -75 181 l0 157 l246 0 l0 -168 l332 -2 l0 1178 l245 0 l0 -1165 Z" /><glyph glyph-name="k" unicode="k" d="M1028 0 l-289 0 l-358 260 l-94 0 l0 -260 l-287 0 l0 1421 l287 0 l0 -977 l94 0 l358 410 l289 0 l-450 -492 l450 -362 Z" /><glyph glyph-name="l" unicode="l" d="M246 0 l-246 0 l0 1421 l246 0 l0 -1421 Z" /><glyph glyph-name="m" unicode="m" d="M721 608 l0 -608 l-248 0 l0 608 l-225 0 l0 -608 l-248 0 l0 854 l893 0 q111 0 197 -71 q92 -76 92 -185 l0 -598 l-248 0 l0 608 l-213 0 Z" /><glyph glyph-name="n" unicode="n" d="M0 854 l739 0 q111 0 197 -71 q92 -76 92 -185 l0 -598 l-248 0 l0 608 l-532 0 l0 -608 l-248 0 l0 854 Z" /><glyph glyph-name="o" unicode="o" d="M780 608 l-532 0 l0 -362 l532 0 l0 362 ZM772 0 l-516 0 q-106 0 -181 75 q-75 75 -75 181 l0 342 q0 109 92 185 q86 71 197 71 l450 0 q111 0 197 -71 q92 -76 92 -185 l0 -342 q0 -106 -75 -181 q-75 -75 -181 -75 Z" /><glyph glyph-name="p" unicode="p" d="M780 246 l0 362 l-534 0 l0 -362 l534 0 ZM0 -567 l0 1421 l772 0 q106 0 181 -75 q75 -75 75 -181 l0 -342 q0 -160 -176 -231 q-62 -25 -113 -25 l-493 0 l0 -567 l-246 0 Z" /><glyph glyph-name="q" unicode="q" d="M248 246 l534 0 l0 362 l-534 0 l0 -362 ZM1028 -567 l-246 0 l0 567 l-493 0 q-111 0 -197 71 q-92 76 -92 185 l0 342 q0 106 75 181 q75 75 181 75 l772 0 l0 -1421 Z" /><glyph glyph-name="r" unicode="r" d="M1028 410 l-248 0 l0 198 l-534 0 l0 -608 l-246 0 l0 854 l772 0 q106 0 181 -75 q75 -75 75 -181 l0 -188 Z" /><glyph glyph-name="s" unicode="s" d="M1026 608 l-778 0 l0 -88 l487 0 q147 0 211 -65 q79 -80 78 -172 q0 -28 -4 -70 q-33 -101 -62 -135 q-66 -78 -208 -78 l-750 0 l0 246 l754 0 l0 69 l-500 0 q-98 0 -193 95 q-61 61 -61 188 q0 109 92 185 q86 71 197 71 l737 0 l0 -246 Z" /><glyph glyph-name="t" unicode="t" d="M0 854 l266 0 l0 281 l246 0 l0 -281 l311 0 l0 -246 l-311 0 l0 -362 l311 0 l0 -246 l-262 0 q-119 0 -203 62 q-92 68 -92 184 l0 362 l-266 2 l0 244 Z" /><glyph glyph-name="u" unicode="u" d="M780 854 l248 0 l0 -598 q0 -106 -75 -181 q-75 -75 -181 -75 l-516 0 q-106 0 -181 75 q-75 75 -75 181 l0 598 l248 0 l0 -608 l532 0 l0 608 Z" /><glyph glyph-name="v" unicode="v" d="M352 0 l-352 854 l248 0 l252 -608 l280 608 l248 0 l-397 -854 l-279 0 Z" /><glyph glyph-name="w" unicode="w" d="M1108 854 l246 0 l0 -598 q0 -107 -74.5 -181.5 q-74.5 -74.5 -181.5 -74.5 l-224 0 q-106 0 -180 74 q-77 -74 -180 -74 l-260 0 q-108 0 -181 74 q-73 74 -73 182 l0 598 l246 0 l0 -567 l319 0 l0 567 l246 0 l0 -567 l297 0 l0 567 Z" /><glyph glyph-name="x" unicode="x" d="M373 420 l-373 434 l266 2 l248 -278 l248 278 l266 -2 l-373 -434 l373 -420 l-295 0 l-219 256 l-219 -256 l-295 0 l373 420 Z" /><glyph glyph-name="y" unicode="y" d="M680 0 l-229 -567 l-246 0 l231 571 l-428 852 l254 0 l285 -580 l235 578 l246 0 l-346 -850 l2 -4 l-4 0 Z" /><glyph glyph-name="z" unicode="z" d="M0 608 l0 246 l1028 0 l-520 -608 l520 0 l0 -246 l-1028 0 l528 610 l-528 -2 Z" /><glyph glyph-name="braceleft" unicode="{" d="M618 0 l-362 0 q-106 0 -181 75 q-75 75 -75 181 l0 342 q0 47 36 71 q22 15 34 27 q-44 44 -52 56 q-18 27 -18 71 l0 342 q0 108 74 182 q74 74 182 74 l362 0 l0 -245 l-370 0 l0 -342 l370 0 l0 -246 l-370 0 l0 -342 l370 0 l0 -246 Z" /><glyph glyph-name="bar" unicode="|" d="M246 -567 l-246 0 l0 1988 l246 0 l0 -1988 Z" /><glyph glyph-name="braceright" unicode="}" d="M0 0 l0 246 l371 0 l0 342 l-371 0 l0 246 l371 0 l0 342 l-371 0 l0 245 l362 0 q109 0 182.5 -73.5 q73.5 -73.5 73.5 -182.5 l0 -342 q0 -55 -23 -80 q-11 -12 -46 -47 q27 -19 63 -54 q6 -11 6 -44 l0 -342 q0 -106 -75 -181 q-75 -75 -181 -75 l-362 0 Z" /><glyph glyph-name="asciitilde" unicode="~" d="M283 1171 l-283 -163 l0 245 l283 181 l278 -181 l262 181 l0 -263 l-262 -163 l-278 163 Z" /></font>
</defs>
</svg>
