<svg xmlns="http://www.w3.org/2000/svg" xmlns:xlink="http://www.w3.org/1999/xlink" width="56px" height="79px" viewBox="0 0 56 79" version="1.1">
    <title>九段线</title>
    <g id="页面-1" stroke="none" stroke-width="1" fill="none" fill-rule="evenodd">
        <g id="Apple-TV" transform="translate(-372.000000, -445.000000)">
            <g id="九段线" transform="translate(373.000000, 446.000000)">
                <path d="M11.2227544,16.5404157 C11.2227544,16.5404157 10.8424626,16.9442587 10.5889347,17.0826497 C10.3354068,17.2202315 10.1209445,17.3286783 10.1018103,17.4468367 C10.0810816,17.5649952 10.1105802,17.6345954 10.0810816,17.7325212 C10.0523804,17.8312564 10.091446,17.8612007 10.1209445,17.9494148 C10.1496458,18.0384383 10.1209445,18.1857318 10.0619474,18.2844669 C10.0037476,18.3823927 9.99418057,18.4511836 10.0332462,18.5709607 C10.0723118,18.6883098 10.0810816,18.9060127 10.0428133,19.1212877 C10.0037476,19.3389906 9.95511494,19.3786466 10.0810816,19.5558843 C10.2086428,19.7323126 10.3258397,19.7719685 10.3154753,20.1758115 C10.3059082,20.5796545 10.2469112,20.7771248 10.3936066,20.807069 C10.540302,20.8370133 11.0864234,20.9948276 11.2131873,21.1429304 C11.3399513,21.2910331 11.4077182,21.3298797 11.5647779,21.3193587 C11.7202431,21.3104564 11.8175085,21.3298797 11.914774,21.5071174 C12.0128366,21.6835458 12.0614693,21.7636669 12.1786662,21.7337227 C12.2958631,21.7045877 12.9001843,21.5856199 13.0365153,21.7830902 C13.1736436,21.9805605 13.1832107,22 13.3394732,21.9700395 C13.4957357,21.9409046 13.5539355,21.8721137 13.6017709,21.9506163 C13.6512009,22.0291188 13.7094007,22 13.8074634,21.9595186 C13.9047288,21.920672 13.9342273,21.902058 14.0514242,21.8721137 C14.1678238,21.8421695 14.1295554,21.7733786 14.1295554,21.7733786 C14.1295554,21.7733786 14.0705583,21.6754527 14.1486896,21.6058525 C14.2268208,21.5370616 14.2650892,21.4286149 14.2850206,21.3695356 C14.3041548,21.3104564 14.3145191,21.2797028 14.4612145,21.2708005 C14.6071127,21.2610888 14.694811,21.3193587 14.8606406,21.1518327 C15.0264701,20.9843067 15.0647385,20.9843067 15.0647385,21.1121768 C15.0647385,21.2416655 15.0751028,21.3395914 15.143667,21.2505678 C15.2114339,21.1623537 15.2512968,21.1226978 15.3676964,21.0935628 C15.4848932,21.0636185 15.4753261,20.9656927 15.4848932,20.8863808 C15.4944603,20.807069 15.6220215,20.4623053 15.7774867,20.4234587 C15.9337492,20.3838028 15.9536806,20.3732818 16.0509461,20.246221 C16.0963897,20.1855231 16.4431968,19.8747502 16.4695063,20.0884066 C16.4798706,20.1660999 16.5675689,20.1660999 16.6457002,20.0884066 C16.7230342,20.0082855 16.8593652,19.8618014 16.9964935,19.7622569 C17.1328245,19.6635217 17.1822545,19.6052518 17.2109558,19.4377258 C17.2404543,19.2701998 17.1623231,19.2596788 17.1232574,19.358414 C17.0849891,19.4571491 16.9964935,19.5170376 16.966995,19.4183025 C16.9382937,19.3195673 16.9765621,19.2297346 17.0451262,19.1423297 C17.1136904,19.0524969 17.1910243,18.8946825 17.1910243,18.7862357 C17.1910243,18.6785982 17.1910243,18.6397516 17.2508187,18.5410164 C17.3090185,18.4422813 17.3377197,18.4422813 17.3377197,18.2844669 C17.3377197,18.1266525 17.5139136,17.7122886 17.6111791,17.6240744 C17.7084445,17.5350509 17.7865757,17.4168925 17.7770086,17.3489109 C17.7666443,17.2793107 17.7084445,17.1303987 17.8352084,17.0713195 C17.9619724,17.0130495 18.2449988,16.7961559 18.2545659,16.6585742 C18.264133,16.5209924 18.2155003,16.4311596 18.1860017,16.3623687 C18.1573005,16.2935778 18.0887363,16.2539219 18.2059332,16.2053637 C18.32313,16.1551868 18.5479567,15.9787584 18.4985267,16.0863959 C18.4490967,16.1948427 18.3613984,16.3324245 18.4012613,16.4222573 C18.4403269,16.5104714 18.4403269,16.5800716 18.5080938,16.5800716 C18.5766579,16.5800716 18.5670908,16.5404157 18.5854278,16.4416806 C18.6061565,16.3429454 18.7321232,16.2150753 18.8198215,16.1260518 C18.9083171,16.0378376 19.0446481,16.0087027 18.9856511,15.8889256 C18.9274513,15.7715764 18.8397529,15.3175566 18.8110517,15.0812397 C18.7807559,14.8449228 18.6149263,14.5495266 18.4690282,14.5301033 C18.32313,14.5090614 17.8543426,14.5001591 17.8160742,14.2638422 C17.7770086,14.0275253 17.7770086,13.9279808 17.6207462,14.0566602 C17.4644837,14.1853396 17.3185855,14.3229214 17.3281526,14.5090614 C17.3377197,14.6976294 17.2508187,14.7753226 17.1822545,14.6773968 C17.1136904,14.5786616 16.9964935,14.4216565 16.8697296,14.3625773 C16.7429656,14.3026888 16.6648344,14.2241862 16.5380704,14.2937864 C16.4113065,14.3625773 16.2159784,14.3528657 16.0015161,14.3026888 C15.7878511,14.2541305 15.6993555,14.2832655 15.6307913,14.3625773 C15.5630244,14.4402706 15.5630244,14.4904474 15.5630244,14.5495266 C15.5630244,14.6077966 15.4553947,14.6879177 15.3676964,14.7461877 C15.279998,14.8052669 15.143667,14.8651554 15.0559687,14.7963645 C14.9674731,14.7275736 14.8510735,14.6579735 14.7825093,14.736476 C14.7147424,14.8149785 14.6852439,14.9428486 14.5967483,14.8449228 C14.50905,14.7461877 14.4508502,14.7065317 14.3248835,14.6879177 C14.1973223,14.6676851 14.1000569,14.6280292 14.0314927,14.5681406 C13.9637258,14.5090614 13.9246602,14.5001591 13.7588306,14.6077966 C13.5930011,14.7170527 13.3777415,14.9541789 13.4072401,15.0812397 C13.4367386,15.2091098 13.4758042,15.2779007 13.3681744,15.3086543 C13.2613419,15.3377892 13.0668111,15.3774452 13.0365153,15.2876123 C13.0070168,15.2002075 12.9591813,15.1103747 12.7638532,15.1014723 C12.5685251,15.0917607 12.2958631,15.1217049 12.236866,15.2398634 C12.1786662,15.3580218 12.1196691,15.4664686 12.0710364,15.5838178 C12.0224037,15.7027856 12.0423352,15.7715764 12.159532,15.7027856 C12.2759316,15.6339947 12.3540629,15.5943388 12.373197,15.6526087 C12.3931285,15.7124972 12.3835614,15.8015207 12.2759316,15.8492697 C12.1690991,15.8994465 12.1396006,15.8889256 12.0710364,15.9981817 C12.0032695,16.1066285 11.8278729,16.166517 11.6811775,16.1948427 C11.4013401,16.2523033 11.3933675,16.4206386 11.2227544,16.5404157 Z" id="Stroke-1" fill="#0F1A3F"/>
                <path d="M43,0 L38.3912945,3.07522234 L35.9127446,3.4597906 L31.6600176,4.83301967 C31.3854256,4.96733376 31.0865107,4.88060541 30.7632732,4.57283455 C30.4400357,4.26506368 30.3803181,5.23334444 29.9017355,4.38189452 C29.9046939,4.66300997 29.5752342,4.62624136 29.5605429,4.83301967 C29.4755779,6.02889527 29.3626183,5.93663419 29.0623315,6.25567119 C27.8500823,7.54361464 25.1870447,7.31927484 24.5984708,7.63108589 C21.5266945,9.25843262 19.6567842,8.33310439 18.7966481,9.1193531 C18.3138252,9.56070057 17.2263717,9.99874214 17.3293304,10.5667452 C17.456465,11.2681214 18.7576872,12.2572823 18.7089433,12.6728416 C18.5760412,13.8058803 15.6883062,11.6793912 15.43469,11.0853233 L15.43469,11.0853233 L15.664,8.307 L16.231,7.564 L16.2067485,7.56765667 C16.1744189,7.57012006 16.1397048,7.57112846 16.1025111,7.57112846 C15.9165428,7.57112846 15.743312,7.88535415 15.643959,8.17436977 C15.6284568,8.21971249 15.6144689,8.25727262 15.6005521,8.28832058 L13.5822005,8.6116425 L12.027473,7.63108589 L10.9606508,6.92880585 L10.9606508,7.63108589 L8.3035233,8.38092835 L7.11961518,8.38092835 L5.48573409,7.16618039 L4.48390258,6.42395486 L4.09946025,4.57283455 L4.48390258,2.83400339 L2.58858813,2.74854276 L0,2.21686324 L0,0 L43,0 Z M22,0 L16.231,7.564 L16.296679,7.55545499 C16.3519906,7.54381514 16.3981447,7.52456904 16.4359022,7.49414407 L16.4863362,7.43967588 C16.5610631,7.33613447 16.6111642,7.32172872 17.0323528,7.33613447 C17.4535413,7.3487395 17.6140345,7.24429773 17.5520451,6.95528211 C17.4900557,6.66806724 17.3660767,6.26200482 17.4289154,6.16926773 C17.4900557,6.07833135 17.501944,6.05132054 17.8246288,6.15756305 C18.1464644,6.26200482 18.543027,6.22238897 18.7544705,6.0387155 C18.9642156,5.8559424 19.0890436,5.64525812 18.9769531,5.48769508 C18.8657118,5.33193278 18.6304916,5.00330131 18.9030753,4.80792317 C19.1748098,4.61074432 19.7454524,4.31002402 19.9934102,4.23079232 C20.2405188,4.15246097 20.2906198,4.07412967 20.3279833,3.86434575 C20.3653469,3.65366147 20.2532564,3.55012006 20.6498189,3.53571428 C21.0455324,3.5240096 21.0710075,3.36644659 21.2561267,3.07833133 C21.442095,2.78931573 21.6773152,2.40936375 21.6289125,1.89975991 C21.5788114,1.38835535 21.4047315,1.15246099 21.5541855,0.864345741 C21.7027903,0.575330135 21.9507481,0.234994 22,0 L22,0 Z" id="形状结合" fill="#0F1A3F"/>
                <path d="M48.2598889,0.0598978975 C48.2660336,0.21962562 48.3020246,0.666364094 48.3222146,0.75205136 C48.3441604,0.83940246 48.3862961,1.03157487 48.295002,1.11143873 C48.2037079,1.1913026 48.1685948,1.32524095 48.0834458,1.53737933 C47.9982964,1.75034963 47.9350928,2.1696349 48.1185589,2.3826052 C48.3020246,2.59474358 48.6821235,2.90088838 48.7602503,3.25362044 C48.8374991,3.60635247 48.8515444,3.8201547 48.8655896,3.95242922 C48.8805128,4.08553565 48.8875354,4.39168044 49.3317158,4.62461671 C49.7758961,4.85755298 50.5027369,5.16369777 50.594031,5.70277883 C50.686203,6.24102798 50.7415061,6.66031328 50.8758135,6.69358988 C51.0101209,6.72686648 51.2067544,6.7335218 51.3138491,6.83335163 C51.4191885,6.93318147 51.5605185,6.99307935 51.608799,6.99973467 C51.6588353,7.00638999 51.6377674,6.88659419 51.6307448,6.78094095 C51.6237221,6.67362392 51.6026543,5.94153851 51.5956316,5.78181079 C51.588609,5.62291499 51.5254054,5.17118501 51.7158941,4.79765507 C51.9055046,4.42495708 52.2022103,3.8592547 52.3997213,3.72614827 C52.5963544,3.59304183 52.7447074,3.45328008 52.8500464,3.28024172 C52.9571415,3.10720335 53.4355571,2.08311571 53.4855934,1.96331992 C53.5356296,1.84435605 53.9929774,0.845225865 53.9859548,0.685498142 C53.97981,0.526602335 53.9508416,0.159727722 54,0" id="Stroke-5" fill="#0F1A3F"/>
                <path d="M53,9 L50,13 M48,17 C47.8537879,17.2051635 47.2628788,18.2516351 46.9393939,18.8010327 C46.6151516,19.3504303 46,21 46,21 M15,39 C15,39.8888152 14.9549444,40.2190601 14.842598,40.9298478 C14.7302516,41.6406353 14.438268,42.2508271 14.438268,42.2508271 C14.438268,42.2508271 14.2165009,42.6863005 14,43 M14,30 C13.9768051,29.9107235 13.7433595,29.1239758 13.7164235,29.0360943 C13.4141414,28.0784656 12.8267864,27.1843069 12.4264871,26.6486487 C12.3928171,26.603313 12.0306771,26.0404533 12,26 M46.036267,26 L45.963733,30 M46,39 C45.7995595,39.4981963 45.2841412,40.6327092 45.0903086,41.0491326 C44.9331866,41.3885931 44.3039647,42.4763788 44,43 M8.06805495,54 C8.05467913,54.0787252 8.0387555,54.1649482 8.02219495,54.2605435 C7.84448744,55.2739768 7.8438505,56.0431115 7.8438505,56.0431115 C7.8438505,56.0431115 7.75531521,57.2833487 8.16423358,58 M37,52 L34,55 M24,66 C23.3096447,66.3320735 22.1378746,66.6738661 22.1378746,66.6738661 C22.1378746,66.6738661 21.1547405,66.9227862 20,67" id="Stroke-15" stroke="#075FC9" stroke-width="1.5"/>
                <polygon id="Stroke-19" stroke="#0E5490" points="4.84661947 0 54 0 54 77 0 77 0 0.00743530252"/>
            </g>
        </g>
    </g>
</svg>
