<?xml version="1.0" standalone="no"?>
<!DOCTYPE svg PUBLIC "-//W3C//DTD SVG 1.1//EN" "http://www.w3.org/Graphics/SVG/1.1/DTD/svg11.dtd" >
<!--
2013-9-30: Created.
-->
<svg>
<metadata>
Created by iconfont
</metadata>
<defs>

<font id="simo" horiz-adv-x="1024" >
  <font-face
    font-family="simo"
    font-weight="500"
    font-stretch="normal"
    units-per-em="1024"
    ascent="896"
    descent="-128"
  />
    <missing-glyph />
    
    <glyph glyph-name="realtimevideo" unicode="&#59249;" d="M508.586667 522.453333c-106.666667 0-164.693333-110.08-164.693334-110.08s75.093333-110.506667 169.386667-110.506666 166.826667 111.36 166.826667 111.36-64.64 109.226667-171.52 109.226666z m3.413333-192a80.64 80.64 0 0 0-4.053333 161.28H512a80.64 80.64 0 0 0 0-161.28z m-50.986667 80.64a50.986667 50.986667 0 0 0 101.973334 0m0 0a51.413333 51.413333 0 0 0-15.146667-36.266666 50.773333 50.773333 0 0 0-71.68 0 51.2 51.2 0 0 0-14.933333 36.266666M849.066667 129.28H174.933333a74.666667 74.666667 0 0 0-74.666666 74.666667V620.373333a74.666667 74.666667 0 0 0 74.666666 74.666667h674.133334a74.666667 74.666667 0 0 0 74.666666-74.666667v-416.426666a74.666667 74.666667 0 0 0-74.666666-74.666667zM174.933333 631.04a10.666667 10.666667 0 0 1-10.666666-10.666667v-416.426666a10.666667 10.666667 0 0 1 10.666666-10.666667h674.133334a10.666667 10.666667 0 0 1 10.666666 10.666667V620.373333a10.666667 10.666667 0 0 1-10.666666 10.666667zM784.853333 5.973333H239.146667a32 32 0 0 0 0 64h545.706666a32 32 0 0 0 0-64z"  horiz-adv-x="1024" />

    
    <glyph glyph-name="richtext" unicode="&#59248;" d="M842.026667 207.146667H206.506667a32 32 0 0 0 0 64h635.52a32 32 0 0 0 0-64zM822.826667 661.333333H604.16a32 32 0 0 0 0 64h218.666667a32 32 0 0 0 0-64zM822.826667 506.666667H604.16a32 32 0 0 0 0 64h218.666667a32 32 0 0 0 0-64zM822.826667 352H604.16a32 32 0 0 0 0 64h218.666667a32 32 0 0 0 0-64zM842.026667 52.906667H206.506667a32 32 0 0 0 0 64h635.52a32 32 0 0 0 0-64zM184.746667 572.373333a32 32 0 0 0-32 32V693.12A32 32 0 0 0 184.746667 725.333333h148.053333a32 32 0 1 0 0-64h-116.053333v-56.746666a32 32 0 0 0-32-32.213334zM480.64 572.373333a32 32 0 0 0-32 32V661.333333H332.8a32 32 0 0 0 0 64h147.84A32 32 0 0 0 512 693.12v-88.746667a32 32 0 0 0-31.36-32zM332.8 369.493333a32 32 0 0 0-32 32V688.853333a32 32 0 0 0 64 0v-287.36a32 32 0 0 0-32-32zM426.666667 352h-178.133334a32 32 0 1 0 0 64H426.666667a32 32 0 1 0 0-64z"  horiz-adv-x="1024" />

    
    <glyph glyph-name="n-wework" unicode="&#59247;" d="M1260.307692 239.064615c0 175.340308-171.716923 317.597538-383.448615 317.597539-211.889231 0-383.448615-142.099692-383.448615-317.597539 0-175.576615 171.638154-317.676308 383.448615-317.676307 47.025231 0 93.735385 7.325538 138.633846 21.740307l120.832-66.166153-31.901538 106.574769 1.417846 0.630154C1199.576615 42.220308000000045 1260.307692 134.77415399999995 1260.307692 239.14338499999997z m-521.924923 59.943385a51.357538 51.357538 0 1 0 0 102.715077 51.357538 51.357538 0 1 0 0-102.715077z m259.465846 0a51.357538 51.357538 0 0 0 0.157539 102.715077 51.357538 51.357538 0 0 0-0.157539-102.715077z m-134.537846 270.966154c6.065231 0 12.130462 0 17.959385-0.315077C857.324308 753.191385 669.774769 896 441.974154 896 197.947077 896 0 731.923692 0 529.723077c0-120.201846 69.868308-226.855385 178.018462-293.651692l1.575384-0.787693-36.706461-122.88 139.18523 76.248616a522.555077 522.555077 0 0 1 212.204308-22.291693 267.421538 267.421538 0 0 0-14.257231 85.858462c-0.157538 175.576615 171.638154 317.755077 383.291077 317.755077zM601.639385 717.508923a59.155692 59.155692 0 1 0-0.157539-118.390154 59.155692 59.155692 0 0 0 0.157539 118.390154zM302.395077 599.04a59.155692 59.155692 0 1 0 0.078769 118.390154 59.155692 59.155692 0 1 0 0-118.390154z"  horiz-adv-x="1260" />

    
    <glyph glyph-name="n-principal" unicode="&#59246;" d="M512.6144 879.616a294.4 294.4 0 1 0 0-588.8H512a403.7632 403.7632 0 0 1-403.7632-403.7632h-93.184A497.152 497.152 0 0 0 334.1312 351.23199999999997 294.4 294.4 0 0 0 512.6144 879.616z m0-93.184a201.216 201.216 0 1 1 0-402.432 201.216 201.216 0 0 1 0 402.432z m484.9664-421.6832c6.144-3.4816 8.2944-11.3664 4.7104-17.6128L793.8048-14.028800000000047a12.9024 12.9024 0 0 0-4.7104-4.8128l-133.9392-76.4928a12.9024 12.9024 0 0 0-19.2512 11.264l-0.7168 154.0096c0 2.3552 0.512 4.608 1.7408 6.656l82.3296 142.5408 0.3072 0.512a32.3584 32.3584 0 0 0 56.0128-32.256l-0.3072-0.6144L699.904 56.32000000000005l0.3072-51.3024 44.544 25.6 175.616 304.128-44.6464 25.9072-17.6128-30.3104a32.3584 32.3584 0 0 0-33.4848-55.296l-54.8864 31.744 75.776 131.072a12.9024 12.9024 0 0 0 17.6128 4.7104l134.4512-77.7216z"  horiz-adv-x="1024" />

    
    <glyph glyph-name="lan" unicode="&#59320;" d="M512 734c-192.988 0-350-157.012-350-350s157.012-350 350-350 350 157.012 350 350-157.012 350-350 350z m128.185-411.418C641.391 343.014 642 363.6 642 384s-0.609 40.986-1.815 61.418C746.005 430.299 802 399.076 802 384s-55.995-46.299-161.815-61.418zM512 94c-15.075 0-46.3 55.996-61.418 161.816C471.014 254.61 491.6 254 512 254s40.986 0.61 61.418 1.816C558.3 149.99599999999998 527.075 94 512 94z m0 220c-24.003 0-46.58 0.815-67.735 2.266C442.815 337.41999999999996 442 359.996 442 384s0.815 46.58 2.265 67.734C465.42 453.185 487.997 454 512 454s46.58-0.815 67.735-2.266C581.185 430.58 582 408.004 582 384s-0.815-46.58-2.265-67.734C558.58 314.81500000000005 536.003 314 512 314z m-290 70c0 15.076 55.996 46.299 161.815 61.418C382.609 424.986 382 404.4 382 384s0.609-40.986 1.815-61.418C277.996 337.701 222 368.924 222 384z m290 290c15.075 0 46.3-55.996 61.418-161.816C552.986 513.39 532.4 514 512 514s-40.986-0.61-61.418-1.816C465.7 618.004 496.925 674 512 674z m277.791-206.846c-40.939 19.053-95.741 32.09-155.165 39.473-7.382 59.424-20.419 114.224-39.47 155.164 93.14-27.933 166.701-101.495 194.635-194.637zM428.844 661.7909999999999c-19.051-40.94-32.088-95.74-39.47-155.164-59.424-7.383-114.225-20.42-155.165-39.473 27.934 93.142 101.495 166.704 194.635 194.637zM234.209 300.846c40.939-19.053 95.741-32.09 155.165-39.473 7.382-59.424 20.419-114.224 39.47-155.164-93.14 27.933-166.701 101.495-194.635 194.637z m360.947-194.637c19.051 40.94 32.088 95.74 39.47 155.164 59.424 7.383 114.225 20.42 155.165 39.473-27.934-93.142-101.495-166.704-194.635-194.637z"  horiz-adv-x="1024" />

    
    <glyph glyph-name="SQLdiagnosis" unicode="&#59243;" d="M467.907765 154.26258800000005c45.959529-0.060235 91.858824 4.216471 137.035294 12.649412-8.011294 49.513412 2.409412 94.569412 13.974588 125.831529-49.633882-10.480941-100.231529-15.661176-150.949647-15.661176C246.000941 277.20282399999996 59.994353 374.603294 13.974588 504.109176c-7.107765-19.877647-10.842353-40.839529-10.962823-62.042352 0-159.322353 207.992471-287.744 464.896-287.744zM512.843294 64.99388199999999c-14.757647-0.843294-29.756235-1.325176-44.995765-1.325176-221.846588 0-407.792941 97.400471-453.872941 226.906353-7.107765-19.877647-10.842353-40.839529-10.962823-62.042353 0-159.322353 207.992471-287.744 464.896-287.744 17.588706 0 34.996706 0.602353 52.103529 1.807059-29.093647 50.597647-24.515765 91.196235-7.168 122.398117zM12.830118 619.4597650000001c0-140.408471 203.595294-254.253176 454.77647-254.253177s454.776471 113.844706 454.776471 254.253177c0 140.408471-203.595294 254.253176-454.776471 254.253176S12.769882 759.868235 12.769882 619.52zM1017.976471 274.07058800000004c-3.011765 16.143059-23.612235 22.106353-35.237647 10.480941l-50.05553-49.874823-48.549647-48.308706a36.502588 36.502588 0 0 0-51.019294 0l-22.708706 22.708706c-9.878588 28.912941-21.263059 60.656941-27.708235 78.667294l99.147294 98.785882c11.625412 11.625412 6.023529 32.225882-10.11953 35.237647l-0.963764 0.180706a183.717647 183.717647 0 0 1-164.321883-50.778353c-19.275294-18.974118-33.972706-41.984-43.188705-67.343058a183.597176 183.597176 0 0 1-2.891295-115.531295c0.783059-2.590118 1.204706-5.240471 1.325177-7.951058a27.587765 27.587765 0 0 0-7.710118-20.961883l-89.810823-89.509647-10.24-10.24a36.020706 36.020706 0 0 1 0-50.597647l51.019294-50.597647a36.562824 36.562824 0 0 1 50.959059 0l9.456941 9.456941 91.376941 90.955294a28.912941 28.912941 0 0 0 28.852706 6.746353 184.500706 184.500706 0 0 1 57.344-7.348706 182.934588 182.934588 0 0 1 174.983529 215.762824l0.060236 0.060235z"  horiz-adv-x="1024" />

    
    <glyph glyph-name="diagnosis" unicode="&#59244;" d="M993.882353 187.15105900000003l-31.322353-12.528941v-37.526589l31.322353-12.528941c6.204235 0 12.468706-6.264471 18.733176-12.468706 6.264471-6.264471 6.264471-12.528941 0-25.057882-6.264471-18.793412-24.997647-25.057882-37.526588-18.793412l-31.322353 12.528941c-6.264471-12.528941-12.468706-24.997647-24.997647-37.526588l18.733177-25.057882c6.264471-6.264471 6.264471-12.528941 6.26447-24.997647 0-6.264471-6.264471-12.528941-12.468706-18.793412-12.528941-12.528941-31.322353-6.264471-43.851294 6.264471l-18.733176 24.997647c-12.528941-6.204235-25.057882-12.468706-43.851294-12.468706v-31.322353c0-18.733176-12.468706-31.322353-31.262118-31.322353-18.793412 0-31.322353 12.589176-31.322353 31.322353v31.322353c-12.468706 0-31.262118 6.264471-43.791059 12.468706l-18.733176-24.997647c-12.528941-12.528941-31.322353-18.793412-43.851294-6.264471-6.204235 6.264471-12.468706 12.528941-12.468706 18.793412 0 6.264471 0 18.733176 6.26447 24.997647l18.733177 25.057882c-12.528941 12.528941-18.733176 18.733176-24.997647 31.322353l-31.322353-12.589176c-18.733176-6.204235-31.322353 6.264471-37.526588 18.793411-6.264471 12.528941 0 31.322353 18.793411 37.526589l31.262118 12.528941v37.586823l-31.322353 12.468706c-18.733176 6.264471-24.997647 25.057882-18.733176 37.586824 6.264471 12.468706 24.997647 24.997647 37.526588 18.733176l31.322353-12.468706c6.264471 12.468706 12.468706 24.997647 24.997647 37.526589l-18.733177 24.997647c-12.528941 12.528941-6.264471 31.322353 6.204236 37.586823 12.528941 12.528941 31.322353 6.264471 43.851294-6.26447l18.733176-25.057883c12.528941 6.264471 25.057882 12.528941 43.851294 12.528941v43.791059c0 18.793412 12.468706 31.322353 31.262118 31.322353 18.793412 0 31.322353-12.528941 31.322353-31.322353v-31.322353c12.468706 0 31.262118-6.204235 43.791059-12.468706l18.733176 25.057883c12.528941 12.468706 31.322353 18.733176 43.851294 6.26447 12.468706-6.264471 18.733176-25.057882 6.204236-37.586823l-18.733177-24.997647c12.528941-12.528941 18.733176-18.793412 24.997647-31.322353l31.322353 12.528941c18.733176 6.264471 31.322353-6.264471 37.526588-18.793412 6.264471-31.322353-6.264471-49.995294-18.793411-49.995294z m-206.546824 68.848941c-62.584471 0-106.375529-43.791059-106.375529-106.375529 0-56.32 50.055529-106.375529 106.375529-106.37553s106.375529 43.791059 106.37553 106.37553c6.264471 62.584471-43.791059 106.375529-106.37553 106.375529z m-237.808941-200.222118H124.084706s-37.526588 12.468706-37.526588 37.526589h450.56c-6.264471 18.793412-6.264471 37.526588-6.264471 56.32 0 118.904471 81.317647 219.015529 187.693177 250.277647v400.564706h37.586823v-388.035765h31.322353c12.468706 0 24.997647 0 37.466353-6.264471V812.935529s-6.204235 43.791059-37.526588 43.791059h-75.113412c0 18.793412-18.733176 37.586824-43.791059 37.586824H48.911059C30.177882 894.313412 11.444706 875.52 11.444706 856.726588v-775.951059s43.791059-118.904471 106.375529-118.90447h494.351059c-24.997647 25.057882-43.791059 56.32-62.58447 93.906823zM211.606588 762.88h438.091294v-75.113412H211.606588V762.88z m0-137.697882h438.091294v-75.053177H211.606588V625.182118z m0-137.637647h438.091294v-75.113412H211.606588V487.604706zM80.233412 762.88h75.053176v-75.113412H80.233412V762.88z m0-137.697882h75.053176v-75.053177H80.233412V625.182118z m0-137.637647h75.053176v-75.113412H80.233412V487.604706z"  horiz-adv-x="1024" />

    
    <glyph glyph-name="snapshot" unicode="&#59245;" d="M848.96 887.552a36.416 36.416 0 0 1-36.032-36.608v-91.52H182.016a51.584 51.584 0 0 1-37.824-16.512 53.312 53.312 0 0 1-16.192-38.4v-549.44H37.888a36.352 36.352 0 0 1-35.904-35.84v-19.904c0.384-19.84 16.32-35.84 35.84-35.84H128v-128.192c0-31.168 23.424-54.912 54.016-54.912 29.056-0.896 53.248 22.784 54.08 52.8v130.304h126.208c19.84 0 36.032 16.448 36.032 36.608v18.304a36.48 36.48 0 0 1-36.032 36.608h-126.08V594.56a53.12 53.12 0 0 0 16.192 38.4 51.584 51.584 0 0 0 37.888 16.512h522.688v-128.192a36.48 36.48 0 0 1 36.032-36.608h18.048c19.84 0 36.032 16.448 36.032 36.608V649.5360000000001h54.08c28.992-0.832 53.184 22.784 54.016 52.864v2.048c0.256 30.08-23.104 54.72-52.16 54.912h-56V850.944a36.416 36.416 0 0 1-36.032 36.608h-18.048z m198.336-549.312h-108.16v18.304c0 40.32-32.512 73.216-72.128 73.216h-216.32c-39.68 0-72.064-32.96-72.064-73.216v-18.304H470.4a36.416 36.416 0 0 1-36.032-36.608v-347.904a36.48 36.48 0 0 1 36.032-36.608h576.832c19.84 0 36.032 16.448 36.032 36.608V301.568a36.416 36.416 0 0 1-36.032 36.672z m-279.424-372.48c-98.048 0-177.344 80.512-177.344 180.16 0 99.584 79.296 180.224 177.28 180.224 98.112 0 177.408-80.576 177.408-180.224s-79.232-180.16-177.344-180.16z m0 280.896c-54.08 0-99.2-45.76-99.2-100.736 0-54.912 45.12-100.736 99.2-100.736 54.016 0 99.136 45.76 99.136 100.736 0 54.976-44.992 100.736-99.2 100.736z"  horiz-adv-x="1088" />

    
    <glyph glyph-name="3dhistogrammap" unicode="&#59241;" d="M672.64 234.666667l2.986667 9.386666 3.2 9.386667 2.346666 6.186667a123.093333 123.093333 0 0 0 5.76 11.946666l2.346667 4.053334c1.493333 2.773333 21.333333 49.706667 27.733333 59.946666 4.48 7.04-15.573333-1.706667-60.373333-26.24-3.626667-7.04-7.466667-35.84-10.453333-44.16l-3.626667-10.24-4.053333-12.586666c-5.546667-16.426667-8.746667-19.413333-19.2-19.413334 2.133333 0 2.346667 0 1.706666 3.2l-2.346666 11.093334c-1.28 5.973333-2.56 13.013333-4.053334 21.333333l-1.28 9.6-33.28-14.506667c7.253333-50.986667 15.146667-66.133333 39.893334-66.133333 29.226667 0.64 41.386667 15.146667 52.693333 47.146667zM867.2 262.186667l-33.066667 12.586666v-2.133333a313.386667 313.386667 0 0 0-370.986666-242.986667l2.346666 4.48a101.333333 101.333333 0 0 1 8.32 64 76.373333 76.373333 0 0 1-39.253333 52.693334l-17.493333 11.733333c-3.626667 2.346667-6.613333 4.693333-9.6 6.826667a116.266667 116.266667 0 0 0-21.333334 21.333333 57.6 57.6 0 0 0-13.226666 42.666667v6.613333 11.52a69.12 69.12 0 0 1-20.266667 39.893333 82.56 82.56 0 0 1-70.826667 19.413334l-97.706666-35.84a348.373333 348.373333 0 0 1 682.666666-12.8z m-439.466667-223.146667a314.666667 314.666667 0 0 0-205.013333 221.226667l5.973333 2.133333 5.546667 1.92c48.213333 16.426667 78.72 16.426667 91.946667 2.986667a33.92 33.92 0 0 0 10.666666-21.333334 100.693333 100.693333 0 0 0 0-13.866666v-4.906667a86.613333 86.613333 0 0 1 21.333334-58.88 150.613333 150.613333 0 0 1 28.373333-27.52l4.906667-3.84 10.24-7.04 13.44-8.96c16.426667-11.093333 22.4-18.133333 24.533333-29.866667a64 64 0 0 0-11.946667-52.053333zM845.653333 326.186667a7.893333 7.893333 0 0 0-7.253333 0l-132.266667 62.08-165.973333-71.68a7.68 7.68 0 0 0-5.76 0l-177.28 71.68-131.626667-59.52a6.826667 6.826667 0 0 0-5.76 0 7.466667 7.466667 0 0 0-4.266666 9.813333l77.013333 197.546667a7.04 7.04 0 0 0 5.546667 4.693333 106.666667 106.666667 0 0 1 27.52 5.546667c3.413333 2.133333 0 8.32 0 9.6-1.706667 6.613333-34.56 11.946667-35.2 11.946666L165.973333 288.64l184.96 69.333333a7.04 7.04 0 0 0 5.546667 0l180.693333-74.453333 170.666667 74.453333a7.253333 7.253333 0 0 0 5.546667 0l182.186666-69.12-117.973333 260.053334c0 1.706667-8.32 1.706667-22.826667 0 3.413333-10.88 5.546667-16.426667 6.4-16a7.68 7.68 0 0 0 9.813334-4.266667l77.653333-192a7.466667 7.466667 0 0 0-1.706667-8.32zM334.293333 624.213333h64v-198.826666h-64zM493.653333 707.84h64v-282.24h-64zM664.96 800.426667h64v-375.04h-64z"  horiz-adv-x="1024" />

    
    <glyph glyph-name="3dlines" unicode="&#59242;" d="M475.52 81.92a76.586667 76.586667 0 0 1-39.253333 52.48l-17.493334 11.52-9.386666 6.826667a116.266667 116.266667 0 0 0-21.333334 21.333333 57.173333 57.173333 0 0 0-13.013333 42.666667v6.613333a64 64 0 0 1 0 11.52 67.413333 67.413333 0 0 1-20.266667 39.68 81.493333 81.493333 0 0 1-70.4 19.413333L186.88 258.133333a346.88 346.88 0 0 1 680.32-12.8l-32.853333 12.373334v-1.92a312.106667 312.106667 0 0 0-369.066667-242.133334l2.346667 4.266667a101.546667 101.546667 0 0 1 7.893333 64z m-45.866667-58.88a313.386667 313.386667 0 0 0-204.373333 220.373333l5.973333 2.133334 5.546667 1.92c48 16.426667 78.506667 16.213333 91.52 2.986666a33.92 33.92 0 0 0 10.666667-20.266666 97.493333 97.493333 0 0 0 0-13.653334v-5.12a86.826667 86.826667 0 0 1 20.266666-58.666666 155.093333 155.093333 0 0 1 28.16-27.306667l4.906667-3.84 10.24-7.04 13.44-8.746667c16.213333-11.093333 22.4-18.346667 24.32-29.866666a65.493333 65.493333 0 0 0-10.666667-52.906667zM622.293333 209.28l-3.626666 11.093333c-1.28 5.973333-2.56 13.013333-3.84 21.333334l-1.493334 9.813333-33.066666-14.506667c7.04-50.773333 15.146667-65.92 39.68-65.92 29.866667 0 42.666667 14.506667 53.12 46.293334l2.986666 9.386666 3.2 9.386667 2.346667 6.186667a123.093333 123.093333 0 0 0 5.76 11.946666l2.346667 4.053334c1.493333 2.56 21.333333 49.28 27.52 59.733333 4.693333 6.826667-15.36-1.92-59.946667-26.24-3.84-7.04-7.466667-35.626667-10.453333-43.946667-1.28-3.2-2.346667-6.4-3.626667-10.24l-4.053333-12.586666c-5.76-16.426667-8.746667-19.413333-18.986667-19.413334 2.346667 0.426667 2.56 1.28 2.133333 3.626667zM341.333333 330.24a7.04 7.04 0 0 0 5.546667 0L527.786667 256l168.96 74.24a7.68 7.68 0 0 0 5.76 0l181.333333-69.12L768 477.653333a7.68 7.68 0 0 0 1.066667 7.68c46.293333 59.733333 81.706667 109.653333 81.706666 165.76a159.146667 159.146667 0 0 1-49.92 115.626667 176.64 176.64 0 0 1-242.133333 0 160 160 0 0 1-49.92-115.626667c0-48.426667 28.16-95.573333 70.186667-151.466666a11.52 11.52 0 0 0 1.066666-2.346667 7.466667 7.466667 0 0 0-4.693333-9.386667l-48.853333-15.573333a8.746667 8.746667 0 0 0-4.693334 0L426.666667 501.973333h-1.706667a7.253333 7.253333 0 0 0-2.56 10.026667 104.533333 104.533333 0 0 1 18.133333 54.826667 90.026667 90.026667 0 0 1-179.84 0 116.693333 116.693333 0 0 1 23.04-62.506667 7.68 7.68 0 0 0 0-9.173333l-124.8-234.666667zM679.253333 741.76a92.586667 92.586667 0 0 0 94.293334-90.666667 94.293333 94.293333 0 0 0-188.586667 0 92.586667 92.586667 0 0 0 94.293333 90.666667zM523.52 448l71.04 21.333333a7.68 7.68 0 0 0 8.32-2.346666l7.893333-10.24c16.853333-21.333333 33.92-43.733333 50.773334-66.773334l-294.4 45.653334 21.333333 29.226666 11.733333 15.573334a7.893333 7.893333 0 0 0 8.32 2.773333z m-172.8 175.36a54.826667 54.826667 0 1 0-54.826667-54.613333 54.826667 54.826667 0 0 0 54.826667 53.76zM207.36 309.973333l76.586667 154.453334a8.533333 8.533333 0 0 0 5.76 4.693333l12.373333 2.346667a7.68 7.68 0 0 0 7.466667-2.986667l6.613333-8.746667c9.386667-12.16 18.773333-24.96 27.946667-38.186666v-3.2h3.2a46.933333 46.933333 0 0 0 3.626666-5.333334l3.2 4.266667 318.506667-49.28v6.826667c1.92-2.56 4.053333-5.12 5.76-7.893334 22.4 33.28 45.44 62.933333 68.906667 92.8a7.68 7.68 0 0 0 2.986666 2.346667 7.466667 7.466667 0 0 0 9.813334-4.053333l77.44-149.333334a7.253333 7.253333 0 0 0-1.706667-8.106666 7.893333 7.893333 0 0 0-8.533333-1.493334l-131.84 61.653334-165.333334-71.253334a7.68 7.68 0 0 0-5.76 0l-176.64 71.466667-130.986666-59.52a6.826667 6.826667 0 0 0-5.76 0 7.466667 7.466667 0 0 0-3.626667 8.533333z"  horiz-adv-x="1024" />

    
    <glyph glyph-name="biaxialline" unicode="&#59224;" d="M902.4 689.066667c-17.066667 0-32-14.933333-32-32v-544H155.733333V657.066667c0 17.066667-14.933333 32-32 32s-32-14.933333-32-32v-558.933334c0-27.733333 23.466667-49.066667 51.2-49.066666h740.266667c27.733333 0 51.2 23.466667 51.2 49.066666V657.066667c0 19.2-14.933333 32-32 32zM221.866667 270.933333c8.533333 0 17.066667 4.266667 23.466666 10.666667l168.533334 181.333333 119.466666-174.933333c6.4-8.533333 14.933333-12.8 23.466667-12.8 10.666667 0 19.2 2.133333 25.6 10.666667l253.866667 277.333333c12.8 12.8 10.666667 34.133333-2.133334 44.8s-32 10.666667-44.8-4.266667L563.2 356.266667l-119.466667 174.933333c-6.4 8.533333-14.933333 12.8-23.466666 12.8-8.533333 0-19.2-2.133333-25.6-10.666667l-196.266667-209.066666c-12.8-12.8-10.666667-34.133333 2.133333-44.8 4.266667-4.266667 12.8-8.533333 21.333334-8.533334z"  horiz-adv-x="1024" />

    
    <glyph glyph-name="3dhistogram" unicode="&#59225;" d="M883.2 74.666667H168.533333V618.666667c0 17.066667-14.933333 32-32 32s-32-14.933333-32-32v-558.933334c0-27.733333 23.466667-49.066667 51.2-49.066666h727.466667c17.066667 0 32 14.933333 32 32s-14.933333 32-32 32zM588.8 125.866667l38.4 25.6V627.2l-38.4-27.733333zM484.266667 588.8h64v-462.933333h-64zM608 669.866667h-66.133333l-57.6-38.4h66.133333zM352 125.866667l38.4 25.6V413.866667l-38.4-27.733334zM249.6 375.466667h64v-249.6h-64zM371.2 456.533333h-66.133333l-57.6-38.4h66.133333zM823.466667 125.866667l38.4 25.6V541.866667l-38.4-27.733334zM721.066667 503.466667h64v-377.6h-64zM842.666667 584.533333h-64l-57.6-38.4h64z"  horiz-adv-x="1024" />

    
    <glyph glyph-name="bubble" unicode="&#59226;" d="M821.333333 27.733333c-57.6 0-102.4 46.933333-102.4 102.4 0 57.6 46.933333 102.4 102.4 102.4 57.6 0 102.4-46.933333 102.4-102.4 0-55.466667-46.933333-102.4-102.4-102.4z m-241.066666 68.266667c2.133333-38.4-27.733333-70.4-66.133334-70.4-38.4-2.133333-70.4 27.733333-70.4 66.133333v4.266667c2.133333 38.4 32 68.266667 70.4 66.133333 36.266667 0 66.133333-29.866667 66.133334-66.133333z m68.266666 206.933333c-113.066667 0-204.8 91.733333-204.8 204.8s91.733333 204.8 204.8 204.8 204.8-91.733333 204.8-204.8-91.733333-204.8-204.8-204.8z m-409.6-136.533333c-74.666667 0-136.533333 61.866667-136.533333 136.533333 0 74.666667 61.866667 136.533333 136.533333 136.533334s136.533333-61.866667 136.533334-136.533334-61.866667-136.533333-136.533334-136.533333z"  horiz-adv-x="1024" />

    
    <glyph glyph-name="candlestick" unicode="&#59227;" d="M893.866667 102.4H179.2V646.4c0 17.066667-14.933333 32-32 32s-32-14.933333-32-32v-558.933333c0-27.733333 23.466667-49.066667 51.2-49.066667h727.466667c17.066667 0 32 14.933333 32 32s-14.933333 32-32 32zM309.333333 571.733333h64v-130.133333h-64zM309.333333 185.6h64v72.533333h38.4v185.6h-142.933333v-185.6h40.533333zM533.333333 236.8h64v100.266667h38.4v183.466666H597.333333v102.4h-64v-102.4h-42.666666v-183.466666h42.666666zM755.2 172.8h64v106.666667h40.533333v183.466666h-40.533333v96h-64v-96h-40.533333v-183.466666h40.533333z"  horiz-adv-x="1024" />

    
    <glyph glyph-name="hotspot" unicode="&#59228;" d="M846.933333 797.866667H170.666667c-40.533333 0-74.666667-34.133333-74.666667-74.666667v-676.266667c0-40.533333 34.133333-74.666667 74.666667-74.666666h676.266666c40.533333 0 74.666667 34.133333 74.666667 74.666666V723.2c0 40.533333-34.133333 74.666667-74.666667 74.666667zM160 503.466667L388.266667 733.866667h157.866666L160 347.733333v155.733334z m0-247.466667L635.733333 733.866667H810.666667L160 83.2V256zM857.6 691.2v-170.666667L373.333333 36.266667h-170.666666L857.6 691.2z m0-262.4V256L635.733333 36.266667h-172.8l394.666667 392.533333zM170.666667 733.866667h128l-138.666667-138.666667v128c0 6.4 4.266667 10.666667 10.666667 10.666667z m676.266666-697.6h-119.466666l130.133333 130.133333v-119.466667c0-6.4-4.266667-10.666667-10.666667-10.666666z"  horiz-adv-x="1024" />

    
    <glyph glyph-name="decorate" unicode="&#59229;" d="M667.733333 787.2L213.333333 138.666667l213.333334-149.333334 454.4 648.533334-213.333334 149.333333z m14.933334-89.6l108.8-76.8L618.666667 375.466667l-108.8 76.8L682.666667 697.6zM234.666667 704c0 12.8-10.666667 23.466667-23.466667 23.466667-12.8 0-23.466667-10.666667-23.466667-23.466667 0-12.8 10.666667-23.466667 23.466667-23.466667 12.8 0 23.466667 10.666667 23.466667 23.466667zM445.866667 672c12.8 0 23.466667 10.666667 23.466666 23.466667 0 12.8-10.666667 23.466667-23.466666 23.466666s-23.466667-10.666667-23.466667-23.466666c0-12.8 10.666667-23.466667 23.466667-23.466667zM797.866667 347.733333c-12.8 0-23.466667-10.666667-23.466667-23.466666s10.666667-23.466667 23.466667-23.466667c12.8 0 23.466667 10.666667 23.466666 23.466667s-10.666667 23.466667-23.466666 23.466666zM228.266667 578.133333l53.333333-21.333333h2.133333l25.6-59.733333 25.6 59.733333h2.133334l53.333333 21.333333-55.466667 23.466667h-2.133333L307.2 661.333333l-25.6-59.733333-53.333333-23.466667z"  horiz-adv-x="1024" />

    
    <glyph glyph-name="pyramid" unicode="&#59230;" d="M512 846.933333L72.533333 59.733333h876.8L512 846.933333zM733.866667 320H290.133333l74.666667 132.266667h294.4l74.666667-132.266667z m-110.933334 196.266667H401.066667L512 714.666667l110.933333-198.4zM256 256h512l72.533333-130.133333H181.333333L256 256z"  horiz-adv-x="1024" />

    
    <glyph glyph-name="ploarbar" unicode="&#59231;" d="M514.133333-57.6c-245.333333 0-443.733333 198.4-443.733333 443.733333S268.8 829.866667 514.133333 829.866667s443.733333-198.4 443.733334-443.733334-198.4-443.733333-443.733334-443.733333z m0 823.466667c-209.066667 0-379.733333-170.666667-379.733333-379.733334s170.666667-379.733333 379.733333-379.733333 379.733333 170.666667 379.733334 379.733333S725.333333 765.866667 514.133333 765.866667zM520.533333-38.4C288-38.4 98.133333 151.466667 98.133333 384S288 806.4 520.533333 806.4 940.8 616.533333 940.8 384s-187.733333-422.4-420.266667-422.4z m0 834.133333C294.4 795.733333 108.8 610.133333 108.8 384c0-228.266667 185.6-409.6 409.6-409.6 228.266667 0 409.6 185.6 409.6 409.6 4.266667 226.133333-181.333333 411.733333-407.466667 411.733333zM514.133333 659.2v-273.066667l-117.333333 245.333334c38.4 19.2 76.8 27.733333 117.333333 27.733333zM810.666667 526.933333l-294.4-140.8L748.8 618.666667c25.6-29.866667 44.8-57.6 61.866667-91.733334zM514.133333 74.666667V386.133333l134.4-281.6c-40.533333-19.2-87.466667-29.866667-134.4-29.866666z m-234.666666 198.4L516.266667 384l-183.466667-183.466667c-21.333333 21.333333-38.4 46.933333-53.333333 72.533334z m32 298.666666l202.666666-185.6-283.733333 2.133334c10.666667 96 23.466667 128 81.066667 183.466666zM516.266667 172.8v213.333333l89.6-192c-29.866667-12.8-59.733333-21.333333-89.6-21.333333z m-170.666667 132.266667l170.666667 78.933333-132.266667-132.266667c-17.066667 14.933333-29.866667 32-38.4 53.333334zM748.8 386.133333c0-64-25.6-121.6-70.4-166.4L512 386.133333h236.8zM514.133333 490.666667v-104.533334l-46.933333 96c14.933333 6.4 32 8.533333 46.933333 8.533334z"  horiz-adv-x="1024" />

    
    <glyph glyph-name="roundcap" unicode="&#59232;" d="M529.066667 812.8v-64c198.4 0 358.4-160 358.4-358.4s-160-358.4-358.4-358.4c-189.866667 0-343.466667 147.2-356.266667 332.8h-64c12.8-221.866667 196.266667-396.8 420.266667-396.8 232.533333 0 422.4 189.866667 422.4 422.4S761.6 812.8 529.066667 812.8zM529.066667 678.4v-64c123.733333 0 224-100.266667 224-224s-100.266667-224-224-224c-46.933333 0-89.6 14.933333-125.866667 38.4l-38.4-51.2c46.933333-32 102.4-51.2 164.266667-51.2 160 0 288 130.133333 288 288s-128 288-288 288zM529.066667 546.133333v-64c51.2 0 91.733333-40.533333 91.733333-91.733333 0-34.133333-19.2-64-49.066667-81.066667l40.533334-51.2c42.666667 27.733333 72.533333 76.8 72.533333 130.133334 0 87.466667-70.4 157.866667-155.733333 157.866666z"  horiz-adv-x="1024" />

    
    <glyph glyph-name="sliderdialog" unicode="&#59233;" d="M733.866667 610.133333c19.2 0 34.133333 14.933333 34.133333 34.133334 0 19.2-14.933333 34.133333-34.133333 34.133333-19.2 0-34.133333-14.933333-34.133334-34.133333 0-17.066667 14.933333-34.133333 34.133334-34.133334zM618.666667 610.133333c19.2 0 34.133333 14.933333 34.133333 34.133334 0 19.2-14.933333 34.133333-34.133333 34.133333s-34.133333-14.933333-34.133334-34.133333c-2.133333-17.066667 14.933333-34.133333 34.133334-34.133334zM759.466667 91.733333c-14.933333 8.533333-34.133333 2.133333-42.666667-14.933333l-6.4-14.933333c-6.4-8.533333-19.2-14.933333-29.866667-14.933334H260.266667c-21.333333 0-38.4 17.066667-38.4 38.4V556.8v2.133333c2.133333 2.133333 6.4 4.266667 10.666666 6.4 2.133333 2.133333 6.4 2.133333 10.666667 4.266667l17.066667 8.533333c14.933333 8.533333 21.333333 27.733333 12.8 42.666667s-27.733333 21.333333-42.666667 12.8l-17.066667-6.4c-2.133333-2.133333-6.4-2.133333-8.533333-4.266667-19.2-10.666667-46.933333-23.466667-46.933333-66.133333V85.333333c0-57.6 46.933333-102.4 102.4-102.4h418.133333c32 0 64 14.933333 83.2 42.666667 2.133333 2.133333 2.133333 2.133333 2.133333 4.266667l8.533334 17.066666c8.533333 17.066667 2.133333 36.266667-12.8 44.8zM806.4 793.6H360.533333c-40.533333 0-74.666667-34.133333-74.666666-74.666667v-544c0-40.533333 34.133333-74.666667 74.666666-74.666666h445.866667c40.533333 0 74.666667 34.133333 74.666667 74.666666V718.933333c0 40.533333-34.133333 74.666667-74.666667 74.666667z m-445.866667-64h445.866667c6.4 0 10.666667-4.266667 10.666667-10.666667V576H349.866667V718.933333c0 4.266667 4.266667 10.666667 10.666666 10.666667z m445.866667-565.333333H360.533333c-6.4 0-10.666667 4.266667-10.666666 10.666666V512h467.2v-337.066667c0-6.4-4.266667-10.666667-10.666667-10.666666zM710.4 448H469.333333c-29.866667 0-53.333333-23.466667-53.333333-53.333333v-125.866667c0-29.866667 23.466667-53.333333 53.333333-53.333333h241.066667c29.866667 0 53.333333 23.466667 53.333333 53.333333v125.866667c0 27.733333-23.466667 53.333333-53.333333 53.333333z m-10.666667-170.666667H480v106.666667h219.733333v-106.666667z"  horiz-adv-x="1024" />

    
    <glyph glyph-name="stackedhistogram" unicode="&#59234;" d="M840.533333 582.4c0 17.066667-14.933333 32-32 32s-32-14.933333-32-32v-192h64v192zM614.4 644.266667c0 17.066667-14.933333 32-32 32s-32-14.933333-32-32v-168.533334h64v168.533334zM388.266667 522.666667c0 17.066667-14.933333 32-32 32s-32-14.933333-32-32v-125.866667h64v125.866667zM898.133333 128H183.466667V672c0 17.066667-14.933333 32-32 32s-32-14.933333-32-32v-558.933333C119.466667 85.333333 142.933333 64 170.666667 64h727.466666c17.066667 0 32 14.933333 32 32s-14.933333 32-32 32zM324.266667 334.933333h64v-136.533333h-64zM550.4 411.733333h64v-213.333333h-64zM776.533333 334.933333h64v-136.533333h-64z"  horiz-adv-x="1024" />

    
    <glyph glyph-name="slidertable" unicode="&#59235;" d="M949.333333 541.866667H917.333333V759.466667c0 17.066667-14.933333 32-32 32H136.533333c-17.066667 0-29.866667-14.933333-29.866666-32v-219.733334H74.666667c-17.066667 0-32-14.933333-32-32v-249.6c0-17.066667 14.933333-32 32-32H106.666667v-219.733333c0-14.933333 12.8-27.733333 29.866666-27.733333h750.933334c17.066667 0 32 14.933333 32 32V228.266667h32c17.066667 0 32 14.933333 32 32V509.866667c-2.133333 17.066667-17.066667 32-34.133334 32zM168.533333 729.6h686.933334v-187.733333H168.533333V729.6z m686.933334-689.066667H168.533333v187.733334h686.933334v-187.733334zM917.333333 290.133333H106.666667v187.733334h810.666666v-187.733334zM761.6 665.6h-187.733333c-17.066667 0-32-14.933333-32-32s14.933333-32 32-32h187.733333c17.066667 0 32 14.933333 32 32 0 19.2-14.933333 32-32 32zM573.866667 104.533333h187.733333c17.066667 0 32 14.933333 32 32s-14.933333 32-32 32h-187.733333c-17.066667 0-32-14.933333-32-32 2.133333-19.2 14.933333-32 32-32zM450.133333 665.6h-187.733333c-17.066667 0-32-14.933333-32-32s14.933333-32 32-32h187.733333c17.066667 0 32 14.933333 32 32-2.133333 19.2-14.933333 32-32 32zM262.4 104.533333h187.733333c17.066667 0 32 14.933333 32 32s-14.933333 32-32 32h-187.733333c-17.066667 0-32-14.933333-32-32 0-19.2 14.933333-32 32-32zM825.6 416H573.866667c-17.066667 0-32-14.933333-32-32s14.933333-32 32-32h249.6c17.066667 0 32 14.933333 32 32s-12.8 32-29.866667 32zM450.133333 416H198.4c-17.066667 0-32-14.933333-32-32s14.933333-32 32-32H448c17.066667 0 32 14.933333 32 32s-12.8 32-29.866667 32z"  horiz-adv-x="1024" />

    
    <glyph glyph-name="scatter" unicode="&#59236;" d="M910.933333 14.933333H183.466667c-27.733333 0-51.2 23.466667-51.2 49.066667V622.933333c0 17.066667 14.933333 32 32 32s32-14.933333 32-32v-544h714.666666c17.066667 0 32-14.933333 32-32s-12.8-32-32-32zM539.733333 279.466667m-78.933333 0a78.933333 78.933333 0 1 1 157.866667 0 78.933333 78.933333 0 1 1-157.866667 0ZM652.8 533.333333m-72.533333 0a72.533333 72.533333 0 1 1 145.066666 0 72.533333 72.533333 0 1 1-145.066666 0ZM398.933333 512m-53.333333 0a53.333333 53.333333 0 1 1 106.666667 0 53.333333 53.333333 0 1 1-106.666667 0ZM345.6 187.733333m-38.4 0a38.4 38.4 0 1 1 76.8 0 38.4 38.4 0 1 1-76.8 0ZM285.866667 347.733333m-38.4 0a38.4 38.4 0 1 1 76.8 0 38.4 38.4 0 1 1-76.8 0ZM757.333333 332.8m-46.933333 0a46.933333 46.933333 0 1 1 93.866667 0 46.933333 46.933333 0 1 1-93.866667 0Z"  horiz-adv-x="1024" />

    
    <glyph glyph-name="sliderimg" unicode="&#59237;" d="M629.333333 411.733333c34.133333 0 61.866667 27.733333 61.866667 61.866667 0 34.133333-27.733333 61.866667-61.866667 61.866667-34.133333 0-61.866667-27.733333-61.866666-61.866667 2.133333-36.266667 29.866667-61.866667 61.866666-61.866667zM78.933333 533.333333v-356.266666c0-25.6 19.2-44.8 44.8-44.8h44.8v66.133333h-21.333333V509.866667h21.333333V576H123.733333c-25.6 2.133333-44.8-19.2-44.8-42.666667zM925.866667 578.133333h-44.8V512h21.333333v-311.466667h-21.333333v-66.133333h44.8c25.6 0 44.8 19.2 44.8 44.8V533.333333c0 23.466667-21.333333 44.8-44.8 44.8zM791.466667 667.733333H256c-25.6 0-44.8-19.2-44.8-44.8v-535.466666c0-25.6 19.2-44.8 44.8-44.8h535.466667c25.6 0 44.8 19.2 44.8 44.8V622.933333c0 23.466667-19.2 44.8-44.8 44.8z m-21.333334-68.266666v-354.133334L682.666667 332.8c-12.8 12.8-34.133333 12.8-46.933334-2.133333l-61.866666-64-113.066667 110.933333c-12.8 12.8-34.133333 12.8-46.933333 0l-132.266667-132.266667V599.466667h488.533333z m-490.666666-490.666667v42.666667h2.133333l155.733333 155.733333 115.2-110.933333c12.8-12.8 34.133333-12.8 46.933334 0l61.866666 64 108.8-108.8h2.133334v-42.666667H279.466667z"  horiz-adv-x="1024" />

    
    <glyph glyph-name="treemap" unicode="&#59238;" d="M859.733333 780.8H179.2C138.666667 780.8 104.533333 746.666667 104.533333 706.133333v-644.266666c0-40.533333 34.133333-74.666667 74.666667-74.666667h680.533333c40.533333 0 74.666667 34.133333 74.666667 74.666667V706.133333c0 40.533333-34.133333 74.666667-74.666667 74.666667z m10.666667-74.666667V469.333333h-198.4V716.8h187.733333c6.4 0 10.666667-4.266667 10.666667-10.666667zM672 170.666667h59.733333v-119.466667h-59.733333V170.666667z m0 64v170.666666h198.4v-170.666666h-198.4zM179.2 716.8h428.8v-398.933333H168.533333V706.133333c0 6.4 4.266667 10.666667 10.666667 10.666667z m-10.666667-654.933333v192h439.466667v-202.666667H179.2c-6.4 0-10.666667 4.266667-10.666667 10.666667z m691.2-10.666667h-64V170.666667h74.666667v-108.8c0-6.4-4.266667-10.666667-10.666667-10.666667z"  horiz-adv-x="1024" />

    
    <glyph glyph-name="sunburst" unicode="&#59239;" d="M616.533333 364.8c0 46.933333-38.4 85.333333-85.333333 85.333333s-85.333333-38.4-85.333333-85.333333 38.4-85.333333 85.333333-85.333333 85.333333 38.4 85.333333 85.333333zM704 460.8l55.466667 12.8c-21.333333 74.666667-85.333333 130.133333-166.4 136.533333V554.666667c51.2-8.533333 96-44.8 110.933333-93.866667zM315.733333 507.733333c-27.733333-32-42.666667-74.666667-42.666666-119.466666 0-10.666667 0-23.466667 2.133333-34.133334l55.466667 12.8c-2.133333 6.4-2.133333 14.933333-2.133334 21.333334 0 32 10.666667 59.733333 29.866667 83.2l-42.666667 36.266666zM394.666667 505.6c34.133333 32 78.933333 53.333333 130.133333 55.466667v85.333333c-76.8-2.133333-145.066667-34.133333-194.133333-85.333333l64-55.466667zM556.8 174.933333v-85.333333c74.666667 6.4 142.933333 44.8 187.733333 100.266667l-64 53.333333c-32-36.266667-74.666667-61.866667-123.733333-68.266667zM691.2 337.066667H640c-2.133333-25.6-14.933333-46.933333-36.266667-59.733334l19.2-49.066666c40.533333 21.333333 68.266667 61.866667 68.266667 108.8zM531.2 187.733333c25.6 0 49.066667 4.266667 70.4 14.933334l-27.733333 68.266666c-12.8-6.4-27.733333-8.533333-42.666667-8.533333-55.466667 0-102.4 42.666667-106.666667 98.133333h-72.533333c2.133333-96 81.066667-172.8 179.2-172.8zM537.6 471.466667c6.4 2.133333 10.666667 2.133333 17.066667 2.133333 40.533333 0 74.666667-32 76.8-72.533333H682.666667c-2.133333 68.266667-59.733333 123.733333-128 123.733333-12.8 0-25.6-2.133333-36.266667-6.4l19.2-46.933333zM817.066667 669.866667c-55.466667 61.866667-136.533333 104.533333-226.133334 106.666666v-98.133333c59.733333-4.266667 110.933333-29.866667 149.333334-70.4l76.8 61.866667zM441.6 57.6l-42.666667-68.266667c59.733333-34.133333 132.266667-42.666667 202.666667-21.333333L576 44.8c-46.933333-14.933333-93.866667-8.533333-134.4 12.8zM514.133333 674.133333V812.8c-100.266667-4.266667-194.133333-40.533333-266.666666-100.266667l96-100.266666c46.933333 36.266667 106.666667 59.733333 170.666666 61.866666zM776.533333 260.266667c32 68.266667 34.133333 145.066667 8.533334 213.333333L704 445.866667c17.066667-44.8 17.066667-96-2.133333-140.8l74.666666-44.8zM422.4 204.8c-6.4 2.133333-12.8 6.4-19.2 8.533333-27.733333 14.933333-46.933333 40.533333-57.6 68.266667l-53.333333-19.2c14.933333-40.533333 42.666667-74.666667 81.066666-96 10.666667-6.4 19.2-10.666667 29.866667-14.933333l19.2 53.333333zM947.2 213.333333c14.933333 40.533333 23.466667 85.333333 25.6 132.266667h-4.266667c0 21.333333 0 44.8-4.266666 66.133333l-136.533334-21.333333c6.4-49.066667 0-98.133333-17.066666-142.933333-12.8-29.866667-27.733333-55.466667-46.933334-78.933334l96-100.266666c2.133333 2.133333 4.266667 6.4 8.533334 8.533333l2.133333-2.133333c34.133333 42.666667 59.733333 89.6 76.8 138.666666zM204.8 366.933333c-6.4 59.733333 12.8 115.2 46.933333 157.866667l-74.666666 66.133333C123.733333 524.8 96 439.466667 106.666667 349.866667l98.133333 17.066666zM85.333333 268.8c19.2-100.266667 70.4-185.6 140.8-247.466667l83.2 110.933334c-42.666667 42.666667-74.666667 96-89.6 160L85.333333 268.8z"  horiz-adv-x="1024" />

    
    <glyph glyph-name="migratemap" unicode="&#59240;" d="M650.666667-23.466667h-6.4l-6.4 2.133334v25.6l-2.133334 4.266666 6.4 6.4 12.8 8.533334v2.133333l-2.133333 2.133333h-2.133333l-2.133334-2.133333-2.133333-2.133333h-23.466667l-8.533333 4.266666h-10.666667l-4.266666 4.266667c-2.133333 2.133333-4.266667 4.266667-6.4 8.533333l-4.266667 2.133334v8.533333h-2.133333l-8.533334 4.266667-6.4-6.4c-2.133333-2.133333-4.266667-4.266667-6.4-4.266667-6.4-2.133333-10.666667 0-14.933333 0h-34.133333v-10.666667c0-4.266667 0-10.666667-6.4-12.8l-6.4-2.133333-4.266667 4.266667h-14.933333v6.4c-2.133333 0-2.133333 2.133333-2.133334 2.133333h-6.4l-40.533333 10.666667 40.533333 10.666666-12.8-2.133333V64l-8.533333 6.4V85.333333c-2.133333 2.133333-6.4 4.266667-8.533333 8.533334l2.133333 6.4v10.666666h-14.933333v10.666667 32h4.266666l2.133334 2.133333c2.133333 2.133333 4.266667 8.533333 10.666666 10.666667l2.133334 2.133333V185.6v4.266667c-4.266667 2.133333-4.266667 6.4-6.4 8.533333h-2.133334c-2.133333-6.4-8.533333-8.533333-19.2-8.533333H418.133333l-4.266666 2.133333c-4.266667 4.266667-8.533333 8.533333-10.666667 12.8h-10.666667l-2.133333-2.133333c-2.133333-2.133333-4.266667-4.266667-10.666667-6.4l-2.133333-2.133334h-17.066667c-6.4-2.133333-12.8-2.133333-21.333333 0h-10.666667l-2.133333 8.533334v4.266666l-2.133333 2.133334-4.266667 4.266666h-19.2v-12.8h-21.333333c-6.4 0-12.8 2.133333-12.8 14.933334h-6.4l-2.133334 4.266666h-12.8c-4.266667 2.133333-8.533333 2.133333-12.8 4.266667h-14.933333l-8.533333 2.133333V234.666667v4.266666l-6.4 10.666667h-8.533334v8.533333H192l-2.133333 6.4c-4.266667 8.533333-10.666667 14.933333-17.066667 21.333334h-12.8c-2.133333 0-2.133333-2.133333-4.266667-2.133334l-2.133333-2.133333h-14.933333l-12.8 23.466667-6.4 6.4h-8.533334v6.4L106.666667 320v8.533333V358.4c-4.266667 12.8-2.133333 25.6 8.533333 34.133333 0 2.133333 0 4.266667-2.133333 8.533334V405.333333l4.266666 4.266667c-2.133333 4.266667-2.133333 8.533333-4.266666 12.8l-4.266667 4.266667c-4.266667 4.266667-8.533333 10.666667-12.8 14.933333l-6.4 6.4v25.6c-2.133333 2.133333-6.4 4.266667-8.533333 6.4l-2.133334 2.133333v2.133334c-2.133333 4.266667-2.133333 8.533333 0 12.8v2.133333l2.133334 2.133333c2.133333 0 2.133333 2.133333 4.266666 2.133334v2.133333 10.666667h-6.4l-2.133333 6.4-2.133333 2.133333v14.933333l4.266666 4.266667c0 4.266667 0 8.533333 2.133334 12.8l2.133333 6.4h8.533333l2.133334 2.133333 2.133333 4.266667H128c2.133333 0 4.266667-2.133333 6.4-4.266667 2.133333 2.133333 4.266667 2.133333 8.533333 4.266667h14.933334c8.533333 2.133333 19.2 2.133333 27.733333 0H192s0 2.133333 2.133333 2.133333l-2.133333 12.8h6.4v2.133334h8.533333V618.666667c0 2.133333 0 8.533333 4.266667 10.666666l4.266667 4.266667h2.133333c6.4 4.266667 14.933333 2.133333 21.333333 2.133333h4.266667c0 6.4 4.266667 14.933333 8.533333 19.2v4.266667l2.133334 6.4v10.666667l6.4 4.266666s2.133333 0 2.133333 2.133334c4.266667 2.133333 12.8 6.4 21.333333-2.133334 2.133333 0 2.133333 0 4.266667-2.133333 0 2.133333 0 6.4 2.133333 8.533333l2.133334 8.533334h2.133333v-2.133334h10.666667l6.4 2.133334c8.533333 4.266667 19.2 4.266667 29.866666 0l6.4-2.133334v-21.333333l2.133334-2.133333 2.133333-2.133334h4.266667c4.266667 0 8.533333-2.133333 10.666666-4.266666 4.266667 0 6.4-2.133333 8.533334-8.533334l2.133333-8.533333-4.266667-2.133333v-6.4c0-4.266667 0-8.533333 2.133334-10.666667l2.133333-4.266667v-4.266666c0-6.4-2.133333-10.666667-6.4-14.933334h2.133333c8.533333-2.133333 14.933333-2.133333 21.333334-6.4 4.266667-2.133333 8.533333-4.266667 8.533333-6.4l2.133333-2.133333c4.266667-2.133333 8.533333-4.266667 8.533334-8.533333v-4.266667h2.133333l4.266667-4.266667c4.266667-4.266667 4.266667-8.533333 2.133333-14.933333v-10.666667H490.666667l10.666666-8.533333c6.4 0 12.8-4.266667 14.933334-8.533333h14.933333c2.133333 2.133333 6.4 2.133333 8.533333 4.266666l2.133334 2.133334h10.666666l59.733334-12.8c6.4 0 10.666667 0 14.933333 2.133333l4.266667 2.133333h25.6l12.8 12.8h2.133333c-4.266667 12.8-4.266667 17.066667-4.266667 19.2v19.2l8.533334 4.266667h2.133333l4.266667 6.4h4.266666c4.266667 0 6.4 0 10.666667-2.133333 4.266667 0 8.533333-2.133333 10.666667 0 2.133333 2.133333 6.4 4.266667 10.666666 4.266666l6.4 6.4h8.533334v8.533334l-8.533334 6.4v12.8 17.066666c-2.133333 12.8 0 25.6 4.266667 38.4 2.133333 4.266667 4.266667 8.533333 6.4 14.933334l2.133333 4.266666h23.466667l4.266667 4.266667v6.4c0 2.133333 0 10.666667 6.4 17.066667v2.133333l-8.533334 10.666667v21.333333l8.533334 12.8h4.266666l2.133334 4.266667H829.866667c4.266667 0 6.4-2.133333 10.666666-4.266667h8.533334c6.4 0 12.8-2.133333 14.933333-10.666667v-4.266666l2.133333-2.133334c4.266667-2.133333 6.4-6.4 6.4-8.533333 0-2.133333 0-6.4-2.133333-8.533333 2.133333-2.133333 2.133333-4.266667 4.266667-6.4h6.4v-21.333334H893.866667l6.4-4.266666h10.666666l2.133334-4.266667 8.533333 2.133333 2.133333-12.8c0 2.133333 2.133333 2.133333 4.266667 4.266667 0 4.266667 2.133333 8.533333 4.266667 10.666667l4.266666 2.133333h4.266667c4.266667 2.133333 6.4 6.4 10.666667 8.533333l10.666666 6.4 4.266667-12.8c2.133333-4.266667 2.133333-8.533333 0-12.8 0-2.133333 2.133333-4.266667 0-6.4 2.133333-4.266667 2.133333-10.666667 0-14.933333v-53.333333l-10.666667-10.666667-6.4 2.133333h-4.266666v-4.266666H938.666667c2.133333-4.266667 4.266667-8.533333 4.266666-12.8 0-4.266667 0-10.666667 2.133334-14.933334l4.266666-6.4-4.266666-6.4c0-2.133333-2.133333-2.133333-2.133334-4.266666v-19.2h-14.933333l-2.133333-2.133334-2.133334-2.133333-6.4-6.4v-14.933333l-8.533333-2.133334c-6.4-2.133333-10.666667-2.133333-17.066667 0v-12.8l-2.133333-2.133333-2.133333-2.133333-2.133334-8.533334h-2.133333c-2.133333-2.133333-4.266667-4.266667-6.4-4.266666v-2.133334l-2.133333-4.266666c-6.4-6.4-14.933333-10.666667-23.466667-10.666667v-2.133333l-4.266667-4.266667v-12.8h4.266667v-6.4H874.666667v-19.2c-4.266667-6.4-12.8-12.8-19.2-17.066667H853.333333v-8.533333l-6.4-4.266667-6.4-6.4c4.266667 0 8.533333-4.266667 10.666667-10.666666 0-2.133333 2.133333-6.4 2.133333-8.533334l2.133334-2.133333v-19.2c2.133333-2.133333 4.266667-4.266667 6.4-8.533333 2.133333-2.133333 4.266667-6.4 4.266666-8.533334 2.133333-2.133333 2.133333-6.4 4.266667-8.533333 0 0 2.133333 0 2.133333-2.133333l6.4-2.133334v-10.666666s2.133333-17.066667 2.133334-27.733334c2.133333-2.133333 4.266667-4.266667 6.4-4.266666l4.266666-2.133334v-49.066666l-8.533333-2.133334c0-2.133333-2.133333-2.133333-4.266667-4.266666 0-4.266667-2.133333-6.4-4.266666-10.666667v-27.733333h-2.133334v-8.533334c0-2.133333-2.133333-6.4-4.266666-8.533333V160l2.133333 2.133333 4.266667 8.533334 8.533333-2.133334H900.266667v-4.266666h4.266666l2.133334-8.533334c2.133333-14.933333 2.133333-29.866667 0-42.666666 0-4.266667 0-14.933333-6.4-23.466667 0-2.133333 2.133333-4.266667 2.133333-4.266667 0-4.266667 0-12.8-12.8-14.933333-10.666667-2.133333-14.933333 6.4-14.933333 10.666667l-4.266667 2.133333v4.266667c-4.266667 0-6.4 2.133333-8.533333 4.266666l-2.133334 4.266667 2.133334 4.266667-2.133334 4.266666v19.2c0 2.133333 0 4.266667 2.133334 6.4h-23.466667c0-4.266667-4.266667-8.533333-8.533333-12.8-4.266667-4.266667-10.666667-6.4-17.066667-6.4l-4.266667-4.266666h-10.666666c-2.133333-2.133333-4.266667-4.266667-8.533334-4.266667h-2.133333c-2.133333 0-6.4-2.133333-8.533333 0v-2.133333l-4.266667-4.266667c-6.4-4.266667-12.8-2.133333-17.066667-2.133333h-2.133333-2.133333c-4.266667-6.4-6.4-8.533333-8.533334-8.533334 2.133333-4.266667 2.133333-8.533333 0-12.8v-2.133333l-2.133333-2.133333-2.133333-2.133334v-19.2l-8.533334-4.266666h-10.666666l-57.6-64h-8.533334s-2.133333-2.133333-4.266666-2.133334z m-6.4 38.4s-2.133333 0-2.133334-2.133333l2.133334 2.133333z m32 10.666667l36.266666 38.4h6.4v6.4c-2.133333 0-4.266667 2.133333-4.266666 2.133333l4.266666 8.533334h-6.4v8.533333 4.266667l-2.133333 12.8h25.6s2.133333 2.133333 4.266667 2.133333l4.266666 4.266667 4.266667-2.133334H755.2c2.133333 4.266667 6.4 6.4 12.8 8.533334h10.666667c2.133333 2.133333 6.4 6.4 12.8 6.4h6.4l4.266666 2.133333h4.266667c2.133333 0 4.266667 0 6.4 2.133333l2.133333 4.266667c0 2.133333 2.133333 6.4 4.266667 8.533333l-8.533333 8.533334h23.466666c0 2.133333 0 6.4 2.133334 10.666666l2.133333 4.266667h8.533333l2.133334 6.4c0 2.133333 2.133333 4.266667 2.133333 6.4v25.6h4.266667v10.666667l2.133333 2.133333c2.133333 4.266667 4.266667 6.4 4.266667 10.666667l2.133333 6.4 4.266667 2.133333v12.8l6.4-2.133333v6.4 12.8l-4.266667 2.133333h-4.266667v10.666667h-2.133333c0 2.133333-2.133333 25.6-2.133333 32-2.133333 2.133333-4.266667 4.266667-4.266667 6.4H853.333333V320c0 2.133333 0 4.266667-2.133333 4.266667v2.133333c0 2.133333-2.133333 4.266667-4.266667 6.4l-2.133333 2.133333h-10.666667l2.133334 12.8V362.666667l-4.266667 4.266666v2.133334c-6.4 0-8.533333 2.133333-10.666667 4.266666h-4.266666l-4.266667 6.4c-2.133333 6.4 0 10.666667 2.133333 12.8 0 0 0 2.133333 2.133334 2.133334 2.133333 4.266667 4.266667 6.4 6.4 8.533333 2.133333 4.266667 4.266667 6.4 6.4 8.533333v2.133334V420.266667c-2.133333-2.133333-4.266667-6.4-8.533334-8.533334l-2.133333-2.133333h-19.2V426.666667H782.933333l-2.133333 4.266666c-2.133333 2.133333-4.266667 6.4-6.4 8.533334l-2.133333 2.133333v19.2h17.066666l-2.133333 14.933333v2.133334c2.133333 4.266667 4.266667 10.666667 8.533333 14.933333l4.266667 2.133333 4.266667 2.133334v2.133333l4.266666 6.4c2.133333 2.133333 2.133333 6.4 4.266667 8.533333l4.266667 4.266667h25.6l2.133333-8.533333v-14.933334c2.133333 2.133333 4.266667 2.133333 6.4 2.133334 4.266667 0 8.533333 0 10.666667 4.266666 2.133333 2.133333 4.266667 6.4 6.4 6.4 0 4.266667 2.133333 6.4 4.266666 6.4 0 2.133333 2.133333 2.133333 2.133334 2.133334v21.333333l4.266666 2.133333c4.266667 2.133333 8.533333 2.133333 12.8 0h6.4v4.266667l2.133334 2.133333c4.266667 4.266667 6.4 8.533333 10.666666 10.666667l4.266667 8.533333 2.133333 6.4h4.266667l2.133333 2.133334c0 2.133333 2.133333 2.133333 2.133334 2.133333-2.133333 6.4-2.133333 14.933333-2.133334 19.2l-2.133333 2.133333c-2.133333 2.133333-2.133333 4.266667-4.266667 6.4-2.133333 4.266667 0 6.4 0 10.666667 2.133333 4.266667 4.266667 8.533333 6.4 10.666667v4.266666l8.533334 2.133334c4.266667 2.133333 8.533333 2.133333 12.8 2.133333v44.8h-2.133334v-2.133333H938.666667c-6.4-2.133333-10.666667-4.266667-17.066667-4.266667h-6.4l-2.133333 4.266667h-8.533334v8.533333c-2.133333 0-2.133333 2.133333-4.266666 2.133333H896l-8.533333 4.266667h-29.866667v14.933333 4.266667h-2.133333v8.533333 4.266667l-4.266667 2.133333-2.133333 14.933334c-2.133333 2.133333-6.4 6.4-6.4 10.666666H832l-2.133333 2.133334c-2.133333 0-2.133333 2.133333-4.266667 2.133333H800l-10.666667-2.133333h-4.266666 12.8V725.333333c0-6.4-6.4-10.666667-6.4-12.8 0 0-2.133333-2.133333-2.133334-4.266666v-17.066667l-2.133333-2.133333-8.533333-8.533334-2.133334-4.266666h-21.333333c0-2.133333-2.133333-4.266667-2.133333-4.266667-4.266667-10.666667-4.266667-21.333333-4.266667-32v-10.666667h8.533333c2.133333 2.133333 4.266667 2.133333 6.4 4.266667 6.4 2.133333 12.8 2.133333 17.066667-2.133333l6.4-4.266667 6.4-2.133333v-25.6h-27.733333l-6.4-6.4-4.266667-4.266667h-2.133333v-8.533333l-8.533334-2.133334h-12.8l-8.533333-8.533333h-10.666667c-8.533333-4.266667-14.933333-2.133333-21.333333 0h-2.133333l-4.266667-4.266667v-4.266666c0-2.133333 4.266667-12.8 6.4-21.333334l4.266667-10.666666-10.666667-4.266667v-6.4l-12.8-2.133333v-4.266667l-8.533333-2.133333c-6.4-2.133333-12.8-2.133333-21.333334 0h-10.666666c-8.533333-4.266667-17.066667-4.266667-23.466667-4.266667h-2.133333l-59.733334 12.8c-4.266667-4.266667-8.533333-6.4-14.933333-6.4H501.333333l-2.133333 4.266667v2.133333c-4.266667 0-8.533333-2.133333-12.8 2.133333l-4.266667 4.266667v4.266667h-81.066666v27.733333 2.133333c-4.266667 2.133333-10.666667 6.4-10.666667 14.933334l-2.133333 2.133333h-8.533334c-4.266667 2.133333-8.533333 4.266667-12.8 4.266667-4.266667 0-10.666667 2.133333-14.933333 4.266666l-4.266667 2.133334v4.266666c-2.133333 6.4-2.133333 10.666667 0 17.066667v2.133333l2.133334 2.133334c2.133333 2.133333 2.133333 2.133333 2.133333 4.266666-2.133333 6.4-2.133333 12.8-2.133333 17.066667v10.666667h-12.8v6.4h-2.133334l-2.133333 4.266666-8.533333 6.4v17.066667-6.4h-17.066667V652.8l-8.533333-2.133333h-21.333334v2.133333c-2.133333 0-2.133333 2.133333-4.266666 2.133333s-2.133333 0-2.133334 2.133334l-2.133333-6.4 2.133333-4.266667-4.266666-4.266667c-4.266667-4.266667-6.4-10.666667-6.4-19.2l2.133333-12.8h-38.4v-44.8H213.333333v-4.266666h-4.266666c0-2.133333-2.133333-2.133333-2.133334-4.266667v-14.933333l-14.933333 8.533333h-12.8c-6.4 2.133333-14.933333 2.133333-21.333333 0h-12.8l-2.133334-2.133333-2.133333-2.133334h-21.333333l-2.133334 4.266667h-14.933333c-2.133333-2.133333-4.266667-4.266667-6.4-4.266667l2.133333-6.4s2.133333 0 2.133334-2.133333l6.4-2.133333V490.666667c6.4-4.266667 6.4-10.666667 6.4-14.933334v-17.066666l2.133333-2.133334 2.133333-2.133333c2.133333-4.266667 4.266667-6.4 6.4-10.666667h10.666667v-10.666666c0-6.4 2.133333-12.8 4.266667-19.2l2.133333-4.266667-2.133333-4.266667c0-2.133333-2.133333-4.266667-2.133334-4.266666 2.133333-6.4 2.133333-12.8 2.133334-19.2v-12.8l-12.8 2.133333v-4.266667l2.133333-2.133333v-29.866667l2.133333-2.133333h2.133334l2.133333-4.266667c2.133333-2.133333 4.266667-6.4 6.4-8.533333 4.266667-2.133333 6.4-8.533333 8.533333-12.8v-2.133333l2.133334 2.133333h25.6l2.133333-2.133333c8.533333-6.4 14.933333-14.933333 21.333333-25.6h12.8v-8.533334h4.266667l2.133333-8.533333v-4.266667l8.533334-10.666666h8.533333c4.266667-2.133333 8.533333-2.133333 14.933333-4.266667h12.8c2.133333 0 4.266667 0 6.4-2.133333h4.266667c4.266667 0 6.4-2.133333 8.533333-6.4v-2.133334c2.133333 2.133333 6.4 4.266667 8.533334 4.266667h32c4.266667-2.133333 6.4-4.266667 8.533333-6.4 4.266667-2.133333 6.4-4.266667 8.533333-8.533333l2.133334-4.266667h17.066666c4.266667 2.133333 6.4 2.133333 8.533334 2.133333l10.666666 6.4h29.866667l2.133333-6.4c2.133333-4.266667 4.266667-6.4 6.4-10.666666 2.133333 2.133333 2.133333 2.133333 2.133334 4.266666l2.133333 4.266667h27.733333l2.133334-6.4c2.133333-4.266667 4.266667-10.666667 6.4-14.933333V155.733333l-4.266667-2.133333-2.133333-2.133333 8.533333-2.133334-4.266667-2.133333-2.133333-2.133333c0-4.266667-2.133333-8.533333-4.266667-10.666667v-2.133333h17.066667v-27.733334c2.133333 0 8.533333-2.133333 8.533333-10.666666v-8.533334h2.133334l6.4-2.133333v-6.4s2.133333 0 2.133333-2.133333c4.266667-2.133333 8.533333-6.4 8.533333-10.666667 0 2.133333 2.133333 4.266667 2.133334 6.4l2.133333 4.266667H558.933333l2.133334 2.133333c4.266667 8.533333 10.666667 10.666667 14.933333 10.666667h4.266667l12.8-6.4h14.933333v-23.466667l2.133333-2.133333h6.4l8.533334-4.266667h6.4c4.266667 4.266667 8.533333 4.266667 10.666666 4.266667h14.933334l4.266666-4.266667h12.8v-21.333333l2.133334-4.266667z m-185.6 8.533333z m64 29.866667z m162.133333 25.6v-4.266667 4.266667z m164.266667 12.8c2.133333 0 2.133333 0 0 0 4.266667 2.133333 4.266667 6.4 4.266666 10.666667 2.133333 10.666667 2.133333 21.333333 0 32v-8.533334l-2.133333-6.4c-2.133333-4.266667-4.266667-10.666667-6.4-14.933333v-10.666667l2.133333-2.133333z m-32 36.266667l8.533333-10.666667c2.133333 4.266667 2.133333 8.533333 4.266667 12.8v10.666667c-2.133333-2.133333-4.266667-4.266667-6.4-4.266667H853.333333c2.133333-2.133333 0-6.4-4.266666-8.533333z m-548.266667 78.933333z m-42.666667 10.666667s0-2.133333 0 0z m556.8 215.466666c2.133333 0 2.133333-2.133333 4.266667-4.266666 2.133333 4.266667 6.4 6.4 10.666667 8.533333-2.133333 0-8.533333 0-10.666667 6.4l-2.133333 6.4 4.266666 6.4-4.266666 2.133333 2.133333 4.266667v6.4l-8.533333-2.133333c-2.133333-2.133333-2.133333-4.266667-4.266667-6.4l8.533333-27.733334z m55.466667 64z m-795.733333 19.2v-2.133333 2.133333z m866.133333 87.466667z m-725.333333 17.066667z m155.733333 17.066666z m-91.733333 27.733334zM938.666667 708.266667z m4.266666 2.133333zM853.333333 738.133333z m-2.133333 10.666667z m-6.4 14.933333s0-2.133333 0 0zM330.666667 405.333333m-49.066667 0a49.066667 49.066667 0 1 1 98.133333 0 49.066667 49.066667 0 1 1-98.133333 0ZM657.066667 420.266667m-53.333334 0a53.333333 53.333333 0 1 1 106.666667 0 53.333333 53.333333 0 1 1-106.666667 0ZM782.933333 270.933333m-53.333333 0a53.333333 53.333333 0 1 1 106.666667 0 53.333333 53.333333 0 1 1-106.666667 0ZM731.733333 277.333333l-6.4 4.266667c-136.533333 87.466667-347.733333 106.666667-349.866666 106.666667l2.133333 21.333333c8.533333 0 219.733333-19.2 360.533333-110.933333l8.533334-6.4-14.933334-14.933334zM375.466667 398.933333l-6.4 21.333334c4.266667 2.133333 110.933333 32 236.8 12.8l-4.266667-21.333334c-119.466667 19.2-224-12.8-226.133333-12.8z"  horiz-adv-x="1024" />

    
    <glyph glyph-name="archive4" unicode="&#59220;" d="M744.106667 254.293333l279.893333 136.533334-286.72 129.706666 266.24 122.88L518.826667 868.693333 27.306667 629.76l259.413333-109.226667L0 397.653333l273.066667-129.706666-266.24-129.706667 512-252.586667 512 252.586667-286.72 116.053333zM518.826667 793.6l327.68-143.36-334.506667-150.186667-320.853333 136.533334 327.68 157.013333zM368.64 486.4l150.186667-61.44L662.186667 486.4l211.626666-95.573333-361.813333-170.666667-348.16 170.666667 204.8 95.573333z m-211.626667-354.986667l191.146667 95.573334L512 145.066667l150.186667 68.266666 204.8-88.746666-354.986667-170.666667-354.986667 177.493333z"  horiz-adv-x="1030" />

    
    <glyph glyph-name="archive2" unicode="&#59221;" d="M955.733333 834.56h68.266667v-805.546667h-68.266667zM170.666667 841.386667h805.546666v-68.266667H170.666667zM143.36 56.32h648.533333L634.88 274.773333 532.48 145.066667 368.64 390.826667zM887.466667-87.04H6.826667V691.2H887.466667v-778.24z m-812.373334 68.266667H819.2V622.933333H75.093333v-641.706666zM682.666667 493.226667m-61.44 0a61.44 61.44 0 1 1 122.88 0 61.44 61.44 0 1 1-122.88 0Z"  horiz-adv-x="1024" />

    
    <glyph glyph-name="archive1" unicode="&#59222;" d="M13.653333-52.906667H1024v-68.266666H13.653333zM0 889.173333h68.266667v-1010.346666H0zM177.493333 377.173333h122.88v-382.293333H177.493333zM382.293333 281.6h122.88v-286.72H382.293333zM587.093333 486.4h122.88v-491.52H587.093333zM791.893333 418.133333h122.88v-423.253333h-122.88zM450.56 561.493333L157.013333 793.6l40.96 54.613333 252.586667-197.973333L798.72 889.173333 955.733333 732.16l-47.786666-47.786667-116.053334 116.053334z"  horiz-adv-x="1024" />

    
    <glyph glyph-name="archive3" unicode="&#59223;" d="M1030.826667 698.026667V896h-197.973334v-54.613333H204.8V896H6.826667v-197.973333h40.96v-628.053334H6.826667V-128H204.8v34.133333h628.053333v-34.133333h197.973334v197.973333h-40.96V698.026667h40.96z m-109.226667-628.053334h-88.746667v-102.4H204.8v102.4H116.053333V698.026667H204.8V773.12h628.053333v-75.093333h88.746667v-628.053334zM314.026667 609.28l-6.826667-136.533333h40.96l27.306667 109.226666H477.866667v-443.733333l-68.266667-6.826667v-20.48h245.76v20.48l-75.093333 6.826667V377.173333v204.8H682.666667l27.306666-109.226666h40.96v136.533333H314.026667z"  horiz-adv-x="1030" />

    
    <glyph glyph-name="n-visualize" unicode="&#59211;" d="M420.920889-59.733333000000016h160.256v121.6h-160.256zM364.088889 689.066667c-95.431111 0-172.771556-79.274667-172.771556-177.066667 0-97.792 77.368889-177.038222 172.743111-177.038222 95.402667 0 172.771556 79.246222 172.771556 177.038222h-172.771556V689.066667M750.819556-124.273778c0.739556 4.181333 1.28 8.448 1.28 12.8 0 39.623111-31.630222 72.021333-70.257778 72.021334H306.972444c-38.627556 0-70.257778-32.426667-70.257777-72.021334 0-4.380444 0.540444-8.618667 1.28-12.8h512.824889M928.995556 248.462222c0-27.221333-22.471111-49.521778-49.976889-49.521778H120.405333a49.92 49.92 0 0 0-49.976889 49.493334V768.170667c0 27.249778 22.499556 49.550222 49.976889 49.550222h758.613334c27.505778 0 49.976889-22.300444 49.976889-49.550222v-519.708445z m-428.032-186.595555c-27.704889 0-50.147556 23.04-50.147556 51.427555s22.471111 51.370667 50.147556 51.370667c27.704889 0 50.147556-22.983111 50.147555-51.370667 0-28.416-22.471111-51.427556-50.147555-51.427555zM952.945778 896H49.92C22.471111 896 0 872.96 0 844.8v-759.466667c0-28.16 22.471111-51.2 49.948444-51.2h902.968889c27.477333 0 49.948444 23.04 49.948445 51.2V844.8c0 28.16-22.471111 51.2-49.948445 51.2zM597.333333 640h256v-56.888889h-256zM597.333333 526.222222h199.111111v-56.888889h-199.111111zM597.333333 412.444444h256v-56.888888h-256z"  horiz-adv-x="1024" />

    
    <glyph glyph-name="n-reportTh" unicode="&#59212;" d="M776.358054 868.324324l73.866378-61.495351-196.857081-166.109405-319.709405 73.894054L13.837838 435.753514l325.908757 215.206054 325.908756-92.35373 258.324757 202.94573 73.894054-61.495352V886.784l-221.516108-18.487351zM370.49427 543.273514v-640.553514h270.612757v572.886486l-270.612757 67.667028zM44.557838 358.842811v-456.095135h270.612757V537.101838L44.557838 358.842811zM714.862703-97.27999999999997h270.612756V690.812541L714.862703 475.606486v-572.85881z"  horiz-adv-x="1024" />

    
    <glyph glyph-name="n-peoManagSys" unicode="&#59213;" d="M305.34573 543.9654049999999c18.432 0 36.864-13.007568 36.864-32.601946v-170.260756C207.014054 236.68237799999997 139.983568 122.35416199999997 170.758919-66.91978400000005H6.144V513.937297c0 19.566703 18.459676 39.161081 36.891676 39.161081l262.310054-9.132973z m124.955675 257.134703c-73.755676-110.979459-36.891676-189.301622-36.891675-189.301622s-30.72 45.720216-43.008 0c-12.315676-45.664865 6.144-65.231568 55.323675-117.455567 49.179676-58.727784 122.935351-143.581405 178.231352-163.148108 55.351351-19.594378 153.710703 84.825946 215.178378 150.112865 55.323676 65.259243 55.323676 104.420324 36.891676 130.518486-18.459676 26.098162-24.603676 0-24.603676 0s18.432 117.483243-36.864 189.273946c-86.071351 117.483243-276.646054 110.951784-344.25773 0z m36.891676-489.499676c-165.998703-58.727784-252.042378-176.211027-252.042378-345.890594 0-65.259243 756.099459-97.888865 774.531459 39.161081 12.315676 130.518486-215.123027 365.484973-239.726703 300.22573l-86.071351-195.805406-30.72 84.853622s0 13.035243 18.432 45.664865c12.288 32.657297 18.459676 45.692541-12.288 65.286919-30.72 13.035243-67.611676 6.503784-79.899676-26.125838-12.315676-32.629622 18.432-45.664865 18.432-65.259243 0-19.566703-18.432-104.420324-18.432-104.420325s0-26.098162-30.747675 39.161081c-30.72 65.259243-61.467676 163.148108-61.467676 163.148108zM104.503351 376.88735099999997v-32.657297h172.142703v32.657297h-172.142703z m0 58.727784v-32.657297h172.142703v32.657297h-172.142703z"  horiz-adv-x="1024" />

    
    <glyph glyph-name="n-capitalT" unicode="&#59214;" d="M643.985297 778.627459h-66.006486l-57.316325-96.864864-57.316324 96.864864h-68.248216l80.342486-122.409513h-100.656432v-45.969297h109.817081l0.581189-0.553514v-44.281081h-110.39827v-42.592865h110.425946v-95.813189h71.043459v95.813189h110.868757v42.565189h-110.868757v44.281081l0.470487 0.553514h110.39827V656.245622h-103.590054zM984.147027 491.824432l-165.500541 360.614054a47.463784 47.463784 0 0 1-44.281081 29.391568H251.101405c-19.594378 0-37.223784-11.706811-44.281081-29.419243L39.465514 491.824432a38.441514 38.441514 0 0 1-3.293406-16.577729v-526.502054c0-25.461622 21.254919-45.996973 47.574487-45.996973h856.202378c26.319568 0 47.602162 20.563027 47.602162 45.996973V475.32973a38.054054 38.054054 0 0 1-3.431784 16.467027z m-135.555459-397.810162c0-15.775135-13.395027-28.616649-29.612973-28.616648h-614.4c-16.328649 0-29.585297 12.952216-29.585298 28.616648 0 15.775135 13.395027 28.588973 29.612973 28.588973h614.4c16.328649 0 29.585297-12.924541 29.585298-28.588973z m13.727135 389.064649h-192.622703l-58.949189-114.88173h-197.881081l-58.976865 114.88173H158.304865a14.723459 14.723459 0 0 0 0 4.538811 18.598054 18.598054 0 0 0 0 5.12L292.448865 810.067027h438.576432l131.293406-317.329297a14.723459 14.723459 0 0 0 0-4.538811 9.437405 9.437405 0 0 0 0-5.12z"  horiz-adv-x="1024" />

    
    <glyph glyph-name="n-intelligenceOpt" unicode="&#59215;" d="M551.436488 596.417561V563.82439c37.962927-10.86439 75.925854-27.148488 97.604683-59.716683l27.098536 16.284098 43.382634-70.581073-27.098536-16.284098c5.419707-16.284098 10.839415-38.012878 10.839415-59.716683 0-21.72878-5.419707-38.012878-10.839415-59.741658l27.098536-16.284098-43.382634-70.581073-27.098536 16.284098c-27.123512-27.148488-59.641756-48.852293-97.604683-59.716683v-21.728781h-81.345561v32.593171c-37.962927 10.839415-75.925854 27.148488-97.604683 59.716683l-27.098537-16.284098-43.382634 70.581073 27.123512 16.284098c-5.419707 16.284098-10.86439 38.012878-10.86439 59.716683 0 21.72878 5.444683 38.012878 10.86439 59.741658l-27.123512 16.284098 43.382634 59.716683 27.098537-16.284098c27.123512 32.568195 59.666732 54.296976 97.604683 59.716683v32.593171h81.345561z m-37.962927-108.593951c-59.641756 0-108.444098-48.877268-108.444098-108.593951s48.802341-108.593951 108.444098-108.593952 108.444098 48.877268 108.444098 108.593952-48.802341 108.593951-108.444098 108.593951z m0-54.296976c32.54322 0 54.222049-21.72878 54.222049-54.296975 0-32.568195-27.098537-54.296976-54.197073-54.296976-32.54322 0-54.247024 21.72878-54.247025 54.296976 0 32.568195 21.703805 54.296976 54.222049 54.296975zM676.139707-65.98556099999996l-124.703219 124.878049c162.666146 21.72878 281.974634 157.446244 281.974634 320.337171 0 157.446244-113.88878 287.768976-260.295805 320.33717L459.251512 813.5804880000001h48.802342c238.592 0 433.801366-195.459122 433.801366-434.350829 0-162.890927-86.765268-298.633366-216.913171-374.634147v-119.458341l-48.802342 48.877268zM562.275902-49.70146299999999c-16.259122 0-37.962927-5.419707-54.197073-5.419708-238.616976 0-433.826341 195.459122-433.826341 434.325854 0 162.915902 86.765268 298.633366 216.913171 374.634146V884.186537l75.925853-76.000781 102.999415-103.149268c-162.666146-21.72878-287.369366-157.47122-287.369366-325.781854 0-162.890927 119.283512-293.213659 271.110244-320.337171l108.444097-108.593951z"  horiz-adv-x="1024" />

    
    <glyph glyph-name="n-ITserveMng" unicode="&#59216;" d="M631.005405-17.740107999999964v35.258811c0 8.800865 9.963243 22.72173 24.354595 28.644324 5.064649 2.103351 10.073946 4.317405 15.055568 6.642162 14.114595 6.642162 30.415568 4.372757 36.227459-1.85427l23.35827-24.908108a71.320216 71.320216 0 0 1 105.361298 0l39.022702 41.651892c14.114595 15.000216 21.863784 34.954378 21.863784 56.181621 0 21.254919-7.749189 41.236757-21.836108 56.264649l-23.35827 24.908108c-3.376432 3.653189-5.507459 11.014919-5.50746 19.206919 0 6.642162 1.356108 13.561081 3.791568 19.456 2.214054 5.31373 4.262054 10.655135 6.227027 16.051892 5.562811 15.36 18.598054 26.015135 26.845405 26.015135h33.044757c41.098378 0 74.530595 35.701622 74.530595 79.539892v58.921513c0 43.83827-33.432216 79.512216-74.530595 79.512217h-33.044757c-8.247351 0-21.31027 10.682811-26.845405 26.015135-1.964973 5.424432-4.040649 10.793514-6.227027 16.051892a51.891892 51.891892 0 0 0-3.791568 19.456c0 8.219676 2.103351 15.55373 5.535135 19.206919l23.330595 24.908108c14.114595 15.027892 21.863784 35.00973 21.863784 56.236973 0 21.227243-7.749189 41.209081-21.863784 56.264648l-39.050378 41.651892a71.320216 71.320216 0 0 1-105.388973 0l-23.358271-24.963459c-5.811892-6.199351-22.085189-8.468757-36.172108-1.826595-4.981622 2.352432-10.018595 4.566486-15.083243 6.642162-14.363676 5.95027-24.354595 19.871135-24.354595 28.644325V807.299459c0 43.83827-51.255351 79.484541-92.353729 79.484541v-276.867459c111.173189 0 191.820108-96.505081 191.820108-215.150703 0-118.617946-80.646919-215.123027-191.820108-215.123027V-97.27999999999997c41.098378 0 92.326054 35.673946 92.326054 79.512216zM470.431135 205.15978399999995V76.79999999999995l-32.657297-0.027676 16.107243-98.719135h16.550054v-64.844108h-241.055135v64.844108h86.790919l16.245622 98.719135H64.70573C37.611243 76.79999999999995 15.470703 105.47199999999998 13.920865 141.56108099999994L13.837838 145.62940500000002v59.502703h456.593297z m0 681.624216v-617.001514H13.837838V817.926919C13.837838 854.597189 35.00973 884.569946 61.716757 886.645622l2.988973 0.138378h405.725405z"  horiz-adv-x="1024" />

    
    <glyph glyph-name="n-ITbasicMonit" unicode="&#59217;" d="M219.875556 570.680889c-25.656889 0-46.535111-20.963556-46.535112-46.876445v-465.009777c0-25.912889 20.878222-46.904889 46.648889-46.904889h574.350223c25.799111 0 46.677333 20.992 46.677333 46.904889V523.804444c0 25.884444-20.878222 46.876444-46.677333 46.876445z m354.56-156.899556c7.111111 0.597333 13.852444-3.271111 16.981333-9.728L691.2 253.15555600000005l55.438222 49.777777a17.180444 17.180444 0 0 0 24.348445-1.422222 17.464889 17.464889 0 0 0-1.393778-24.547555L697.173333 211.911111a17.237333 17.237333 0 0 0-27.022222 5.404445l-90.282667 131.043555-67.783111-192c-2.133333-7.395556-7.879111-12.600889-15.530666-12.600889-7.139556 0-11.861333 5.632-17.123556 11.235556l-104.675555 123.818666-112.355556-25.656888a17.208889 17.208889 0 0 0-22.755556 8.248888 17.436444 17.436444 0 0 0 8.078223 23.210667l129.109333 33.592889a17.208889 17.208889 0 0 0 1.137778 0.483556c8.903111 3.470222 14.165333-2.360889 22.328889-9.955556l89.315555-106.012444 69.717334 198.656a17.294222 17.294222 0 0 0 15.132444 12.401777zM233.813333-56.092444H770.275556a34.332444 34.332444 0 1 0 0-68.750223H233.813333a34.417778 34.417778 0 0 0-34.218666 34.389334 34.417778 34.417778 0 0 0 34.218666 34.360889z m304.099556-47.246223a13.027556 13.027556 0 1 1 0 26.026667 12.999111 12.999111 0 0 1 0-26.026667z m-35.84 0a12.970667 12.970667 0 0 1 12.942222 12.999111 12.970667 12.970667 0 1 1-25.912889 0c0-7.196444 5.774222-12.999111 12.942222-12.999111z m-35.868445 0a12.970667 12.970667 0 0 1 12.942223 12.999111 12.970667 12.970667 0 1 1-25.884445 0 12.913778 12.913778 0 0 1 12.970667-13.027555zM43.776 302.44977800000004a21.959111 21.959111 0 0 0-21.902222-21.987556 21.959111 21.959111 0 0 0-21.902222 21.987556c0.028444 69.006222 13.880889 134.855111 39.025777 194.759111 12.714667-6.940444 27.192889-11.093333 42.524445-11.747556a459.150222 459.150222 0 0 1-37.745778-183.011555zM7.964444 582.2577779999999c0 42.951111 34.702222 77.852444 77.511112 77.852444a77.368889 77.368889 0 0 0 70.570666-45.511111 77.710222 77.710222 0 0 0-70.456889-110.222222c-0.995556 0-1.991111 0.142222-3.015111 0.142222a76.032 76.032 0 0 0-34.218666 9.472 77.511111 77.511111 0 0 0-40.391112 68.266667zM405.276444 797.297778c1.507556-14.933333 6.4-29.326222 14.336-42.097778a456.903111 456.903111 0 0 1-246.613333-132.721778 95.744 95.744 0 0 1-27.022222 34.986667 500.792889 500.792889 0 0 0 259.299555 139.832889z m16.611556 9.472A79.587556 79.587556 0 0 0 501.276444 886.528a79.587556 79.587556 0 0 0 79.018667-87.324444c-1.137778-12.288-5.148444-24.177778-11.719111-34.645334a78.990222 78.990222 0 0 0-134.513778-0.256 80.583111 80.583111 0 0 0-12.174222 42.467556z m546.417778-317.752889a502.328889 502.328889 0 0 0 35.498666-173.425778v-14.791111a21.845333 21.845333 0 0 0-21.617777-20.195556 21.959111 21.959111 0 0 0-21.902223 21.987556c0 63.687111-12.970667 124.472889-36.380444 179.712a92.302222 92.302222 0 0 1 44.401778 6.712889zM583.082667 755.569778c7.936 12.629333 12.828444 27.050667 14.222222 41.955555a501.020444 501.020444 0 0 0 268.629333-148.252444 96.597333 96.597333 0 0 1-24.661333-37.802667 457.870222 457.870222 0 0 1-258.190222 144.099556z m294.542222-118.812445a79.132444 79.132444 0 0 0 54.357333 21.731556 79.587556 79.587556 0 0 0 79.416889-79.729778 79.985778 79.985778 0 0 0-49.464889-73.955555c-9.557333-3.925333-19.626667-5.944889-29.952-5.944889-2.275556 0-4.380444 0.142222-6.656 0.398222a79.701333 79.701333 0 0 0-47.701333 137.500444z"  horiz-adv-x="1024" />

    
    <glyph glyph-name="n-netMonitPerform" unicode="&#59218;" d="M430.107676 626.189838h-157.197838a827.502703 827.502703 0 0 1-20.396973-167.29946h177.594811V626.1621620000001zM273.795459 250.24345900000003h142.280649c4.428108 5.618162 9.132973 11.236324 14.031568 16.882163V421.915676H252.512865c1.273081-60.056216 8.634811-117.732324 21.31027-171.699892z m156.312217 412.893406V886.175135c-13.007568-0.747243-25.876757-2.131027-38.579892-4.012973-47.29773-58.284973-85.019676-133.286054-109.208216-219.025297h147.788108z m-193.176217-36.947027H55.766486A462.626595 462.626595 0 0 1 14.391351 458.890378h202.11546c1.245405 58.395676 8.330378 114.577297 20.424648 167.29946z m393.077622 0h-167.686919v-167.29946h186.727784a836.691027 836.691027 0 0 1-19.040865 167.29946z m206.073081 36.947027C775.749189 768.276757 675.507892 846.156108 556.751568 874.828108c43.367784-57.703784 77.879351-129.937297 100.15827-211.691243h179.172324zM514.656865 882.771027a428.779243 428.779243 0 0 1-52.307027 4.012973v-223.674811h158.692324c-23.330595 85.600865-60.139243 160.740324-106.385297 219.661838zM216.562162 421.943351H13.837838a463.733622 463.733622 0 0 1 36.67027-171.699892h187.419676a828.748108 828.748108 0 0 0-21.365622 171.699892z m-148.424648-208.619243c61.24627-114.466595 168.987676-198.905081 297.070702-226.276324-50.978595 58.838486-91.717189 136.607135-117.621621 226.276324H68.137514zM348.630486 873.499676C232.309622 843.776 134.227027 766.616216 74.835027 663.109189H246.313514c23.026162 81.560216 58.284973 153.40627 102.316972 210.390487z m336.397838-414.636973h211.469838A462.792649 462.792649 0 0 1 855.178378 626.189838h-189.163243a833.591351 833.591351 0 0 0 19.040865-167.327135z m-295.520865-245.538595H283.592649c26.928432-93.184 69.82573-173.443459 123.599567-233.056865 7.583135-0.83027 15.221622-1.494486 22.970811-1.937297v29.225513c-28.893405 33.238486-57.011892 75.001081-82.556541 127.36346 0 0.055351 13.284324 34.594595 41.900973 78.405189z m259.321082 208.619243h-186.534055v-121.440865c46.163027 42.841946 107.160216 79.595243 184.873514 88.977298 0.747243 10.738162 1.328432 21.531676 1.660541 32.463567z m35.923027 0c-0.276757-9.852541-0.774919-19.705081-1.383784-29.529946 28.118486 1.273081 113.940757-0.608865 203.001081-60.609729 6.365405 29.114811 10.073946 59.225946 10.710486 90.139675h-212.327783zM631.337514 136.35805400000004c0-36.476541 28.782703-66.034162 64.207567-66.034162 35.480216 0 64.207568 29.557622 64.207568 66.034162s-28.727351 66.061838-64.207568 66.061838c-35.424865 0-64.207568-29.585297-64.207567-66.061838zM675.64627 356.32432400000005c-197.493622-7.251027-278.970811-219.468108-278.970811-219.468108 117.787676-241.414919 299.340108-218.637838 299.340109-218.637838 210.777946-3.653189 297.568865 218.637838 297.568864 218.637838-113.359568 245.926054-317.938162 219.468108-317.938162 219.468108z m20.784433-352.505081c-70.683676 0-127.944649 58.949189-127.944649 131.680865 0 72.704 57.344 131.625514 128.027676 131.597838 70.683676 0 127.944649-58.949189 127.944648-131.653189s-57.344-131.625514-128.027675-131.625514z"  horiz-adv-x="1024" />

    
    <glyph glyph-name="n-bsnPerformMng" unicode="&#59219;" d="M782.108444 269.226667c3.128889-17.834667 17.834667-31.118222 35.555556-32.711111l3.84-0.170667c19.342222-0.142222 35.953778 13.653333 39.395556 32.711111a194.759111 194.759111 0 0 0 67.214222-27.534222l7.395555-5.063111a38.513778 38.513778 0 0 1-8.988444-24.689778c0-21.703111 17.863111-39.168 39.879111-39.168 7.879111 0 15.559111 2.275556 22.101333 6.542222a187.448889 187.448889 0 0 0 20.821334-49.806222l2.048-8.817778c-17.066667-3.384889-29.752889-17.550222-31.459556-34.588444l-0.199111-3.697778a39.310222 39.310222 0 0 1 31.488-38.200889 187.676444 187.676444 0 0 0-21.703111-55.978667l-4.551111-7.367111a40.391111 40.391111 0 0 1-14.677334 4.323556l-3.868444 0.170666a39.537778 39.537778 0 0 1-39.879111-39.139555c0-5.688889 1.223111-11.121778 3.470222-16.071111l1.848889-3.584a195.128889 195.128889 0 0 0-61.809778-27.875556l-9.528889-2.190222a39.765333 39.765333 0 0 1-35.299555 30.748444l-3.697778 0.142223a39.736889 39.736889 0 0 1-38.087111-27.477334l-0.967111-3.584a195.185778 195.185778 0 0 0-63.288889 24.519111l-8.248889 5.262223c2.986667 4.835556 4.835556 10.24 5.404444 15.872l0.227556 4.238222a39.537778 39.537778 0 0 1-39.879111 39.082667c-5.404444 0-10.723556-1.080889-15.644445-3.128889l-3.640888-1.706667a187.164444 187.164444 0 0 0-24.405334 55.04l-1.991111 8.448a39.338667 39.338667 0 0 1 32.142222 34.702222l0.199111 3.754667a39.310222 39.310222 0 0 1-32.568888 38.485333c4.266667 20.764444 12.088889 40.675556 23.096888 58.88 6.741333-4.551111 14.592-7.054222 22.812445-6.997333 20.707556 0 37.774222 15.473778 39.708444 35.328l0.170667 3.783111c0 9.244444-3.328 18.204444-9.386667 25.201778a194.673778 194.673778 0 0 0 65.848889 30.264889l9.102222 2.048z m39.395556-122.737778c-36.181333 0-65.507556-28.728889-65.507556-64.256 0-35.498667 29.297778-64.256 65.507556-64.256 36.238222 0 65.564444 28.757333 65.564444 64.284444 0 35.470222-29.297778 64.227556-65.564444 64.227556zM375.466667 416.938667l1.223111-0.170667 50.659555-85.76a45.511111 45.511111 0 0 1 24.177778-12.373333v-0.568889h117.418667c8.760889 0.085333 17.322667 2.787556 24.490666 7.822222l5.347556 4.266667 47.018667 87.182222c150.357333-0.654222 244.48-0.967111 282.339555-0.967111 56.803556 0 52.423111-49.436444 52.337778-73.841778-0.028444-24.433778-10.951111-73.301333-143.018667-58.026667a56.177778 56.177778 0 0 0-55.694222 46.506667 275.911111 275.911111 0 0 1-106.012444-45.681778c8.590222-9.898667 13.312-22.556444 13.312-35.669333 0-30.549333-25.287111-55.324444-56.462223-55.324445-11.52 0-22.812444 3.384889-32.256 9.898667a265.016889 265.016889 0 0 1-32.711111-83.228444c64.967111-58.453333 55.722667-176.355556 29.212445-236.373334H49.436444c-25.400889 0-46.279111 23.210667-49.152 52.963556L0-55.352889000000005V356.89244399999995c0 30.663111 19.114667 56.007111 43.719111 59.477334l5.774222 0.398222 306.631111 0.568889c9.329778 0 16.412444-0.056889 19.342223-0.398222zM980.48 523.832889c-1.137778-25.656889-15.36-29.184-25.713778-31.488l-276.224-0.398222a43.264 43.264 0 0 1-24.462222-7.793778l-5.376-4.266667-59.790222-125.155555c-6.542222-6.087111-14.677333-10.126222-23.466667-11.605334l-6.428444-0.568889h-81.948445l-15.701333-0.028444a18.545778 18.545778 0 0 0-10.211556 3.185778l-2.986666 2.417778-84.935111 130.901333a45.511111 45.511111 0 0 1-24.177778 12.373333l-6.627556 0.568889H22.186667c-12.174222 0-22.186667 17.152-22.186667 31.857778 0 14.705778 7.879111 32.312889 18.204444 34.56l3.982223 0.455111h928.597333c15.928889 0 30.862222-9.358222 29.724444-35.015111zM980.138667 692.764444l0.369777-5.632v-1.137777c0-19.740444-12.913778-36.039111-29.809777-38.855111l-5.12-0.426667H34.929778C15.616 646.712889 0 664.291556 0 686.023111c0 19.768889 12.970667 36.124444 29.809778 38.912L34.986667 725.333333H946.346667c17.152 0 31.374222-14.108444 33.792-32.568889zM897.194667 863.431111l0.341333-5.688889v-1.137778c0-19.626667-11.946667-36.039111-27.648-38.855111l-4.778667-0.369777-725.105777-0.056889c-17.92 0-32.426667 17.578667-32.426667 39.310222 0 19.768889 12.032 36.067556 27.676444 38.855111l4.835556 0.455111L865.848889 896c15.928889 0 29.098667-14.165333 31.345778-32.568889z"  horiz-adv-x="1024" />

    
    <glyph glyph-name="n-file" unicode="&#59194;" d="M131.639103 409.546245l-65.836617-238.909442v648.468486h321.811019c-7.303803-76.792321 51.194881-186.758924 124.3353-186.758924h321.776889v-103.379528h65.836616V674.087258c0 42.628271-29.249342 35.051428-65.836616 35.051428H511.948805c-36.587275 0-65.802486 75.802553-65.802486 118.533213 0 34.061661-29.249342 68.225711-65.836617 68.225711H65.802486C29.249342 895.89761 0 861.76769 0 819.105289V-59.74015899999995c0-34.12992 29.249342-68.259841 65.802486-68.259841h767.923208c29.249342 0 51.194881 17.06496 58.532813 51.194881L1023.89761 383.948805c0 42.6624-29.249342 76.792321-65.802486 76.792321h-767.923208c-29.249342 0-51.194881-17.06496-58.532813-51.194881z"  horiz-adv-x="1024" />

    
    <glyph glyph-name="n-report" unicode="&#59189;" d="M652.3904 42.66666699999996H4.369067A149.6064 149.6064 0 0 1 0 8.53333299999997c0-75.400533 54.545067-136.533333 121.787733-136.533333h639.453867s9.6256 0.170667 23.825067 4.573867c-60.416 40.7552-111.752533 127.2832-132.676267 166.0928zM274.261333 896C198.178133 896 136.533333 832.9216 136.533333 755.029333c0-5.358933 0.989867-10.4448 1.570134-15.633066H136.533333V112.98133299999995h568.832l8.772267-16.110933c35.089067-64.512 105.233067-155.784533 151.176533-156.5696 1.365333 0 3.413333 0 6.0416 0.443733 25.6 27.648 49.5616 71.338667 60.859734 140.868267V739.396267h1.536c-0.546133 5.188267-1.536 10.274133-1.536 15.6672A140.3904 140.3904 0 0 0 1024 887.364267V896H274.261333z m382.532267-563.8144H258.935467v62.634667h397.892266v-62.634667h-0.034133z m122.402133 156.637867H258.935467v62.634666h520.260266v-62.634666z m0 156.603733H258.935467V708.061867h520.260266v-62.634667z"  horiz-adv-x="1024" />

    
    <glyph glyph-name="n-analy" unicode="&#59190;" d="M1181.538462 148.32246199999997v-24.930462c0-42.377846-23.118769-74.791385-66.796308-74.791385H616.448v-99.643077h267.145846c15.399385 0 25.678769-10.003692 25.678769-24.969846s-10.24-24.930462-25.678769-24.930461H318.503385c-15.399385 0-25.678769 10.003692-25.67877 24.930461 0 14.966154 10.24 24.930462 25.67877 24.930462h246.547692v99.682461H87.355077C43.716923 48.60061499999995 0 81.01415399999996 0 123.39200000000005v24.930462h1181.538462zM1114.742154 896C1155.859692 896 1181.538462 863.586462 1181.538462 821.248v-623.064615H0V821.208615C0 863.586462 43.677538 896 87.315692 896z m-384.315077-73.885538c-47.970462 0-86.843077-38.596923-86.843077-86.173539 0-21.779692 8.388923-41.472 21.819077-56.595692l-113.703385-206.690462a122.722462 122.722462 0 0 1-24.103384 4.411077l-8.192 0.393846c-23.748923 0-46.985846-6.892308-66.953846-19.692307L361.550769 565.956923c4.450462 8.270769 7.561846 17.329231 8.625231 27.096615l0.393846 7.483077a74.121846 74.121846 0 0 1-74.515692 73.688616 74.121846 74.121846 0 0 1-74.358154-73.885539A74.121846 74.121846 0 0 1 296.172308 526.572308c9.924923 0 19.771077 2.008615 28.908307 5.828923l91.687385-109.134769c-12.209231-17.801846-19.416615-38.439385-21.031385-59.825231l-0.354461-9.176616c0.118154-65.536 51.830154-119.059692 116.972308-122.80123l7.08923-0.196923c68.529231 0.039385 124.061538 55.138462 124.140308 123.116307 0 39.030154-18.865231 73.491692-47.576615 96.059077l111.497846 202.712616c7.364923-1.969231 14.926769-3.347692 22.921846-3.347693 12.603077 0 24.497231 2.796308 35.367385 7.601231l112.04923-166.675692c-5.907692-9.491692-9.452308-20.204308-10.555077-31.232l-0.354461-6.656c0-40.802462 33.319385-73.885538 74.436923-73.924923a74.200615 74.200615 0 0 1 74.555077 73.806769 74.200615 74.200615 0 0 1-74.436923 73.964308h-0.039385a77.193846 77.193846 0 0 1-25.009231-4.568616l-112.797538 167.739077c7.601231 11.776 12.169846 25.206154 13.351385 39.108923l0.315076 6.971077a86.528 86.528 0 0 1-86.882461 86.173539z m-211.022769-393.924924c41.078154 0 74.515692-33.122462 74.515692-73.885538 0-38.715077-30.365538-70.616615-68.686769-73.570462l-5.828923-0.236307a74.24 74.24 0 0 0-74.436923 73.885538c0 40.605538 33.358769 73.806769 74.436923 73.806769z"  horiz-adv-x="1181" />

    
    <glyph glyph-name="n-reportOth" unicode="&#59191;" d="M1005.694824 121.23669800000005V795.015447c0 16.79327 3.379134 40.276541-3.345001 57.001546a61.472924 61.472924 0 0 1-23.449139 33.518274c-20.138271 13.414136-50.311544 10.069135-87.174819 10.069135H63.701617c-3.345001 0-10.069135 0-13.414137-3.345C30.14921 888.914401 16.769206 878.845265 10.079204 862.086128 0.010069 848.671992 0.010069 828.567854 0.010069 805.084583v-864.887524c3.345001-10.069135 6.690002-20.138271 13.414136-26.828273 23.449139-23.449139 53.622412-23.449139 97.209822-23.449138h787.78184c40.242409 0 63.72568 0 83.829818 13.414136 23.449139 20.104138 23.449139 46.93241 23.449139 90.485687v127.417227zM938.658276-46.422938000000045H67.046617V768.221308H938.658276V-46.422938000000045zM871.621727 707.874761H134.117298v-439.15083h737.504429V707.874761z m-341.941008-301.732732c-13.414136-16.725004-36.863275-13.380004-50.277411 0-36.863275 33.552407-70.415682 67.070681-107.278957 100.588955l-3.345001 3.345001c-36.863275-36.863275-77.139816-73.72655-114.003091-107.244825-13.414136-10.069135-36.863275-6.724134-46.932411 6.690002-16.725004 23.483271 3.379134 40.242409 16.759137 53.622412 30.173273 26.828272 57.001546 53.656545 87.174819 80.484817l30.173274 30.173274c3.345001 3.345001 3.345001 6.690002 6.690001 6.690001 3.379134 3.345001 10.069135 3.345001 16.759137 6.690002 13.414136 0 23.483271 0 30.173274-10.035003 0-3.345001 0-3.345001 3.379133-3.345 6.690002-6.724134 13.380004-13.414136 20.104138-16.79327 33.518274-30.139141 67.036548-63.691547 100.554823-93.864821 6.724134-16.725004 26.828272-36.863275 10.069135-57.001545z m271.525327 70.415681a30.207406 30.207406 0 0 0-20.104138-20.104138 28.637303 28.637303 0 0 0-23.483272 0c-30.139141 10.069135-20.104138 46.93241-20.104138 83.795686-43.587409-40.208276-87.140686-80.450684-127.383095-120.658961-13.414136-13.414136-33.518274-40.242409-60.346546-20.13827-10.035003 6.724134-16.725004 26.828272-6.690002 40.242408 3.345001 6.690002 10.035003 13.414136 16.725005 16.759137 43.621542 40.242409 87.174819 83.795685 130.762228 124.038094-30.173273 0-60.346547 0-77.105684 13.414137-13.414136 10.035003-6.690002 33.518274 3.345001 43.587409 3.379134 3.345001 10.069135 3.345001 16.79327 6.690002h103.899823c33.518274 0 53.656545 3.345001 63.691548-16.759137 6.724134-13.414136 3.345001-33.518274 3.345-46.932411v-67.036548c0-13.414136 0-26.828272-3.345-36.863275z m-197.764644-271.525326H134.117298v-63.691548h469.324104v63.691548z m201.109644-127.383095H134.151431v-63.691548H804.516914v63.691548z"  horiz-adv-x="1024" />

    
    <glyph glyph-name="n-analyOth" unicode="&#59192;" d="M1228.8 128v-25.6c0-43.54048-24.04352-76.8-69.46816-76.8H641.10592v-102.4h277.83168c16.01536 0 26.70592-10.24 26.70592-25.6s-10.6496-25.6-26.70592-25.6H331.24352c-16.01536 0-26.70592 10.24-26.70592 25.6s10.6496 25.6 26.70592 25.6h256.4096v102.4H90.84928C45.4656 25.600000000000023 0 58.859519999999975 0 102.39999999999998v25.6h1228.8zM1159.33184 896C1202.09408 896 1228.8 862.69952 1228.8 819.2V179.20000000000005H0V819.2C0 862.69952 45.42464 896 90.80832 896z m-548.0448-72.94976c-171.2128-13.14816-298.88512-156.79488-285.20448-320.88064 13.7216-164.0448 163.6352-286.39232 334.80704-273.28512 171.2128 13.14816 298.88512 156.79488 285.16352 320.88064a290.16064 290.16064 0 0 1-53.248 144.42496l-0.04096-0.04096-0.28672-0.24576-0.16384-0.04096-36.20864-23.92064c9.91232-13.96736 18.51392-28.83584 25.35424-44.56448 13.9264-31.45728 20.93056-64.83968 20.93056-99.328a243.712 243.712 0 0 0-16.01536-87.4496l-4.9152-11.8784a252.7232 252.7232 0 0 0-48.20992-72.21248l-8.88832-8.92928a267.22304 267.22304 0 0 0-84.66432-54.76352 274.432 274.432 0 0 0-103.6288-20.0704 274.432 274.432 0 0 0-91.25888 15.40096l-12.41088 4.66944a266.4448 266.4448 0 0 0-75.3664 46.24384l-9.29792 8.51968a255.67232 255.67232 0 0 0-51.8144 69.87776l-5.3248 11.22304a244.03968 244.03968 0 0 0-20.8896 99.328c0 30.14656 5.36576 59.55584 16.01536 87.4496l4.9152 11.8784a252.7232 252.7232 0 0 0 48.20992 72.25344l8.88832 8.92928a266.52672 266.52672 0 0 0 72.94976 49.64352l11.71456 5.07904a272.67072 272.67072 0 0 0 82.3296 19.2512l-3.4816 41.7792V823.0912z m10.40384-127.42656c-97.97632-7.70048-170.88512-90.112-162.85696-183.99232 8.02816-93.88032 93.96224-163.75808 191.97952-156.0576 97.97632 7.70048 170.88512 90.07104 162.85696 183.95136a166.13376 166.13376 0 0 1-30.63808 82.57536l-36.70016-24.08448a123.86304 123.86304 0 0 0-9.6256-156.71296l-6.06208-6.18496a135.29088 135.29088 0 0 0-85.56544-37.23264l-8.8064-0.24576a136.02816 136.02816 0 0 0-87.98208 31.66208l-6.38976 5.81632a123.98592 123.98592 0 0 0-6.10304 174.6944l6.06208 6.22592a135.168 135.168 0 0 0 83.39456 37.0688l-3.56352 42.51648z m14.336 128.4096h-0.2048v-264.3968h-0.04096a35.14368 35.14368 0 0 1-35.34848-29.85984l-0.28672-4.25984c0-18.8416 15.9744-34.16064 35.6352-34.16064 18.14528 0 33.13664 13.02528 35.34848 29.85984l0.24576 4.3008a33.01376 33.01376 0 0 1-6.3488 19.49696l-1.59744 1.88416L877.3632 712.9088l0.28672 0.28672 0.12288 0.08192c-58.90048 70.08256-147.78368 110.83776-241.70496 110.75584z m-0.2048-264.3968l4.42368-0.28672a36.0448 36.0448 0 0 0 22.1184-11.18208l1.06496-1.26976-10.36288-8.06912a20.8896 20.8896 0 0 0 4.66944-9.8304l0.32768-3.64544c0-11.75552-9.95328-21.2992-22.20032-21.2992a21.79072 21.79072 0 0 0-22.24128 21.2992c0 11.75552 9.95328 21.2992 22.20032 21.2992v12.98432z"  horiz-adv-x="1228" />

    
    <glyph glyph-name="n-list" unicode="&#59193;" d="M0 501.111467h286.071467v-256H0v256z m364.168533-344.951467h295.662934V-128H364.202667v284.16z m0 344.951467h295.662934v-256H364.202667v256z m373.76-344.951467H1024V-128h-286.071467v284.16zM0 156.15999999999997h286.071467V-128H0v284.16zM0 896h1024v-307.848533H0V896z m737.928533-394.888533H1024v-256h-286.071467v256z"  horiz-adv-x="1024" />

    
    <glyph glyph-name="n-monitor" unicode="&#59195;" d="M1181.538462 146.195692v-25.00923c0-42.496-23.118769-74.988308-66.796308-74.988308H616.448v-99.958154h267.145846c15.399385 0 25.678769-10.003692 25.678769-25.009231 0-14.966154-10.24-25.009231-25.678769-25.009231H318.503385c-15.399385 0-25.678769 10.003692-25.67877 25.009231 0 14.966154 10.24 25.009231 25.67877 25.009231h246.547692v99.958154H87.355077C43.716923 46.198154000000045 0 78.69046200000003 0 121.186462v25.00923h1181.538462zM1114.742154 896C1155.859692 896 1181.538462 863.507692 1181.538462 821.011692v-624.836923H0V821.011692C0 863.507692 43.677538 896 87.315692 896zM474.899692 759.571692a29.105231 29.105231 0 0 1-28.59323-16.384l-168.172308-253.912615L184.792615 573.046154a28.987077 28.987077 0 0 1-41.078153-2.363077 29.341538 29.341538 0 0 1 2.363076-41.275077l122.092308-109.489231a29.065846 29.065846 0 0 1 45.528616 9.058462l152.103384 220.553846 114.215385-323.072c3.623385-12.484923 13.272615-21.188923 26.190769-21.188923 12.012308 0 19.968 9.452308 28.829538 18.904615l269.587693 238.355693 99.367384-47.025231a29.026462 29.026462 0 0 1 38.321231 13.902769 29.302154 29.302154 0 0 1-13.548308 39.030154l-127.684923 60.416a28.947692 28.947692 0 0 1-1.890461 0.787692c-14.966154 5.828923-23.867077-3.938462-37.612308-16.738461l-243.672615-208.46277-117.523693 334.257231a29.144615 29.144615 0 0 1-25.481846 20.913231z"  horiz-adv-x="1181" />

    
    <glyph glyph-name="n-catalog" unicode="&#59196;" d="M1020.46624 655.1411029999999a65.603086 65.603086 0 0 1-71.098454 72.122436H547.864613c-13.277628-0.136531-26.282194 3.89113-37.170531 11.536859 0 0-15.359724 67.548651-46.45463 113.661954a63.998848 63.998848 0 0 1-65.534821 43.348553H88.301685A83.625161 83.625161 0 0 1 0.000341 812.117478l4.232457-854.341955c0-95.127888 71.576312-83.625161 71.576312-83.625162h887.996816a64.135379 64.135379 0 0 1 62.735938 77.890865l-6.075624 703.065745zM258.828749 216.535665a54.817147 54.817147 0 0 0 0-109.634293 54.817147 54.817147 0 0 0 0 109.634293z m529.739798-2.901281a51.949998 51.949998 0 0 0 0-103.831731H447.036561a51.949998 51.949998 0 0 0 0 103.831731h341.531986z m-583.669494 183.565762v3.447405a54.134492 54.134492 0 1 0 53.929696-54.783014 52.632653 52.632653 0 0 0-53.929696 51.335609z m242.137508-48.468461a51.949998 51.949998 0 0 0 0 103.865864h341.531986a51.949998 51.949998 0 0 0 0-103.6952l-341.531986-0.136531z"  horiz-adv-x="1058" />

    
    <glyph glyph-name="n-manage" unicode="&#59197;" d="M170.7008 896c0-0.512-0.273067-0.887467-0.273067-1.365333v-115.8144A95.6416 95.6416 0 0 1 265.898667 683.349333h535.722666a95.6416 95.6416 0 0 1 95.505067 95.505067V893.952A145.749333 145.749333 0 0 0 1024 749.704533v-689.937066l-138.922667 139.400533c4.096 14.848 6.9632 29.764267 8.8064 44.612267 2.184533 14.062933 2.184533 26.760533 2.184534 37.102933a312.32 312.32 0 0 1-311.637334 312.32 309.930667 309.930667 0 0 1-70.894933-8.704l-1.979733-0.375467a73.147733 73.147733 0 0 1-38.912-124.654933l74.990933-72.704-64.512-60.996267-82.295467 70.587734a73.659733 73.659733 0 0 1-71.543466 13.6192 73.386667 73.386667 0 0 1-47.8208-54.784l-0.750934-3.652267c-4.4032-20.0704-7.031467-40.448-7.8848-60.928a311.432533 311.432533 0 0 1 88.576-226.679467 307.780267 307.780267 0 0 1 222.993067-94.651733 311.637333 311.637333 0 0 1 99.771733 16.247467L797.764267-128H146.295467A146.295467 146.295467 0 0 0 0 18.29546700000003V749.704533A146.295467 146.295467 0 0 0 146.295467 896H170.666667z m413.696-375.944533a239.172267 239.172267 0 0 0 238.523733-239.172267c0-8.8064 0-18.295467-1.536-27.067733a258.048 258.048 0 0 0-20.48-73.898667l213.162667-213.845333a145.408 145.408 0 0 0-114.9952-91.886934l-198.314667 198.212267a240.059733 240.059733 0 0 0-116.360533-29.969067 235.690667 235.690667 0 0 0-170.3936 72.3968 238.455467 238.455467 0 0 0-68.027733 172.612267 280.576 280.576 0 0 0 6.587733 49.7664l0.785067 3.652267 101.614933-87.04c7.850667-7.236267 18.193067-11.229867 28.8768-11.127467 11.264 0 22.084267 4.232533 30.378667 11.844267l107.554133 101.6832c8.226133 8.123733 12.936533 19.1488 13.1072 30.72 0 10.9568-4.4032 21.947733-13.1072 29.969066l-98.065067 95.095467 4.369067 0.7168a242.653867 242.653867 0 0 0 56.32 7.338667zM823.432533 896l0.580267-1.365333v-115.8144a22.391467 22.391467 0 0 0-22.357333-22.391467H716.8V896h106.632533z m-179.780266 0v-139.4688H265.9328a22.391467 22.391467 0 0 0-22.357333 22.357333V894.6688c0 0.512 0.512 0.750933 0.580266 1.3312h399.496534z"  horiz-adv-x="1024" />

    
    <glyph glyph-name="n-peoManage" unicode="&#59198;" d="M318.8736 535.1765330000001c18.432 0 36.932267-13.5168 36.932267-33.792v-176.469333C220.3648 216.746667 153.258667 98.30399999999997 184.046933-97.79200000000003H19.182933V504.0128c0 20.309333 18.500267 40.618667 36.9664 40.618667l262.724267-9.454934z m125.166933 266.410667c-73.898667-114.9952-36.9664-196.130133-36.9664-196.130133s-30.754133 47.342933-43.076266 0c-12.288-47.342933 6.144-67.584 55.3984-121.719467 49.2544-60.859733 123.153067-148.753067 178.551466-169.0624 55.432533-20.2752 153.941333 87.927467 215.517867 155.5456 55.3984 67.618133 55.3984 108.202667 36.932267 135.236267-18.466133 27.067733-24.644267 0-24.644267 0s18.466133 121.719467-36.932267 196.130133c-86.186667 121.719467-277.060267 114.961067-344.7808 0z m36.932267-507.221333c-166.229333-60.8256-252.416-182.545067-252.416-358.4 0-67.584 757.282133-101.376 775.748267 40.618666 12.322133 135.236267-215.483733 378.6752-240.093867 311.057067l-86.2208-202.888533-30.788267 87.927466s0 13.5168 18.466134 47.342934c12.322133 33.792 18.500267 47.342933-12.288 67.584-30.788267 13.550933-67.720533 6.792533-80.042667-27.0336-12.288-33.792 18.432-47.3088 18.432-67.584 0-20.309333-18.432-108.202667-18.432-108.202667s0-27.067733-30.788267 40.5504c-30.788267 67.618133-61.576533 169.0624-61.576533 169.0624zM117.76 362.05226700000003v-33.792h172.373333v33.792H117.76z m0 60.859733v-33.792h172.373333v33.792H117.76z"  horiz-adv-x="1024" />

    
    <glyph glyph-name="n-rootAnaly" unicode="&#59199;" d="M1228.8 128v-25.6c0-43.54048-24.04352-76.8-69.46816-76.8H641.10592v-102.4h277.83168c16.01536 0 26.70592-10.24 26.70592-25.6s-10.6496-25.6-26.70592-25.6H331.24352c-16.01536 0-26.70592 10.24-26.70592 25.6s10.6496 25.6 26.70592 25.6h256.4096v102.4H90.84928C45.4656 25.600000000000023 0 58.859519999999975 0 102.39999999999998v25.6h1228.8zM1159.33184 896C1202.09408 896 1228.8 862.69952 1228.8 819.2V179.20000000000005H0V819.2C0 862.69952 45.42464 896 90.80832 896z m-308.34688-411.48416a12.53376 12.53376 0 0 1-12.77952-12.24704l-0.04096-14.09024c-57.67168-5.85728-103.17824-50.62656-107.43808-106.41408h-14.336l-2.8672-0.32768a12.36992 12.36992 0 0 1-9.91232-11.96032c0-6.7584 5.7344-12.24704 12.82048-12.24704h15.1552c7.65952-52.18304 51.6096-93.14304 106.57792-98.75456v-14.09024l0.36864-2.82624a12.6976 12.6976 0 0 1 12.45184-9.4208 12.6976 12.6976 0 0 1 12.45184 9.4208l0.32768 2.8672v14.04928c54.96832 5.57056 98.9184 46.57152 106.57792 98.7136l15.19616 0.04096 2.94912 0.32768a12.36992 12.36992 0 0 1 9.8304 11.91936c0 6.79936-5.7344 12.288-12.77952 12.288h-14.336c-4.25984 55.78752-49.80736 100.5568-107.43808 106.45504v14.04928l-0.32768 2.82624a12.57472 12.57472 0 0 1-9.50272 9.09312z m12.77952-51.03616c43.49952-5.65248 77.6192-39.48544 81.75616-81.67424l-23.87968-0.04096-2.94912-0.32768a12.36992 12.36992 0 0 1-9.8304-11.96032c0-6.7584 5.7344-12.24704 12.77952-12.24704h22.77376c-7.20896-38.62528-39.81312-68.8128-80.65024-74.1376v22.528l-0.32768 2.8672a12.57472 12.57472 0 0 1-9.50272 9.09312l-2.94912 0.32768-2.94912-0.32768a12.36992 12.36992 0 0 1-9.8304-11.96032v-22.528c-40.87808 5.3248-73.48224 35.51232-80.6912 74.1376h22.81472l2.94912 0.32768a12.36992 12.36992 0 0 1 9.8304 11.91936c0 6.79936-5.7344 12.288-12.77952 12.288h-23.92064c4.13696 42.1888 38.2976 76.06272 81.75616 81.7152v-22.44608l0.36864-2.8672a12.6976 12.6976 0 0 1 12.45184-9.4208 12.6976 12.6976 0 0 1 12.45184 9.4208l0.32768 2.8672zM619.3152 831.0374400000001c-47.59552 0-86.58944-35.38944-89.86624-80.19968l-0.24576-6.144 0.24576-6.144c2.8672-38.78912 32.3584-70.4512 71.14752-78.31552v-62.95552h-183.33696c-24.69888 0-44.76928-19.2512-44.76928-42.92608v-155.60704c-24.28928-6.5536-42.51648-26.86976-44.97408-51.6096l-0.28672-5.7344 0.28672-5.7344c3.03104-30.22848 29.57312-53.8624 61.89056-53.8624 32.31744 0 58.85952 23.63392 61.8496 53.8624l0.32768 5.7344-0.28672 5.85728a60.12928 60.12928 0 0 1-40.38656 50.05312V554.3936c0 3.35872 2.82624 6.144 6.3488 6.144h183.33696v-162.44736a60.2112 60.2112 0 0 1-42.63936-50.91328l-0.28672-5.7344 0.28672-5.7344c2.99008-30.18752 29.53216-53.82144 61.8496-53.82144s58.85952 23.63392 61.8496 53.82144l0.28672 5.7344-0.28672 5.7344a60.2112 60.2112 0 0 1-42.63936 50.91328L638.976 560.5376h183.9104l2.00704-0.32768a6.144 6.144 0 0 0 4.38272-5.81632v-54.76352h38.37952V554.3526400000001c0 23.63392-20.0704 42.88512-44.81024 42.88512H638.976l0.08192 63.20128c38.25664 8.192 67.29728 39.64928 70.16448 78.06976l0.2048 6.144-0.2048 6.18496c-3.31776 44.81024-42.27072 80.19968-89.86624 80.19968z m232.12032-456.33536a31.29344 31.29344 0 0 1-31.41632-26.25536l-0.28672-4.096 0.28672-4.13696a31.29344 31.29344 0 0 1 31.41632-26.25536 31.29344 31.29344 0 0 1 31.41632 26.2144l0.28672 4.13696-0.28672 4.096a31.29344 31.29344 0 0 1-31.41632 26.29632z"  horiz-adv-x="1228" />

    
    <glyph glyph-name="n-troubleshoot" unicode="&#59200;" d="M990.20734 466.090271h-106.393529a50.7221 50.7221 0 0 0-45.124237 32.494911l-14.472523 34.406377a50.039433 50.039433 0 0 0 8.499194 54.715697l75.673549 75.707683a34.269844 34.269844 0 0 1 0 48.469301l-67.891154 67.925288a34.269844 34.269844 0 0 1-48.469301 0l-76.322083-76.219682a50.6197 50.6197 0 0 0-54.920497-8.806395l-33.689577 13.823991a50.380766 50.380766 0 0 0-32.597312 44.885304V861.90014A34.099177 34.099177 0 0 1 560.298293 895.999317H464.213024c-18.807454-0.1024-33.996777-15.291723-34.201577-34.099177v-108.100195a50.5173 50.5173 0 0 0-32.597312-44.885303l-33.621311-13.926391c-18.397854-8.191995-40.00424-4.778663-54.886363 8.806394L232.584378 780.014328A34.133311 34.133311 0 0 1 184.319877 780.184995l-0.170666-0.170667-67.925288-67.925288a34.133311 34.133311 0 0 1-0.2048-48.298635l0.2048-0.204799 75.707682-75.67355c13.619191-14.916257 16.998389-36.420242 8.533328-54.715697l-14.43839-34.406377c-7.304528-18.773321-24.985583-31.607446-45.192504-32.494912H34.201577A34.303977 34.303977 0 0 1 0 432.127627v-96.08527c0.1024-18.807454 15.394123-33.996777 34.201577-34.13331h105.301263a50.0053 50.0053 0 0 0 44.714637-32.665578l14.574924-35.908243c8.191995-18.500254 4.710397-40.00424-8.874661-54.886364L115.882589 104.44784500000003a34.474644 34.474644 0 0 1 0-48.469301l67.891155-67.925288a34.474644 34.474644 0 0 1 48.469301 0l73.420751 73.386618a50.2101 50.2101 0 0 0 54.818097 8.533327l36.590909-15.291723c18.909854-7.202129 31.709846-24.814917 32.597312-45.021836v-103.492198c0.1024-18.773321 15.291723-33.996777 34.201577-34.133311h96.085269c18.807454 0.136533 33.996777 15.35999 34.201577 34.133311v103.184998a50.380766 50.380766 0 0 0 32.597312 44.919436l26.726382 11.093326-51.814365 51.814366a278.357148 278.357148 0 1 0 175.103883 176.469216l51.985032-51.882633 11.093326 27.101849c7.031462 18.909854 24.610117 31.812245 44.714637 32.699712h105.301263c18.773321 0.1024 33.996777 15.291723 34.201577 34.099177v96.290069a34.406377 34.406377 0 0 1-34.201577 34.133311h0.3072z m-267.605155-194.798804a29.832513 29.832513 0 0 0-9.89866 36.795709 202.239865 202.239865 0 0 1-76.492749 239.82064 185.753476 185.753476 0 0 1-167.423889 26.589849c23.108251-26.999449 48.913034-49.5957 73.318352-73.727951a98.850067 98.850067 0 0 0 2.901331-150.766833 100.0106 100.0106 0 0 0-149.5039 4.198398c-23.995717 24.200517-47.206369 49.2885-70.690087 74.001017l-8.533327-5.017597a202.547065 202.547065 0 0 1 59.118894-193.979604 195.17427 195.17427 0 0 1 208.588661-46.489569 36.010643 36.010643 0 0 0 44.03197-10.513059c58.197295-59.016494 163.498558-159.095361 222.788118-217.087856 23.278918-26.623982 63.795157-29.218114 90.385007-5.905062 0.6144 0.477866 1.194666 1.092266 1.809065 1.604265a65.67249 65.67249 0 0 1 3.310931 104.277264c-58.606894 58.606894-164.181224 158.310294-223.504917 216.302789v-0.1024h-0.2048z m171.007886-295.49207a32.597312 32.597312 0 1 0 32.085312 33.109312v-0.6144a32.494912 32.494912 0 0 0-32.085312-32.494912z"  horiz-adv-x="1024" />

    
    </font>
</defs>
</svg>
