<?xml version="1.0" encoding="utf-8"?>
<!-- Generator: Adobe Illustrator 23.0.0, SVG Export Plug-In . SVG Version: 6.00 Build 0)  -->
<svg version="1.1" id="组_30_1_" xmlns="http://www.w3.org/2000/svg" xmlns:xlink="http://www.w3.org/1999/xlink" x="0px" y="0px"
	 viewBox="0 0 501 165" style="enable-background:new 0 0 501 165;" xml:space="preserve">
<style type="text/css">
	.st0{opacity:0.2196;}
	.st1{fill:#021446;}
	.st2{fill:#0492FF;}
	.st3{fill:none;stroke:#00D2FF;stroke-miterlimit:100;}
</style>
<g id="圆角矩形_1" class="st0">
	<g>
		<path class="st1" d="M491.5,1.78H9.5c-5.52,0-10,4.48-10,10v143.41c0,5.52,4.48,10,10,10h482c5.52,0,10-4.48,10-10V11.78
			C501.5,6.26,497.02,1.78,491.5,1.78z"/>
	</g>
</g>
<g id="圆角矩形_1_拷贝">
	<g>
		<path class="st2" d="M491.5,0.78h-0.05v1h0.05V0.78L491.5,0.78z M488.45,0.78h-0.05v1h0.05V0.78L488.45,0.78z M488.34,0.78h-3v1h3
			V0.78L488.34,0.78z M485.28,0.78h-0.06v1h0.06V0.78L485.28,0.78z M482.22,0.78h-0.05v1h0.05V0.78L482.22,0.78z M482.11,0.78h-3v1
			h3V0.78L482.11,0.78z M479.06,0.78h-0.05v1h0.05V0.78L479.06,0.78z M476.01,0.78h-0.05v1h0.05V0.78L476.01,0.78z M475.9,0.78h-3v1
			h3V0.78L475.9,0.78z M472.84,0.78h-0.06v1h0.06V0.78L472.84,0.78z M469.78,0.78h-0.05v1h0.05V0.78L469.78,0.78z M469.67,0.78h-3v1
			h3V0.78L469.67,0.78z M466.62,0.78h-0.05v1h0.05V0.78L466.62,0.78z M463.57,0.78h-0.05v1h0.05V0.78L463.57,0.78z M463.46,0.78h-3
			v1h3V0.78L463.46,0.78z M460.4,0.78h-0.06v1h0.06V0.78L460.4,0.78z M457.34,0.78h-0.05v1h0.05V0.78L457.34,0.78z M457.23,0.78h-3
			v1h3V0.78L457.23,0.78z M454.18,0.78h-0.05v1h0.05V0.78L454.18,0.78z M451.13,0.78h-0.05v1h0.05V0.78L451.13,0.78z M451.02,0.78
			h-3v1h3V0.78L451.02,0.78z M447.96,0.78h-0.05v1h0.05V0.78L447.96,0.78z M444.91,0.78h-0.06v1h0.06V0.78L444.91,0.78z
			 M444.79,0.78h-3v1h3V0.78L444.79,0.78z M441.74,0.78h-0.05v1h0.05V0.78L441.74,0.78z M438.68,0.78h-0.05v1h0.05V0.78L438.68,0.78
			z M438.58,0.78h-3v1h3V0.78L438.58,0.78z M435.52,0.78h-0.05v1h0.05V0.78L435.52,0.78z M432.47,0.78h-0.06v1h0.06V0.78
			L432.47,0.78z M432.35,0.78h-3v1h3V0.78L432.35,0.78z M429.3,0.78h-0.05v1h0.05V0.78L429.3,0.78z M426.24,0.78h-0.05v1h0.05V0.78
			L426.24,0.78z M426.14,0.78h-3v1h3V0.78L426.14,0.78z M423.08,0.78h-0.05v1h0.05V0.78L423.08,0.78z M420.03,0.78h-0.06v1h0.06
			V0.78L420.03,0.78z M419.91,0.78h-3v1h3V0.78L419.91,0.78z M416.86,0.78h-0.05v1h0.05V0.78L416.86,0.78z M413.8,0.78h-0.05v1h0.05
			V0.78L413.8,0.78z M413.7,0.78h-3v1h3V0.78L413.7,0.78z M410.64,0.78h-0.05v1h0.05V0.78L410.64,0.78z M407.59,0.78h-0.05v1h0.05
			V0.78L407.59,0.78z M407.47,0.78h-3v1h3V0.78L407.47,0.78z M404.42,0.78h-0.05v1h0.05V0.78L404.42,0.78z M401.36,0.78h-0.05v1
			h0.05V0.78L401.36,0.78z M401.26,0.78h-3v1h3V0.78L401.26,0.78z M398.2,0.78h-0.05v1h0.05V0.78L398.2,0.78z M395.15,0.78h-0.05v1
			h0.05V0.78L395.15,0.78z M395.03,0.78h-3v1h3V0.78L395.03,0.78z M391.98,0.78h-0.05v1h0.05V0.78L391.98,0.78z M388.92,0.78h-0.05
			v1h0.05V0.78L388.92,0.78z M388.82,0.78h-3v1h3V0.78L388.82,0.78z M385.76,0.78h-0.05v1h0.05V0.78L385.76,0.78z M382.71,0.78
			h-0.05v1h0.05V0.78L382.71,0.78z M382.59,0.78h-3v1h3V0.78L382.59,0.78z M379.54,0.78h-0.05v1h0.05V0.78L379.54,0.78z
			 M376.48,0.78h-0.05v1h0.05V0.78L376.48,0.78z M376.38,0.78h-3v1h3V0.78L376.38,0.78z M373.32,0.78h-0.05v1h0.05V0.78L373.32,0.78
			z M370.27,0.78h-0.05v1h0.05V0.78L370.27,0.78z M370.16,0.78h-3v1h3V0.78L370.16,0.78z M367.1,0.78h-0.05v1h0.05V0.78L367.1,0.78z
			 M364.04,0.78h-0.05v1h0.05V0.78L364.04,0.78z M363.93,0.78h-3v1h3V0.78L363.93,0.78z M360.88,0.78h-0.05v1h0.05V0.78L360.88,0.78
			z M357.83,0.78h-0.05v1h0.05V0.78L357.83,0.78z M357.72,0.78h-3v1h3V0.78L357.72,0.78z M354.66,0.78h-0.05v1h0.05V0.78
			L354.66,0.78z M351.6,0.78h-0.05v1h0.05V0.78L351.6,0.78z M351.49,0.78h-3v1h3V0.78L351.49,0.78z M348.44,0.78h-0.05v1h0.05V0.78
			L348.44,0.78z M345.39,0.78h-0.05v1h0.05V0.78L345.39,0.78z M345.28,0.78h-3v1h3V0.78L345.28,0.78z M342.22,0.78h-0.05v1h0.05
			V0.78L342.22,0.78z M339.16,0.78h-0.05v1h0.05V0.78L339.16,0.78z M339.05,0.78h-3v1h3V0.78L339.05,0.78z M336,0.78h-0.05v1H336
			V0.78L336,0.78z M332.95,0.78h-0.05v1h0.05V0.78L332.95,0.78z M332.84,0.78h-3v1h3V0.78L332.84,0.78z M329.78,0.78h-0.06v1h0.06
			V0.78L329.78,0.78z M326.72,0.78h-0.05v1h0.05V0.78L326.72,0.78z M326.61,0.78h-3v1h3V0.78L326.61,0.78z M323.56,0.78h-0.05v1
			h0.05V0.78L323.56,0.78z M320.51,0.78h-0.05v1h0.05V0.78L320.51,0.78z M320.4,0.78h-3v1h3V0.78L320.4,0.78z M317.34,0.78h-0.06v1
			h0.06V0.78L317.34,0.78z M314.28,0.78h-0.05v1h0.05V0.78L314.28,0.78z M314.17,0.78h-3v1h3V0.78L314.17,0.78z M311.12,0.78h-0.05
			v1h0.05V0.78L311.12,0.78z M308.07,0.78h-0.05v1h0.05V0.78L308.07,0.78z M307.96,0.78h-3v1h3V0.78L307.96,0.78z M304.9,0.78h-0.06
			v1h0.06V0.78L304.9,0.78z M301.84,0.78h-0.05v1h0.05V0.78L301.84,0.78z M301.73,0.78h-3v1h3V0.78L301.73,0.78z M298.68,0.78h-0.05
			v1h0.05V0.78L298.68,0.78z M295.63,0.78h-0.05v1h0.05V0.78L295.63,0.78z M295.52,0.78h-3v1h3V0.78L295.52,0.78z M292.46,0.78
			h-0.05v1h0.05V0.78L292.46,0.78z M289.41,0.78h-0.06v1h0.06V0.78L289.41,0.78z M289.29,0.78h-3v1h3V0.78L289.29,0.78z
			 M286.24,0.78h-0.05v1h0.05V0.78L286.24,0.78z M283.18,0.78h-0.05v1h0.05V0.78L283.18,0.78z M283.08,0.78h-3v1h3V0.78L283.08,0.78
			z M280.02,0.78h-0.05v1h0.05V0.78L280.02,0.78z M276.97,0.78h-0.06v1h0.06V0.78L276.97,0.78z M276.85,0.78h-3v1h3V0.78
			L276.85,0.78z M273.8,0.78h-0.05v1h0.05V0.78L273.8,0.78z M270.74,0.78h-0.05v1h0.05V0.78L270.74,0.78z M270.64,0.78h-3v1h3V0.78
			L270.64,0.78z M267.58,0.78h-0.05v1h0.05V0.78L267.58,0.78z M264.53,0.78h-0.06v1h0.06V0.78L264.53,0.78z M264.41,0.78h-3v1h3
			V0.78L264.41,0.78z M261.36,0.78h-0.05v1h0.05V0.78L261.36,0.78z M258.3,0.78h-0.05v1h0.05V0.78L258.3,0.78z M258.2,0.78h-3v1h3
			V0.78L258.2,0.78z M255.14,0.78h-0.05v1h0.05V0.78L255.14,0.78z M252.09,0.78h-0.05v1h0.05V0.78L252.09,0.78z M251.97,0.78h-3v1h3
			V0.78L251.97,0.78z M248.92,0.78h-0.05v1h0.05V0.78L248.92,0.78z M245.86,0.78h-0.05v1h0.05V0.78L245.86,0.78z M245.76,0.78h-3v1
			h3V0.78L245.76,0.78z M242.7,0.78h-0.05v1h0.05V0.78L242.7,0.78z M239.65,0.78h-0.05v1h0.05V0.78L239.65,0.78z M239.53,0.78h-3v1
			h3V0.78L239.53,0.78z M236.48,0.78h-0.05v1h0.05V0.78L236.48,0.78z M233.42,0.78h-0.05v1h0.05V0.78L233.42,0.78z M233.32,0.78h-3
			v1h3V0.78L233.32,0.78z M230.26,0.78h-0.05v1h0.05V0.78L230.26,0.78z M227.21,0.78h-0.05v1h0.05V0.78L227.21,0.78z M227.09,0.78
			h-3v1h3V0.78L227.09,0.78z M224.04,0.78h-0.05v1h0.05V0.78L224.04,0.78z M220.98,0.78h-0.05v1h0.05V0.78L220.98,0.78z
			 M220.88,0.78h-3v1h3V0.78L220.88,0.78z M217.82,0.78h-0.05v1h0.05V0.78L217.82,0.78z M214.77,0.78h-0.05v1h0.05V0.78L214.77,0.78
			z M214.66,0.78h-3v1h3V0.78L214.66,0.78z M211.6,0.78h-0.05v1h0.05V0.78L211.6,0.78z M208.54,0.78h-0.05v1h0.05V0.78L208.54,0.78z
			 M208.43,0.78h-3v1h3V0.78L208.43,0.78z M205.38,0.78h-0.05v1h0.05V0.78L205.38,0.78z M202.33,0.78h-0.05v1h0.05V0.78L202.33,0.78
			z M202.22,0.78h-3v1h3V0.78L202.22,0.78z M199.16,0.78h-0.05v1h0.05V0.78L199.16,0.78z M196.1,0.78h-0.05v1h0.05V0.78L196.1,0.78z
			 M195.99,0.78h-3v1h3V0.78L195.99,0.78z M192.94,0.78h-0.05v1h0.05V0.78L192.94,0.78z M189.89,0.78h-0.05v1h0.05V0.78L189.89,0.78
			z M189.78,0.78h-3v1h3V0.78L189.78,0.78z M186.72,0.78h-0.05v1h0.05V0.78L186.72,0.78z M183.66,0.78h-0.05v1h0.05V0.78
			L183.66,0.78z M183.55,0.78h-3v1h3V0.78L183.55,0.78z M180.5,0.78h-0.05v1h0.05V0.78L180.5,0.78z M177.45,0.78h-0.05v1h0.05V0.78
			L177.45,0.78z M177.34,0.78h-3v1h3V0.78L177.34,0.78z M174.28,0.78h-0.06v1h0.06V0.78L174.28,0.78z M171.22,0.78h-0.05v1h0.05
			V0.78L171.22,0.78z M171.11,0.78h-3v1h3V0.78L171.11,0.78z M168.06,0.78h-0.05v1h0.05V0.78L168.06,0.78z M165.01,0.78h-0.05v1
			h0.05V0.78L165.01,0.78z M164.9,0.78h-3v1h3V0.78L164.9,0.78z M161.84,0.78h-0.06v1h0.06V0.78L161.84,0.78z M158.78,0.78h-0.05v1
			h0.05V0.78L158.78,0.78z M158.67,0.78h-3v1h3V0.78L158.67,0.78z M155.62,0.78h-0.05v1h0.05V0.78L155.62,0.78z M152.57,0.78h-0.05
			v1h0.05V0.78L152.57,0.78z M152.46,0.78h-3v1h3V0.78L152.46,0.78z M149.4,0.78h-0.06v1h0.06V0.78L149.4,0.78z M146.34,0.78h-0.05
			v1h0.05V0.78L146.34,0.78z M146.23,0.78h-3v1h3V0.78L146.23,0.78z M143.18,0.78h-0.05v1h0.05V0.78L143.18,0.78z M140.13,0.78
			h-0.05v1h0.05V0.78L140.13,0.78z M140.02,0.78h-3v1h3V0.78L140.02,0.78z M136.96,0.78h-0.05v1h0.05V0.78L136.96,0.78z
			 M133.91,0.78h-0.06v1h0.06V0.78L133.91,0.78z M133.79,0.78h-3v1h3V0.78L133.79,0.78z M130.74,0.78h-0.05v1h0.05V0.78L130.74,0.78
			z M127.68,0.78h-0.05v1h0.05V0.78L127.68,0.78z M127.58,0.78h-3v1h3V0.78L127.58,0.78z M124.52,0.78h-0.05v1h0.05V0.78
			L124.52,0.78z M121.47,0.78h-0.06v1h0.06V0.78L121.47,0.78z M121.35,0.78h-3v1h3V0.78L121.35,0.78z M118.3,0.78h-0.05v1h0.05V0.78
			L118.3,0.78z M115.24,0.78h-0.05v1h0.05V0.78L115.24,0.78z M115.14,0.78h-3v1h3V0.78L115.14,0.78z M112.08,0.78h-0.05v1h0.05V0.78
			L112.08,0.78z M109.03,0.78h-0.06v1h0.06V0.78L109.03,0.78z M108.91,0.78h-3v1h3V0.78L108.91,0.78z M105.86,0.78h-0.05v1h0.05
			V0.78L105.86,0.78z M102.8,0.78h-0.05v1h0.05V0.78L102.8,0.78z M102.7,0.78h-3v1h3V0.78L102.7,0.78z M99.64,0.78h-0.05v1h0.05
			V0.78L99.64,0.78z M96.59,0.78h-0.05v1h0.05V0.78L96.59,0.78z M96.47,0.78h-3v1h3V0.78L96.47,0.78z M93.42,0.78h-0.05v1h0.05V0.78
			L93.42,0.78z M90.36,0.78h-0.05v1h0.05V0.78L90.36,0.78z M90.26,0.78h-3v1h3V0.78L90.26,0.78z M87.2,0.78h-0.05v1h0.05V0.78
			L87.2,0.78z M84.15,0.78h-0.05v1h0.05V0.78L84.15,0.78z M84.03,0.78h-3v1h3V0.78L84.03,0.78z M80.98,0.78h-0.05v1h0.05V0.78
			L80.98,0.78z M77.92,0.78h-0.05v1h0.05V0.78L77.92,0.78z M77.82,0.78h-3v1h3V0.78L77.82,0.78z M74.76,0.78h-0.05v1h0.05V0.78
			L74.76,0.78z M71.71,0.78h-0.05v1h0.05V0.78L71.71,0.78z M71.59,0.78h-3v1h3V0.78L71.59,0.78z M68.54,0.78h-0.05v1h0.05V0.78
			L68.54,0.78z M65.48,0.78h-0.05v1h0.05V0.78L65.48,0.78z M65.38,0.78h-3v1h3V0.78L65.38,0.78z M62.32,0.78h-0.05v1h0.05V0.78
			L62.32,0.78z M59.27,0.78h-0.05v1h0.05V0.78L59.27,0.78z M59.16,0.78h-3v1h3V0.78L59.16,0.78z M56.1,0.78h-0.05v1h0.05V0.78
			L56.1,0.78z M53.04,0.78h-0.05v1h0.05V0.78L53.04,0.78z M52.93,0.78h-3v1h3V0.78L52.93,0.78z M49.88,0.78h-0.05v1h0.05V0.78
			L49.88,0.78z M46.83,0.78h-0.05v1h0.05V0.78L46.83,0.78z M46.72,0.78h-3v1h3V0.78L46.72,0.78z M43.66,0.78H43.6v1h0.05V0.78
			L43.66,0.78z M40.61,0.78h-0.06v1h0.06V0.78L40.61,0.78z M40.49,0.78h-3v1h3V0.78L40.49,0.78z M37.44,0.78h-0.05v1h0.05V0.78
			L37.44,0.78z M34.39,0.78h-0.06v1h0.06V0.78L34.39,0.78z M34.27,0.78h-3v1h3V0.78L34.27,0.78z M31.22,0.78h-0.05v1h0.05V0.78
			L31.22,0.78z M28.17,0.78h-0.06v1h0.06V0.78L28.17,0.78z M28.05,0.78h-3v1h3V0.78L28.05,0.78z M25,0.78h-0.05v1H25V0.78L25,0.78z
			 M21.95,0.78h-0.05v1h0.05V0.78L21.95,0.78z M21.83,0.78h-3v1h3V0.78L21.83,0.78z M18.78,0.78h-0.05v1h0.05V0.78L18.78,0.78z
			 M15.73,0.78h-0.05v1h0.05V0.78L15.73,0.78z M15.61,0.78h-3v1h3V0.78L15.61,0.78z M12.56,0.78h-0.05v1h0.05V0.78L12.56,0.78z
			 M9.51,0.78L9.51,0.78l-0.06,0l0,1c0.01,0,0.03,0,0.05,0c0,0,0,0,0,0l0,0c0.01,0,0.01,0,0.01,0V0.78L9.51,0.78z M9.38,0.78
			C8.28,0.79,7.19,0.97,6.14,1.3l0.31,0.95c0.2-0.06,0.4-0.12,0.6-0.17c0,0,0,0,0,0c0.01,0,0.01,0,0.02-0.01c0,0,0,0,0,0
			c0.01,0,0.01,0,0.02-0.01c0,0,0,0,0,0c0.01,0,0.01,0,0.02-0.01c0,0,0,0,0,0c0.01,0,0.01,0,0.02,0c0,0,0,0,0,0
			c0.01,0,0.01,0,0.02,0c0,0,0,0,0,0c0.01,0,0.01,0,0.02,0c0,0,0,0,0.01,0c0.01,0,0.01,0,0.02,0c0,0,0,0,0.01,0
			c0.01,0,0.01,0,0.01,0c0,0,0,0,0.01,0c0.01,0,0.01,0,0.02,0c0,0,0,0,0.01,0c0,0,0.01,0,0.01,0c0,0,0.01,0,0.01,0
			c0.01,0,0.01,0,0.02,0c0,0,0,0,0.01,0c0,0,0.01,0,0.01,0c0,0,0.01,0,0.01,0c0,0,0.01,0,0.01,0c0,0,0.01,0,0.01,0
			c0,0,0.01,0,0.01,0c0,0,0.01,0,0.01,0c0,0,0.01,0,0.01,0c0.01,0,0.01,0,0.02,0c0,0,0.01,0,0.01,0c0,0,0.01,0,0.01,0
			c0,0,0,0,0.01,0c0.01,0,0.01,0,0.02,0c0,0,0,0,0.01,0c0,0,0.01,0,0.01,0c0,0,0,0,0,0c0.01,0,0.02,0,0.02-0.01c0,0,0,0,0,0
			c0.55-0.11,1.12-0.18,1.71-0.2c0,0,0,0,0,0c0,0,0.01,0,0.01,0c0,0,0,0,0.01,0c0.01,0,0.01,0,0.02,0c0,0,0.01,0,0.01,0
			c0,0,0.01,0,0.01,0c0,0,0.01,0,0.01,0c0,0,0.01,0,0.01,0c0.01,0,0.01,0,0.02,0c0,0,0,0,0.01,0c0.01,0,0.01,0,0.02,0c0,0,0,0,0,0
			c0.01,0,0.01,0,0.02,0c0,0,0,0,0,0c0.02,0,0.03,0,0.05,0l0,0L9.38,0.78L9.38,0.78z M6.08,1.32L6.02,1.34l0.32,0.95
			c0.02-0.01,0.03-0.01,0.05-0.02c0,0,0,0,0,0L6.08,1.32L6.08,1.32z M3.09,2.84L3.05,2.87l0.59,0.81c0,0,0.01,0,0.01-0.01
			c0.01,0,0.01-0.01,0.02-0.01l0,0c0,0,0,0,0.01,0c0,0,0.01,0,0.01-0.01L3.09,2.84L3.09,2.84z M3,2.91
			C2.11,3.56,1.32,4.34,0.67,5.23l0.8,0.6c0.6-0.8,1.31-1.51,2.12-2.11L3,2.91L3,2.91z M0.63,5.27L0.59,5.32L1.4,5.91
			c0,0,0-0.01,0.01-0.01c0-0.01,0.01-0.01,0.01-0.02c0-0.01,0.01-0.01,0.01-0.02L0.63,5.27L0.63,5.27z M-0.92,8.24L-0.94,8.3
			l0.95,0.32c0-0.01,0.01-0.02,0.01-0.03c0,0,0,0,0,0c0-0.01,0-0.01,0.01-0.02L-0.92,8.24L-0.92,8.24z M-0.96,8.36
			C-1.3,9.4-1.48,10.49-1.5,11.6l1,0.02c0-0.15,0.01-0.3,0.02-0.45c0,0,0,0,0,0c0-0.01,0-0.03,0-0.05c0,0,0,0,0,0
			c0-0.01,0-0.01,0-0.02c0,0,0,0,0,0c0-0.01,0-0.01,0-0.02c0,0,0,0,0-0.01c0-0.01,0-0.01,0-0.02c0,0,0-0.01,0-0.01
			c0,0,0-0.01,0-0.01c0,0,0-0.01,0-0.01c0,0,0-0.01,0-0.01c0-0.01,0-0.01,0-0.02c0,0,0-0.01,0-0.01c0,0,0-0.01,0-0.01c0,0,0,0,0,0
			c0-0.01,0-0.02,0-0.03c0,0,0,0,0,0c0-0.01,0-0.01,0-0.01l0,0c0-0.01,0-0.02,0-0.03c0,0,0,0,0,0c0.07-0.77,0.22-1.51,0.45-2.22
			L-0.96,8.36L-0.96,8.36z M-1.5,11.66l0,0.06l1,0.01c0-0.02,0-0.04,0-0.06L-1.5,11.66L-1.5,11.66z M-0.5,14.73h-1v0.05h1V14.73
			L-0.5,14.73z M-0.5,14.84h-1v3h1V14.84L-0.5,14.84z M-0.5,17.89h-1v0.05h1V17.89L-0.5,17.89z M-0.5,20.95h-1V21h1V20.95
			L-0.5,20.95z M-0.5,21.06h-1v3h1V21.06L-0.5,21.06z M-0.5,24.11h-1v0.05h1V24.11L-0.5,24.11z M-0.5,27.17h-1v0.05h1V27.17
			L-0.5,27.17z M-0.5,27.28h-1v3h1V27.28L-0.5,27.28z M-0.5,30.33h-1v0.06h1V30.33L-0.5,30.33z M-0.5,33.39h-1v0.05h1V33.39
			L-0.5,33.39z M-0.5,33.5h-1v3h1V33.5L-0.5,33.5z M-0.5,36.55h-1v0.06h1V36.55L-0.5,36.55z M-0.5,39.61h-1v0.05h1V39.61L-0.5,39.61
			z M-0.5,39.72h-1v3h1V39.72L-0.5,39.72z M-0.5,42.77h-1v0.06h1V42.77L-0.5,42.77z M-0.5,45.83h-1v0.05h1V45.83L-0.5,45.83z
			 M-0.5,45.94h-1v3h1V45.94L-0.5,45.94z M-0.5,48.99h-1v0.06h1V48.99L-0.5,48.99z M-0.5,52.05h-1v0.05h1V52.05L-0.5,52.05z
			 M-0.5,52.16h-1v3h1V52.16L-0.5,52.16z M-0.5,55.21h-1v0.06h1V55.21L-0.5,55.21z M-0.5,58.27h-1v0.05h1V58.27L-0.5,58.27z
			 M-0.5,58.38h-1v3h1V58.38L-0.5,58.38z M-0.5,61.43h-1v0.06h1V61.43L-0.5,61.43z M-0.5,64.49h-1v0.05h1V64.49L-0.5,64.49z
			 M-0.5,64.6h-1v3h1V64.6L-0.5,64.6z M-0.5,67.65h-1v0.05h1V67.65L-0.5,67.65z M-0.5,70.71h-1v0.06h1V70.71L-0.5,70.71z
			 M-0.5,70.82h-1v3h1V70.82L-0.5,70.82z M-0.5,73.87h-1v0.05h1V73.87L-0.5,73.87z M-0.5,76.93h-1v0.06h1V76.93L-0.5,76.93z
			 M-0.5,77.04h-1v3h1V77.04L-0.5,77.04z M-0.5,80.09h-1v0.05h1V80.09L-0.5,80.09z M-0.5,83.15h-1v0.06h1V83.15L-0.5,83.15z
			 M-0.5,83.26h-1v3h1V83.26L-0.5,83.26z M-0.5,86.31h-1v0.05h1V86.31L-0.5,86.31z M-0.5,89.37h-1v0.06h1V89.37L-0.5,89.37z
			 M-0.5,89.48h-1v3h1V89.48L-0.5,89.48z M-0.5,92.53h-1v0.05h1V92.53L-0.5,92.53z M-0.5,95.59h-1v0.06h1V95.59L-0.5,95.59z
			 M-0.5,95.7h-1v3h1V95.7L-0.5,95.7z M-0.5,98.75h-1v0.05h1V98.75L-0.5,98.75z M-0.5,101.81h-1v0.06h1V101.81L-0.5,101.81z
			 M-0.5,101.92h-1v3h1V101.92L-0.5,101.92z M-0.5,104.97h-1v0.05h1V104.97L-0.5,104.97z M-0.5,108.03h-1v0.05h1V108.03L-0.5,108.03
			z M-0.5,108.14h-1v3h1V108.14L-0.5,108.14z M-0.5,111.19h-1v0.05h1V111.19L-0.5,111.19z M-0.5,114.25h-1v0.05h1V114.25
			L-0.5,114.25z M-0.5,114.36h-1v3h1V114.36L-0.5,114.36z M-0.5,117.41h-1v0.05h1V117.41L-0.5,117.41z M-0.5,120.47h-1v0.05h1
			V120.47L-0.5,120.47z M-0.5,120.58h-1v3h1V120.58L-0.5,120.58z M-0.5,123.63h-1v0.05h1V123.63L-0.5,123.63z M-0.5,126.69h-1v0.05
			h1V126.69L-0.5,126.69z M-0.5,126.8h-1v3h1V126.8L-0.5,126.8z M-0.5,129.85h-1v0.05h1V129.85L-0.5,129.85z M-0.5,132.91h-1v0.05h1
			V132.91L-0.5,132.91z M-0.5,133.02h-1v3h1V133.02L-0.5,133.02z M-0.5,136.07h-1v0.05h1V136.07L-0.5,136.07z M-0.5,139.13h-1v0.05
			h1V139.13L-0.5,139.13z M-0.5,139.24h-1v3h1V139.24L-0.5,139.24z M-0.5,142.29h-1v0.05h1V142.29L-0.5,142.29z M-0.5,145.35h-1
			v0.05h1V145.35L-0.5,145.35z M-0.5,145.46h-1v3h1V145.46L-0.5,145.46z M-0.5,148.51h-1v0.05h1V148.51L-0.5,148.51z M-0.5,151.57
			h-1v0.05h1V151.57L-0.5,151.57z M-0.5,151.68h-1v3h1V151.68L-0.5,151.68z M-0.5,154.73h-1v0.05h1V154.73L-0.5,154.73z
			 M-0.17,157.76l-0.97,0.26l0.02,0.06l0.97-0.26c0,0,0-0.01,0-0.01c0,0,0-0.01,0-0.01c0,0,0,0,0,0c0,0,0-0.01,0-0.01c0,0,0,0,0,0
			C-0.16,157.77-0.17,157.76-0.17,157.76L-0.17,157.76z M-0.14,157.86l-0.96,0.27c0.29,1.06,0.75,2.07,1.34,3l0.84-0.54
			c-0.49-0.75-0.87-1.58-1.14-2.45c0,0,0,0,0,0c0-0.01,0-0.01-0.01-0.02c0,0,0,0,0,0c0-0.01,0-0.01-0.01-0.02c0,0,0,0,0,0
			c0-0.01,0-0.01-0.01-0.02c0,0,0,0,0-0.01c0,0,0-0.01,0-0.01c0,0,0-0.01,0-0.01c0-0.01,0-0.01,0-0.02c0,0,0-0.01,0-0.01
			c0,0,0-0.01,0-0.01c0-0.01,0-0.02-0.01-0.02c0,0,0,0,0,0c0,0,0-0.01,0-0.01c0,0,0,0,0,0C-0.12,157.93-0.13,157.9-0.14,157.86
			L-0.14,157.86z M1.11,160.64l-0.84,0.55l0.03,0.05l0.83-0.55c-0.01-0.01-0.01-0.02-0.02-0.03C1.12,160.65,1.12,160.64,1.11,160.64
			L1.11,160.64z M3.14,162.91l-0.64,0.77l0.05,0.04l0.63-0.77c0,0,0,0-0.01-0.01c-0.01-0.01-0.01-0.01-0.02-0.02
			C3.15,162.92,3.15,162.91,3.14,162.91L3.14,162.91z M3.23,162.98l-0.63,0.78c0.86,0.69,1.82,1.25,2.84,1.66l0.37-0.93
			c-0.73-0.29-1.41-0.66-2.05-1.11c0,0,0,0,0,0c-0.01,0-0.01-0.01-0.02-0.01c0,0,0,0-0.01,0c0,0-0.01,0-0.01-0.01
			c0,0-0.01,0-0.01-0.01c0,0-0.01-0.01-0.01-0.01c0,0-0.01,0-0.01-0.01c0,0,0,0-0.01-0.01c0,0-0.01-0.01-0.01-0.01c0,0,0,0-0.01,0
			c0,0-0.01-0.01-0.01-0.01c0,0,0,0,0,0c-0.01,0-0.01-0.01-0.02-0.01c0,0,0,0,0,0c-0.01-0.01-0.02-0.02-0.04-0.03c0,0,0,0,0,0
			C3.47,163.17,3.35,163.07,3.23,162.98L3.23,162.98z M5.86,164.5l-0.36,0.93l0.06,0.02l0.36-0.93
			C5.89,164.52,5.88,164.51,5.86,164.5L5.86,164.5z M8.83,165.17l-0.07,1l0.06,0l0.06-1C8.87,165.17,8.85,165.17,8.83,165.17
			L8.83,165.17z M8.94,165.17l-0.06,1c0.2,0.01,0.41,0.02,0.62,0.02h2.44v-1H9.5c-0.01,0-0.01,0-0.02,0c0,0-0.01,0-0.01,0
			s-0.01,0-0.01,0c0,0-0.01,0-0.01,0c0,0-0.01,0-0.01,0c0,0-0.01,0-0.01,0c0,0-0.01,0-0.01,0c0,0-0.01,0-0.01,0c0,0-0.01,0-0.01,0
			c0,0-0.01,0-0.01,0c0,0,0,0-0.01,0c0,0-0.01,0-0.01,0c0,0,0,0,0,0c0,0-0.01,0-0.01,0c0,0,0,0,0,0c0,0-0.01,0-0.01,0h0
			c-0.11,0-0.21,0-0.32-0.01l0,0c0,0-0.01,0-0.01,0c0,0,0,0,0,0c0,0-0.01,0-0.01,0c0,0,0,0,0,0c0,0-0.01,0-0.01,0c0,0-0.01,0-0.01,0
			c0,0,0,0-0.01,0c0,0-0.01,0-0.01,0c0,0,0,0,0,0C8.95,165.17,8.95,165.17,8.94,165.17L8.94,165.17z M12.05,165.19h-0.06v1h0.06
			V165.19L12.05,165.19z M15.1,165.19h-0.05v1h0.05V165.19L15.1,165.19z M18.16,165.19h-3v1h3V165.19L18.16,165.19z M18.27,165.19
			h-0.06v1h0.06V165.19L18.27,165.19z M21.32,165.19h-0.05v1h0.05V165.19L21.32,165.19z M24.38,165.19h-3v1h3V165.19L24.38,165.19z
			 M24.49,165.19h-0.06v1h0.06V165.19L24.49,165.19z M27.54,165.19h-0.05v1h0.05V165.19L27.54,165.19z M30.6,165.19h-3v1h3V165.19
			L30.6,165.19z M30.71,165.19h-0.05v1h0.05V165.19L30.71,165.19z M33.76,165.19h-0.06v1h0.06V165.19L33.76,165.19z M36.82,165.19
			h-3v1h3V165.19L36.82,165.19z M36.93,165.19h-0.05v1h0.05V165.19L36.93,165.19z M39.98,165.19h-0.06v1h0.06V165.19L39.98,165.19z
			 M43.04,165.19h-3v1h3V165.19L43.04,165.19z M43.15,165.19h-0.05v1h0.05V165.19L43.15,165.19z M46.2,165.19h-0.05v1h0.05V165.19
			L46.2,165.19z M49.26,165.19h-3v1h3V165.19L49.26,165.19z M49.37,165.19h-0.05v1h0.05V165.19L49.37,165.19z M52.42,165.19h-0.05v1
			h0.05V165.19L52.42,165.19z M55.48,165.19h-3v1h3V165.19L55.48,165.19z M55.59,165.19h-0.05v1h0.05V165.19L55.59,165.19z
			 M58.64,165.19h-0.05v1h0.05V165.19L58.64,165.19z M61.7,165.19h-3v1h3V165.19L61.7,165.19z M61.81,165.19h-0.05v1h0.05V165.19
			L61.81,165.19z M64.86,165.19h-0.05v1h0.05V165.19L64.86,165.19z M67.92,165.19h-3v1h3V165.19L67.92,165.19z M68.03,165.19h-0.05
			v1h0.05V165.19L68.03,165.19z M71.08,165.19h-0.05v1h0.05V165.19L71.08,165.19z M74.14,165.19h-3v1h3V165.19L74.14,165.19z
			 M74.25,165.19h-0.06v1h0.06V165.19L74.25,165.19z M77.3,165.19h-0.05v1h0.05V165.19L77.3,165.19z M80.36,165.19h-3v1h3V165.19
			L80.36,165.19z M80.47,165.19h-0.05v1h0.05V165.19L80.47,165.19z M83.52,165.19h-0.05v1h0.05V165.19L83.52,165.19z M86.58,165.19
			h-3v1h3V165.19L86.58,165.19z M86.69,165.19h-0.06v1h0.06V165.19L86.69,165.19z M89.74,165.19h-0.05v1h0.05V165.19L89.74,165.19z
			 M92.8,165.19h-3v1h3V165.19L92.8,165.19z M92.91,165.19h-0.05v1h0.05V165.19L92.91,165.19z M95.96,165.19h-0.05v1h0.05V165.19
			L95.96,165.19z M99.02,165.19h-3v1h3V165.19L99.02,165.19z M99.13,165.19h-0.06v1h0.06V165.19L99.13,165.19z M102.18,165.19h-0.05
			v1h0.05V165.19L102.18,165.19z M105.24,165.19h-3v1h3V165.19L105.24,165.19z M105.35,165.19h-0.05v1h0.05V165.19L105.35,165.19z
			 M108.4,165.19h-0.05v1h0.05V165.19L108.4,165.19z M111.46,165.19h-3v1h3V165.19L111.46,165.19z M111.57,165.19h-0.05v1h0.05
			V165.19L111.57,165.19z M114.62,165.19h-0.06v1h0.06V165.19L114.62,165.19z M117.68,165.19h-3v1h3V165.19L117.68,165.19z
			 M117.79,165.19h-0.05v1h0.05V165.19L117.79,165.19z M120.84,165.19h-0.05v1h0.05V165.19L120.84,165.19z M123.9,165.19h-3v1h3
			V165.19L123.9,165.19z M124.01,165.19h-0.05v1h0.05V165.19L124.01,165.19z M127.06,165.19h-0.06v1h0.06V165.19L127.06,165.19z
			 M130.12,165.19h-3v1h3V165.19L130.12,165.19z M130.23,165.19h-0.05v1h0.05V165.19L130.23,165.19z M133.28,165.19h-0.05v1h0.05
			V165.19L133.28,165.19z M136.34,165.19h-3v1h3V165.19L136.34,165.19z M136.45,165.19h-0.05v1h0.05V165.19L136.45,165.19z
			 M139.5,165.19h-0.06v1h0.06V165.19L139.5,165.19z M142.56,165.19h-3v1h3V165.19L142.56,165.19z M142.67,165.19h-0.05v1h0.05
			V165.19L142.67,165.19z M145.72,165.19h-0.05v1h0.05V165.19L145.72,165.19z M148.78,165.19h-3v1h3V165.19L148.78,165.19z
			 M148.89,165.19h-0.05v1h0.05V165.19L148.89,165.19z M151.94,165.19h-0.05v1h0.05V165.19L151.94,165.19z M155,165.19h-3v1h3
			V165.19L155,165.19z M155.11,165.19h-0.05v1h0.05V165.19L155.11,165.19z M158.16,165.19h-0.05v1h0.05V165.19L158.16,165.19z
			 M161.22,165.19h-3v1h3V165.19L161.22,165.19z M161.33,165.19h-0.05v1h0.05V165.19L161.33,165.19z M164.38,165.19h-0.05v1h0.05
			V165.19L164.38,165.19z M167.44,165.19h-3v1h3V165.19L167.44,165.19z M167.55,165.19h-0.05v1h0.05V165.19L167.55,165.19z
			 M170.6,165.19h-0.05v1h0.05V165.19L170.6,165.19z M173.66,165.19h-3v1h3V165.19L173.66,165.19z M173.77,165.19h-0.05v1h0.05
			V165.19L173.77,165.19z M176.82,165.19h-0.05v1h0.05V165.19L176.82,165.19z M179.88,165.19h-3v1h3V165.19L179.88,165.19z
			 M179.99,165.19h-0.05v1h0.05V165.19L179.99,165.19z M183.04,165.19h-0.05v1h0.05V165.19L183.04,165.19z M186.1,165.19h-3v1h3
			V165.19L186.1,165.19z M186.21,165.19h-0.05v1h0.05V165.19L186.21,165.19z M189.26,165.19h-0.05v1h0.05V165.19L189.26,165.19z
			 M192.32,165.19h-3v1h3V165.19L192.32,165.19z M192.43,165.19h-0.05v1h0.05V165.19L192.43,165.19z M195.48,165.19h-0.05v1h0.05
			V165.19L195.48,165.19z M198.54,165.19h-3v1h3V165.19L198.54,165.19z M198.65,165.19h-0.05v1h0.05V165.19L198.65,165.19z
			 M201.7,165.19h-0.05v1h0.05V165.19L201.7,165.19z M204.76,165.19h-3v1h3V165.19L204.76,165.19z M204.87,165.19h-0.05v1h0.05
			V165.19L204.87,165.19z M207.92,165.19h-0.05v1h0.05V165.19L207.92,165.19z M210.98,165.19h-3v1h3V165.19L210.98,165.19z
			 M211.09,165.19h-0.05v1h0.05V165.19L211.09,165.19z M214.14,165.19h-0.05v1h0.05V165.19L214.14,165.19z M217.2,165.19h-3v1h3
			V165.19L217.2,165.19z M217.31,165.19h-0.05v1h0.05V165.19L217.31,165.19z M220.36,165.19h-0.05v1h0.05V165.19L220.36,165.19z
			 M223.42,165.19h-3v1h3V165.19L223.42,165.19z M223.53,165.19h-0.05v1h0.05V165.19L223.53,165.19z M226.58,165.19h-0.05v1h0.05
			V165.19L226.58,165.19z M229.64,165.19h-3v1h3V165.19L229.64,165.19z M229.75,165.19h-0.06v1h0.06V165.19L229.75,165.19z
			 M232.8,165.19h-0.05v1h0.05V165.19L232.8,165.19z M235.86,165.19h-3v1h3V165.19L235.86,165.19z M235.97,165.19h-0.05v1h0.05
			V165.19L235.97,165.19z M239.02,165.19h-0.05v1h0.05V165.19L239.02,165.19z M242.08,165.19h-3v1h3V165.19L242.08,165.19z
			 M242.19,165.19h-0.06v1h0.06V165.19L242.19,165.19z M245.24,165.19h-0.05v1h0.05V165.19L245.24,165.19z M248.3,165.19h-3v1h3
			V165.19L248.3,165.19z M248.41,165.19h-0.05v1h0.05V165.19L248.41,165.19z M251.46,165.19h-0.05v1h0.05V165.19L251.46,165.19z
			 M254.52,165.19h-3v1h3V165.19L254.52,165.19z M254.63,165.19h-0.06v1h0.06V165.19L254.63,165.19z M257.68,165.19h-0.05v1h0.05
			V165.19L257.68,165.19z M260.74,165.19h-3v1h3V165.19L260.74,165.19z M260.85,165.19h-0.05v1h0.05V165.19L260.85,165.19z
			 M263.9,165.19h-0.05v1h0.05V165.19L263.9,165.19z M266.96,165.19h-3v1h3V165.19L266.96,165.19z M267.07,165.19h-0.05v1h0.05
			V165.19L267.07,165.19z M270.12,165.19h-0.06v1h0.06V165.19L270.12,165.19z M273.18,165.19h-3v1h3V165.19L273.18,165.19z
			 M273.29,165.19h-0.05v1h0.05V165.19L273.29,165.19z M276.34,165.19h-0.05v1h0.05V165.19L276.34,165.19z M279.4,165.19h-3v1h3
			V165.19L279.4,165.19z M279.51,165.19h-0.05v1h0.05V165.19L279.51,165.19z M282.56,165.19h-0.06v1h0.06V165.19L282.56,165.19z
			 M285.62,165.19h-3v1h3V165.19L285.62,165.19z M285.73,165.19h-0.05v1h0.05V165.19L285.73,165.19z M288.78,165.19h-0.05v1h0.05
			V165.19L288.78,165.19z M291.84,165.19h-3v1h3V165.19L291.84,165.19z M291.95,165.19h-0.05v1h0.05V165.19L291.95,165.19z
			 M295,165.19h-0.06v1H295V165.19L295,165.19z M298.06,165.19h-3v1h3V165.19L298.06,165.19z M298.17,165.19h-0.05v1h0.05V165.19
			L298.17,165.19z M301.22,165.19h-0.05v1h0.05V165.19L301.22,165.19z M304.28,165.19h-3v1h3V165.19L304.28,165.19z M304.39,165.19
			h-0.05v1h0.05V165.19L304.39,165.19z M307.44,165.19h-0.05v1h0.05V165.19L307.44,165.19z M310.5,165.19h-3v1h3V165.19
			L310.5,165.19z M310.61,165.19h-0.05v1h0.05V165.19L310.61,165.19z M313.66,165.19h-0.05v1h0.05V165.19L313.66,165.19z
			 M316.72,165.19h-3v1h3V165.19L316.72,165.19z M316.83,165.19h-0.05v1h0.05V165.19L316.83,165.19z M319.88,165.19h-0.05v1h0.05
			V165.19L319.88,165.19z M322.94,165.19h-3v1h3V165.19L322.94,165.19z M323.05,165.19h-0.05v1h0.05V165.19L323.05,165.19z
			 M326.1,165.19h-0.05v1h0.05V165.19L326.1,165.19z M329.16,165.19h-3v1h3V165.19L329.16,165.19z M329.27,165.19h-0.05v1h0.05
			V165.19L329.27,165.19z M332.32,165.19h-0.05v1h0.05V165.19L332.32,165.19z M335.38,165.19h-3v1h3V165.19L335.38,165.19z
			 M335.49,165.19h-0.05v1h0.05V165.19L335.49,165.19z M338.54,165.19h-0.05v1h0.05V165.19L338.54,165.19z M341.6,165.19h-3v1h3
			V165.19L341.6,165.19z M341.71,165.19h-0.05v1h0.05V165.19L341.71,165.19z M344.76,165.19h-0.05v1h0.05V165.19L344.76,165.19z
			 M347.82,165.19h-3v1h3V165.19L347.82,165.19z M347.93,165.19h-0.05v1h0.05V165.19L347.93,165.19z M350.98,165.19h-0.05v1h0.05
			V165.19L350.98,165.19z M354.04,165.19h-3v1h3V165.19L354.04,165.19z M354.15,165.19h-0.05v1h0.05V165.19L354.15,165.19z
			 M357.2,165.19h-0.05v1h0.05V165.19L357.2,165.19z M360.26,165.19h-3v1h3V165.19L360.26,165.19z M360.37,165.19h-0.05v1h0.05
			V165.19L360.37,165.19z M363.42,165.19h-0.05v1h0.05V165.19L363.42,165.19z M366.48,165.19h-3v1h3V165.19L366.48,165.19z
			 M366.59,165.19h-0.05v1h0.05V165.19L366.59,165.19z M369.64,165.19h-0.05v1h0.05V165.19L369.64,165.19z M372.7,165.19h-3v1h3
			V165.19L372.7,165.19z M372.81,165.19h-0.05v1h0.05V165.19L372.81,165.19z M375.86,165.19h-0.05v1h0.05V165.19L375.86,165.19z
			 M378.92,165.19h-3v1h3V165.19L378.92,165.19z M379.03,165.19h-0.05v1h0.05V165.19L379.03,165.19z M382.08,165.19h-0.05v1h0.05
			V165.19L382.08,165.19z M385.14,165.19h-3v1h3V165.19L385.14,165.19z M385.25,165.19h-0.06v1h0.06V165.19L385.25,165.19z
			 M388.3,165.19h-0.05v1h0.05V165.19L388.3,165.19z M391.36,165.19h-3v1h3V165.19L391.36,165.19z M391.47,165.19h-0.05v1h0.05
			V165.19L391.47,165.19z M394.52,165.19h-0.05v1h0.05V165.19L394.52,165.19z M397.58,165.19h-3v1h3V165.19L397.58,165.19z
			 M397.69,165.19h-0.06v1h0.06V165.19L397.69,165.19z M400.74,165.19h-0.05v1h0.05V165.19L400.74,165.19z M403.8,165.19h-3v1h3
			V165.19L403.8,165.19z M403.91,165.19h-0.05v1h0.05V165.19L403.91,165.19z M406.96,165.19h-0.05v1h0.05V165.19L406.96,165.19z
			 M410.02,165.19h-3v1h3V165.19L410.02,165.19z M410.13,165.19h-0.06v1h0.06V165.19L410.13,165.19z M413.18,165.19h-0.05v1h0.05
			V165.19L413.18,165.19z M416.24,165.19h-3v1h3V165.19L416.24,165.19z M416.35,165.19h-0.05v1h0.05V165.19L416.35,165.19z
			 M419.4,165.19h-0.05v1h0.05V165.19L419.4,165.19z M422.46,165.19h-3v1h3V165.19L422.46,165.19z M422.57,165.19h-0.05v1h0.05
			V165.19L422.57,165.19z M425.62,165.19h-0.06v1h0.06V165.19L425.62,165.19z M428.68,165.19h-3v1h3V165.19L428.68,165.19z
			 M428.79,165.19h-0.05v1h0.05V165.19L428.79,165.19z M431.84,165.19h-0.05v1h0.05V165.19L431.84,165.19z M434.9,165.19h-3v1h3
			V165.19L434.9,165.19z M435.01,165.19h-0.05v1h0.05V165.19L435.01,165.19z M438.06,165.19h-0.06v1h0.06V165.19L438.06,165.19z
			 M441.12,165.19h-3v1h3V165.19L441.12,165.19z M441.23,165.19h-0.05v1h0.05V165.19L441.23,165.19z M444.28,165.19h-0.05v1h0.05
			V165.19L444.28,165.19z M447.34,165.19h-3v1h3V165.19L447.34,165.19z M447.45,165.19h-0.05v1h0.05V165.19L447.45,165.19z
			 M450.5,165.19h-0.06v1h0.06V165.19L450.5,165.19z M453.56,165.19h-3v1h3V165.19L453.56,165.19z M453.67,165.19h-0.05v1h0.05
			V165.19L453.67,165.19z M456.72,165.19h-0.05v1h0.05V165.19L456.72,165.19z M459.78,165.19h-3v1h3V165.19L459.78,165.19z
			 M459.89,165.19h-0.05v1h0.05V165.19L459.89,165.19z M462.94,165.19h-0.05v1h0.05V165.19L462.94,165.19z M466,165.19h-3v1h3
			V165.19L466,165.19z M466.11,165.19h-0.05v1h0.05V165.19L466.11,165.19z M469.16,165.19h-0.05v1h0.05V165.19L469.16,165.19z
			 M472.22,165.19h-3v1h3V165.19L472.22,165.19z M472.33,165.19h-0.05v1h0.05V165.19L472.33,165.19z M475.38,165.19h-0.05v1h0.05
			V165.19L475.38,165.19z M478.44,165.19h-3v1h3V165.19L478.44,165.19z M478.55,165.19h-0.05v1h0.05V165.19L478.55,165.19z
			 M481.6,165.19h-0.05v1h0.05V165.19L481.6,165.19z M484.66,165.19h-3v1h3V165.19L484.66,165.19z M484.77,165.19h-0.05v1h0.05
			V165.19L484.77,165.19z M487.82,165.19h-0.05v1h0.05V165.19L487.82,165.19z M490.88,165.19h-3v1h3V165.19L490.88,165.19z
			 M490.99,165.19h-0.05v1h0.05V165.19L490.99,165.19z M494.02,164.87c0,0-0.01,0-0.01,0c0,0,0,0-0.01,0c0,0,0,0,0,0
			c-0.01,0-0.02,0.01-0.03,0.01l0.25,0.97l0.06-0.02L494.02,164.87L494.02,164.87z M496.81,163.66c-0.84,0.53-1.76,0.93-2.74,1.19
			l0.26,0.97c1.07-0.28,2.08-0.72,3.02-1.31L496.81,163.66L496.81,163.66z M496.9,163.6c-0.02,0.01-0.03,0.02-0.05,0.03l0.54,0.84
			l0.05-0.03L496.9,163.6L496.9,163.6z M499.18,161.59c-0.01,0.01-0.02,0.03-0.04,0.04l0.76,0.64l0.04-0.05L499.18,161.59
			L499.18,161.59z M500.76,158.98c-0.33,0.8-0.76,1.55-1.28,2.23c0,0,0,0,0,0c0,0.01-0.01,0.01-0.01,0.02c0,0,0,0,0,0
			c0,0-0.01,0.01-0.01,0.01c0,0,0,0,0,0c0,0.01-0.01,0.01-0.01,0.02c0,0,0,0,0,0.01c0,0-0.01,0.01-0.01,0.01c0,0,0,0,0,0.01
			c0,0-0.01,0.01-0.01,0.01c0,0,0,0-0.01,0.01c0,0,0,0.01-0.01,0.01c0,0-0.01,0.01-0.01,0.01c0,0,0,0-0.01,0.01
			c0,0,0,0.01-0.01,0.01c0,0,0,0-0.01,0.01c0,0.01-0.01,0.01-0.01,0.01c0,0,0,0,0,0c-0.01,0.01-0.02,0.02-0.03,0.03c0,0,0,0,0,0
			c-0.04,0.05-0.07,0.09-0.11,0.14l0.77,0.64c0.7-0.85,1.27-1.8,1.69-2.82L500.76,158.98L500.76,158.98z M500.8,158.88
			C500.8,158.88,500.79,158.89,500.8,158.88c-0.01,0.02-0.01,0.02-0.01,0.03c0,0.01-0.01,0.01-0.01,0.02l0.93,0.37l0.02-0.06
			L500.8,158.88L500.8,158.88z M501.47,155.91c0,0.01,0,0.02,0,0.02c0,0,0,0,0,0.01c0,0.01,0,0.02,0,0.03l1,0.08l0-0.06
			L501.47,155.91L501.47,155.91z M502.5,152.86h-1v2.33l0,0l0,0c0,0.01,0,0.01,0,0.02c0,0,0,0,0,0.01c0,0,0,0.01,0,0.01
			c0,0,0,0,0,0.01c0,0.01,0,0.01,0,0.02c0,0,0,0,0,0c0,0.01,0,0.01,0,0.02c0,0,0,0,0,0.01c0,0,0,0.01,0,0.01c0,0,0,0,0,0.01
			c0,0.01,0,0.01,0,0.02c0,0,0,0,0,0c0,0.01,0,0.01,0,0.02c0,0,0,0,0,0c0,0.01,0,0.01,0,0.02c0,0,0,0,0,0.01c0,0,0,0.01,0,0.01
			c0,0,0,0,0,0c0,0.01,0,0.01,0,0.02c0,0,0,0,0,0c0,0.01,0,0.01,0,0.02c0,0,0,0,0,0.01c0,0,0,0.01,0,0.01c0,0,0,0,0,0.01
			c0,0.01,0,0.01,0,0.02c0,0,0,0,0,0c0,0.01,0,0.01,0,0.02c0,0,0,0,0,0.01c0,0,0,0.01,0,0.01c0,0,0,0,0,0.01c0,0,0,0.01,0,0.01
			c0,0,0,0,0,0.01c0,0.01,0,0.01,0,0.02c0,0,0,0,0,0.01c0,0,0,0.01,0,0.01c0,0,0,0,0,0.01c0,0,0,0.01,0,0.01c0,0,0,0,0,0.01
			c0,0,0,0.01,0,0.01c0,0,0,0.01,0,0.01c0,0,0,0,0,0.01c0,0,0,0.01,0,0.01c0,0,0,0,0,0.01c0,0,0,0.01,0,0.01c0,0,0,0,0,0
			c0,0.01,0,0.03,0,0.04c0,0,0,0,0,0c0,0.05-0.01,0.1-0.01,0.15l1,0.07c0.02-0.24,0.02-0.49,0.02-0.74V152.86L502.5,152.86z
			 M502.5,152.75h-1v0.05h1V152.75L502.5,152.75z M502.5,149.69h-1v0.05h1V149.69L502.5,149.69z M502.5,146.64h-1v3h1V146.64
			L502.5,146.64z M502.5,146.53h-1v0.05h1V146.53L502.5,146.53z M502.5,143.47h-1v0.05h1V143.47L502.5,143.47z M502.5,140.42h-1v3h1
			V140.42L502.5,140.42z M502.5,140.31h-1v0.05h1V140.31L502.5,140.31z M502.5,137.25h-1v0.05h1V137.25L502.5,137.25z M502.5,134.2
			h-1v3h1V134.2L502.5,134.2z M502.5,134.09h-1v0.05h1V134.09L502.5,134.09z M502.5,131.03h-1v0.05h1V131.03L502.5,131.03z
			 M502.5,127.98h-1v3h1V127.98L502.5,127.98z M502.5,127.87h-1v0.05h1V127.87L502.5,127.87z M502.5,124.81h-1v0.05h1V124.81
			L502.5,124.81z M502.5,121.76h-1v3h1V121.76L502.5,121.76z M502.5,121.65h-1v0.05h1V121.65L502.5,121.65z M502.5,118.59h-1v0.05h1
			V118.59L502.5,118.59z M502.5,115.54h-1v3h1V115.54L502.5,115.54z M502.5,115.43h-1v0.05h1V115.43L502.5,115.43z M502.5,112.37h-1
			v0.05h1V112.37L502.5,112.37z M502.5,109.32h-1v3h1V109.32L502.5,109.32z M502.5,109.21h-1v0.05h1V109.21L502.5,109.21z
			 M502.5,106.15h-1v0.05h1V106.15L502.5,106.15z M502.5,103.1h-1v3h1V103.1L502.5,103.1z M502.5,102.99h-1v0.05h1V102.99
			L502.5,102.99z M502.5,99.93h-1v0.05h1V99.93L502.5,99.93z M502.5,96.88h-1v3h1V96.88L502.5,96.88z M502.5,96.77h-1v0.05h1V96.77
			L502.5,96.77z M502.5,93.71h-1v0.05h1V93.71L502.5,93.71z M502.5,90.66h-1v3h1V90.66L502.5,90.66z M502.5,90.55h-1v0.05h1V90.55
			L502.5,90.55z M502.5,87.49h-1v0.05h1V87.49L502.5,87.49z M502.5,84.44h-1v3h1V84.44L502.5,84.44z M502.5,84.33h-1v0.06h1V84.33
			L502.5,84.33z M502.5,81.27h-1v0.05h1V81.27L502.5,81.27z M502.5,78.22h-1v3h1V78.22L502.5,78.22z M502.5,78.11h-1v0.06h1V78.11
			L502.5,78.11z M502.5,75.05h-1v0.05h1V75.05L502.5,75.05z M502.5,72h-1v3h1V72L502.5,72z M502.5,71.89h-1v0.06h1V71.89
			L502.5,71.89z M502.5,68.83h-1v0.05h1V68.83L502.5,68.83z M502.5,65.78h-1v3h1V65.78L502.5,65.78z M502.5,65.67h-1v0.06h1V65.67
			L502.5,65.67z M502.5,62.61h-1v0.05h1V62.61L502.5,62.61z M502.5,59.56h-1v3h1V59.56L502.5,59.56z M502.5,59.45h-1v0.06h1V59.45
			L502.5,59.45z M502.5,56.39h-1v0.05h1V56.39L502.5,56.39z M502.5,53.34h-1v3h1V53.34L502.5,53.34z M502.5,53.23h-1v0.06h1V53.23
			L502.5,53.23z M502.5,50.17h-1v0.05h1V50.17L502.5,50.17z M502.5,47.12h-1v3h1V47.12L502.5,47.12z M502.5,47.01h-1v0.05h1V47.01
			L502.5,47.01z M502.5,43.95h-1v0.06h1V43.95L502.5,43.95z M502.5,40.9h-1v3h1V40.9L502.5,40.9z M502.5,40.79h-1v0.05h1V40.79
			L502.5,40.79z M502.5,37.73h-1v0.06h1V37.73L502.5,37.73z M502.5,34.68h-1v3h1V34.68L502.5,34.68z M502.5,34.57h-1v0.05h1V34.57
			L502.5,34.57z M502.5,31.51h-1v0.06h1V31.51L502.5,31.51z M502.5,28.46h-1v3h1V28.46L502.5,28.46z M502.5,28.35h-1v0.05h1V28.35
			L502.5,28.35z M502.5,25.29h-1v0.06h1V25.29L502.5,25.29z M502.5,22.24h-1v3h1V22.24L502.5,22.24z M502.5,22.13h-1v0.05h1V22.13
			L502.5,22.13z M502.5,19.07h-1v0.06h1V19.07L502.5,19.07z M502.5,16.02h-1v3h1V16.02L502.5,16.02z M502.5,15.91h-1v0.05h1V15.91
			L502.5,15.91z M502.5,12.85h-1v0.06h1V12.85L502.5,12.85z M502.29,9.61l-0.98,0.2c0.02,0.08,0.03,0.15,0.04,0.23l0,0
			c0,0.01,0,0.01,0,0.01c0,0,0,0,0,0c0,0,0,0.01,0,0.01c0,0,0,0,0,0c0,0,0,0.01,0,0.01c0,0,0,0,0,0.01c0,0,0,0.01,0,0.01
			c0,0,0,0.01,0,0.01c0,0,0,0,0,0.01c0,0,0,0.01,0,0.01c0,0,0,0,0,0c0,0,0,0.01,0,0.01c0,0,0,0,0,0c0,0,0,0.01,0,0.01c0,0,0,0,0,0
			c0,0,0,0.01,0,0.01c0,0,0,0,0,0c0.06,0.38,0.1,0.77,0.12,1.17c0,0,0,0,0,0c0,0,0,0.01,0,0.01c0,0,0,0,0,0c0,0,0,0.01,0,0.01
			c0,0,0,0,0,0c0,0,0,0.01,0,0.01c0,0,0,0,0,0c0,0,0,0.01,0,0.01c0,0,0,0,0,0c0,0,0,0.01,0,0.01c0,0,0,0,0,0c0,0,0,0.01,0,0.01
			c0,0,0,0,0,0c0,0,0,0.01,0,0.01c0,0,0,0,0,0c0,0,0,0.01,0,0.01c0,0,0,0,0,0.01c0,0,0,0.01,0,0.01c0,0,0,0,0,0c0,0,0,0.01,0,0.01
			c0,0,0,0,0,0c0,0,0,0.01,0,0.01c0,0,0,0,0,0.01c0,0,0,0.01,0,0.01c0,0,0,0,0,0.01c0,0,0,0.01,0,0.01c0,0,0,0,0,0.01
			c0,0,0,0.01,0,0.01c0,0,0,0,0,0.01c0,0,0,0.01,0,0.01c0,0,0,0,0,0.01c0,0,0,0.01,0,0.01c0,0,0,0,0,0.01c0,0,0,0.01,0,0.01
			c0,0,0,0.01,0,0.01c0,0,0,0.01,0,0.01c0,0,0,0.01,0,0.01c0,0,0,0.01,0,0.01c0,0,0,0,0,0.01c0,0,0,0.01,0,0.01c0,0,0,0.01,0,0.01
			c0,0,0,0.01,0,0.01c0,0,0,0.01,0,0.01c0,0,0,0.01,0,0.01c0,0,0,0.01,0,0.01c0,0,0,0.01,0,0.01c0,0,0,0.01,0,0.01c0,0,0,0,0,0.01
			c0,0,0,0.01,0,0.01c0,0,0,0,0,0.01c0,0.01,0,0.01,0,0.02c0,0,0,0,0,0c0,0.01,0,0.02,0,0.03v1.02h1v-1.02
			C502.5,11.05,502.43,10.32,502.29,9.61L502.29,9.61z M502.26,9.5l-0.98,0.21c0,0.01,0.01,0.03,0.01,0.04c0,0,0,0.01,0,0.01
			l0.98-0.2L502.26,9.5L502.26,9.5z M501.08,6.36l-0.87,0.49c0,0.01,0.01,0.01,0.01,0.02c0,0.01,0.01,0.01,0.01,0.02
			c0,0,0,0.01,0.01,0.01l0.87-0.49L501.08,6.36L501.08,6.36z M499,3.74l-0.68,0.73c0.28,0.26,0.55,0.54,0.8,0.84c0,0,0,0,0,0
			c0.01,0.01,0.02,0.02,0.03,0.03c0,0,0,0,0,0c0,0.01,0.01,0.01,0.01,0.02c0,0,0,0,0,0.01c0,0,0,0.01,0.01,0.01c0,0,0,0,0.01,0.01
			c0,0,0.01,0.01,0.01,0.01c0,0,0,0.01,0.01,0.01c0,0,0,0,0.01,0.01c0,0,0.01,0.01,0.01,0.01c0,0,0,0.01,0.01,0.01
			c0,0,0,0.01,0.01,0.01c0,0,0,0,0.01,0.01c0,0,0.01,0.01,0.01,0.01c0,0,0,0,0.01,0.01c0,0,0.01,0.01,0.01,0.01c0,0,0,0,0,0.01
			c0,0,0.01,0.01,0.01,0.01c0,0,0,0,0.01,0.01c0,0,0.01,0.01,0.01,0.01c0,0,0,0,0,0.01c0,0,0.01,0.01,0.01,0.01c0,0,0,0,0.01,0.01
			c0,0,0.01,0.01,0.01,0.01c0,0,0,0,0.01,0.01c0,0,0.01,0.01,0.01,0.01c0,0,0,0,0.01,0.01c0,0,0.01,0.01,0.01,0.01c0,0,0,0,0,0
			c0,0,0.01,0.01,0.01,0.01c0,0,0,0,0,0c0,0,0.01,0.01,0.01,0.02c0,0,0,0,0,0c0,0,0.01,0.01,0.01,0.01c0,0,0,0,0,0
			c0,0.01,0.01,0.01,0.01,0.02c0,0,0,0,0,0c0,0,0.01,0.01,0.01,0.01c0,0,0,0,0,0c0,0.01,0.01,0.01,0.01,0.02c0,0,0,0,0,0
			c0,0.01,0.01,0.01,0.01,0.02c0,0,0,0,0,0c0,0,0.01,0.01,0.01,0.01c0,0,0,0,0,0c0,0.01,0.01,0.01,0.01,0.02c0,0,0,0,0,0
			c0,0,0.01,0.01,0.01,0.01c0,0,0,0,0,0c0,0.01,0.01,0.01,0.01,0.02c0,0,0,0,0,0c0,0.01,0.01,0.01,0.01,0.01c0,0,0,0,0,0
			c0,0.01,0.01,0.01,0.01,0.02c0,0,0,0,0,0.01c0,0,0.01,0.01,0.01,0.01c0,0,0,0,0,0.01c0,0,0.01,0.01,0.01,0.01c0,0,0,0,0.01,0.01
			c0,0,0.01,0.01,0.01,0.01c0,0,0,0,0,0.01c0,0,0.01,0.01,0.01,0.01c0,0,0,0,0,0.01c0,0,0.01,0.01,0.01,0.01c0,0,0,0,0,0.01
			c0,0,0,0.01,0.01,0.01c0,0,0,0,0.01,0.01c0,0,0.01,0.01,0.01,0.01c0,0,0,0,0.01,0.01c0,0,0,0.01,0.01,0.01c0,0,0,0.01,0.01,0.01
			c0,0,0.01,0.01,0.01,0.01c0,0,0,0.01,0.01,0.01c0,0,0,0.01,0.01,0.01c0,0,0.01,0.01,0.01,0.01c0,0,0,0,0,0.01
			c0,0,0,0.01,0.01,0.01c0,0,0,0,0,0.01c0,0.01,0.01,0.01,0.01,0.02c0,0,0,0,0,0.01c0.01,0.01,0.02,0.02,0.02,0.03c0,0,0,0,0,0
			c0.01,0.01,0.02,0.02,0.02,0.04c0,0,0,0,0,0c0.15,0.22,0.29,0.44,0.42,0.67l0.87-0.5C500.5,5.36,499.81,4.49,499,3.74L499,3.74z
			 M498.91,3.65l-0.67,0.74c0.01,0.01,0.03,0.02,0.04,0.04l0.68-0.73L498.91,3.65L498.91,3.65z M496.13,1.8l-0.42,0.91
			c0.01,0,0.01,0.01,0.02,0.01c0.01,0.01,0.02,0.01,0.03,0.02l0.43-0.9L496.13,1.8L496.13,1.8z M492.91,0.87l-0.13,0.99
			c0.16,0.02,0.33,0.05,0.49,0.07c0,0,0,0,0,0c0.01,0,0.01,0,0.01,0h0c0.01,0,0.02,0,0.03,0.01c0,0,0,0,0,0c0,0,0.01,0,0.01,0
			c0,0,0,0,0,0c0.01,0,0.02,0,0.03,0.01c0,0,0,0,0,0c0,0,0.01,0,0.01,0c0,0,0,0,0,0c0.01,0,0.02,0,0.02,0c0,0,0,0,0.01,0
			c0,0,0.01,0,0.01,0c0,0,0,0,0.01,0c0.01,0,0.01,0,0.02,0c0,0,0,0,0.01,0c0,0,0.01,0,0.01,0c0,0,0.01,0,0.01,0
			c0.01,0,0.01,0,0.02,0c0,0,0.01,0,0.01,0c0,0,0.01,0,0.01,0c0,0,0.01,0,0.01,0c0.01,0,0.01,0,0.02,0c0,0,0,0,0.01,0
			c0,0,0.01,0,0.01,0c0.01,0,0.01,0,0.02,0c0,0,0.01,0,0.01,0c0,0,0.01,0,0.01,0c0,0,0.01,0,0.01,0c0.01,0,0.01,0,0.02,0
			c0,0,0.01,0,0.01,0c0,0,0.01,0,0.01,0c0,0,0.01,0,0.01,0c0.01,0,0.01,0,0.02,0c0,0,0.01,0,0.01,0c0,0,0.01,0,0.01,0
			c0,0,0.01,0,0.01,0c0,0,0.01,0,0.01,0c0,0,0.01,0,0.01,0c0,0,0.01,0,0.01,0c0,0,0.01,0,0.01,0c0,0,0.01,0,0.01,0
			c0,0,0.01,0,0.01,0c0,0,0.01,0,0.01,0c0.01,0,0.01,0,0.02,0c0,0,0.01,0,0.01,0c0,0,0.01,0,0.01,0c0,0,0.01,0,0.01,0
			c0.01,0,0.01,0,0.02,0c0,0,0.01,0,0.01,0c0,0,0.01,0,0.01,0c0,0,0.01,0,0.01,0c0.01,0,0.01,0,0.02,0c0,0,0.01,0,0.01,0
			c0,0,0.01,0,0.01,0c0,0,0.01,0,0.01,0c0.01,0,0.01,0,0.02,0c0,0,0.01,0,0.01,0c0,0,0.01,0,0.01,0c0,0,0.01,0,0.01,0
			c0.01,0,0.01,0,0.02,0c0,0,0.01,0,0.01,0c0,0,0.01,0,0.01,0c0,0,0.01,0,0.01,0c0.01,0,0.01,0,0.02,0c0,0,0.01,0,0.01,0
			c0,0,0.01,0,0.01,0c0,0,0.01,0,0.01,0c0.01,0,0.01,0,0.02,0c0,0,0,0,0.01,0c0,0,0.01,0,0.01,0c0,0,0,0,0,0
			c0.01,0,0.02,0,0.02,0.01c0,0,0.01,0,0.01,0c0,0,0.01,0,0.01,0c0,0,0,0,0,0c0.01,0,0.02,0,0.02,0.01c0,0,0,0,0.01,0
			c0.01,0,0.03,0.01,0.04,0.01c0,0,0,0,0.01,0c0.01,0,0.03,0.01,0.04,0.01c0,0,0,0,0,0c0.01,0,0.03,0.01,0.04,0.01c0,0,0,0,0,0
			c0.01,0,0.03,0.01,0.04,0.01c0,0,0,0,0,0c0.01,0,0.03,0.01,0.04,0.01c0,0,0,0,0,0c0.03,0.01,0.06,0.02,0.09,0.03c0,0,0,0,0,0
			c0.31,0.1,0.62,0.21,0.92,0.34c0,0,0,0,0,0c0.01,0.01,0.03,0.01,0.04,0.02c0,0,0,0,0,0c0.01,0.01,0.03,0.01,0.04,0.02c0,0,0,0,0,0
			c0.01,0.01,0.03,0.01,0.04,0.02c0,0,0,0,0,0c0.01,0.01,0.03,0.01,0.04,0.02c0,0,0,0,0,0c0.01,0,0.01,0.01,0.02,0.01c0,0,0,0,0,0
			c0,0,0.01,0,0.01,0c0,0,0,0,0.01,0c0.01,0,0.01,0,0.02,0.01c0,0,0.01,0,0.01,0c0,0,0.01,0,0.01,0c0,0,0,0,0.01,0
			c0,0,0.01,0,0.01,0l0.42-0.91C495.07,1.32,494.01,1.01,492.91,0.87L492.91,0.87z M492.79,0.86l-0.12,0.99c0.02,0,0.03,0,0.05,0.01
			c0,0,0,0,0.01,0l0.12-0.99L492.79,0.86L492.79,0.86z"/>
	</g>
</g>
<path class="st3" d="M489.5,139.5c0,8.28-6.72,15-15,15"/>
<path class="st3" d="M489.5,25.41c0-8.28-6.72-15-15-15"/>
<path class="st3" d="M9.86,139.5c0,8.28,6.72,15,15,15"/>
<path class="st3" d="M9.86,25.41c0-8.28,6.72-15,15-15"/>
</svg>
