<?xml version="1.0" encoding="utf-8"?>
<!-- Generator: Adobe Illustrator 23.0.0, SVG Export Plug-In . SVG Version: 6.00 Build 0)  -->
<svg version="1.1" xmlns="http://www.w3.org/2000/svg" xmlns:xlink="http://www.w3.org/1999/xlink" x="0px" y="0px"
	 viewBox="0 0 1055 222" style="enable-background:new 0 0 1055 222;" xml:space="preserve">
<style type="text/css">
	.st0{enable-background:new    ;}
	.st1{fill:#44D047;}
	.st2{opacity:0.702;enable-background:new    ;}
	.st3{fill-rule:evenodd;clip-rule:evenodd;fill:#44D047;}
	.st4{opacity:0.502;enable-background:new    ;}
</style>
<g id="形状_1_1_" class="st0">
	<g id="形状_1">
		<g>
			<rect x="234" y="129.43" class="st1" width="500" height="4.16"/>
		</g>
	</g>
</g>
<g id="矩形_1_11_" class="st0">
	<g id="矩形_1">
		<g>
			<polygon class="st1" points="223,111 216,111 233,134 240,134 			"/>
		</g>
	</g>
</g>
<g id="矩形_1_10_" class="st2">
	<g id="矩形_1_1_">
		<g>
			<path class="st3" d="M201,117l12,17h7l-12.75-17H201z M223,111h-7l17,23h7L223,111z"/>
		</g>
	</g>
</g>
<g id="矩形_1_9_" class="st4">
	<g id="矩形_1_2_">
		<g>
			<polygon class="st1" points="193,123 186,123 194,135 201,135 			"/>
		</g>
	</g>
</g>
<g id="矩形_1_8_" class="st0">
	<g id="矩形_1_3_">
		<g>
			<polygon class="st1" points="744,110 727,133 734,133 751,110 			"/>
		</g>
	</g>
</g>
<g id="矩形_1_7_" class="st2">
	<g id="矩形_1_4_">
		<g>
			<path class="st3" d="M759.75,116L747,133h7l12-17H759.75z M744,110l-17,23h7l17-23H744z"/>
		</g>
	</g>
</g>
<g id="矩形_1_6_" class="st4">
	<g id="矩形_1_5_">
		<g>
			<polygon class="st1" points="774,122 766,134 773,134 781,122 			"/>
		</g>
	</g>
</g>
</svg>
